<svg xmlns="http://www.w3.org/2000/svg" xmlns:xlink="http://www.w3.org/1999/xlink" viewBox="0 0 71.12 59"><defs><style>.cls-1{mask:url(#mask);filter:url(#luminosity-noclip-2);}.cls-16,.cls-17,.cls-2,.cls-6,.cls-7,.cls-8{mix-blend-mode:multiply;}.cls-2{fill:url(#radial-gradient);}.cls-3{isolation:isolate;}.cls-4{fill:#00b0ef;}.cls-5{fill:#0065d0;}.cls-6{fill:url(#radial-gradient-2);}.cls-7{fill:#84d1f6;}.cls-8{fill:#1cb6f0;opacity:0.3;}.cls-9{fill:#72bb32;}.cls-10{fill:#098137;}.cls-11,.cls-14{mix-blend-mode:screen;}.cls-11{opacity:0.4;}.cls-12{fill:#b8d424;}.cls-13{mask:url(#mask-2);}.cls-14{fill:url(#radial-gradient-3);}.cls-15,.cls-18{fill:#fff;}.cls-15{mix-blend-mode:overlay;}.cls-16{fill:#22613c;opacity:0.7;}.cls-17{fill:#114a9d;}.cls-19{fill:#215a8c;}.cls-20{fill:#dbf1fc;}.cls-21{filter:url(#luminosity-noclip);}</style><filter id="luminosity-noclip" x="9.82" y="-8398.04" width="43" height="32766" filterUnits="userSpaceOnUse" color-interpolation-filters="sRGB"><feFlood flood-color="#fff" result="bg"/><feBlend in="SourceGraphic" in2="bg"/></filter><mask id="mask" x="9.82" y="-8398.04" width="43" height="32766" maskUnits="userSpaceOnUse"><g class="cls-21"/></mask><radialGradient id="radial-gradient" cx="63.99" cy="58.39" r="64.27" gradientTransform="translate(-0.52 -1.15) scale(1 0.99)" gradientUnits="userSpaceOnUse"><stop offset="0"/><stop offset="0.37" stop-color="#020202"/><stop offset="0.51" stop-color="#090909"/><stop offset="0.6" stop-color="#141414"/><stop offset="0.68" stop-color="#252525"/><stop offset="0.75" stop-color="#3b3b3b"/><stop offset="0.8" stop-color="#575757"/><stop offset="0.86" stop-color="#777"/><stop offset="0.91" stop-color="#9d9d9d"/><stop offset="0.95" stop-color="#c8c8c8"/><stop offset="0.99" stop-color="#f6f6f6"/><stop offset="1" stop-color="#fff"/></radialGradient><radialGradient id="radial-gradient-2" cx="25.17" cy="20.79" r="41.54" gradientTransform="translate(-0.52 -1.15) scale(1 0.99)" gradientUnits="userSpaceOnUse"><stop offset="0" stop-color="#fff"/><stop offset="0.39" stop-color="#fdfdfd"/><stop offset="0.53" stop-color="#f6f6f6"/><stop offset="0.63" stop-color="#ebebeb"/><stop offset="0.71" stop-color="#dadada"/><stop offset="0.77" stop-color="#c4c4c4"/><stop offset="0.84" stop-color="#a8a8a8"/><stop offset="0.89" stop-color="#888"/><stop offset="0.94" stop-color="#626262"/><stop offset="0.99" stop-color="#393939"/><stop offset="1" stop-color="#2b2b2b"/></radialGradient><filter id="luminosity-noclip-2" x="9.82" y="0.69" width="43" height="47.07" filterUnits="userSpaceOnUse" color-interpolation-filters="sRGB"><feFlood flood-color="#fff" result="bg"/><feBlend in="SourceGraphic" in2="bg"/></filter><mask id="mask-2" x="9.82" y="0.69" width="43" height="47.07" maskUnits="userSpaceOnUse"><g class="cls-1"><path class="cls-2" d="M52.4,6.38C49.29,3.61,48.34,2.13,42,1A28.16,28.16,0,0,0,11.56,18.8a26.32,26.32,0,0,0-1.68,7.36,35.79,35.79,0,0,0,2.37,14.21,12.88,12.88,0,0,0,5.87,7.3c.75.42,1.62-.71,1.4-1.39-1.19-3.74.61-7.24,1.93-10.69.81-2.12,1.8-4.26,1.15-6.55s-4-2.18-5.41-3.88.77-4.32,1.71-5.48c1.9-2.34,3.86-2.87,6.68-2,5.07,1.59,6-6.14,10.25-6.22,1.35,0,2.43,1.31,3.53,1.9a4.91,4.91,0,0,0,3,.61A5.66,5.66,0,0,0,45.1,12.4a25.94,25.94,0,0,1,4.57-3C50.83,8.74,53.94,7.74,52.4,6.38Z"/></g></mask><radialGradient id="radial-gradient-3" cx="63.99" cy="58.39" r="64.27" gradientTransform="translate(-0.52 -1.15) scale(1 0.99)" gradientUnits="userSpaceOnUse"><stop offset="0" stop-color="#2b2b2b"/><stop offset="0.39" stop-color="#2d2d2d"/><stop offset="0.53" stop-color="#343434"/><stop offset="0.63" stop-color="#3f3f3f"/><stop offset="0.71" stop-color="#505050"/><stop offset="0.77" stop-color="#666"/><stop offset="0.84" stop-color="#828282"/><stop offset="0.89" stop-color="#a2a2a2"/><stop offset="0.94" stop-color="#c8c8c8"/><stop offset="0.99" stop-color="#f1f1f1"/><stop offset="1" stop-color="#fff"/></radialGradient></defs><g class="cls-3"><g id="Layer_2" data-name="Layer 2"><g id="Layer_2-2" data-name="Layer 2"><path class="cls-4" d="M67.59,29.55A29.17,29.17,0,1,1,38.42.49,29.11,29.11,0,0,1,67.59,29.55Z"/><path class="cls-5" d="M67.64,29.55s0,.18,0,.52,0,.86-.06,1.53a27.8,27.8,0,0,1-.95,5.72A29.83,29.83,0,0,1,63,45.58,29.3,29.3,0,0,1,54.84,54a31,31,0,0,1-6,3.13,28.34,28.34,0,0,1-7.06,1.67A29.1,29.1,0,0,1,26.5,56.35,30.06,30.06,0,0,1,14,45.7,29.69,29.69,0,0,1,9,29.55a31.18,31.18,0,0,1,.27-4.31,30.47,30.47,0,0,1,.9-4.22,29.28,29.28,0,0,1,3.61-7.77A29.58,29.58,0,0,1,26.4,2.53,28.53,28.53,0,0,1,34.1.31C34.75.23,35.4.13,36.05.1c.32,0,.65-.06,1-.07l1,0c.67,0,1.27,0,1.91,0s1.27.08,1.89.16a28.82,28.82,0,0,1,7.06,1.71,30,30,0,0,1,6,3.15A29.46,29.46,0,0,1,66.62,21.77a27.87,27.87,0,0,1,.95,5.73c.06.66,0,1.18.06,1.52S67.64,29.55,67.64,29.55Zm-.1,0s0-.18,0-.52,0-.86-.07-1.52a28.41,28.41,0,0,0-1-5.69A25.4,25.4,0,0,0,65,18a27.86,27.86,0,0,0-2.37-4.21,29.38,29.38,0,0,0-21-12.58c-.6-.08-1.2-.1-1.81-.15l-.94,0H38l-.94,0-.93.07c-.63,0-1.25.13-1.88.21a27.44,27.44,0,0,0-3.76.82c-.63.16-1.24.39-1.86.59s-1.23.45-1.83.73A28.89,28.89,0,0,0,9.52,29.55a30,30,0,0,0,.27,4.23,28.06,28.06,0,0,0,4.45,11.75A28.5,28.5,0,0,0,26.71,55.88c.6.27,1.23.48,1.84.72s1.25.42,1.88.57a28.12,28.12,0,0,0,3.8.77c.63.07,1.26.16,1.89.19.31,0,.62,0,.93,0l1,0c.62,0,1.24,0,1.85,0s1.23-.08,1.83-.16A29.89,29.89,0,0,0,54.42,53.4a29.52,29.52,0,0,0,8.22-8A27.12,27.12,0,0,0,65,41.14a24,24,0,0,0,1.42-3.87,27.52,27.52,0,0,0,1-5.68c.07-.66.06-1.17.07-1.52S67.54,29.55,67.54,29.55Z"/><path class="cls-6" d="M67.59,29.37A29.17,29.17,0,1,1,38.42.31,29.11,29.11,0,0,1,67.59,29.37Z"/><path class="cls-7" d="M31.61,57.35c.33.18.65.39,1,.56a2.16,2.16,0,0,0,.34.17l.51.09.69-1.36a4,4,0,0,0-.23-.69,6.22,6.22,0,0,1-.51-1.32,2.94,2.94,0,0,1,.4-2.31c.61-.83,1.69-1.75,1.85-2.8a1.92,1.92,0,0,1,.22-.75c.75-1.07,1.81-1.89,2.62-2.92a13.87,13.87,0,0,0,2-4.33c.52-1.42,2-2.73,1.93-4.33-.13-2.12-2.49-2.24-4-3S35,32.82,34,31.24s-1.33-3.81-2.8-4.76c-.69-.45-.94,0-1.55-.1s-.86-.34-1.3-.46c-1.38-.37-2.55.82-3.41,1.69-.35.35-1.52,1.56-2.07.83-.91-1.22-1.41-4.43,1-3.93,1.39.29,3.15-1.06,2.46-2.57-.29-.62-.8-.71-1.34-.89a2.5,2.5,0,0,1-1.38-.79c-.36-.5.49-1.06.83-1.19.88-.34,2.57-.87,3.38-.11.53.51,1.34,1.79,2.14,1.67,1.7-.27,1.53-1.4,2-2.5S34.07,17,35.23,17c1.77,0,3.45-.47,5.17.13,1.38.48,1.76-.72,2.22-1.79.29-.67.56-1.36.83-2A12.64,12.64,0,0,0,44.33,11a2.93,2.93,0,0,0-3-3.13c-2,0-4,.47-6.08.17a2.68,2.68,0,0,1-1.81-.82c-.66-.8-1-1.92-2.19-2a.26.26,0,0,1-.19-.39c.82-1.45,2.19-1.14,3.55-1.73A3.67,3.67,0,0,0,36.39.56a29.19,29.19,0,0,0-24.11,16.1c.75,0,1.86.06,2.2.62a2.27,2.27,0,0,1,.35,1.19,1.61,1.61,0,0,0,1.3,1.66c2.59,1,1.44,5.31,3,7.1.64.72,2.41,2.76.51,3.28a12,12,0,0,1-2.24.18c-2.71.25-.11,2.73.78,3.53,1.86,1.68.75,2.8-.48,4.57-.69,1,1.14,2.23,1.52,3.3a20.13,20.13,0,0,1,.65,4.82c.18,1.59,1.09,1.34,2,2a10.4,10.4,0,0,1,1.52,1.37,30.47,30.47,0,0,1,3.27,3.64c.79,1.2,2.44,1.75,3.63,2.52C30.45,56.53,31,56.89,31.61,57.35Z"/><path class="cls-7" d="M54.58,5.36c-1,1.1-1.73,2.3-.62,3.52.64.7,1.82,1.51,1.43,2.58a1.82,1.82,0,0,1-1.29.83c-1.64.29-1.39,2.5-1.34,3.76a14.15,14.15,0,0,1-.1,2.91c-.34,2.19,2.1,1.48,3.21.65.1-.08.32-.17.4,0a3.62,3.62,0,0,1,.34,1.56c.09,1.48,1.3,1,2.24.7s1.62-.44,2.29.31-.23,1.74,1.17,2a1.78,1.78,0,0,1,1.21.79c.73.88-.29,2.34-.55,3.15-.06.2-.26.41-.48.29-1.11-.65-3.06-2.27-3.91-.56-.23.46-.57.93-1.17.84-1.11-.15-3.23-1.9-3.86-.15a8.66,8.66,0,0,1-.89,2.13,3.67,3.67,0,0,1-2.42,1.48c-2.64.7-.85,2.46-.51,3.92A10.48,10.48,0,0,0,50.21,38c.39.91,1.32.32,1.88.25a1.73,1.73,0,0,1,1.57.44c.89.93,2.26,2.35,1.36,3.69-.31.46-.73.84-1,1.31-.74,1.17-.09,1.7.53,2.5a2.07,2.07,0,0,1,.47,2,3.6,3.6,0,0,1-.79,1.24,6.19,6.19,0,0,0-1.11,2.33,4.87,4.87,0,0,1-1,2.29c-1.16,1.1-2.85,1.14-3.88,2.46-.14.17-.26.35-.39.53a29,29,0,0,0,6.77-51.7Zm5.23,9.82A5.77,5.77,0,0,1,58,17.64c-.13.1-.38.16-.43-.06a2.68,2.68,0,0,1,.19-2.18,2,2,0,0,1,1.84-.77c.2,0,.25.17.2.33A.34.34,0,0,1,59.81,15.18Z"/><path class="cls-8" d="M23.12,20.5c-2.46-1-2.73-3.6-4-5.6A6.59,6.59,0,0,0,15.22,12a28.3,28.3,0,0,0-2.35,3.58c3.09-.2,5.94,1.28,6.14,5.2a13,13,0,0,1-2,7.31c-1.52,2.66-3.95,5.85-4,9,0,1.58,1.22,5.69,3.65,4.24a21,21,0,0,0,2.87-2.47c.8-.71,3-2.38,4-1,1.44,2.09-.25,4.9,1.66,7,3.46,3.85,5.8-2,7.09-4.55.73-1.44,1.77-3.2,3.49-3.6a5.45,5.45,0,0,1,2.41,0c2.1.38,3-2.26,2.88-3.83s-1.64-7.29,1-8C44,24.33,45,25.92,46.3,27c2.25,1.82,4.87-1.47,2.23-3a8,8,0,0,0-3.78-.93c-2.53-.11-8,.36-8.07-3.45,0-2.18,1.11-4.15,1.09-6.32,0-4.24-3.41-1.18-5.14.25-1.2,1-2.78,1.76-4.15.58a6.49,6.49,0,0,1-1.21-2c-.21-.39-.49-1.06-.89-1.28-1.56-.84-1.6,1.7-1.56,2.26.14,2,.84,3.79.36,5.77C25,19.65,24.11,20.9,23.12,20.5Z"/><path class="cls-8" d="M13.57,27.07c1.19-1.71,2.43-3.84,1.65-6-.91-2.47-2.94-2.81-4.38-1A28.76,28.76,0,0,0,9.65,34.32C10.37,31.46,11.91,29.46,13.57,27.07Z"/><path class="cls-8" d="M38.42.49A29,29,0,0,0,26.62,3c.85,2.88,2.37,5.29,6.07,4.84,3.07-.38,5.69-2.35,8.83-1.39a4,4,0,0,1,2.63,4.12,8.62,8.62,0,0,1-1,3.41c-.48,1-1.45,2.8-.39,3.91a3.42,3.42,0,0,0,3.74.89c3.15-1.29.45-5.08,1.36-7.32,1.25-3,5.66-4.59,8.5-2.9,3.18,1.89,2.32,5.64,0,7.85-1.78,1.66-6.56,5.18-2.61,7.3,1.9,1,4,.91,6,1.66,3.38,1.28,3.84,4.27,1.58,6.94A8.48,8.48,0,0,1,56.13,35c-2.79.46-5.54-1.81-8.3-.69-7,2.85,3.93,14.78-5.31,17.33-3.13.87-3.45-3.31-4.3-5.2-1.4-3.1-3.44-.63-4.23,1.43-.63,1.63-1,3.35-1.7,5-1.37,3.28-4.58,2.79-6.45.27-1.48-2-2.62-5.49-5.66-5.23a24.73,24.73,0,0,1-4.15.32A29.12,29.12,0,1,0,38.42.49Z"/><path class="cls-9" d="M27.54,17.12c.79.18,1.07,1.13,1.42,1.72,1.08,1.84,1.3-.1,1.75-.85s.3-1.22,1.16-1.62a10.5,10.5,0,0,1,2.72-.72,14.07,14.07,0,0,1,3.72-.23c2,.21,3.28.42,4.2-2,.44-1.16,1.27-3.52-.66-4a7.85,7.85,0,0,0-3.79.16,7.6,7.6,0,0,1-3.73,0c-1-.27-1.63-1.26-2.64-1.6a5.84,5.84,0,0,1-2.32-1.05c-1.21-1.26.4-2.69,1.47-3.37a3.77,3.77,0,0,1,1.41-.32,3.88,3.88,0,0,0,3.07-2.12l.3-.45A29.14,29.14,0,0,0,12.69,15.87a.78.78,0,0,0,.55.19,1.93,1.93,0,0,1,.48,0c.31.09.81.2,1,.53.49,1,.49,2.81,2,2.95a2.16,2.16,0,0,1,1.16.35c1.09.78.52,2.52.9,3.63a30.87,30.87,0,0,0,2.65,6.2.56.56,0,0,1-.25.75,18.21,18.21,0,0,1-3.17.73c-2.25.56,1.37,2.75,1.78,3.24,1.78,2.09-.07,3.24-1.47,4.64a6,6,0,0,1,2,3.44c.41,2.26.34,4.67,2.18,6.35,1.66,1.51,3.39,2.79,4.91,4.46,1.73,1.92,3.88,2.72,6.07,3.81-.43-1.2-1.92-2.36-1.45-3.66.58-1.57,2.05-2.38,2.39-4.11a3.24,3.24,0,0,1,1.42-1.7,5.9,5.9,0,0,0,2.45-2.79,24.6,24.6,0,0,1,3-6.19c2.59-3.85-6.72-3.5-7.82-6.42-.88-2.32-2.79-5.2-5.7-5.09-1.53.06-2.53,1.54-4,2-.18.43-.4.78-.73.88-.66.2-1.05-.58-1.37-1a3.68,3.68,0,0,1-1-2.94c.28-1.15.93-2.14,1.26-3.27-.48-.33-1.5-.76-1.58-1.15a10,10,0,0,1,0-2.51.64.64,0,0,1,.43-.59C22.88,17.89,25.39,16.62,27.54,17.12Z"/><path class="cls-10" d="M27.54,17.12a1.72,1.72,0,0,1,1,1,6.21,6.21,0,0,0,.76,1.26l.13.12a1.29,1.29,0,0,0,.16.09A.33.33,0,0,0,30,19.5a2,2,0,0,0,.36-.64c.09-.23.17-.46.28-.69a5.72,5.72,0,0,0,.32-.66,3.73,3.73,0,0,1,.32-.67,1.65,1.65,0,0,1,.58-.46l.68-.28.72-.2a24,24,0,0,1,2.92-.48,12.75,12.75,0,0,1,3,.05,5.48,5.48,0,0,0,1.46,0,2.07,2.07,0,0,0,1.22-.75,5.1,5.1,0,0,0,.69-1.28,11.36,11.36,0,0,0,.44-1.4A3.51,3.51,0,0,0,43,10.57a1.39,1.39,0,0,0-.89-1,5.77,5.77,0,0,0-2.89-.13,19.12,19.12,0,0,1-2.94.44,6.79,6.79,0,0,1-1.49-.15,3,3,0,0,1-1.38-.57,13.76,13.76,0,0,0-1.19-.86,6.72,6.72,0,0,0-1.36-.52,4,4,0,0,1-1.35-.66,1.38,1.38,0,0,1-.27-.27A1.55,1.55,0,0,1,29,6.49a1.37,1.37,0,0,1-.13-.77,2.54,2.54,0,0,1,.73-1.32,6.61,6.61,0,0,1,1.17-.94l.34-.16.39-.1c.25,0,.49-.08.74-.1a4,4,0,0,0,1.37-.41,3.69,3.69,0,0,0,1.09-.92,12.76,12.76,0,0,0,.83-1.2l.11.17L33.86,1l-1.76.34c-.57.13-1.15.3-1.73.44s-1.13.37-1.69.55S27.57,2.74,27,3s-1.07.51-1.61.76-1,.57-1.57.85-1,.63-1.51.94-1,.7-1.45,1-.92.75-1.39,1.12L18.17,8.87l-1.23,1.28L15.78,11.5l-1.07,1.42-1,1.49L12.85,16l0-.22a.52.52,0,0,0,.19.11l.12,0h.65a2,2,0,0,1,1,.45,1,1,0,0,1,.16.25c0,.07.07.15.1.24s.11.32.16.47A3.89,3.89,0,0,0,15.93,19a1.22,1.22,0,0,0,.75.35,3.6,3.6,0,0,1,1,.22l.24.13.06,0,.06.05.09.08a1.61,1.61,0,0,1,.35.43,2.76,2.76,0,0,1,.29,1c.07.68,0,1.34.13,1.93.06.28.2.6.3.91l.32.92c.24.6.45,1.22.72,1.81s.5,1.19.83,1.75l.47.85.05.1,0,.08,0,.06a.4.4,0,0,1,0,.18,1.08,1.08,0,0,1,0,.18.8.8,0,0,1-.34.56l-.08.05-.08,0-.12,0-.23.08a3.23,3.23,0,0,1-.47.15c-.33.07-.68.16-1,.2s-.65.11-1,.18a1.84,1.84,0,0,0-.81.27.23.23,0,0,0-.11.23.85.85,0,0,0,.14.34,3.57,3.57,0,0,0,.62.68c.46.43,1,.81,1.5,1.24a1.26,1.26,0,0,1,.21.2l.15.2a2.93,2.93,0,0,1,.29.43,2.3,2.3,0,0,1,.32,1A2,2,0,0,1,20.51,37a3.48,3.48,0,0,1-.61.84c-.45.5-.95.92-1.41,1.38v-.32a9.19,9.19,0,0,1,1.06,1.18,5.5,5.5,0,0,1,.76,1.41,7.8,7.8,0,0,1,.36,1.54l.22,1.54a8.84,8.84,0,0,0,.83,2.89,4.3,4.3,0,0,0,.9,1.18c.36.34.77.68,1.15,1l1.17,1c.4.34.78.69,1.16,1s.74.73,1.11,1.1l1.09,1.09.59.48.62.44a14.31,14.31,0,0,0,1.32.78c.45.25.91.47,1.38.69l1.4.68-.23.2c-.32-.85-1.05-1.54-1.41-2.49a2.17,2.17,0,0,1-.13-.76,1.23,1.23,0,0,1,.07-.39l0-.1,0-.09.08-.17.15-.32.19-.32a5.39,5.39,0,0,1,.43-.6,6.74,6.74,0,0,0,1.44-2.39l.11-.35a1.65,1.65,0,0,1,.14-.36,3.08,3.08,0,0,1,.46-.6,10.82,10.82,0,0,1,1.13-.92,9.78,9.78,0,0,0,1.1-.9A4.48,4.48,0,0,0,38,45.32c.38-.85.65-1.79,1.06-2.66.21-.43.38-.89.61-1.31s.46-.84.7-1.26l.77-1.22c.13-.2.25-.4.36-.61a1.84,1.84,0,0,0,.2-.64,1.17,1.17,0,0,0-.09-.64,1.65,1.65,0,0,0-.41-.54A4.64,4.64,0,0,0,40,35.71c-.87-.39-1.79-.68-2.7-1a13.76,13.76,0,0,1-2.65-1.14,3.1,3.1,0,0,1-1.06-1c-.12-.23-.2-.45-.29-.67s-.19-.44-.3-.65a9.65,9.65,0,0,0-1.58-2.36,5.18,5.18,0,0,0-2.37-1.5,3.68,3.68,0,0,0-1.4-.11l-.35.06-.33.12a4.08,4.08,0,0,0-.63.31,12.1,12.1,0,0,1-2.49,1.45l0,0a2.63,2.63,0,0,1-.3.54.86.86,0,0,1-.51.38.84.84,0,0,1-.61-.12,2,2,0,0,1-.43-.45c-.13-.16-.23-.33-.35-.5s-.23-.33-.34-.51-.21-.35-.31-.53a5.48,5.48,0,0,1-.23-.56,2.55,2.55,0,0,1-.12-.6v-.31a1.55,1.55,0,0,1,0-.31,4,4,0,0,1,.16-.59c.07-.19.12-.38.21-.57l.49-1.12c.17-.36.29-.75.43-1.13v0c-.41-.29-.89-.49-1.29-.8a.91.91,0,0,1-.26-.29,1.27,1.27,0,0,1-.07-.38,3.83,3.83,0,0,1-.05-.76c0-.26,0-.51,0-.76s0-.5.05-.76a.67.67,0,0,1,.47-.56l.72-.26,1.43-.53c.24-.09.48-.16.72-.24s.49-.15.74-.21a6.11,6.11,0,0,1,.74-.17A6.42,6.42,0,0,1,26,17c.26,0,.51,0,.77,0Zm0,0-.75-.1c-.26,0-.51,0-.77,0a6.42,6.42,0,0,0-.75.1,6.58,6.58,0,0,0-.74.17,6.14,6.14,0,0,0-.73.22c-.24.08-.49.15-.72.24l-1.43.54-.71.26a.63.63,0,0,0-.45.54c0,.24,0,.5,0,.75s0,.51,0,.76a3.78,3.78,0,0,0,0,.75,2,2,0,0,0,.07.37,1.06,1.06,0,0,0,.25.27c.4.3.87.5,1.3.79a0,0,0,0,1,0,0c-.14.38-.26.77-.43,1.14l-.48,1.11a5.71,5.71,0,0,0-.21.58,4,4,0,0,0-.16.57c0,.1,0,.2,0,.3v.3a3,3,0,0,0,.13.58,4.41,4.41,0,0,0,.23.56c.1.17.19.35.3.52s.23.33.35.5.22.34.34.5a2,2,0,0,0,.41.42.7.7,0,0,0,.55.1.86.86,0,0,0,.44-.34,2.61,2.61,0,0,0,.28-.52s0,0,0,0a12,12,0,0,0,2.45-1.45,4.07,4.07,0,0,1,.66-.33l.35-.13.35-.05a3.61,3.61,0,0,1,1.46.11,5.3,5.3,0,0,1,2.44,1.52,10,10,0,0,1,1.62,2.39c.11.21.2.44.3.66s.18.45.28.64a2.88,2.88,0,0,0,1,1,13.31,13.31,0,0,0,2.63,1.11c.9.31,1.82.59,2.71,1a4.6,4.6,0,0,1,1.25.76,2,2,0,0,1,.46.6,1.4,1.4,0,0,1,.12.75,2.57,2.57,0,0,1-.22.73c-.12.21-.25.42-.38.62l-.75,1.21c-.24.42-.46.84-.68,1.26s-.4.86-.61,1.3c-.4.86-.65,1.78-1,2.67a4.3,4.3,0,0,1-.87,1.19,9.86,9.86,0,0,1-1.11.94c-.76.58-1.59,1.12-1.73,2.08a7,7,0,0,1-1.49,2.5c-.13.19-.28.37-.4.57l-.18.29-.14.33-.08.16,0,.07,0,.08a1.64,1.64,0,0,0-.05.32,2.05,2.05,0,0,0,.11.64c.33.86,1.05,1.54,1.43,2.49a.17.17,0,0,1-.09.21.15.15,0,0,1-.13,0h0l-1.4-.67c-.46-.22-.94-.44-1.39-.69a14.15,14.15,0,0,1-1.36-.79c-.21-.15-.43-.29-.64-.45l-.62-.51c-.37-.35-.74-.73-1.1-1.09s-.71-.75-1.1-1.08-.76-.69-1.16-1l-1.18-1-1.17-1a4.82,4.82,0,0,1-1-1.27,9.12,9.12,0,0,1-.89-3l-.23-1.53a6.91,6.91,0,0,0-.34-1.46,5.29,5.29,0,0,0-.71-1.3,9,9,0,0,0-1-1.12.22.22,0,0,1,0-.31h0c.46-.47,1-.89,1.39-1.36A2.23,2.23,0,0,0,20.29,36a1.72,1.72,0,0,0-.26-.81,2.13,2.13,0,0,0-.25-.39l-.15-.19a1.08,1.08,0,0,0-.15-.13c-.48-.4-1-.79-1.52-1.25a4,4,0,0,1-.69-.78,1.13,1.13,0,0,1-.21-.55.73.73,0,0,1,.27-.63,2.35,2.35,0,0,1,1-.37c.33-.07.66-.12,1-.17s.62-.12.93-.18a4.11,4.11,0,0,0,.46-.15l.23-.07.12,0s.06,0,0,0h0a.43.43,0,0,0,.15-.25.16.16,0,0,1,0-.07s0,0,0-.05l0-.06h0s0,.05,0,0h0v0l-.06-.11-.47-.87c-.34-.57-.56-1.19-.84-1.78s-.48-1.23-.72-1.84l-.32-.92a8.32,8.32,0,0,1-.3-1c-.13-.69-.07-1.35-.14-2a2.19,2.19,0,0,0-.23-.86,1.35,1.35,0,0,0-.61-.57,3.12,3.12,0,0,0-.91-.19,1.64,1.64,0,0,1-1-.47,4.17,4.17,0,0,1-.85-1.84L14.65,17l-.09-.22a.65.65,0,0,0-.1-.15,1.65,1.65,0,0,0-.79-.35h-.6l-.18,0-.17-.08a1.53,1.53,0,0,1-.16-.11.17.17,0,0,1,0-.21h0l.9-1.56,1-1.49,1.09-1.44,1.17-1.36c.42-.43.83-.87,1.26-1.29s.88-.82,1.33-1.21.93-.77,1.41-1.13,1-.71,1.47-1,1-.65,1.53-1,1-.58,1.58-.85,1.09-.52,1.64-.75,1.11-.45,1.68-.65,1.14-.38,1.71-.55l1.75-.44L33.82.74,35.61.52a.1.1,0,0,1,.12.09.11.11,0,0,1,0,.08h0c-.28.41-.54.83-.86,1.22a3.88,3.88,0,0,1-1.16,1,4.16,4.16,0,0,1-1.45.42l-.72.1-.34.08-.33.14a7,7,0,0,0-1.13.91,2.37,2.37,0,0,0-.68,1.22A1.33,1.33,0,0,0,29.58,7a3.88,3.88,0,0,0,1.29.63,6.56,6.56,0,0,1,1.39.54,13.74,13.74,0,0,1,1.2.88,2.87,2.87,0,0,0,1.32.55,7.16,7.16,0,0,0,1.46.15,21,21,0,0,0,2.92-.42,5.79,5.79,0,0,1,3,.14,1.58,1.58,0,0,1,.62.43,1.53,1.53,0,0,1,.33.69A3.52,3.52,0,0,1,43,12a10,10,0,0,1-.45,1.41,4.57,4.57,0,0,1-.71,1.3,2.14,2.14,0,0,1-1.26.77,5.31,5.31,0,0,1-1.49,0,12.58,12.58,0,0,0-2.94-.07,24,24,0,0,0-2.92.47l-.71.2c-.23.09-.47.17-.69.27a1.64,1.64,0,0,0-.56.45,3.35,3.35,0,0,0-.32.66,7,7,0,0,1-.33.67c-.1.22-.19.45-.28.68a2.24,2.24,0,0,1-.36.64.38.38,0,0,1-.35.09.62.62,0,0,1-.16-.1l-.14-.12a6.28,6.28,0,0,1-.76-1.27A1.76,1.76,0,0,0,27.54,17.12Z"/><path class="cls-9" d="M66.79,29.59c-.77-.28-2-1.36-2.74-.49-.12.14-.43.34-.62.21a1.11,1.11,0,0,1-.19.09.32.32,0,0,1-.09,0s0,.08,0,.11a.51.51,0,0,1-.7.31,21.38,21.38,0,0,1-2-1.57c-.77-.65-1.72.84-2.16,1.33a.48.48,0,0,1-.44.13c-1.2-.37-3.63-1.46-4,.43A2.62,2.62,0,0,1,53,31.86a13.34,13.34,0,0,1-2.33,1.56c-1,.62-.24,3.87,1.13,3.43a3.55,3.55,0,0,1,3.69.6c.93.89,2.63,2.37,2.7,3.76a1.41,1.41,0,0,1-.36,1.09c-1,1-1.67,2-1.25,3.38.54,1.85.69,2.24-.08,4.11a8.28,8.28,0,0,1-2.72,3.7,17.16,17.16,0,0,0-2.42,2A29.07,29.07,0,0,0,67.46,29.67,1.56,1.56,0,0,1,66.79,29.59Z"/><path class="cls-10" d="M66.79,29.59a12.88,12.88,0,0,0-1.69-.77,1.37,1.37,0,0,0-.45,0,.6.6,0,0,0-.23.06,1,1,0,0,0-.2.11,3.44,3.44,0,0,1-.35.3.43.43,0,0,1-.45.06h0a1.19,1.19,0,0,1-.29.12h0a.62.62,0,0,1-.5.48.44.44,0,0,1-.34-.12L62,29.58l-.58-.43-.56-.47a6.12,6.12,0,0,0-.56-.45.63.63,0,0,0-.66,0,3.69,3.69,0,0,0-1,1l-.23.29a.61.61,0,0,1-.29.23.5.5,0,0,1-.38,0l-.34-.11A11.5,11.5,0,0,0,56,29.24a2.35,2.35,0,0,0-1.39,0,.84.84,0,0,0-.49.44l-.08.16A.94.94,0,0,0,54,30l-.09.35a2.33,2.33,0,0,1-.08.36l-.14.35a3.7,3.7,0,0,1-.44.6A3.08,3.08,0,0,1,53,32l-.28.24a3.72,3.72,0,0,1-.59.43c-.4.28-.83.51-1.23.77a.86.86,0,0,0-.45.45,1.61,1.61,0,0,0-.12.66,3.2,3.2,0,0,0,.26,1.36c.18.4.48.83.87.86a2.25,2.25,0,0,0,.66-.13,5.7,5.7,0,0,1,.74-.14,3.66,3.66,0,0,1,1.5.14,3.33,3.33,0,0,1,1.3.78c.35.33.71.66,1,1a5.6,5.6,0,0,1,1.62,2.5,2.46,2.46,0,0,1,0,.4,1.85,1.85,0,0,1,0,.39,1.47,1.47,0,0,1-.37.76,7.5,7.5,0,0,0-.89,1.08,2.55,2.55,0,0,0-.42,1.24v.33c0,.11,0,.22,0,.33s.12.45.19.68a7.41,7.41,0,0,1,.32,1.46,3.78,3.78,0,0,1-.23,1.5c-.07.25-.17.47-.25.7s-.21.44-.31.67-.19.44-.32.65l-.4.64a3.68,3.68,0,0,1-.45.59l-.48.57c-.38.32-.74.67-1.13,1a16.92,16.92,0,0,0-2.17,1.85l-.26-.33,1.76-1,1.69-1.06,1.62-1.17c.51-.42,1-.84,1.53-1.28s1-.91,1.44-1.38.91-1,1.35-1.47.84-1,1.24-1.57.77-1.08,1.13-1.65.7-1.13,1-1.72.62-1.18.89-1.79.55-1.22.77-1.85.44-1.25.63-1.9.35-1.28.49-1.94.26-1.3.36-2,.16-1.33.22-2l.09-2h-.34Zm0,0,.33.07c.11,0,.23,0,.34,0h0l-.07,2c-.06.66-.14,1.33-.21,2s-.23,1.32-.35,2-.32,1.3-.48,1.95-.41,1.27-.61,1.91-.5,1.24-.74,1.86-.58,1.21-.87,1.81-.66,1.17-1,1.75S62.4,46,62,46.59s-.81,1.07-1.22,1.6-.89,1-1.33,1.51-.95.95-1.43,1.42-1,.88-1.53,1.32l-1.61,1.21-1.7,1.1-1.78,1a.2.2,0,0,1-.28-.08.2.2,0,0,1,0-.24h0a16.61,16.61,0,0,1,2.22-1.91c.39-.29.71-.62,1.07-.93.16-.17.3-.36.46-.54a2.88,2.88,0,0,0,.41-.56l.37-.59c.12-.2.21-.43.31-.64s.22-.45.29-.65.18-.44.24-.66a3.12,3.12,0,0,0,.21-1.33,6.13,6.13,0,0,0-.29-1.36,4.48,4.48,0,0,1-.25-1.49,3.1,3.1,0,0,1,.49-1.46,7.71,7.71,0,0,1,1-1.14,1.16,1.16,0,0,0,.26-.52,1.78,1.78,0,0,0,0-.34,1.12,1.12,0,0,0,0-.31,5.35,5.35,0,0,0-1.49-2.3c-.33-.34-.68-.67-1-1a2.91,2.91,0,0,0-1.15-.72,3.28,3.28,0,0,0-1.36-.14,4,4,0,0,0-.69.11l-.35.09a1.12,1.12,0,0,1-.41,0,1.08,1.08,0,0,1-.71-.4,2.13,2.13,0,0,1-.39-.66,3.36,3.36,0,0,1-.26-1.47,2.12,2.12,0,0,1,.15-.74,1.45,1.45,0,0,1,.23-.34l.07-.06.05,0,0,0,.16-.09c.41-.26.85-.48,1.24-.74a4.67,4.67,0,0,0,.58-.41l.28-.23a3.08,3.08,0,0,0,.24-.26,2.28,2.28,0,0,0,.65-1.22c0-.12,0-.23.09-.35s0-.12.05-.18l.09-.17a1,1,0,0,1,.23-.3,1.27,1.27,0,0,1,.33-.2,2.51,2.51,0,0,1,1.46,0,10.64,10.64,0,0,1,1.39.42l.35.11a.47.47,0,0,0,.33,0c.21-.09.33-.32.49-.5a4,4,0,0,1,1-1,.69.69,0,0,1,.72,0,6.22,6.22,0,0,1,.56.46c.19.15.37.31.55.47l.58.43.29.22a.43.43,0,0,0,.32.12.63.63,0,0,0,.48-.46h0a1.48,1.48,0,0,0,.29-.12h0a.41.41,0,0,0,.42-.06,3.27,3.27,0,0,0,.35-.3.84.84,0,0,1,.21-.11.9.9,0,0,1,.22-.06,1.47,1.47,0,0,1,.47,0A15,15,0,0,1,66.79,29.59Z"/><path class="cls-9" d="M55.28,5.85a5.33,5.33,0,0,0-.42.4c-1.52,1.65.73,3.25,1.58,4.53.46.69,1.28,2.63,2.17,2.84s2.66.41,2.24,1.73c-.53,1.67-1.94,2.83-2.59,4.43h0a7.32,7.32,0,0,0-.25.75c-.1.35-.22.7.34.68a2.91,2.91,0,0,0,1.25-.39c.59-.31,1.14-.7,1.73-1a.43.43,0,0,1,.35,0c.19-.08.38-.05.44.2.28,1.19,2,.64,2.15,1.92A9.61,9.61,0,0,1,64.21,23a6.33,6.33,0,0,0,.37.94,1.57,1.57,0,0,0,.41.19H65c.72-.2,1.56-.28,2,.39a2.11,2.11,0,0,1,.18.33A29,29,0,0,0,55.28,5.85Z"/><path class="cls-10" d="M55.28,5.85A2.65,2.65,0,0,0,54.45,7a1.77,1.77,0,0,0,.22,1.38,27.24,27.24,0,0,0,1.82,2.29c.28.41.5.85.75,1.26a6.21,6.21,0,0,0,.84,1.17,1.35,1.35,0,0,0,.54.36c.22.06.47.1.71.15a3.15,3.15,0,0,1,1.41.61,1,1,0,0,1,.34.77,1.23,1.23,0,0,1-.07.42l-.13.34a6.76,6.76,0,0,1-.7,1.33c-.27.41-.56.81-.84,1.21a8.12,8.12,0,0,0-.73,1.23l-.15.32c0,.08-.08.22-.12.33s-.16.46-.2.67,0,.14,0,.13,0,0,.07,0h.12a3.48,3.48,0,0,0,.36-.05,2.12,2.12,0,0,0,.31-.09,7.78,7.78,0,0,0,1.26-.68l.63-.37.32-.19.1-.05.16,0a.67.67,0,0,1,.28,0h-.17a.57.57,0,0,1,.48,0,.58.58,0,0,1,.27.37,1.15,1.15,0,0,0,.1.24,1,1,0,0,0,.14.16,3.45,3.45,0,0,0,1,.45,1.7,1.7,0,0,1,.58.35,1.13,1.13,0,0,1,.33.65v.08c0,.07,0,.06,0,.1v.44c0,.2,0,.4,0,.6l0-.09.36.92-.08-.09a1.63,1.63,0,0,0,.19.09,1,1,0,0,0,.21.08H65a3.51,3.51,0,0,1,.66-.13,2.06,2.06,0,0,1,.35,0,1.49,1.49,0,0,1,.36,0,1.21,1.21,0,0,1,.35.12.86.86,0,0,1,.16.1l.15.12.12.15.06.07,0,0s0,0,0,0h0l0,0,.14.28-.42.14-.26-1.4-.33-1.39L66,20.72c-.15-.45-.31-.9-.47-1.35s-.36-.88-.53-1.32-.4-.87-.59-1.3-.44-.84-.66-1.27-.48-.82-.72-1.24-.52-.8-.78-1.2-.56-.77-.84-1.16l-.89-1.12-1-1.08-1-1-1.05-1-1.09-.94Zm0,0,1.18.83,1.12.9,1.09,1,1,1,1,1.06.93,1.11.87,1.15c.27.4.55.8.81,1.2s.51.82.75,1.24.47.84.69,1.27.42.87.62,1.31.38.89.55,1.34l.49,1.36L66.8,22l.34,1.41.28,1.42a.23.23,0,0,1-.18.26A.23.23,0,0,1,67,25h0l-.15-.28,0,0h0l0-.05-.08-.1-.1-.07a.23.23,0,0,0-.1-.07.68.68,0,0,0-.24-.08.86.86,0,0,0-.28,0,1.34,1.34,0,0,0-.28,0,3,3,0,0,0-.58.12.2.2,0,0,1-.11,0h0l-.27-.09-.26-.14a.14.14,0,0,1-.08-.09h0l-.39-1A.25.25,0,0,1,64,23h0c0-.19,0-.38,0-.58v-.55a.65.65,0,0,0-.07-.21.52.52,0,0,0-.12-.18,1.25,1.25,0,0,0-.43-.25,3.61,3.61,0,0,1-1.13-.54,1,1,0,0,1-.23-.29,1,1,0,0,1-.13-.3c0-.12,0-.1,0-.11a.13.13,0,0,0-.09,0,.23.23,0,0,1-.14,0h-.14l-.06,0-.32.19-.63.37-.63.37a4.47,4.47,0,0,1-.7.33c-.12.05-.26.07-.39.11s-.25,0-.37.05a.92.92,0,0,1-.24,0l-.14,0a.33.33,0,0,1-.13-.07.44.44,0,0,1-.17-.29,1,1,0,0,1,0-.25,5.77,5.77,0,0,1,.22-.73c0-.12.07-.22.13-.36l.16-.34A9.1,9.1,0,0,1,59,18.07c.28-.41.58-.79.85-1.19a6.62,6.62,0,0,0,.69-1.25l.13-.33a1.59,1.59,0,0,0,.06-.3.72.72,0,0,0-.23-.53,2.81,2.81,0,0,0-1.25-.56c-.24-.06-.47-.09-.72-.17a1.42,1.42,0,0,1-.66-.45A6.42,6.42,0,0,1,57,12.06c-.24-.42-.45-.87-.71-1.27a24.2,24.2,0,0,1-1.74-2.35A1.83,1.83,0,0,1,54.39,7,2.66,2.66,0,0,1,55.28,5.85Z"/><path class="cls-9" d="M56.81,16a5.12,5.12,0,0,0-.7-1.59c0-.08-.06-.15-.08-.23a4.26,4.26,0,0,0-.46-1.2c-.37-.57-1.2-.26-1.43.26a7.6,7.6,0,0,0-.8,2.87c0,.68,0,1.55.57,2s1.56,0,2.1-.26A1.92,1.92,0,0,0,56.81,16Z"/><path class="cls-10" d="M56.81,16c-.1-.28-.19-.55-.29-.82l-.43-.76h0c-.1-.25-.17-.51-.27-.75a2.67,2.67,0,0,0-.36-.67.79.79,0,0,0-.15-.12l-.13-.06H55l-.17,0a.89.89,0,0,0-.5.41,3.17,3.17,0,0,0-.14.35l-.14.37-.24.74c-.06.25-.12.5-.17.75s-.06.5-.07.76a6.59,6.59,0,0,0,0,.77,1.67,1.67,0,0,0,.18.68.85.85,0,0,0,.51.44,1.45,1.45,0,0,0,.72,0,5.07,5.07,0,0,0,.76-.22,1.4,1.4,0,0,0,.64-.43,2.33,2.33,0,0,0,.36-.7A1.72,1.72,0,0,0,56.81,16Zm0,0a1.76,1.76,0,0,1,0,.79,2.5,2.5,0,0,1-.34.72,1.64,1.64,0,0,1-.63.51,5.45,5.45,0,0,1-.76.3,1.68,1.68,0,0,1-.87.05,1.14,1.14,0,0,1-.71-.51,1.82,1.82,0,0,1-.3-.82,5.87,5.87,0,0,1,0-.83c0-.27,0-.55.07-.83s.13-.53.19-.8.19-.52.29-.77.2-.47.36-.74a1.22,1.22,0,0,1,.76-.51l.23,0,.23,0a1.59,1.59,0,0,1,.22.13,1,1,0,0,1,.14.15,2.82,2.82,0,0,1,.34.76c.08.26.11.53.2.78h0l.39.78C56.63,15.45,56.72,15.72,56.81,16Z"/><path class="cls-9" d="M25.71,22.28a1.23,1.23,0,0,0-1.86-.08.26.26,0,0,0-.14.17v.06a.89.89,0,0,0-.05.51,1.53,1.53,0,0,0,.4,1.22c.47.43,1.39.14,1.78-.26A1.26,1.26,0,0,0,25.71,22.28Z"/><path class="cls-10" d="M25.71,22.28l-.2-.17L25.28,22,25,21.89l-.26,0-.25,0L24.3,22l-.2.14-.15.18-.05,0,0,.05s0,0,0,0v.1c0,.07,0,.14,0,.2l0,.21v0h0a2.12,2.12,0,0,0,.08.57,1.09,1.09,0,0,0,.23.44l0,0h0c-.06,0,0,0,0,0h0l.06,0,.13.09c.07,0,.11,0,.2,0h.27a2.7,2.7,0,0,0,.28,0,1.4,1.4,0,0,0,.53-.23l.11-.08.1-.12a.72.72,0,0,0,.12-.25l0-.15v-.15a1.06,1.06,0,0,0,0-.31A1.71,1.71,0,0,0,25.71,22.28Zm0,0a2.4,2.4,0,0,1,.18.26c.06.09.09.19.14.28a1.73,1.73,0,0,1,.07.31.92.92,0,0,1,0,.33,1,1,0,0,1-.09.33l-.08.14a1.54,1.54,0,0,1-.12.13,1.95,1.95,0,0,1-.9.49,1.14,1.14,0,0,1-.37,0,1.27,1.27,0,0,1-.4-.09L24,24.4l-.07,0h0l0,0h0v0l0,0a1.37,1.37,0,0,1-.35-.66,2.31,2.31,0,0,1,0-.69v-.26l.09-.3v0l0-.07a.43.43,0,0,1,.05-.12.41.41,0,0,1,.17-.13l0,0,.23-.18a2.06,2.06,0,0,1,.26-.12,1.28,1.28,0,0,1,.27-.05h.28l.26.07.24.11.22.14Z"/><g class="cls-11"><path class="cls-12" d="M20.89,18.57c2-.68,4.5-1.95,6.65-1.45.79.18,1.07,1.13,1.42,1.72,1.08,1.84,1.3-.1,1.75-.85s.3-1.22,1.16-1.62a10.5,10.5,0,0,1,2.72-.72,14.07,14.07,0,0,1,3.72-.23c2,.21,3.28.42,4.2-2,.44-1.16,1.27-3.52-.66-4a7.85,7.85,0,0,0-3.79.16,7.6,7.6,0,0,1-3.73,0c-1-.27-1.63-1.26-2.64-1.6a5.84,5.84,0,0,1-2.32-1.05c-1.21-1.26.4-2.69,1.47-3.37a3.77,3.77,0,0,1,1.41-.32,3.88,3.88,0,0,0,3.07-2.12l.3-.45a29.62,29.62,0,0,0-4.36.75,3.44,3.44,0,0,1-1.15,1.76C28.94,4,24.25,6,26.75,7.59s2.28,2,.33,3.73c-1.22,1.1-2,2.62-3.36,3.55a2.77,2.77,0,0,1-1.53.27,5.22,5.22,0,0,0-4,1c-.43.32-1.11.71-1.65.38-1.31-.81-1.93-2.21-3-2.12-.29.47-.58,1-.84,1.46a.78.78,0,0,0,.55.19,1.93,1.93,0,0,1,.48,0c.31.09.81.2,1,.53.49,1,.49,2.81,2,2.95a2.16,2.16,0,0,1,1.16.35c1.09.78.52,2.52.9,3.63a30.87,30.87,0,0,0,2.65,6.2.56.56,0,0,1-.25.75l-.25.1a3.08,3.08,0,0,0,2.85-.48,8.49,8.49,0,0,1,2.7-1.24c2-.28,3.15,1.76,4,3.25.78,1.31-.41,2.63-1.34,3.46C27.52,37,31,40.08,31.07,41.87a1.58,1.58,0,0,1-.49,1.27c-1.39,1.09-1.2,2.12-1.28,3.62a2,2,0,0,1-1.55,1.71c-.84.13-1.36-1.46-1.58-2a9.23,9.23,0,0,0-1.07-2.24c-.92-1.15-2,.92-2.51,1.57-.14.17-.4.35-.62.19a6.8,6.8,0,0,0-1.17-.67,6,6,0,0,0,1.75,3.57c1.66,1.51,3.39,2.79,4.91,4.46,1.73,1.92,3.88,2.72,6.07,3.81-.43-1.2-1.92-2.36-1.45-3.66.58-1.57,2.05-2.38,2.39-4.11a3.24,3.24,0,0,1,1.42-1.7,5.9,5.9,0,0,0,2.45-2.79,24.6,24.6,0,0,1,3-6.19c2.59-3.85-6.72-3.5-7.82-6.42-.88-2.32-2.79-5.2-5.7-5.09-1.53.06-2.53,1.54-4,2-.18.43-.4.78-.73.88-.66.2-1.05-.58-1.37-1a3.68,3.68,0,0,1-1-2.94c.28-1.15.93-2.14,1.26-3.27-.48-.33-1.5-.76-1.58-1.15a10,10,0,0,1,0-2.51A.64.64,0,0,1,20.89,18.57Zm11.52-8.06.3-.09a4.12,4.12,0,0,1,2.64.86c.24.14.12.48,0,.65a6.7,6.7,0,0,1-2.87,2.16c-.71.34-2.2,1.1-3,.47C28.08,13.35,30.72,9.93,32.41,10.51Z"/><path class="cls-12" d="M66.79,29.59c-.77-.28-2-1.36-2.74-.49-.12.14-.43.34-.62.21a1.11,1.11,0,0,1-.19.09.32.32,0,0,1-.09,0s0,.08,0,.11a.51.51,0,0,1-.7.31,21.38,21.38,0,0,1-2-1.57.66.66,0,0,0-.4-.16c.07.39.11.79.16,1.21.22,1.85,1.25,1.6,2.63,2.08.9.32.72,1.48.6,2.17-.45,2.6-1.07,4.9-4,5.26-.21,0-.32-.18-.34-.35-.12-1.33.47-2.64.32-4-.24-2.14-2.07,0-2.77.17a2.91,2.91,0,0,1-2.29-.18c-1.77-.79-2.81.38-3.64,1.8.28.42.65.67,1.09.52a3.55,3.55,0,0,1,3.69.6c.93.89,2.63,2.37,2.7,3.76a1.41,1.41,0,0,1-.36,1.09c-1,1-1.67,2-1.25,3.38.54,1.85.69,2.24-.08,4.11a8.28,8.28,0,0,1-2.72,3.7,17.16,17.16,0,0,0-2.42,2A29.07,29.07,0,0,0,67.46,29.67,1.56,1.56,0,0,1,66.79,29.59Z"/><path class="cls-12" d="M57.53,7.61c.06.55.1,1.12.12,1.72.1,2.61,3,1.52,3.9,3.42.59,1.18,1.21,4,.56,5.24a2.46,2.46,0,0,1-1.3,1.37A4.34,4.34,0,0,0,59,21.11a3.65,3.65,0,0,0,.64-.28c.59-.31,1.14-.7,1.73-1a.43.43,0,0,1,.35,0c.19-.08.38-.05.44.2.28,1.19,2,.64,2.15,1.92A9.61,9.61,0,0,1,64.21,23a6.33,6.33,0,0,0,.37.94,1.57,1.57,0,0,0,.41.19H65c.72-.2,1.56-.28,2,.39a2.11,2.11,0,0,1,.18.33A29,29,0,0,0,57.53,7.61Z"/><path class="cls-12" d="M56.81,16a5.12,5.12,0,0,0-.7-1.59c0-.08-.06-.15-.08-.23a4.26,4.26,0,0,0-.46-1.2c-.37-.57-1.2-.26-1.43.26a7.6,7.6,0,0,0-.8,2.87c0,.68,0,1.55.57,2s1.56,0,2.1-.26A1.92,1.92,0,0,0,56.81,16Z"/><path class="cls-12" d="M25.71,22.28a1.23,1.23,0,0,0-1.86-.08.26.26,0,0,0-.14.17v.06a.89.89,0,0,0-.05.51,1.53,1.53,0,0,0,.4,1.22c.47.43,1.39.14,1.78-.26A1.26,1.26,0,0,0,25.71,22.28Z"/></g><g class="cls-13"><path class="cls-14" d="M52.4,6.38C49.29,3.61,48.34,2.13,42,1A28.16,28.16,0,0,0,11.56,18.8a26.32,26.32,0,0,0-1.68,7.36,35.79,35.79,0,0,0,2.37,14.21,12.88,12.88,0,0,0,5.87,7.3c.75.42,1.62-.71,1.4-1.39-1.19-3.74.61-7.24,1.93-10.69.81-2.12,1.8-4.26,1.15-6.55s-4-2.18-5.41-3.88.77-4.32,1.71-5.48c1.9-2.34,3.86-2.87,6.68-2,5.07,1.59,6-6.14,10.25-6.22,1.35,0,2.43,1.31,3.53,1.9a4.91,4.91,0,0,0,3,.61A5.66,5.66,0,0,0,45.1,12.4a25.94,25.94,0,0,1,4.57-3C50.83,8.74,53.94,7.74,52.4,6.38Z"/></g><path class="cls-15" d="M20.27,7.08S2,22.37,13.46,42.73C13.46,42.73,4.64,23,20.27,7.08Z"/><path class="cls-16" d="M63.73,16.23S70.26,36.77,58.2,49.8C58.2,49.8,72.83,38.84,63.73,16.23Z"/><path class="cls-17" d="M67.61,29.37s0,.18,0,.52,0,.86-.06,1.53a28,28,0,0,1-1,5.71A29.16,29.16,0,0,1,54.73,53.68a29.83,29.83,0,0,1-6,3.09,28.76,28.76,0,0,1-7,1.66,30.31,30.31,0,0,1-7.6-.15,29,29,0,0,1-3.84-.85c-.64-.16-1.27-.4-1.9-.61s-1.26-.47-1.86-.76A29.52,29.52,0,0,1,14.06,45.48,29.14,29.14,0,0,1,26.5,2.58,28.12,28.12,0,0,1,30.28,1.2,29.35,29.35,0,0,1,41.75.26a28.52,28.52,0,0,1,7,1.69,30.3,30.3,0,0,1,6,3.1,29.7,29.7,0,0,1,8.18,8.34,29.33,29.33,0,0,1,3.67,8.22,27.88,27.88,0,0,1,1,5.71c.06.67,0,1.18.06,1.52S67.61,29.37,67.61,29.37Zm0,0s0-.18,0-.52,0-.86-.07-1.53a27.55,27.55,0,0,0-1-5.69,28.13,28.13,0,0,0-3.75-8.12A29.3,29.3,0,0,0,34.21.87a29.82,29.82,0,0,0-3.79.82c-.63.17-1.25.4-1.87.6S27.3,2.75,26.7,3A29.13,29.13,0,0,0,14.3,13.42a28.77,28.77,0,0,0-.12,32A29,29,0,0,0,26.66,55.81c.6.28,1.23.5,1.85.74s1.25.43,1.88.59A28.42,28.42,0,0,0,34.2,58,29.43,29.43,0,0,0,62.73,45.23a28.19,28.19,0,0,0,3.76-8.12,27.5,27.5,0,0,0,1-5.69c.06-.67,0-1.18.07-1.53S67.56,29.37,67.56,29.37Z"/><path class="cls-18" d="M14.18,29.92c-1.47-.5-2.12,1-3.4,1.33-.75.2-1.88.8-2.63.48a2.76,2.76,0,0,0-1.57-.43,2.43,2.43,0,0,0-2,2.45A11.83,11.83,0,0,0,.67,36.48a2.11,2.11,0,0,0,.07,2.75c1,1.38,3,.71,4.24,1.88,1.89,1.85,4.64.43,6-1.42.65-.89.81-2.23,1.63-3,.4-.37,1.78-.3,2.33-.46a2.59,2.59,0,0,0,1.24-.88c.9-1.1.38-2.12,2.06-2.54a1.94,1.94,0,0,0,1.44-1.59C20.36,28.27,15,30.21,14.18,29.92Z"/><path class="cls-19" d="M14.16,30a1.67,1.67,0,0,0-.7-.09,2,2,0,0,0-.66.22c-.41.24-.76.58-1.17.87a2.35,2.35,0,0,1-.66.37c-.23.1-.46.17-.68.27a6.08,6.08,0,0,1-1.44.47,1.94,1.94,0,0,1-.42,0A2.16,2.16,0,0,1,8,32c-.23-.08-.47-.19-.67-.25a1.33,1.33,0,0,0-.56-.09H6.67l-.17.06a2.09,2.09,0,0,0-.33.12L5.92,32l-.24.18a1.39,1.39,0,0,0-.21.21,1,1,0,0,0-.17.24.82.82,0,0,0-.14.26,1.17,1.17,0,0,0-.11.28,3,3,0,0,0-.09.6l0,.28-.24.11c-.36.17-.72.32-1.07.5l-1,.6c-.32.24-.65.46-1,.71l-.45.4-.23.2-.12.1-.08.09a1.76,1.76,0,0,0-.11,2.07,2.14,2.14,0,0,0,.76.84A3.41,3.41,0,0,0,2.53,40a5.84,5.84,0,0,1,2.4.75l.49.39a2.55,2.55,0,0,0,.48.27A2.68,2.68,0,0,0,7,41.67a4.1,4.1,0,0,0,2.1-.74,5.69,5.69,0,0,0,1.57-1.6c.4-.62.57-1.41,1-2.22a3.69,3.69,0,0,1,.42-.58l.12-.14,0,0h0c-.06,0,.08-.07.07-.06h0l.06,0a1,1,0,0,1,.15-.08l.23-.09a2.17,2.17,0,0,1,.38-.1,2.21,2.21,0,0,1,.33,0c.22,0,.43-.05.63-.07s.4,0,.54-.07h.07l.14-.06a1.29,1.29,0,0,0,.26-.12l.17-.11.19-.16c.07,0,.12-.12.19-.18l.07-.07.09-.12a3.51,3.51,0,0,0,.48-1,2.79,2.79,0,0,1,.3-.64,1.73,1.73,0,0,1,.56-.58,2.88,2.88,0,0,1,.68-.3l.17-.05h.05l.07,0a1.68,1.68,0,0,0,.27-.09,1.41,1.41,0,0,0,.68-.61,2.62,2.62,0,0,0,.22-.48c0-.06.05-.19.07-.28a1.81,1.81,0,0,0,0-.23A.73.73,0,0,0,19,30a2.85,2.85,0,0,0-1.11-.22,8.32,8.32,0,0,0-1.22,0l-1.22.15a4.24,4.24,0,0,1-1.24.06Zm0-.09a4.12,4.12,0,0,0,1.2-.1l1.21-.21a12.14,12.14,0,0,1,1.23-.17,3.45,3.45,0,0,1,1.3.13,1.44,1.44,0,0,1,.61.41,1.26,1.26,0,0,1,.27.72A2.38,2.38,0,0,1,20,31c0,.11,0,.18-.05.32a2.67,2.67,0,0,1-.21.66,2.16,2.16,0,0,1-1,1.07,1.74,1.74,0,0,1-.31.13l-.3.1a1.74,1.74,0,0,0-.43.22,1.43,1.43,0,0,0-.47.77,4.19,4.19,0,0,1-.58,1.24,3.08,3.08,0,0,1-1.1,1,1.31,1.31,0,0,1-.3.14l-.14.06h0l0,0H15l-.1,0a6.58,6.58,0,0,1-.67.09c-.21,0-.41,0-.6.06l-.27,0-.22,0h-.06l-.12.06-.07,0h0l.06,0h0l0,0-.09.09a3.34,3.34,0,0,0-.3.41,7.74,7.74,0,0,0-.5,1c-.09.19-.16.38-.27.59l-.16.31c-.05.1-.11.17-.16.26a5.25,5.25,0,0,1-.87,1,6.08,6.08,0,0,1-1,.78,5.19,5.19,0,0,1-1.2.54A4.25,4.25,0,0,1,7,42.27a3.41,3.41,0,0,1-1.29-.36,3.81,3.81,0,0,1-.55-.38l-.45-.41a4.79,4.79,0,0,0-2.21-.78,3.81,3.81,0,0,1-1.19-.44A2.34,2.34,0,0,1,.39,39,2.65,2.65,0,0,1,0,37.73a2.24,2.24,0,0,1,.06-.68l.15-.34a1.67,1.67,0,0,1,.17-.26L.5,36.3l.11-.11L.82,36l.44-.45c.3-.29.63-.55.94-.83s.69-.49,1-.74.75-.4,1.13-.59l-.26.38a3.3,3.3,0,0,1,.11-.82,1.93,1.93,0,0,1,.15-.4,1.72,1.72,0,0,1,.2-.38,1.76,1.76,0,0,1,.27-.34,1.7,1.7,0,0,1,.31-.29c.12-.08.23-.17.36-.24l.4-.19A3.55,3.55,0,0,1,6.27,31l.18,0a1.57,1.57,0,0,1,.27,0,1.91,1.91,0,0,1,.86.19c.26.12.44.23.66.34l.26.09a1.51,1.51,0,0,0,.3,0,5.89,5.89,0,0,0,1.37-.29c.24-.08.48-.13.71-.19a2.7,2.7,0,0,0,.63-.28c.41-.24.78-.57,1.23-.79a2.18,2.18,0,0,1,.71-.22,2,2,0,0,1,.74.11Z"/><path class="cls-18" d="M70.21,12.66c-1.61-1.3-3.26.89-4.77.95-1.33.05-2.85-.21-3.94.49a1.94,1.94,0,0,0-1.38.41c-.68.53-.62,1.51-1.21,2A6.39,6.39,0,0,0,56.73,19c-1.08,2.54-4.5,2.36-6.77,3.58-1.51.8-3.14,2.33-2.57,4.17a.89.89,0,0,0,.77.62,2.44,2.44,0,0,0,1.77-.42,6.88,6.88,0,0,1,4-.73,6.79,6.79,0,0,0,3-.62c1.29-.53,3,.21,4.43.08.8-.07,1.52-.94,2-1.48a39.41,39.41,0,0,1,3.07-3.4c1.53-1.3,3.07-2.25,4.13-4C71.19,15.6,71.32,13.56,70.21,12.66Z"/><path class="cls-19" d="M70.19,12.7a2.68,2.68,0,0,0-.49-.28.77.77,0,0,0-.27-.07.84.84,0,0,0-.27,0,1.73,1.73,0,0,0-.55.07,3.35,3.35,0,0,0-.53.19,10.9,10.9,0,0,0-1,.55,6.76,6.76,0,0,1-1,.53l-.29.09-.32,0-.57,0-1.15,0a4.89,4.89,0,0,0-.55.05,2.93,2.93,0,0,0-.53.1,2.88,2.88,0,0,0-.5.15c-.16.06-.29.17-.44.24l-.12.06h-.1a1.65,1.65,0,0,0-1.18.46,5.05,5.05,0,0,0-.65,1.34,1.92,1.92,0,0,1-.3.42l-.18.19L59,17l-.62.51a4.41,4.41,0,0,0-1,1.1,1.5,1.5,0,0,0-.19.32l-.2.36a3.94,3.94,0,0,1-.51.74A4.41,4.41,0,0,1,55,21a22.44,22.44,0,0,1-3.17.95A7.43,7.43,0,0,0,49,23.34a4.29,4.29,0,0,0-1.06,1.15,2.45,2.45,0,0,0-.43,1.44,2.4,2.4,0,0,0,0,.37,1.21,1.21,0,0,0,0,.18l0,.09,0,0h0s0,0,0,0v0l.09.18c0,.07.07.05.1.09s.06.05.11.07a.45.45,0,0,0,.14.06l.15,0,.21,0a1.23,1.23,0,0,0,.33,0,2.64,2.64,0,0,0,.68-.24l.33-.2.38-.2a2.84,2.84,0,0,1,.39-.18,2.05,2.05,0,0,1,.41-.16,6.61,6.61,0,0,1,1.7-.31c.28,0,.56,0,.84,0h.42l.38,0,.4,0,.36-.07a4.09,4.09,0,0,0,.73-.18,6.28,6.28,0,0,0,.73-.25l.18-.08.1,0h0l.1,0a2.45,2.45,0,0,1,.41-.11l.5-.06a3.38,3.38,0,0,1,.45,0,8.1,8.1,0,0,1,.87.06c.54.07,1.08.15,1.58.18.13,0,.24,0,.36,0h.18s.06,0,0,0h.09l.1,0,.1,0,0,0,.1,0,.27-.18a19.87,19.87,0,0,0,2.15-2.29c.33-.41.72-.83,1.1-1.24a14.5,14.5,0,0,1,1.26-1.11c.87-.68,1.79-1.26,2.58-2A8.56,8.56,0,0,0,70.09,17a3.75,3.75,0,0,0,.73-1.38,4,4,0,0,0,.09-1.58,2.28,2.28,0,0,0-.73-1.38Zm0-.07a2.35,2.35,0,0,1,.8,1.42,4.17,4.17,0,0,1,0,1.65,4,4,0,0,1-.24.82,5.8,5.8,0,0,1-.4.73,9.38,9.38,0,0,1-1,1.33A31.35,31.35,0,0,1,67,20.81a7.47,7.47,0,0,0-.57.55l-.55.56c-.34.41-.68.8-1,1.24s-.7.84-1,1.26a8.88,8.88,0,0,1-1.23,1.22,4.32,4.32,0,0,1-.42.27l-.27.11-.14.05-.1,0-.1,0h-.39c-.15,0-.31,0-.45,0A16.11,16.11,0,0,1,59,25.93a6.65,6.65,0,0,0-1.44-.07,3.61,3.61,0,0,0-.38.1l-.1,0h0l-.2.07a7.16,7.16,0,0,1-.82.27,5.44,5.44,0,0,1-.86.18l-.45.06h-.84l-.4,0c-.27,0-.54,0-.8,0a5.92,5.92,0,0,0-1.52.2l-.35.11a1.78,1.78,0,0,0-.36.14l-.36.16a3.54,3.54,0,0,1-.39.19,2.74,2.74,0,0,1-.87.25,1.94,1.94,0,0,1-.48,0l-.2,0-.24-.07a1.46,1.46,0,0,1-.82-1.58,3,3,0,0,1,.57-1.62A5.34,5.34,0,0,1,48.8,23.1a7.61,7.61,0,0,1,1.42-.87,14.29,14.29,0,0,1,1.54-.58,15.94,15.94,0,0,0,3-1.12A3.73,3.73,0,0,0,56,19.59a3.08,3.08,0,0,0,.37-.63l.17-.36c.06-.14.12-.27.19-.4a5.45,5.45,0,0,1,1.14-1.33c.21-.19.42-.35.63-.53l.15-.13a.47.47,0,0,0,.1-.11c.07-.05.11-.16.17-.24s.19-.44.31-.72a4.1,4.1,0,0,1,.21-.42,2.38,2.38,0,0,1,.32-.39,2.35,2.35,0,0,1,1.81-.6l-.22,0a3.72,3.72,0,0,1,.59-.25,4.61,4.61,0,0,1,.62-.14,4,4,0,0,1,.6-.05h.6c.39,0,.77.05,1.14.07h.83l.26-.06A21,21,0,0,0,68,12.43a4,4,0,0,1,.56-.17,1.91,1.91,0,0,1,.58-.06,1,1,0,0,1,.3,0,1,1,0,0,1,.28.09,2.72,2.72,0,0,1,.5.29Z"/><path class="cls-18" d="M37.44,35.29A1,1,0,0,0,36,34.71a7.54,7.54,0,0,0-1.34.8c-.95.69-2.16-.06-3.17.1-1.42.24-2.56.81-4,.93a4.55,4.55,0,0,0-3,1.38A12.2,12.2,0,0,0,23,39.85a7.9,7.9,0,0,1-2.32,1.74A1.76,1.76,0,0,0,20,43c-.88.4-1.4,1.91-.1,2.1a9.69,9.69,0,0,0,4.78-.73,11.37,11.37,0,0,0,2.11-1.27,8.73,8.73,0,0,1,4.5-1.3c1.83-.18,3.64-1.83,5-2.9A3.4,3.4,0,0,0,37.44,35.29Z"/><path class="cls-19" d="M37.4,35.31a.84.84,0,0,0-.35-.5,1.14,1.14,0,0,0-.6-.15,1.26,1.26,0,0,0-.59.2c-.19.11-.39.21-.57.33l-.51.4-.06,0-.08.06-.14.09a1.81,1.81,0,0,1-.35.16,3.5,3.5,0,0,1-1.4,0,4.2,4.2,0,0,0-1.22,0c-.37.11-.84.21-1.24.35L29,36.68a9.9,9.9,0,0,1-1.36.25l-.17,0h-.15L27,37c-.19,0-.38.06-.58.11a3.78,3.78,0,0,0-1.12.46,3,3,0,0,0-.5.35l-.23.18-.22.25a8.63,8.63,0,0,0-.84,1l-.38.53a3.65,3.65,0,0,1-.45.52,6.77,6.77,0,0,1-1.11.78l-.56.34a2.13,2.13,0,0,0-.49.38,1.66,1.66,0,0,0-.38,1.1v.11l-.12.06a1.37,1.37,0,0,0-.7,1.05c0,.43.27.58.76.59l.39,0,.36,0c.24,0,.49,0,.74-.06a9.17,9.17,0,0,0,1.45-.32,14.12,14.12,0,0,0,1.43-.48,6.63,6.63,0,0,0,.65-.33c.19-.12.38-.24.6-.4l.63-.45c.25-.17.45-.28.68-.43a7.22,7.22,0,0,1,1.56-.64c.27-.08.54-.12.8-.18s.54-.09.8-.11l.79-.08h.22s.05,0,0,0h.07l.09,0,.39-.07a1.06,1.06,0,0,0,.33-.09l.32-.1c.21-.08.43-.2.66-.3l.65-.35.65-.4c.43-.28.85-.57,1.28-.87.2-.14.44-.3.62-.44l.3-.25a3.07,3.07,0,0,0,.25-.26,2.82,2.82,0,0,0,.65-1.33,4.32,4.32,0,0,0,0-1.52Zm.09,0a4.83,4.83,0,0,1,.09,1.56A3.53,3.53,0,0,1,37,38.33l-.24.34-.28.28c-.2.2-.38.35-.58.53-.38.36-.76.7-1.16,1.05-.21.16-.41.34-.63.5l-.67.45c-.24.13-.47.27-.73.39L32.3,42a2.64,2.64,0,0,1-.4.13l-.39.08-.09,0h-.14l-.19,0c-.26,0-.51.06-.76.09a10.94,10.94,0,0,0-1.45.28,6.15,6.15,0,0,0-1.32.52c-.21.13-.47.26-.64.38l-.65.43c-.21.14-.47.29-.72.43a6.52,6.52,0,0,1-.75.35,15.87,15.87,0,0,1-1.53.46,12.11,12.11,0,0,1-1.6.25c-.27,0-.53,0-.82,0l-.42,0-.38-.06-.19,0-.24-.06a1.23,1.23,0,0,1-.45-.24,1,1,0,0,1-.33-.94,1.83,1.83,0,0,1,1.05-1.35l-.11.18a2.09,2.09,0,0,1,.53-1.32,5.54,5.54,0,0,1,1.13-.75,6.2,6.2,0,0,0,1-.75,6.2,6.2,0,0,0,.74-1.06A9.59,9.59,0,0,1,24,38l.2-.27.25-.27a5,5,0,0,1,1.8-1.11,5.12,5.12,0,0,1,.7-.18l.33,0,.18,0,.15,0a11.35,11.35,0,0,0,1.24-.25l1.28-.33c.45-.11.85-.17,1.33-.25a4.15,4.15,0,0,1,1.41.19,3.2,3.2,0,0,0,1.21.12l.28-.08.14-.07.06,0,.07,0,.59-.34.59-.29a1.42,1.42,0,0,1,.67-.17,1.2,1.2,0,0,1,.66.18,1,1,0,0,1,.38.56Z"/><path class="cls-20" d="M18.73,29.64c.17,1-.49,1.76-1.64,2.21a13.89,13.89,0,0,0-2.79,1c-.63.44-.87,1.38-1.64,1.65-1.74.6-3.4.6-4.89,1.89-.94.82-1.88,2-3.11,2.37a7,7,0,0,1-4.41-.58,2.92,2.92,0,0,0,.49,1c1,1.38,3,.71,4.24,1.88,1.89,1.85,4.64.43,6-1.42.65-.89.81-2.23,1.63-3,.4-.37,1.78-.3,2.33-.46a2.59,2.59,0,0,0,1.24-.88c.9-1.1.38-2.12,2.06-2.54a1.94,1.94,0,0,0,1.44-1.59A1.14,1.14,0,0,0,18.73,29.64Z"/><path class="cls-20" d="M70.21,12.66a1.79,1.79,0,0,0-.91-.4A2.75,2.75,0,0,1,68,15.61c-1.66,1-5.12-.07-4.48,3.18a3.29,3.29,0,0,1-.81,3.3c-.78.85-2.33.05-3.31.42-1.46.56-2.62,1.93-4.18,2.25a5,5,0,0,1-2,0c-1.5-.32-2.53-.31-3.69.87-.51.52-1,1-1.73.73a2.72,2.72,0,0,0-.39.37.89.89,0,0,0,.74.56,2.44,2.44,0,0,0,1.77-.42,6.88,6.88,0,0,1,4-.73,6.79,6.79,0,0,0,3-.62c1.29-.53,3,.21,4.43.08.8-.07,1.52-.94,2-1.48a39.41,39.41,0,0,1,3.07-3.4c1.53-1.3,3.07-2.25,4.13-4C71.19,15.6,71.32,13.56,70.21,12.66Z"/><path class="cls-20" d="M37.05,34.74a6.89,6.89,0,0,1-.24.92,4.49,4.49,0,0,1-1.44,2,4.6,4.6,0,0,1-2.41,1,9.65,9.65,0,0,1-3.08-.5c-1.81-.34-2.41,1.66-3.56,2.62a4.13,4.13,0,0,1-2.57.8c-1-.1-1.36,1.34-2.25,1.7a3.33,3.33,0,0,1-1.9,0c-.63.58-.83,1.69.27,1.85a9.69,9.69,0,0,0,4.78-.73,11.37,11.37,0,0,0,2.11-1.27,8.73,8.73,0,0,1,4.5-1.3c1.83-.18,3.64-1.83,5-2.9a3.4,3.4,0,0,0,1.17-3.6A.84.84,0,0,0,37.05,34.74Z"/></g></g></g></svg>