<svg width="20" height="20" viewBox="0 0 20 20" fill="none" xmlns="http://www.w3.org/2000/svg">
<path d="M9.08329 1.75L17.3325 2.92917L18.5108 11.1792L10.8508 18.8392C10.6945 18.9954 10.4826 19.0832 10.2616 19.0832C10.0407 19.0832 9.82873 18.9954 9.67246 18.8392L1.42246 10.5892C1.26623 10.4329 1.17847 10.221 1.17847 10C1.17847 9.77903 1.26623 9.56711 1.42246 9.41083L9.08329 1.75ZM11.44 8.82167C11.5948 8.97641 11.7785 9.09914 11.9807 9.18287C12.183 9.26659 12.3997 9.30967 12.6186 9.30963C12.8375 9.30959 13.0542 9.26644 13.2564 9.18264C13.4586 9.09885 13.6423 8.97605 13.797 8.82125C13.9518 8.66645 14.0745 8.4827 14.1582 8.28047C14.242 8.07824 14.285 7.8615 14.285 7.64262C14.285 7.42375 14.2418 7.20702 14.158 7.00482C14.0742 6.80262 13.9514 6.61891 13.7966 6.46417C13.6418 6.30943 13.4581 6.18669 13.2558 6.10296C13.0536 6.01924 12.8369 5.97617 12.618 5.97621C12.176 5.97629 11.7521 6.15196 11.4395 6.46458C11.127 6.77721 10.9515 7.20117 10.9516 7.64321C10.9517 8.08525 11.1273 8.50915 11.44 8.82167Z" fill="white"/>
</svg>
