<svg xmlns="http://www.w3.org/2000/svg" xmlns:xlink="http://www.w3.org/1999/xlink" viewBox="0 0 58.65 59.15"><defs><style>.cls-1{mask:url(#mask);filter:url(#luminosity-noclip-2);}.cls-10,.cls-2,.cls-6,.cls-7,.cls-8{mix-blend-mode:multiply;}.cls-2{fill:url(#radial-gradient);}.cls-3{isolation:isolate;}.cls-4{fill:#ff4617;}.cls-5{fill:#67000d;}.cls-6{fill:#b03714;}.cls-7{fill:#e0001d;}.cls-8{fill:url(#radial-gradient-2);}.cls-9{fill:#fff;}.cls-10{fill:#2c0000;opacity:0.7;}.cls-11,.cls-13{fill:#e9311f;}.cls-11,.cls-12,.cls-15{mix-blend-mode:screen;}.cls-14{mask:url(#mask-2);}.cls-15{fill:url(#radial-gradient-3);}.cls-16{filter:url(#luminosity-noclip);}</style><filter id="luminosity-noclip" x="0.93" y="-8393.3" width="46.13" height="32766" filterUnits="userSpaceOnUse" color-interpolation-filters="sRGB"><feFlood flood-color="#fff" result="bg"/><feBlend in="SourceGraphic" in2="bg"/></filter><mask id="mask" x="0.93" y="-8393.3" width="46.13" height="32766" maskUnits="userSpaceOnUse"><g class="cls-16"/></mask><radialGradient id="radial-gradient" cx="39.8" cy="42.16" r="42.07" gradientTransform="translate(-0.87 -1.18) scale(1 0.99)" gradientUnits="userSpaceOnUse"><stop offset="0"/><stop offset="0.22" stop-color="#030303"/><stop offset="0.36" stop-color="#0b0b0b"/><stop offset="0.47" stop-color="#191919"/><stop offset="0.57" stop-color="#2e2e2e"/><stop offset="0.66" stop-color="#484848"/><stop offset="0.74" stop-color="#696969"/><stop offset="0.82" stop-color="#909090"/><stop offset="0.9" stop-color="#bdbdbd"/><stop offset="0.97" stop-color="#eee"/><stop offset="0.99" stop-color="#fff"/></radialGradient><radialGradient id="radial-gradient-2" cx="16.52" cy="21.55" r="41.54" gradientTransform="translate(-0.87 -1.18) scale(1 0.99)" gradientUnits="userSpaceOnUse"><stop offset="0" stop-color="#fff"/><stop offset="0.37" stop-color="#fefdfd"/><stop offset="0.51" stop-color="#f9f6f6"/><stop offset="0.6" stop-color="#f2ebeb"/><stop offset="0.68" stop-color="#e7dada"/><stop offset="0.75" stop-color="#d9c4c4"/><stop offset="0.8" stop-color="#c8a8a8"/><stop offset="0.86" stop-color="#b38888"/><stop offset="0.91" stop-color="#9b6262"/><stop offset="0.95" stop-color="#803737"/><stop offset="0.99" stop-color="#630909"/><stop offset="1" stop-color="#5d0000"/></radialGradient><filter id="luminosity-noclip-2" x="0.93" y="1.15" width="46.13" height="44.92" filterUnits="userSpaceOnUse" color-interpolation-filters="sRGB"><feFlood flood-color="#fff" result="bg"/><feBlend in="SourceGraphic" in2="bg"/></filter><mask id="mask-2" x="0.93" y="1.15" width="46.13" height="44.92" maskUnits="userSpaceOnUse"><g class="cls-1"><path class="cls-2" d="M8.57,43.89c2-1,3.29-2.62,3-5-.35-3.24-2.49-6.1-2.24-9.43a5.54,5.54,0,0,1,3.36-4.61c2.06-.91,4.45-.82,6.64-1.12,1.84-.26,3.72-.73,4.65-2.53a17.07,17.07,0,0,1,1.67-3c1.74-2.15,5-2.2,7.25-.85,1.22.74,2.48,2.61,3.94,2.82,2.65.37,2.7-2.06,3.38-3.82,0-.12.25-.3.39-.23,1.56.73,2.48,2.71,4.09,3.23,2.18.71,2.53-3.81,2.24-5-.35-1.44-1-2.77-1.44-4.17S44.3,7.12,45,5.8A28.51,28.51,0,0,0,.93,29.55,28.21,28.21,0,0,0,6.26,46.08,4.34,4.34,0,0,1,8.57,43.89Z"/></g></mask><radialGradient id="radial-gradient-3" cx="39.8" cy="42.16" r="42.07" gradientTransform="translate(-0.87 -1.18) scale(1 0.99)" gradientUnits="userSpaceOnUse"><stop offset="0" stop-color="#2b2b2b"/><stop offset="0.24" stop-color="#2e2d2c"/><stop offset="0.38" stop-color="#36322f"/><stop offset="0.5" stop-color="#443a35"/><stop offset="0.61" stop-color="#59463d"/><stop offset="0.71" stop-color="#735647"/><stop offset="0.8" stop-color="#946a53"/><stop offset="0.89" stop-color="#bb8162"/><stop offset="0.97" stop-color="#e79b73"/><stop offset="0.99" stop-color="#f7a579"/></radialGradient></defs><g class="cls-3"><g id="Layer_2" data-name="Layer 2"><g id="Layer_2-2" data-name="Layer 2"><path class="cls-4" d="M58.6,29.55A29.17,29.17,0,1,1,29.43.49,29.11,29.11,0,0,1,58.6,29.55Z"/><path class="cls-5" d="M58.65,29.55s0,.18,0,.52,0,.86-.06,1.53a27.8,27.8,0,0,1-.95,5.72A29.53,29.53,0,0,1,54,45.58,29.21,29.21,0,0,1,45.84,54a30.64,30.64,0,0,1-6,3.13,28.34,28.34,0,0,1-7.06,1.67,29.1,29.1,0,0,1-15.27-2.47A30.06,30.06,0,0,1,5,45.7,29.14,29.14,0,0,1,1.34,38a31.46,31.46,0,0,1-1-4.19A30.79,30.79,0,0,1,0,29.54a31.23,31.23,0,0,1,.27-4.3A30.47,30.47,0,0,1,1.17,21a29.28,29.28,0,0,1,3.61-7.77A29.58,29.58,0,0,1,17.41,2.53,28.53,28.53,0,0,1,25.11.31c.65-.08,1.3-.18,1.95-.21.32,0,.65-.06,1-.07l1,0c.68,0,1.27,0,1.91,0s1.27.08,1.89.16a28.82,28.82,0,0,1,7.06,1.71,30,30,0,0,1,6,3.15A29.46,29.46,0,0,1,57.63,21.77a27.87,27.87,0,0,1,.95,5.73c.06.66,0,1.18.06,1.52S58.65,29.55,58.65,29.55Zm-.1,0s0-.18,0-.52,0-.86-.07-1.53a28.26,28.26,0,0,0-1-5.67A25.1,25.1,0,0,0,56,18a27.86,27.86,0,0,0-2.37-4.21,29.38,29.38,0,0,0-21-12.58c-.6-.08-1.2-.1-1.81-.15l-.94,0H29l-.93,0-.94.07c-.63,0-1.25.13-1.88.21a27.44,27.44,0,0,0-3.76.82c-.63.16-1.24.39-1.86.59s-1.23.45-1.83.73A28.89,28.89,0,0,0,.53,29.56,29.9,29.9,0,0,0,.8,33.78a29,29,0,0,0,.89,4.14,28.77,28.77,0,0,0,3.56,7.61A28.5,28.5,0,0,0,17.72,55.88c.6.27,1.23.48,1.85.72s1.24.42,1.87.57a28.3,28.3,0,0,0,3.79.77c.64.07,1.27.16,1.89.19.32,0,.63,0,.94,0l1,0c.62,0,1.24,0,1.85,0s1.23-.08,1.83-.16A29.93,29.93,0,0,0,45.42,53.4a29.43,29.43,0,0,0,8.23-8A27.12,27.12,0,0,0,56,41.14a24,24,0,0,0,1.42-3.87,27.52,27.52,0,0,0,1-5.68c.07-.66.06-1.17.07-1.52S58.55,29.55,58.55,29.55Z"/><path class="cls-6" d="M11.63,52.56A29.21,29.21,0,0,0,17.45,56a4.3,4.3,0,0,0,2.81-.84c2.89-2.78-4-6.42-.79-8.91,1.8-1.38,4.67-1,6.78-1,1.61,0,6.87.6,6.66-2.12a6.19,6.19,0,0,0-2.09-4.06,19.49,19.49,0,0,1-3-2.25,4.06,4.06,0,0,1,1.37-6.08c1.57-.82,3.65-1.16,4.77-2.66a4.12,4.12,0,0,0-.22-5.25,4.73,4.73,0,0,0-5.95-1.11c-1.49.92-2.4,2.38-3.65,3.57-2.66,2.53-5.79.73-9,1.56-2.11.54-4.63,3.47-2.83,5.59a10.42,10.42,0,0,1,2.21,3.42c.94,2.69,1.06,6.86-1.95,8.46-1,.53-5.22,1.74-6,3.19A28.36,28.36,0,0,0,11.63,52.56Z"/><path class="cls-6" d="M49.55,8.52a1.9,1.9,0,0,0-1.08,1.12c-1.27,3.36,1.85,6,3.18,8.76.89,1.83.32,5.08-2.09,5.52-1.47.26-3-.57-4.43-.13a4.61,4.61,0,0,0-3.29,4.44c-.09,2.15,1.36,8.34,4.7,6.4,1.88-1.1,3.24-3,5.32-3.8s4.68-.57,6.21,1.1a5.45,5.45,0,0,1,.38.46c.09-.94.15-1.88.15-2.84A29,29,0,0,0,49.55,8.52Z"/><path class="cls-6" d="M36.39,1.33A5,5,0,0,1,34.74,5c-2,1.77-5.14,3.27-6.37,5.74-.57,1.14-.14,3.54,1.62,3.32,1.12-.15,2-1.2,2.81-1.9,1.55-1.33,3.51-2.53,5.5-1.27,1.5.94,2.31,3,3.36,4.34.44.58,1.41,2.12,2.3,2,1.23-.09,1-3.7.76-4.45C44,9.91,41.8,7.55,41.23,4.58a4.09,4.09,0,0,1,0-1.6A28.56,28.56,0,0,0,36.39,1.33Z"/><path class="cls-6" d="M13.12,6.53a11.05,11.05,0,0,1,3.74.68.28.28,0,0,1,.07.45c-.25.34-1.33,1.66-.38,1.8a5,5,0,0,0,2.13-.31,26,26,0,0,0,4.88-2.08c1.88-1,4.05-2.67,4.32-5A4.28,4.28,0,0,0,27.75.55a28.94,28.94,0,0,0-15.9,5.83A9.34,9.34,0,0,0,13.12,6.53Z"/><path class="cls-6" d="M16.68,3.71c.42.26.49,1,.61,1.36.38,1.17,1.5,1,2.42.66,1.44-.58,3.66-1.58,4-3.25A6.34,6.34,0,0,0,23.9,1a29,29,0,0,0-7.51,2.53Z"/><path class="cls-7" d="M55.21,31.14c-3.67-.56-5.31,2-8,3.73-5,3.22-7.07-6.12-5.13-9.35a4.85,4.85,0,0,1,3.06-2.34c1.57-.27,4.17.9,5.35-.39,3.15-3.43-2.2-7-2.73-10.48-.24-1.6.06-3.35,1.4-4.18a29.35,29.35,0,0,0-7.38-4.92,4.3,4.3,0,0,0,0,.51,10.39,10.39,0,0,0,1.41,4c1.35,2.56,2.67,4.93,2.17,7.92-.19,1.15-.88,3-2.33,1.93-1.65-1.17-2.68-3.17-3.81-4.79-1.69-2.43-4-2.05-6.08-.22-1,.9-2.84,2.9-4.36,1.77-1.77-1.31-1.49-3.28-.17-4.81,1.75-2.05,4.15-3.31,6.06-5.17a4.54,4.54,0,0,0,1.23-3.17A29.6,29.6,0,0,0,29.43.49l-1,0a3.88,3.88,0,0,1-.18,2.41A10,10,0,0,1,23,8c-1.8.89-4.21,2.23-6.3,2.09-1.61-.1-1-1.48-.38-2.4-1.18-.32-3.67-.28-5-.88A25.6,25.6,0,0,0,9.12,8.71a4.84,4.84,0,0,0,0,1.14c.18,2,1.85,2,3.28,2.79,2.05,1.08,3.32,4.19,3.46,6.43C16,21.59,14.7,23.46,12.74,25S6.88,27.82,7,30.81c.06,1.91,1.16,2.46,1.9,4a3.19,3.19,0,0,1-.21,2.66C7.75,39.29,4.84,39.56,3.43,41a6.57,6.57,0,0,0-.55.62,28.85,28.85,0,0,0,3.3,5.5,4.65,4.65,0,0,1,1.53-1.2c2.71-1.42,6.38-1.83,6.81-5.57a8.71,8.71,0,0,0-1.69-6.2c-.64-.75-1.61-1.52-1.66-2.59a5.16,5.16,0,0,1,4.33-5.3,11.38,11.38,0,0,1,4.35-.09c2.47.45,3.79-.95,5.28-2.64,1.65-1.86,3.94-3.65,6.61-2.74a5.21,5.21,0,0,1,3.66,5.18c-.29,2.73-2.49,3.91-4.8,4.84-2,.82-4.37,3.21-2.48,5.42.94,1.1,2.35,1.61,3.36,2.62s2.58,3.57,1.85,5.25c-.6,1.36-2.19,1.7-3.54,1.82-2.2.19-4.42,0-6.63.06a6.82,6.82,0,0,0-3,.57c-1.63.93-.49,2.84.3,4,1.2,1.76,1.95,4.23-.37,5.52a4.66,4.66,0,0,1-1.59.48,29.11,29.11,0,0,0,11,2.13c.42,0,.84,0,1.25,0a7,7,0,0,1-3.05-4c-.37-1.12-.78-3.37.58-4.11s3-.41,4.44-.42c2.19,0,4.37-.59,5.58-2.61,1.48-2.49-1.22-4.59-2.45-6.5-1-1.5-1-3.12.72-4.08s6,0,6.52,2c.35,1.45,0,3.19.63,4.55,1.08,2.3,3,.26,3.71-1.05.9-1.69,1.85-4.77,4-5.29,3.27-.78,4.41,2.1,4.36,5.05a28.66,28.66,0,0,0,2.61-8.8A4.44,4.44,0,0,0,55.21,31.14Z"/><path class="cls-6" d="M53.84,38.15c-3.18-2.46-5,2.6-6.12,4.64-.68,1.23-2.63,3.4-4.11,1.76-.9-1-.84-2.46-.93-3.72-.06-.82,0-1.92-.81-2.43a7.39,7.39,0,0,0-2.37-1c-1.72-.4-4.86.16-3.58,2.52a19.94,19.94,0,0,0,1.8,2.49c1.12,1.47,2.16,3.31,1.08,5.11-1.87,3.13-4.86,3.14-8.12,3.16-1.07,0-2.63,0-2.79,1.39a5,5,0,0,0,.44,2.58c.57,1.31,1.54,3,3,3.5.19.07.19.26.1.42A29.15,29.15,0,0,0,55.19,43.18C55.43,41.24,55.12,39.15,53.84,38.15Z"/><path class="cls-6" d="M5.32,39c1.48-.7,4.36-1.88,2.89-4.1-.71-1.06-1.49-1.7-1.74-3C5.22,25.61,16,25.61,15.23,19.24c-.22-1.78-1-4.57-2.58-5.63-1.06-.72-2.36-.81-3.33-1.66a2.93,2.93,0,0,1-.85-2.59A28.95,28.95,0,0,0,2.64,41.05,8.27,8.27,0,0,1,5.32,39Z"/><path class="cls-6" d="M21.8,33.56a2.46,2.46,0,0,1,0-2,1.9,1.9,0,0,1,1-.85c.24-.12.51-.18.75-.28.51-.88.36-1.43-.44-1.64-3.94-1.59-7,1.64-6.16,5.34l.37.62a8.54,8.54,0,0,1,1.09,3.68c.2,2.56-.11,5.85-2.54,7.35-1.41.87-4.76,2.32-2.94,4.48.58.7,1.81,1.85,2.89,1.07.51-.36.1-1,0-1.39a8.65,8.65,0,0,1-.14-1.76c.14-3,2.42-4.5,5.29-4.48,1.57,0,5.2.17,5.61-2a4.06,4.06,0,0,0-1-2.93C24.33,37.08,22.54,35.52,21.8,33.56Z"/><path class="cls-6" d="M31.05,23.42a.21.21,0,0,1-.15-.19,3.39,3.39,0,0,0-4.21,1.44c-.61,1.34.13,3.84,1.92,3.81C30.83,28.43,34.28,24.66,31.05,23.42Z"/><path class="cls-6" d="M49.74,25.72c-1,.15-4-.12-3.91,1.63s1.16,3.25,3,2.59,2.93-2.63,4.74-3.18a3.65,3.65,0,0,1,2.5.15c.67.28,1.7,1.05,2.45,1a28.88,28.88,0,0,0-7.4-17.73,7.1,7.1,0,0,0,.09,4c.78,2.13,2.59,3.76,3,6.07C54.69,23.32,52.72,25.29,49.74,25.72Z"/><path class="cls-6" d="M35.91,5.92c-1,.71-5.76,2.81-4.45,4.37s4.29-2.14,5-3.15a17.48,17.48,0,0,0,2.61-5c-.32-.11-.64-.22-1-.31A5.86,5.86,0,0,1,35.91,5.92Z"/><path class="cls-6" d="M52.05,41.78c-2.12-.53-3.93,3.62-4.67,5a13.14,13.14,0,0,1-3.71,4.53c-1.68,1.24-3.64.65-5.56.61-1.56,0-3.91.3-3.66,2.39a4.87,4.87,0,0,0,2.25,3.41,29.2,29.2,0,0,0,15.41-9.88C52.76,45.6,53.42,42.12,52.05,41.78Z"/><path class="cls-6" d="M40.09,40.26c-.09-.09,0-.69-.12-.75a.2.2,0,0,1-.24-.11,1.68,1.68,0,0,0-.59-.08c-.27,0-.7.13-.7.48,0,.56.56,1.57,1.26,1.37.55-.15,1.17-1.13.93-1.52C40.53,39.77,40.21,40.37,40.09,40.26Z"/><path class="cls-6" d="M9.76,22.78a3.06,3.06,0,0,0,.8-2.21c-.1-1.09-1.29-.17-1.65,0-.51.27-1.31.78-1.94.64-.85-.19-1.72-.8-2.51-.09a8.94,8.94,0,0,0-1.39,1.68A13.21,13.21,0,0,1,.47,26.1a30.15,30.15,0,0,0-.21,3.45,28.67,28.67,0,0,0,1,7.45A3.85,3.85,0,0,0,4,34.84c.85-2.3-1.45-4.23-1.19-6.51C3.22,24.27,7.57,25.21,9.76,22.78Z"/><path class="cls-6" d="M5.1,17.15c.92.32,1.44,1.31,2.43.23.73-.8,1.67-2.41.76-3.43-1.09-1.23-.85-.36-1.71-.6a1.32,1.32,0,0,1-.86-.71,28.83,28.83,0,0,0-4.06,8C2.8,19,4.06,16.78,5.1,17.15Z"/><path class="cls-6" d="M48.73,43.71a2.22,2.22,0,0,0-2.32,1.08,2.84,2.84,0,0,0-.51,1.1l0,.28c0-.16,0-.17,0,0a1.57,1.57,0,0,0,0,.43,1.24,1.24,0,0,0,.39.87,1.05,1.05,0,0,0,.72.26,1.3,1.3,0,0,0,1.23-.26,3.69,3.69,0,0,0,1.1-1.62C49.58,45,49.69,44.06,48.73,43.71Z"/><path class="cls-6" d="M50.91,42a1,1,0,0,0-1.53.44l0,.16s-.09.22,0,.11a.68.68,0,0,0,.48,1C50.65,43.84,51.48,42.76,50.91,42Z"/><path class="cls-6" d="M42.16,49.21a1.06,1.06,0,0,0-1.39,0,1.52,1.52,0,0,0-.67,1.3.74.74,0,0,0,.67.75,1.36,1.36,0,0,0,1.19-.7,1.78,1.78,0,0,0,.33-.46A.73.73,0,0,0,42.16,49.21Z"/><path class="cls-6" d="M47.35,37.36a1.79,1.79,0,0,0-.87-1,1.55,1.55,0,0,0-1.49.27,2.56,2.56,0,0,0-1,2.52,1.81,1.81,0,0,0,.54,1,.8.8,0,0,0,.21.15,1.15,1.15,0,0,0,.59.27c.79.14,1.43-.61,1.75-1.22A2.67,2.67,0,0,0,47.35,37.36Z"/><path class="cls-6" d="M52.4,26.85a.72.72,0,0,0-.28-.16.43.43,0,0,0-.53-.42.68.68,0,0,0-.52.64A3.06,3.06,0,0,0,51,28c.1.43.62.42.91.21.12-.09.24-.17.35-.27A.75.75,0,0,0,52.4,26.85Z"/><path class="cls-6" d="M56.49,23.86a1.5,1.5,0,0,0-.57-.74,1.16,1.16,0,0,0-1.36.08c-1.26.84-1.31,3.24-.33,4.45a.9.9,0,0,0,1.09.68,2.16,2.16,0,0,0,2.25-2A3.19,3.19,0,0,0,56.49,23.86Z"/><path class="cls-6" d="M54.39,17.86c-.68-.12-1.26.61-1.25,1.22a.71.71,0,0,0,.31.59.3.3,0,0,0,.06.11l.06.08.06.08v0a.77.77,0,0,0,1.07-.2,2.11,2.11,0,0,0,.33-.86A.78.78,0,0,0,54.39,17.86Z"/><path class="cls-6" d="M50.1,15.8a1.35,1.35,0,0,0-1.34-.6.28.28,0,0,0-.12,0,.52.52,0,0,0-.66.19c-.77,1.08-.23,4,1.54,3.24C50.59,18.23,50.69,16.66,50.1,15.8Z"/><path class="cls-6" d="M40.57,31.36c-.25-1-1.63-.44-1.74.35,0,.13,0,.26,0,.39l-.09.26a.61.61,0,0,0,.35.75,1.13,1.13,0,0,0,1.21-.37l.08-.07a1.25,1.25,0,0,0,.29-.87A1.61,1.61,0,0,0,40.57,31.36Z"/><path class="cls-6" d="M34.45,46.33a1.47,1.47,0,0,0-1.42-1,1.89,1.89,0,0,0-.92.25,4.22,4.22,0,0,0-1.52,1.6c-.57.93-1,2.27-.08,3.13s2.26-.2,2.92-.85A3.41,3.41,0,0,0,34.45,46.33Z"/><path class="cls-6" d="M24.78,50.7a1.12,1.12,0,0,0-.65-.93,1.72,1.72,0,0,0-1.69.4,2.51,2.51,0,0,0-1,1.77,1.06,1.06,0,0,0,.64,1A1.53,1.53,0,0,0,23,53a2.57,2.57,0,0,0,1-.45,1.5,1.5,0,0,0,.59-.9.47.47,0,0,0,.06-.09A1.51,1.51,0,0,0,24.78,50.7Z"/><path class="cls-6" d="M31.91,53.94a.48.48,0,0,0-.19-.26.79.79,0,0,0-1.08.21,1.64,1.64,0,0,0-.14.22.77.77,0,0,0-.08.86s0,0,0,.06a.67.67,0,0,0,.35.31c.66.24,1.2-.41,1.23-1A.6.6,0,0,0,31.91,53.94Z"/><path class="cls-6" d="M56.14,34.77a2.21,2.21,0,0,0,.19-1c-.07-.8-.58-1.56-1.49-1.36a2.33,2.33,0,0,0-1.57,1.7,1.86,1.86,0,0,0-.05.74,1.26,1.26,0,0,0,.7,1.36,1.57,1.57,0,0,0,1.79-.7l.09-.13A2,2,0,0,0,56.14,34.77Z"/><path class="cls-6" d="M15,49.71a1.64,1.64,0,0,0-1.63-1.28,5.06,5.06,0,0,0-.46-.24,2.28,2.28,0,0,0-1.43-.36,1.57,1.57,0,0,0-1.22,1.51,2.21,2.21,0,0,0,.83,1.47,3.81,3.81,0,0,0,2.31,1.11A1.73,1.73,0,0,0,15,49.71Z"/><path class="cls-6" d="M18.35,51.82a2.39,2.39,0,0,0-.22-.23.84.84,0,0,0-1,.06c-.33.26-.63.89-.31,1.27a1.51,1.51,0,0,0,.21.23.77.77,0,0,0,.84.06,1.21,1.21,0,0,0,.53-.52A.87.87,0,0,0,18.35,51.82Z"/><path class="cls-6" d="M8.88,41.8a.75.75,0,0,0-.72-.36,2.42,2.42,0,0,0-1.34-.66A1.32,1.32,0,0,0,5.56,42.5a2.31,2.31,0,0,0,.93,1.18,1.63,1.63,0,0,0,.78.27,1.14,1.14,0,0,0,1.48-.49,1.28,1.28,0,0,0,.16-.55A1.3,1.3,0,0,0,8.88,41.8Z"/><path class="cls-6" d="M14.89,42.94a.68.68,0,0,0-.37.09,1,1,0,0,0-.61,1.36c.4.63,1.42.14,1.5-.5,0-.11,0-.23,0-.34A.59.59,0,0,0,14.89,42.94Z"/><path class="cls-6" d="M34.47,36a1.06,1.06,0,0,0-.55.38c-.27.29-.19.88.27.9a.77.77,0,0,0,.65-.29.54.54,0,0,0,.13-.35C35.06,36.32,34.92,35.94,34.47,36Z"/><path class="cls-6" d="M46.35,20.32c0-.59-.29-1.6-1-1.59a1.9,1.9,0,0,0-1.63,1.4,2,2,0,0,0,.07,2,.56.56,0,0,0,0,.12,1,1,0,0,0,1.67.24,2.25,2.25,0,0,0,.51-.64,1.68,1.68,0,0,0,.2-.34,1.49,1.49,0,0,0,.11-.58A4.09,4.09,0,0,0,46.35,20.32Z"/><path class="cls-6" d="M21.73,30.17a.86.86,0,0,0-.74.38l-.09.09a.88.88,0,0,0-.12,1h0a.78.78,0,0,0,1.26-.08,1.16,1.16,0,0,0,.25-.76A.64.64,0,0,0,21.73,30.17Z"/><ellipse class="cls-8" cx="29.43" cy="30.09" rx="29.17" ry="29.06"/><path class="cls-9" d="M11.28,7.81S-7,23.1,4.47,43.45C4.47,43.45-4.35,23.76,11.28,7.81Z"/><path class="cls-10" d="M54.74,17s6.52,20.54-5.53,33.57C49.21,50.52,63.84,39.56,54.74,17Z"/><path class="cls-11" d="M16.46,29a1,1,0,0,0-.85-.47,2.19,2.19,0,0,0-2,1.85,1.31,1.31,0,0,0,.12.78,1.05,1.05,0,0,0,1.2.5,2.42,2.42,0,0,0,1.26-.83A1.59,1.59,0,0,0,16.46,29Z"/><path class="cls-11" d="M21.42,14.52a.72.72,0,0,0-1.14-.07,1,1,0,0,0-.36.46l0,.12h0a1,1,0,0,0,0,.24.57.57,0,0,0,.32.64,1,1,0,0,0,.9-.17A.94.94,0,0,0,21.42,14.52Z"/><path class="cls-11" d="M18.73,19.67a.83.83,0,0,0-1-.55,1.57,1.57,0,0,0-1,.62A2,2,0,0,0,16.15,21a1.14,1.14,0,0,0,.35.82,1,1,0,0,0,.89.19,1.58,1.58,0,0,0,1.16-1.19c0-.06.05-.11.07-.17A1.51,1.51,0,0,0,18.73,19.67Z"/><path class="cls-11" d="M11.92,18.59c-.86,0-1.35,1.53-.36,1.53S12.91,18.59,11.92,18.59Z"/><path class="cls-11" d="M37.78,17.63a1,1,0,0,0-.83-.19,2.62,2.62,0,0,0-1.34.85A1.78,1.78,0,0,0,35,20.06a1.08,1.08,0,0,0,1,.73,1.59,1.59,0,0,0,1.46-.93l0-.12a2,2,0,0,0,.57-1.06A1.12,1.12,0,0,0,37.78,17.63Z"/><path class="cls-11" d="M29,14.77c-.75,0-1.17,1.33-.31,1.33S29.87,14.77,29,14.77Z"/><path class="cls-11" d="M36.63,12.14a1.23,1.23,0,0,0-1-.18,2.77,2.77,0,0,0-1.52,1,1.46,1.46,0,0,0-.34,1.27.86.86,0,0,0,0,.16.88.88,0,0,0,.6.82A1.91,1.91,0,0,0,36,14.65a2.43,2.43,0,0,0,1-1.41A1.08,1.08,0,0,0,36.63,12.14Z"/><g class="cls-12"><path class="cls-13" d="M9.56,16.57h0l-.05.06Z"/><path class="cls-13" d="M9.1,14.2a1.48,1.48,0,0,0-1.32.88,1.39,1.39,0,0,0-.16.77.35.35,0,0,0,0,.08.83.83,0,0,0,.64,1.22,1.71,1.71,0,0,0,1.34-.57l.13-.14a2.45,2.45,0,0,0,.24-.38,2.13,2.13,0,0,0,.19-.79A1,1,0,0,0,9.1,14.2Z"/><path class="cls-13" d="M9.5,16.64Z"/></g><path class="cls-11" d="M7.71,18.15c-.72,0-1.13,1.29-.3,1.29S8.55,18.15,7.71,18.15Z"/><g class="cls-14"><path class="cls-15" d="M8.57,43.89c2-1,3.29-2.62,3-5-.35-3.24-2.49-6.1-2.24-9.43a5.54,5.54,0,0,1,3.36-4.61c2.06-.91,4.45-.82,6.64-1.12,1.84-.26,3.72-.73,4.65-2.53a17.07,17.07,0,0,1,1.67-3c1.74-2.15,5-2.2,7.25-.85,1.22.74,2.48,2.61,3.94,2.82,2.65.37,2.7-2.06,3.38-3.82,0-.12.25-.3.39-.23,1.56.73,2.48,2.71,4.09,3.23,2.18.71,2.53-3.81,2.24-5-.35-1.44-1-2.77-1.44-4.17S44.3,7.12,45,5.8A28.51,28.51,0,0,0,.93,29.55,28.21,28.21,0,0,0,6.26,46.08,4.34,4.34,0,0,1,8.57,43.89Z"/></g></g></g></g></svg>