<svg xmlns="http://www.w3.org/2000/svg" xmlns:xlink="http://www.w3.org/1999/xlink" viewBox="0 0 57.66 86.78"><defs><style>.cls-1{mask:url(#mask);filter:url(#luminosity-noclip-2);}.cls-10,.cls-13,.cls-17,.cls-2,.cls-6{mix-blend-mode:multiply;}.cls-2{fill:url(#radial-gradient);}.cls-3{isolation:isolate;}.cls-4{fill:#35b5b8;}.cls-5{fill:#00597f;}.cls-6{opacity:0.9;}.cls-7,.cls-8,.cls-9{fill:#1cb6f0;}.cls-8{opacity:0.5;}.cls-13,.cls-9{opacity:0.7;}.cls-10{fill:url(#radial-gradient-2);}.cls-11{mask:url(#mask-2);}.cls-12{mix-blend-mode:screen;fill:url(#radial-gradient-3);}.cls-13{fill:#2b4176;}.cls-14,.cls-18{fill:#fff;}.cls-14{mix-blend-mode:overlay;}.cls-15{fill:#49bff2;}.cls-16{fill:url(#radial-gradient-4);}.cls-17{opacity:0.8;fill:url(#radial-gradient-5);}.cls-19{filter:url(#luminosity-noclip);}</style><filter id="luminosity-noclip" x="1.79" y="-8373.73" width="36.08" height="32766" filterUnits="userSpaceOnUse" color-interpolation-filters="sRGB"><feFlood flood-color="#fff" result="bg"/><feBlend in="SourceGraphic" in2="bg"/></filter><mask id="mask" x="1.79" y="-8373.73" width="36.08" height="32766" maskUnits="userSpaceOnUse"><g class="cls-19"/></mask><radialGradient id="radial-gradient" cx="59.39" cy="76.35" r="73.02" gradientTransform="translate(-2.92 -1.14) scale(0.99 0.99)" gradientUnits="userSpaceOnUse"><stop offset="0"/><stop offset="0.24" stop-color="#020202"/><stop offset="0.38" stop-color="#0b0b0b"/><stop offset="0.49" stop-color="#191919"/><stop offset="0.59" stop-color="#2c2c2c"/><stop offset="0.67" stop-color="#464646"/><stop offset="0.75" stop-color="#666"/><stop offset="0.83" stop-color="#8b8b8b"/><stop offset="0.9" stop-color="#b7b7b7"/><stop offset="0.97" stop-color="#e6e6e6"/><stop offset="1" stop-color="#fff"/></radialGradient><radialGradient id="radial-gradient-2" cx="14.84" cy="38.04" r="40.76" gradientTransform="translate(-2.92 -1.14) scale(0.99 0.99)" gradientUnits="userSpaceOnUse"><stop offset="0.55" stop-color="#fff"/><stop offset="0.64" stop-color="#fcfdfe"/><stop offset="0.69" stop-color="#f3f8fc"/><stop offset="0.75" stop-color="#e4eff7"/><stop offset="0.79" stop-color="#cee2f1"/><stop offset="0.84" stop-color="#b2d1e8"/><stop offset="0.88" stop-color="#90bdde"/><stop offset="0.92" stop-color="#67a4d2"/><stop offset="0.95" stop-color="#3788c4"/><stop offset="0.99" stop-color="#0369b5"/><stop offset="0.99" stop-color="#0067b4"/></radialGradient><filter id="luminosity-noclip-2" x="1.79" y="16.19" width="36.08" height="52.41" filterUnits="userSpaceOnUse" color-interpolation-filters="sRGB"><feFlood flood-color="#fff" result="bg"/><feBlend in="SourceGraphic" in2="bg"/></filter><mask id="mask-2" x="1.79" y="16.19" width="36.08" height="52.41" maskUnits="userSpaceOnUse"><g class="cls-1"><path class="cls-2" d="M9.62,53.35c-.62-.28-1.15-.69-1.77-1-.23-.11-.16-.37,0-.52C11.6,48,18.74,50.58,22,46.27c-4.71.28-9.69,1.49-14.14-.66-2.62-1.26-.83-2.92,1-3.74,2.46-1.1,5-1.18,7.54-2,.28-.09,1.59-.47,1.1-1.13a2,2,0,0,0-1.1-.81,7.06,7.06,0,0,0-2.67-.17,33.58,33.58,0,0,1-4.58.5c-.31,0-.21-.37-.08-.53,2.68-3,6.63-3,10.18-4.18.6-.21,3.24-1,2.16-1.74a5.13,5.13,0,0,0-3-.75,46.76,46.76,0,0,1-4.73.12c-.25,0-.26-.29-.14-.46C18.12,24,27,25.36,33.28,21.51c-.53-.63-1.19-1.13-1.68-1.8a.36.36,0,0,1,.1-.43c1.8-1.57,3.95-1.72,6.16-1.65A27.39,27.39,0,0,0,18,68.6C12.14,65.24,5.7,59.51,9.62,53.35Z"/></g></mask><radialGradient id="radial-gradient-3" cx="59.39" cy="76.35" r="73.02" gradientTransform="translate(-2.92 -1.14) scale(0.99 0.99)" gradientUnits="userSpaceOnUse"><stop offset="0" stop-color="#2b2b2b"/><stop offset="0.26" stop-color="#2d2d2d"/><stop offset="0.4" stop-color="#363636"/><stop offset="0.52" stop-color="#444"/><stop offset="0.62" stop-color="#575757"/><stop offset="0.71" stop-color="#717171"/><stop offset="0.8" stop-color="#909090"/><stop offset="0.88" stop-color="#b6b6b6"/><stop offset="0.95" stop-color="#e0e0e0"/><stop offset="1" stop-color="#fff"/></radialGradient><radialGradient id="radial-gradient-4" cx="27.54" cy="44.93" r="33.17" gradientTransform="translate(-1.3 -1.29) scale(1 0.99)" gradientUnits="userSpaceOnUse"><stop offset="0.06" stop-color="#6fc6e1"/><stop offset="0.23" stop-color="#6ebddc"/><stop offset="0.5" stop-color="#6ba3ce"/><stop offset="0.84" stop-color="#667ab8"/><stop offset="1" stop-color="#6365ad"/></radialGradient><radialGradient id="radial-gradient-5" cx="-3.96" cy="46.12" r="56.89" gradientTransform="translate(-1.3 -1.29) scale(1 0.99)" gradientUnits="userSpaceOnUse"><stop offset="0.52" stop-color="#fff"/><stop offset="0.6" stop-color="#c6ddee"/><stop offset="0.71" stop-color="#80b4da"/><stop offset="0.8" stop-color="#4993ca"/><stop offset="0.89" stop-color="#217bbe"/><stop offset="0.95" stop-color="#096cb7"/><stop offset="0.99" stop-color="#0067b4"/></radialGradient></defs><g class="cls-3"><g id="Layer_2" data-name="Layer 2"><g id="Layer_2-2" data-name="Layer 2"><ellipse class="cls-4" cx="28.93" cy="43.75" rx="28.68" ry="28.57"/><path class="cls-5" d="M57.66,43.75s0,.18,0,.52,0,.84-.06,1.5a27.34,27.34,0,0,1-.93,5.62,29.3,29.3,0,0,1-3.57,8.12,28.88,28.88,0,0,1-8,8.3,29.88,29.88,0,0,1-5.9,3.07,28,28,0,0,1-6.94,1.65,28.67,28.67,0,0,1-15-2.43A29.61,29.61,0,0,1,4.92,59.63a28.82,28.82,0,0,1-3.6-7.55A30.3,30.3,0,0,1,.35,48,31.34,31.34,0,0,1,0,43.74a31.71,31.71,0,0,1,.26-4.23,31,31,0,0,1,.89-4.15,28.85,28.85,0,0,1,16-18.17A28,28,0,0,1,24.69,15c.64-.08,1.28-.17,1.91-.21l1-.06,1,0c.66,0,1.24,0,1.87,0s1.25.08,1.86.16a28.76,28.76,0,0,1,6.94,1.68,29.42,29.42,0,0,1,5.9,3.1A28.93,28.93,0,0,1,56.66,36.11a27.24,27.24,0,0,1,.93,5.62c.06.66,0,1.16.06,1.5S57.66,43.75,57.66,43.75Zm-.1,0s0-.18,0-.51,0-.85-.08-1.5a27,27,0,0,0-1-5.58,24.81,24.81,0,0,0-1.4-3.8,26.57,26.57,0,0,0-2.34-4.14A28.79,28.79,0,0,0,32.13,15.85c-.59-.07-1.18-.1-1.78-.15l-.92,0h-.91l-.92,0-.92.06c-.62,0-1.23.13-1.85.21a26.72,26.72,0,0,0-3.69.8c-.62.16-1.22.39-1.83.58s-1.21.44-1.8.72a28.39,28.39,0,0,0-17,25.68,30.53,30.53,0,0,0,.26,4.15A29.8,29.8,0,0,0,1.66,52a28.28,28.28,0,0,0,3.51,7.48A27.9,27.9,0,0,0,17.42,69.63c.59.28,1.21.48,1.82.71s1.22.42,1.84.57a29,29,0,0,0,3.73.76c.62.07,1.24.15,1.86.18l.92.05.93,0c.61,0,1.22,0,1.82,0s1.21-.07,1.8-.15A29.15,29.15,0,0,0,52.75,59.29a27.49,27.49,0,0,0,2.34-4.15,24.71,24.71,0,0,0,1.39-3.8,26.3,26.3,0,0,0,1-5.58c.07-.65.06-1.16.08-1.5S57.56,43.75,57.56,43.75Z"/><g class="cls-6"><path class="cls-7" d="M5.4,52.63a68.37,68.37,0,0,0,.47-13c-.14-4.28-.17-8.57,0-12.85-.37.5-.72,1-1.06,1.53.11,1.55,0,3.14-.07,4.69,0,3.17,0,6.34-.19,9.5a74.48,74.48,0,0,1-1.25,9.52c-.17.86-.44,1.88-.69,3a28.57,28.57,0,0,0,1.75,3.39C4.71,56.49,5.09,54.57,5.4,52.63Z"/><path class="cls-8" d="M14.91,49.12c-.42-9.71-1.82-19.34-2-29a28.65,28.65,0,0,0-6.46,6c-.18,4.91-.14,9.84.06,14.76A57.4,57.4,0,0,1,6,52.61c-.36,2.17-.8,4.31-1.22,6.46a28.68,28.68,0,0,0,10,9.47c0-.08,0-.17,0-.25C14.8,61.9,15.19,55.51,14.91,49.12ZM11,54.48a.41.41,0,0,1-.27.39.23.23,0,0,1-.3-.22v-.2a.42.42,0,0,1,.28-.38.22.22,0,0,1,.29.21Zm.24-11.29c-.07.1-.28.23-.4.12a3.12,3.12,0,0,1-.33-4,.29.29,0,0,1,.34-.13,2.3,2.3,0,0,1,.35-.41c.11-.1.31-.15.4,0A4.2,4.2,0,0,1,11.26,43.19Z"/><path class="cls-7" d="M28.79,25.44c-.5-3.41-1.32-6.79-1.94-10.18A28.49,28.49,0,0,0,13.46,19.7c.18,9.35,1.49,18.62,2,28,.32,6.19,0,12.38-.1,18.57,0,.87-.06,1.72-.13,2.57a28.35,28.35,0,0,0,7,2.69c.28-1.38.63-2.71.75-3.76C23.8,60.65,26.42,54,27.8,47A63.85,63.85,0,0,0,28.79,25.44ZM17.38,49.1a.76.76,0,0,1-.25.64,2.56,2.56,0,0,1-.4.59c-.11.13-.38.14-.42,0a5.09,5.09,0,0,1-.1-1.45,4.82,4.82,0,0,1,.25-2c.06-.17.36-.49.53-.23A3.32,3.32,0,0,1,17.38,49.1Zm1.81,10.41c-.19.12-.5.27-.62,0a.44.44,0,0,1,0-.23c0-.07,0-.08,0-.11s0-.39.18-.49.41-.31.5,0,.1.31.16.47A.4.4,0,0,1,19.19,59.51Zm6-8.09c-.19.56-.69,1.17-1.36.89s-.72-1.26-.72-1.83.11-1.58.79-1.91a1.39,1.39,0,0,1,.23-.25c.54-.4,1.06.11,1.19.65A4.64,4.64,0,0,1,25.22,51.42Z"/><path class="cls-9" d="M28.4,64.59c1.5-5.81,3.87-11.36,5.23-17.2a54.44,54.44,0,0,0,.78-19.34c-.53-4.21-1.92-8.43-2.29-12.69a30.38,30.38,0,0,0-3.19-.18c-.48,0-1,0-1.45,0,.58,3.16,1.33,6.29,1.8,9.46A63,63,0,0,1,28.91,44c-1.12,6.8-3.59,13.27-4.84,20-.42,2.32-.78,4.66-1.17,7,0,.2-.07.43-.11.66a27.75,27.75,0,0,0,4.4.61A30.44,30.44,0,0,1,28.4,64.59Z"/><path class="cls-8" d="M53.38,28.83a28.67,28.67,0,0,0-10.46-10,43.48,43.48,0,0,0,2.69,8.3,60.56,60.56,0,0,1,4,12.58c.8,4.68,1.32,9.25,3,13.73.5,1.31,1,2.61,1.53,3.92a28.58,28.58,0,0,0,2.35-5.71A58,58,0,0,1,53.38,28.83Zm-4.07-1a4.57,4.57,0,0,0-.05.52c0,.26-.44.62-.56.25s-.19-.85-.32-1.26.43-.69.55-.32c0,0,0,0,0,0a.23.23,0,0,1,.31.13,1.21,1.21,0,0,1,0,.18l0,0A.33.33,0,0,1,49.31,27.79Z"/><path class="cls-7" d="M53.91,29.72A57.75,57.75,0,0,0,56.78,50.6a28.68,28.68,0,0,0,.83-6.85A28.34,28.34,0,0,0,53.91,29.72Z"/><path class="cls-7" d="M51.87,53.22c-1.63-4.53-2-9.1-2.93-13.79s-2.61-8.71-4.3-13a38.84,38.84,0,0,1-2.39-7.92,27.84,27.84,0,0,0-5-2c.65,1.79,1.4,3.54,2,5.36a71.75,71.75,0,0,1,3.33,16.92,68.63,68.63,0,0,1-.36,18.11q-.8,4.5-1.88,8.94a29.3,29.3,0,0,0-.9,4.55A28.76,28.76,0,0,0,53.74,58.08C53.11,56.46,52.46,54.85,51.87,53.22ZM47.8,48a.42.42,0,0,1-.31.69c-.2,0-.24-.14-.21-.3C47.15,48.15,47.57,47.75,47.8,48Zm.48,8.16c-.06.14-.3.34-.45.2a2.86,2.86,0,0,1-.78-2.84q0-.31.06-.57c0-.22.35-.45.53-.23A3.33,3.33,0,0,1,48.28,56.17Z"/><path class="cls-8" d="M42,38.27a70.12,70.12,0,0,0-4.32-18.91c-.42-1.06-.8-2.1-1.13-3.15a28.08,28.08,0,0,0-3.82-.77c.41,4.17,1.77,8.29,2.26,12.44a55.3,55.3,0,0,1-.38,17.65C33.37,51.48,31,57.08,29.4,62.92c-.78,2.82-1.75,6.2-1.66,9.36.39,0,.79,0,1.19,0a28.71,28.71,0,0,0,10-1.78,23.67,23.67,0,0,1,.65-3.73c.71-2.89,1.38-5.81,1.92-8.74A70.24,70.24,0,0,0,42,38.27ZM32.56,68.45a2.64,2.64,0,0,1-.44,1c-.07.12-.29.22-.41.12-.28-.24-.54-.51-.45-.9s.3-.45.4-.7a.21.21,0,0,1,.06-.1c0-.1,0-.2.07-.3s.42-.49.55-.16A2,2,0,0,1,32.56,68.45Zm2.71-9.68c-.08-.24-.15-.51.07-.7h0a4.3,4.3,0,0,0,.07-.46.4.4,0,0,1,.27-.38.22.22,0,0,1,.3.21v.1a.21.21,0,0,1,.11.08c.22.28,0,.64-.26.84a.25.25,0,0,0,0,.08.41.41,0,0,1-.09.22q0,.09-.09.09C35.51,59,35.34,59,35.27,58.77Zm.8,6.45c-.6,0-.78-.43-.65-1a3.83,3.83,0,0,1,.22-.65,2.27,2.27,0,0,1,.49-1.52.28.28,0,0,1,.45-.07,1.26,1.26,0,0,1,.19.25h0c.11,0,.26,0,.28.13a2.5,2.5,0,0,1,0,.71C37.36,64.05,37.18,65.16,36.07,65.22ZM39,47.28c-.33,0-.37-.44-.37-.7s.56-.59.57-.17a.61.61,0,0,0,0,.28C39.43,46.81,39.24,47.3,39,47.28Z"/><path class="cls-7" d="M3.74,45.23c.35-3.63.39-7.27.39-10.91,0-1.67.2-3.42.14-5.13a28.45,28.45,0,0,0-2,25.09C2.86,51.28,3.44,48.29,3.74,45.23Z"/></g><path class="cls-10" d="M57.66,43.88a28.5,28.5,0,1,1-28.5-28.57A28.54,28.54,0,0,1,57.66,43.88Z"/><g class="cls-11"><path class="cls-12" d="M9.62,53.35c-.62-.28-1.15-.69-1.77-1-.23-.11-.16-.37,0-.52C11.6,48,18.74,50.58,22,46.27c-4.71.28-9.69,1.49-14.14-.66-2.62-1.26-.83-2.92,1-3.74,2.46-1.1,5-1.18,7.54-2,.28-.09,1.59-.47,1.1-1.13a2,2,0,0,0-1.1-.81,7.06,7.06,0,0,0-2.67-.17,33.58,33.58,0,0,1-4.58.5c-.31,0-.21-.37-.08-.53,2.68-3,6.63-3,10.18-4.18.6-.21,3.24-1,2.16-1.74a5.13,5.13,0,0,0-3-.75,46.76,46.76,0,0,1-4.73.12c-.25,0-.26-.29-.14-.46C18.12,24,27,25.36,33.28,21.51c-.53-.63-1.19-1.13-1.68-1.8a.36.36,0,0,1,.1-.43c1.8-1.57,3.95-1.72,6.16-1.65A27.39,27.39,0,0,0,18,68.6C12.14,65.24,5.7,59.51,9.62,53.35Z"/></g><path class="cls-13" d="M54.16,31.6s5.41,20.48-6.95,32.72C47.21,64.32,62,54.23,54.16,31.6Z"/><path class="cls-14" d="M11.66,22S-6.18,37,5,57C5,57-3.6,37.65,11.66,22Z"/><path class="cls-15" d="M41.88,24.76a53.57,53.57,0,0,0-6.21-17A26.49,26.49,0,0,0,33,4.14a14.64,14.64,0,0,0-3.35-2.83c-.33-.16-.64-.36-1-.5a8,8,0,0,0-1-.4A7.62,7.62,0,0,0,26.63.14L26.08.05a4.55,4.55,0,0,0-.52,0,8.41,8.41,0,0,0-4.12.87,12.29,12.29,0,0,0-3.27,2.4,20.42,20.42,0,0,0-2.46,3,35.83,35.83,0,0,0-3.4,6.5,61.33,61.33,0,0,0-3,9.74l.18-.13A56.68,56.68,0,0,1,12.6,12.9a35.49,35.49,0,0,1,3.49-6.35,19.71,19.71,0,0,1,2.47-2.88,11.44,11.44,0,0,1,3.15-2.22A7.68,7.68,0,0,1,25.52.73a4.21,4.21,0,0,1,.51,0l.47.09a6.41,6.41,0,0,1,.95.27,9.53,9.53,0,0,1,.93.38c.31.14.59.33.89.49a17.87,17.87,0,0,1,5.55,6.22,42.43,42.43,0,0,1,3.54,8A71.89,71.89,0,0,1,40.61,25a98.57,98.57,0,0,1,1.66,18.38A98.47,98.47,0,0,1,40.6,61.76a70.1,70.1,0,0,1-2.25,8.75,41.78,41.78,0,0,1-3.53,8,18,18,0,0,1-5.55,6.22A8.18,8.18,0,0,1,25.52,86a7.61,7.61,0,0,1-3.8-.72,11.49,11.49,0,0,1-3.16-2.22,20.34,20.34,0,0,1-2.47-2.88,35.78,35.78,0,0,1-3.49-6.35,57.43,57.43,0,0,1-3.09-9.53l-.18-.14a61.5,61.5,0,0,0,3,9.79,36.41,36.41,0,0,0,3.39,6.5,21.81,21.81,0,0,0,2.47,3,12.47,12.47,0,0,0,3.27,2.39,8.3,8.3,0,0,0,4.12.87,9,9,0,0,0,4.13-1.3A14.64,14.64,0,0,0,33,82.63a25.08,25.08,0,0,0,2.63-3.57,43.07,43.07,0,0,0,3.8-8.16A71.3,71.3,0,0,0,41.89,62a95.66,95.66,0,0,0,1.8-18.63A94.75,94.75,0,0,0,41.88,24.76Z"/><path class="cls-16" d="M41.56,24.76a53.83,53.83,0,0,0-6.22-17,24.88,24.88,0,0,0-2.63-3.57,14.43,14.43,0,0,0-3.35-2.83c-.32-.16-.63-.36-1-.5A8.81,8.81,0,0,0,26.31.14L25.76.05a4.73,4.73,0,0,0-.52,0,8.36,8.36,0,0,0-4.12.87,12.29,12.29,0,0,0-3.27,2.4,20.5,20.5,0,0,0-2.47,3A36.41,36.41,0,0,0,12,12.78a62.47,62.47,0,0,0-3,9.74l.18-.13a58.57,58.57,0,0,1,3.08-9.49,36.79,36.79,0,0,1,3.49-6.35,21,21,0,0,1,2.47-2.88,11.64,11.64,0,0,1,3.16-2.22,7.65,7.65,0,0,1,3.8-.72,4.55,4.55,0,0,1,.52,0l.47.09a6.77,6.77,0,0,1,.95.27c.32.09.62.26.93.38s.59.33.89.49A18.07,18.07,0,0,1,34.5,8.22a41.78,41.78,0,0,1,3.53,8A70.1,70.1,0,0,1,40.28,25,98.57,98.57,0,0,1,42,43.39a98.47,98.47,0,0,1-1.67,18.37A70.1,70.1,0,0,1,38,70.51a42.43,42.43,0,0,1-3.54,8,17.87,17.87,0,0,1-5.55,6.22A8.14,8.14,0,0,1,25.19,86a7.63,7.63,0,0,1-3.8-.72,11.44,11.44,0,0,1-3.15-2.22,19.71,19.71,0,0,1-2.47-2.88,35.15,35.15,0,0,1-3.49-6.35,56.51,56.51,0,0,1-3.09-9.53L9,64.2A63.64,63.64,0,0,0,12,74a36.47,36.47,0,0,0,3.4,6.5,20.46,20.46,0,0,0,2.47,3,12.47,12.47,0,0,0,3.27,2.39,8.3,8.3,0,0,0,4.12.87,9,9,0,0,0,4.13-1.3,14.64,14.64,0,0,0,3.35-2.83,25.87,25.87,0,0,0,2.63-3.57,43.69,43.69,0,0,0,3.8-8.16A71.27,71.27,0,0,0,41.56,62a95.67,95.67,0,0,0,1.81-18.63A95.52,95.52,0,0,0,41.56,24.76Z"/><path class="cls-17" d="M33.32,28.06a57.23,57.23,0,0,0-4-12.53,6.07,6.07,0,0,1-.84-.12l-.3,0A48.74,48.74,0,0,1,30,20.05a67.82,67.82,0,0,1,2.12,8.25,92.49,92.49,0,0,1,1.57,17.33A93.23,93.23,0,0,1,32.11,63,67.51,67.51,0,0,1,30,71.21c-.12.35-.24.69-.37,1,.41-.07.82-.12,1.23-.17.07-.17.13-.34.19-.51a66.74,66.74,0,0,0,2.28-8.38A89.43,89.43,0,0,0,35,45.63,89.45,89.45,0,0,0,33.32,28.06Z"/><path class="cls-18" d="M38.82,16.19s.27.8.65,2.22c.19.71.41,1.58.65,2.57s.49,2.13.71,3.37.46,2.59.69,4c.13.71.2,1.45.31,2.21s.2,1.52.27,2.3c.13,1.58.33,3.2.39,4.86,0,.82.09,1.66.13,2.5s0,1.68,0,2.52,0,1.68,0,2.52-.06,1.67-.08,2.5c0,1.66-.2,3.29-.33,4.86s-.34,3.08-.54,4.52c-.1.71-.2,1.41-.3,2.08L41,61.18c-.25,1.24-.45,2.38-.7,3.37l-.68,2.57L39,69.35l.52-2.26c.17-.71.37-1.58.6-2.58s.38-2.14.61-3.38c.11-.62.22-1.27.34-1.93s.17-1.37.26-2.09c.16-1.43.38-2.93.47-4.51s.28-3.18.29-4.83c0-.83,0-1.66.08-2.5s0-1.67,0-2.51,0-1.67,0-2.51-.08-1.67-.11-2.49c0-1.65-.24-3.27-.36-4.84-.06-.78-.17-1.55-.25-2.3s-.15-1.49-.26-2.2c-.2-1.43-.38-2.78-.61-4S40.14,22,40,21s-.4-1.87-.57-2.59-.3-1.28-.4-1.66S38.82,16.19,38.82,16.19Z"/></g></g></g></svg>