<svg width="38" height="38" viewBox="0 0 38 38" fill="none" xmlns="http://www.w3.org/2000/svg">
<rect x="0.5" y="0.5" width="37" height="37" rx="5.5" fill="#9DC3E6" fill-opacity="0.6" stroke="white"/>
<path d="M13.8068 27V25.4659L19.5682 19.1591C20.2443 18.4205 20.8011 17.7784 21.2386 17.233C21.6761 16.6818 22 16.1648 22.2102 15.6818C22.4261 15.1932 22.5341 14.6818 22.5341 14.1477C22.5341 13.5341 22.3864 13.0028 22.0909 12.554C21.8011 12.1051 21.4034 11.7585 20.8977 11.5142C20.392 11.2699 19.8239 11.1477 19.1932 11.1477C18.5227 11.1477 17.9375 11.2869 17.4375 11.5653C16.9432 11.8381 16.5597 12.2216 16.2869 12.7159C16.0199 13.2102 15.8864 13.7898 15.8864 14.4545H13.875C13.875 13.4318 14.1108 12.5341 14.5824 11.7614C15.054 10.9886 15.696 10.3864 16.5085 9.95454C17.3267 9.52273 18.2443 9.30682 19.2614 9.30682C20.2841 9.30682 21.1903 9.52273 21.9801 9.95454C22.7699 10.3864 23.3892 10.9687 23.8381 11.7017C24.2869 12.4347 24.5114 13.25 24.5114 14.1477C24.5114 14.7898 24.3949 15.4176 24.1619 16.0312C23.9347 16.6392 23.5369 17.3182 22.9688 18.0682C22.4062 18.8125 21.625 19.7216 20.625 20.7955L16.7045 24.9886V25.125H24.8182V27H13.8068Z" fill="white"/>
</svg>
