<svg width="38" height="38" viewBox="0 0 38 38" fill="none" xmlns="http://www.w3.org/2000/svg">
<rect x="0.5" y="0.5" width="37" height="37" rx="5.5" fill="#9DC3E6" fill-opacity="0.6" stroke="white"/>
<path d="M18.7045 27.2386C17.5795 27.2386 16.5767 27.0455 15.696 26.6591C14.821 26.2727 14.125 25.7358 13.608 25.0483C13.0966 24.3551 12.8182 23.5511 12.7727 22.6364H14.9205C14.9659 23.1989 15.1591 23.6847 15.5 24.0938C15.8409 24.4972 16.2869 24.8097 16.8381 25.0312C17.3892 25.2528 18 25.3636 18.6705 25.3636C19.4205 25.3636 20.0852 25.233 20.6648 24.9716C21.2443 24.7102 21.6989 24.3466 22.0284 23.8807C22.358 23.4148 22.5227 22.875 22.5227 22.2614C22.5227 21.6193 22.3636 21.054 22.0455 20.5653C21.7273 20.071 21.2614 19.6847 20.6477 19.4062C20.0341 19.1278 19.2841 18.9886 18.3977 18.9886H17V17.1136H18.3977C19.0909 17.1136 19.6989 16.9886 20.2216 16.7386C20.75 16.4886 21.1619 16.1364 21.4574 15.6818C21.7585 15.2273 21.9091 14.6932 21.9091 14.0795C21.9091 13.4886 21.7784 12.9744 21.517 12.5369C21.2557 12.0994 20.8864 11.7585 20.4091 11.5142C19.9375 11.2699 19.3807 11.1477 18.7386 11.1477C18.1364 11.1477 17.5682 11.2585 17.0341 11.4801C16.5057 11.696 16.0739 12.0114 15.7386 12.4261C15.4034 12.8352 15.2216 13.3295 15.1932 13.9091H13.1477C13.1818 12.9943 13.4574 12.1932 13.9744 11.5057C14.4915 10.8125 15.1676 10.2727 16.0028 9.88636C16.8438 9.5 17.767 9.30682 18.7727 9.30682C19.8523 9.30682 20.7784 9.52557 21.5511 9.96307C22.3239 10.3949 22.9176 10.9659 23.3324 11.6761C23.7472 12.3864 23.9545 13.1534 23.9545 13.9773C23.9545 14.9602 23.696 15.7983 23.179 16.4915C22.6676 17.1847 21.9716 17.6648 21.0909 17.9318V18.0682C22.1932 18.25 23.054 18.7187 23.6733 19.4744C24.2926 20.2244 24.6023 21.1534 24.6023 22.2614C24.6023 23.2102 24.3438 24.0625 23.8267 24.8182C23.3153 25.5682 22.6165 26.1591 21.7301 26.5909C20.8438 27.0227 19.8352 27.2386 18.7045 27.2386Z" fill="white"/>
</svg>
