<svg width="25" height="19" viewBox="0 0 25 19" fill="none" xmlns="http://www.w3.org/2000/svg">
<path d="M21.8711 2.74799C20.27 1.47989 18.371 0.714094 16.383 0.532938V1.50871C16.383 1.61164 16.3405 1.70634 16.267 1.77221C16.1935 1.83809 16.0968 1.86279 16.004 1.84221C13.7144 1.35638 11.3591 1.31932 9.05786 1.73516C8.96504 1.75163 8.87222 1.72281 8.79873 1.65693C8.72911 1.59106 8.68657 1.49636 8.68657 1.39755V0.5C6.66383 0.681157 4.73004 1.45107 3.10179 2.73564C1.16414 6.64286 0.100557 10.9783 0 15.396C1.45808 17.4217 3.74381 18.5745 6.13784 18.4963C6.35829 18.1957 6.91522 17.4381 7.47215 16.7588L8.00588 16.0301C8.0871 15.9189 8.22246 15.8736 8.34622 15.9148C10.601 16.6024 12.9757 16.73 15.2847 16.2771H15.2924C15.7294 16.1742 16.1781 16.0671 16.619 15.9477C16.7466 15.9107 16.882 15.9642 16.9593 16.0795L17.3461 16.6641C17.7986 17.327 18.398 18.0845 18.634 18.3686C20.9932 18.3645 23.2441 17.3229 24.8608 15.4948C24.9188 15.4331 24.9652 15.3795 25 15.3343C24.884 10.9371 23.8127 6.6305 21.8711 2.74799ZM8.42358 13.6133C6.98871 13.5886 5.84004 12.3328 5.85937 10.8012C5.84004 9.29021 6.95777 8.03858 8.37717 7.98506C8.3965 7.98506 8.41197 7.98506 8.43131 7.98506C9.86618 8.01388 11.0071 9.26963 10.9878 10.7971C11.0032 12.3246 9.85845 13.5844 8.42358 13.6133ZM16.4565 13.6133C15.0217 13.5886 13.873 12.3287 13.8962 10.8012C13.8769 9.29433 14.9868 8.04682 16.4024 7.98506C16.4217 7.98506 16.4411 7.98506 16.4604 7.98506C17.8953 8.00976 19.0401 9.26551 19.0207 10.7971C19.0362 12.3246 17.8914 13.5844 16.4565 13.6133Z" fill="#A1A2B3"/>
</svg>
