<svg width="14" height="13" viewBox="0 0 14 13" fill="none" xmlns="http://www.w3.org/2000/svg">
<path d="M6.66734 1.01932C8.23334 -0.38668 10.6533 -0.340013 12.162 1.17132C13.67 2.68332 13.722 5.09132 12.3193 6.66199L6.666 12.3233L1.014 6.66199C-0.388663 5.09132 -0.335996 2.67932 1.17134 1.17132C2.68134 -0.338013 5.09667 -0.38868 6.66734 1.01932ZM11.218 2.11332C10.218 1.11199 8.60467 1.07132 7.558 2.01132L6.668 2.80999L5.77734 2.01199C4.72734 1.07065 3.11734 1.11199 2.11467 2.11465C1.12134 3.10799 1.07134 4.69799 1.98667 5.74865L6.66667 10.436L11.3467 5.74932C12.2627 4.69799 12.2127 3.10999 11.218 2.11332Z" fill="white"/>
</svg>
