<svg width="32" height="32" viewBox="0 0 32 32" fill="none" xmlns="http://www.w3.org/2000/svg">
<path d="M10.727 20.8C10.1048 20.8 9.6001 20.2954 9.6001 19.6731V12.1004C9.6001 11.4782 10.1048 10.9735 10.727 10.9735H20.3528C20.975 10.9735 21.4797 11.4782 21.4797 12.1004V13.9957C21.9987 14.0559 22.4001 14.4975 22.4001 15.0308V16.7427C22.4001 17.276 21.9958 17.7176 21.4797 17.7778V19.6731C21.4797 20.2954 20.975 20.8 20.3528 20.8H10.727ZM20.5334 12.1004C20.5334 12.0029 20.4531 11.9226 20.3528 11.9226H10.727C10.6295 11.9226 10.5492 12.0029 10.5492 12.1004V19.6731C10.5492 19.7706 10.6295 19.8538 10.727 19.8538C10.9306 19.8538 20.1062 19.8538 20.3528 19.8538C20.4503 19.8538 20.5334 19.7735 20.5334 19.6731V17.7864C20.2381 17.7864 17.4825 17.7864 17.1843 17.7864C16.6281 17.7864 16.175 17.3334 16.175 16.7771C16.175 16.3814 16.175 15.1455 16.175 14.9993C16.175 14.443 16.6281 13.99 17.1843 13.99C17.4797 13.99 20.2381 13.99 20.5334 13.99V12.1004ZM21.4539 15.0308C21.4539 14.9792 21.4109 14.9362 21.3592 14.9362C21.2101 14.9362 17.4252 14.9362 17.2187 14.9362C17.1671 14.9362 17.1241 14.9792 17.1241 15.0308V16.7427C17.1241 16.7943 17.1671 16.8373 17.2187 16.8373C17.4309 16.8373 21.213 16.8373 21.3592 16.8373C21.4109 16.8373 21.4539 16.7943 21.4539 16.7427V15.0308Z" fill="black"/>
</svg>
