<svg width="24" height="22" viewBox="0 0 24 22" fill="none" xmlns="http://www.w3.org/2000/svg">
<path d="M12.9316 9.97974L14.5768 8.33457L22.1775 15.9353C22.3957 16.1535 22.5183 16.4493 22.5183 16.7578C22.5183 17.0664 22.3957 17.3623 22.1775 17.5805C21.9594 17.7986 21.6635 17.9211 21.355 17.9211C21.0465 17.9211 20.7505 17.7986 20.5324 17.5805L12.9316 9.97974Z" stroke="#131740" stroke-miterlimit="10"/>
<path d="M12.5383 1.49347L6.08923 7.9425C5.81665 8.21509 5.8167 8.65704 6.08928 8.92962L9.55233 12.3927C9.82491 12.6652 10.2669 12.6653 10.5394 12.3927L16.9885 5.94368C17.2611 5.6711 17.261 5.22915 16.9884 4.95657L13.5254 1.49352C13.2528 1.22094 12.8108 1.22089 12.5383 1.49347Z" stroke="#131740" stroke-miterlimit="10"/>
<path d="M3.10547 15.8616V17.9207L4.89697 18.956L6.67683 17.9207V15.8616L4.89697 14.8379L3.10547 15.8616Z" stroke="#131740" stroke-miterlimit="10"/>
<path d="M4.89709 20.7942C7.04939 20.7942 8.79418 19.0494 8.79418 16.8971C8.79418 14.7448 7.04939 13 4.89709 13C2.74479 13 1 14.7448 1 16.8971C1 19.0494 2.74479 20.7942 4.89709 20.7942Z" stroke="#131740" stroke-miterlimit="10"/>
</svg>
