<svg width="13" height="13" viewBox="0 0 13 13" fill="none" xmlns="http://www.w3.org/2000/svg">
<path fill-rule="evenodd" clip-rule="evenodd" d="M0.65 0C1.00899 0 1.3 0.291015 1.3 0.65V2.24306L2.04984 1.56613C3.13745 0.592684 4.57529 0 6.15 0C9.54655 0 12.3 2.75345 12.3 6.15C12.3 9.54655 9.54655 12.3 6.15 12.3C3.22234 12.3 0.773888 10.2549 0.152402 7.51606C0.0729635 7.16597 0.292366 6.81778 0.642451 6.73834C0.992537 6.6589 1.34073 6.8783 1.42017 7.22839C1.91025 9.38814 3.84267 11 6.15 11C8.82858 11 11 8.82858 11 6.15C11 3.47142 8.82858 1.3 6.15 1.3C4.9079 1.3 3.77621 1.76607 2.91784 2.5339L2.34001 3.05556H3.70556C4.06454 3.05556 4.35556 3.34657 4.35556 3.70556C4.35556 4.06454 4.06454 4.35556 3.70556 4.35556H0.65C0.291015 4.35556 0 4.06454 0 3.70556V0.65C0 0.291015 0.291015 0 0.65 0Z" fill="#131740"/>
</svg>
