<svg width="20" height="20" viewBox="0 0 20 20" fill="none" xmlns="http://www.w3.org/2000/svg">
<path d="M10 20C15.5228 20 20 15.5228 20 10C20 4.47715 15.5228 0 10 0C4.47715 0 0 4.47715 0 10C0 15.5228 4.47715 20 10 20Z" fill="#D3FFED"/>
<path d="M6.57633 6.33333H4.90967C4.59904 6.33333 4.44373 6.33333 4.32121 6.37562C4.15786 6.43201 4.02808 6.54016 3.96041 6.67629C3.90967 6.77838 3.90967 6.90781 3.90967 7.16667V7.44444C3.90967 7.9611 3.90967 8.21942 3.97782 8.43136C4.16275 9.00652 4.70185 9.45576 5.39203 9.60988C5.64636 9.66667 5.95635 9.66667 6.57633 9.66667M13.243 6.33333H14.9097C15.2203 6.33333 15.3756 6.33333 15.4981 6.37562C15.6615 6.43201 15.7913 6.54016 15.8589 6.67629C15.9097 6.77838 15.9097 6.90781 15.9097 7.16667V7.44444C15.9097 7.9611 15.9097 8.21942 15.8415 8.43136C15.6566 9.00652 15.1175 9.45576 14.4273 9.60988C14.173 9.66667 13.863 9.66667 13.243 9.66667M9.90967 13V14.3333M9.90967 12.3333C8.06872 12.3333 6.57633 10.818 6.57633 8.94872V5.81481C6.57633 5.58136 6.57633 5.46464 6.60984 5.37117C6.666 5.21448 6.78756 5.09105 6.94188 5.03402C7.03393 5 7.14889 5 7.3788 5H12.4405C12.6704 5 12.7854 5 12.8775 5.03402C13.0318 5.09105 13.1533 5.21448 13.2095 5.37117C13.243 5.46464 13.243 5.58136 13.243 5.81481V8.94872C13.243 10.818 11.7506 12.3333 9.90967 12.3333ZM7.48004 17H12.3393C12.4702 17 12.5763 16.8673 12.5763 16.7037C12.5763 15.3946 11.7273 14.3333 10.68 14.3333H9.1393C8.092 14.3333 7.243 15.3946 7.243 16.7037C7.243 16.8673 7.34913 17 7.48004 17Z" stroke="#00C767" stroke-linecap="round" stroke-linejoin="round"/>
</svg>
