<svg width="58" height="52" viewBox="0 0 58 52" fill="none" xmlns="http://www.w3.org/2000/svg">
<path d="M1.67816 4.41263L2.12408 4.63882L1.67816 4.41263ZM4.39661 1.68121L4.62442 2.1263L4.39661 1.68121ZM4.39661 50.3187L4.62442 49.8736L4.62442 49.8736L4.39661 50.3187ZM1.67816 47.5876L1.23225 47.8138L1.23225 47.8138L1.67816 47.5876ZM56.321 47.5876L55.8751 47.3614L55.8751 47.3614L56.321 47.5876ZM53.6006 50.3187L53.3728 49.8736L53.6006 50.3187ZM56.321 4.41263L55.8751 4.63882L55.8751 4.63882L56.321 4.41263ZM53.6006 1.68121L53.8284 1.23612L53.8284 1.23612L53.6006 1.68121ZM0.619653 41.3005C0.440406 41.5106 0.465385 41.8262 0.675445 42.0054C0.885505 42.1847 1.2011 42.1597 1.38035 41.9496L0.619653 41.3005ZM15.8333 24.2418L15.453 23.9172L15.453 23.9172L15.8333 24.2418ZM23.4365 24.2948L23.8213 23.9756L23.8213 23.9756L23.4365 24.2948ZM31.7318 34.2939L31.347 34.6132L31.347 34.6132L31.7318 34.2939ZM39.0767 34.6285L39.431 34.9812L39.431 34.9812L39.0767 34.6285ZM48.03 33.4875L48.4211 33.176L48.4211 33.176L48.03 33.4875ZM56.6089 45.0618C56.7809 45.2778 57.0955 45.3134 57.3115 45.1414C57.5275 44.9694 57.5631 44.6548 57.3911 44.4388L56.6089 45.0618ZM43.435 30.8012L43.2958 30.3209L43.435 30.8012ZM45.4841 30.9152L45.6757 30.4534L45.4841 30.9152ZM34.282 36.7755L34.0969 37.2399L34.0969 37.2399L34.282 36.7755ZM36.312 36.8678L36.1699 36.3884L36.1699 36.3884L36.312 36.8678ZM18.5919 21.6459L18.4242 21.1749L18.4242 21.1749L18.5919 21.6459ZM20.7143 21.6608L20.8886 21.1921L20.8886 21.1921L20.7143 21.6608ZM56.4985 10.9998V40.9998H57.4985V10.9998H56.4985ZM47.0439 50.5H10.9559V51.5H47.0439V50.5ZM1.5 40.9998V10.9998H0.5V40.9998H1.5ZM10.9559 1.5H47.0439V0.5H10.9559V1.5ZM1.5 10.9998C1.5 9.24147 1.50039 7.95268 1.58312 6.93551C1.66539 5.92411 1.82661 5.22526 2.12408 4.63882L1.23225 4.18644C0.851559 4.93694 0.673688 5.78154 0.586416 6.85443C0.499615 7.92155 0.5 9.2579 0.5 10.9998H1.5ZM10.9559 0.5C9.22185 0.5 7.89079 0.499608 6.82773 0.586826C5.75881 0.674525 4.91676 0.853309 4.16881 1.23612L4.62442 2.1263C5.20744 1.8279 5.90269 1.66608 6.9095 1.58348C7.92218 1.50039 9.20528 1.5 10.9559 1.5V0.5ZM2.12408 4.63882C2.67304 3.55657 3.54805 2.6772 4.62442 2.1263L4.16881 1.23612C2.90367 1.88364 1.87635 2.91666 1.23225 4.18644L2.12408 4.63882ZM10.9559 50.5C9.20529 50.5 7.92219 50.4996 6.90951 50.4165C5.90271 50.3338 5.20745 50.172 4.62442 49.8736L4.16881 50.7638C4.91675 51.1466 5.75879 51.3254 6.82772 51.4131C7.89078 51.5004 9.22184 51.5 10.9559 51.5V50.5ZM0.5 40.9998C0.5 42.7418 0.499615 44.0783 0.586416 45.1455C0.673686 46.2185 0.851553 47.0633 1.23225 47.8138L2.12408 47.3614C1.82661 46.775 1.6654 46.076 1.58312 45.0645C1.50039 44.0471 1.5 42.7582 1.5 40.9998H0.5ZM4.62442 49.8736C3.548 49.3227 2.67302 48.4436 2.12408 47.3614L1.23225 47.8138C1.87637 49.0836 2.90372 50.1163 4.16881 50.7638L4.62442 49.8736ZM56.4985 40.9998C56.4985 42.7583 56.4983 44.0472 56.4157 45.0645C56.3336 46.0761 56.1726 46.775 55.8751 47.3614L56.767 47.8138C57.1477 47.0632 57.3254 46.2184 57.4125 45.1454C57.4991 44.0782 57.4985 42.7417 57.4985 40.9998H56.4985ZM47.0439 51.5C48.7779 51.5 50.1084 51.5004 51.1708 51.4131C52.2392 51.3254 53.0806 51.1466 53.8284 50.7638L53.3728 49.8736C52.7897 50.172 52.0951 50.3339 51.089 50.4165C50.0769 50.4996 48.7945 50.5 47.0439 50.5V51.5ZM55.8751 47.3614C55.3264 48.4433 54.4496 49.3225 53.3728 49.8736L53.8284 50.7638C55.0932 50.1165 56.1227 49.0839 56.767 47.8138L55.8751 47.3614ZM57.4985 10.9998C57.4985 9.25795 57.4991 7.9216 57.4125 6.85451C57.3254 5.78164 57.1477 4.937 56.767 4.18644L55.8751 4.63882C56.1726 5.2252 56.3336 5.92401 56.4157 6.93543C56.4983 7.95263 56.4985 9.24142 56.4985 10.9998H57.4985ZM47.0439 1.5C48.7945 1.5 50.0769 1.50039 51.089 1.58347C52.0951 1.66607 52.7898 1.82787 53.3728 2.1263L53.8284 1.23612C53.0806 0.853339 52.2392 0.674535 51.1708 0.586828C50.1084 0.499607 48.7779 0.5 47.0439 0.5V1.5ZM56.767 4.18644C56.1227 2.91632 55.0933 1.88347 53.8284 1.23612L53.3728 2.1263C54.4495 2.67737 55.3263 3.55691 55.8751 4.63882L56.767 4.18644ZM1.38035 41.9496L16.2137 24.5664L15.453 23.9172L0.619653 41.3005L1.38035 41.9496ZM23.0517 24.6141L31.347 34.6132L32.1166 33.9747L23.8213 23.9756L23.0517 24.6141ZM39.431 34.9812L40.9774 33.4279L40.2688 32.7224L38.7224 34.2757L39.431 34.9812ZM47.6389 33.799L56.6089 45.0618L57.3911 44.4388L48.4211 33.176L47.6389 33.799ZM40.9774 33.4279C41.6641 32.7381 42.1572 32.2435 42.5737 31.8908C42.9863 31.5414 43.286 31.3649 43.5742 31.2814L43.2958 30.3209C42.8136 30.4607 42.388 30.7377 41.9275 31.1276C41.4709 31.5143 40.9432 32.0449 40.2688 32.7224L40.9774 33.4279ZM48.4211 33.176C47.8253 32.4278 47.3588 31.8418 46.9472 31.4068C46.5321 30.9681 46.1393 30.6457 45.6757 30.4534L45.2925 31.3771C45.5699 31.4921 45.8488 31.701 46.2209 32.0941C46.5963 32.4909 47.0324 33.0374 47.6389 33.799L48.4211 33.176ZM43.5742 31.2814C44.1415 31.1169 44.7466 31.1506 45.2925 31.3771L45.6757 30.4534C44.9199 30.1399 44.0815 30.0932 43.2958 30.3209L43.5742 31.2814ZM31.347 34.6132C31.9465 35.3358 32.4156 35.9023 32.828 36.3222C33.2442 36.7458 33.6365 37.0565 34.0969 37.2399L34.467 36.311C34.1915 36.2012 33.9138 36.0005 33.5414 35.6214C33.1654 35.2386 32.7274 34.7108 32.1166 33.9747L31.347 34.6132ZM38.7224 34.2757C38.0479 34.9532 37.5638 35.4389 37.1545 35.7859C36.7492 36.1295 36.4543 36.3041 36.1699 36.3884L36.4541 37.3472C36.9292 37.2064 37.3481 36.9327 37.8012 36.5486C38.2502 36.1679 38.7687 35.6465 39.431 34.9812L38.7224 34.2757ZM34.0969 37.2399C34.8478 37.5391 35.6794 37.5768 36.4541 37.3472L36.1699 36.3884C35.6104 36.5543 35.0093 36.527 34.467 36.311L34.0969 37.2399ZM16.2137 24.5664C16.8787 23.787 17.3566 23.2273 17.7647 22.825C18.1694 22.426 18.4679 22.2208 18.7597 22.1169L18.4242 21.1749C17.9336 21.3496 17.5119 21.6699 17.0626 22.1129C16.6165 22.5526 16.1063 23.1516 15.453 23.9172L16.2137 24.5664ZM23.8213 23.9756C23.1787 23.2009 22.6768 22.5949 22.237 22.149C21.7939 21.6998 21.3768 21.3737 20.8886 21.1921L20.54 22.1294C20.8303 22.2374 21.1259 22.4466 21.525 22.8513C21.9275 23.2592 22.3975 23.8255 23.0517 24.6141L23.8213 23.9756ZM18.7597 22.1169C19.3354 21.9119 19.9671 21.9164 20.54 22.1294L20.8886 21.1921C20.0954 20.8971 19.2215 20.8909 18.4242 21.1749L18.7597 22.1169ZM38.3324 19.25C36.8924 19.25 35.7213 18.0769 35.7213 16.625H34.7213C34.7213 18.6249 36.3359 20.25 38.3324 20.25V19.25ZM40.9434 16.625C40.9434 18.0769 39.7723 19.25 38.3324 19.25V20.25C40.3288 20.25 41.9434 18.6249 41.9434 16.625H40.9434ZM38.3324 14C39.7723 14 40.9434 15.1731 40.9434 16.625H41.9434C41.9434 14.6251 40.3288 13 38.3324 13V14ZM38.3324 13C36.3359 13 34.7213 14.6251 34.7213 16.625H35.7213C35.7213 15.1731 36.8924 14 38.3324 14V13Z" fill="#5A5D79"/>
</svg>
