<svg width="20" height="20" viewBox="0 0 20 20" fill="none" xmlns="http://www.w3.org/2000/svg">
<path d="M20 10C20 15.5228 15.5228 20 10 20C4.47715 20 0 15.5228 0 10C0 4.47715 4.47715 0 10 0C15.5228 0 20 4.47715 20 10Z" fill="#F2E8FF"/>
<path d="M10.5556 15V9.44444H15V15H10.5556ZM5 10.5556V5H9.44444V10.5556H5ZM8.33333 9.44444V6.11111H6.11111V9.44444H8.33333ZM5 15V11.6667H9.44444V15H5ZM6.11111 13.8889H8.33333V12.7778H6.11111V13.8889ZM11.6667 13.8889H13.8889V10.5556H11.6667V13.8889ZM10.5556 5H15V8.33333H10.5556V5ZM11.6667 6.11111V7.22222H13.8889V6.11111H11.6667Z" fill="#8974DB"/>
</svg>
