<svg width="69" height="69" viewBox="0 0 69 69" fill="none" xmlns="http://www.w3.org/2000/svg">
<path fill-rule="evenodd" clip-rule="evenodd" d="M62.625 62.625L50.5 50.5Z" fill="#0071E3"/>
<path d="M26.2508 68.1667C27.0792 68.1667 27.7508 67.4951 27.7508 66.6667C27.7508 65.8382 27.0792 65.1667 26.2508 65.1667V68.1667ZM14.9341 66.6667L14.9341 65.1667H14.9341L14.9341 66.6667ZM66.6667 14.9334L68.1667 14.9334V14.9334L66.6667 14.9334ZM65.1667 26.25C65.1667 27.0785 65.8382 27.75 66.6667 27.75C67.4951 27.75 68.1667 27.0785 68.1667 26.25H65.1667ZM62.2523 2.88103L62.9333 1.54452L62.9333 1.54452L62.2523 2.88103ZM65.7865 6.41367L67.123 5.73268L67.123 5.73268L65.7865 6.41367ZM2.88103 6.41367L1.54452 5.73268L1.54452 5.73268L2.88103 6.41367ZM6.41268 2.88103L7.09366 4.21754L7.09366 4.21754L6.41268 2.88103ZM6.41268 65.7858L7.09366 64.4492L7.09366 64.4492L6.41268 65.7858ZM2.88103 62.253L4.21754 61.5721L4.21754 61.5721L2.88103 62.253ZM61.5643 63.6857C62.1501 64.2714 63.0999 64.2714 63.6857 63.6857C64.2714 63.0999 64.2714 62.1501 63.6857 61.5643L61.5643 63.6857ZM51.5607 49.4393C50.9749 48.8536 50.0251 48.8536 49.4393 49.4393C48.8536 50.0251 48.8536 50.9749 49.4393 51.5607L51.5607 49.4393ZM26.2508 65.1667H14.9341V68.1667H26.2508V65.1667ZM3.5 53.7334V14.9334H0.5V53.7334H3.5ZM14.9341 3.5H53.7341V0.5H14.9341V3.5ZM65.1667 14.9334V26.25H68.1667V14.9334H65.1667ZM53.7341 3.5C56.0224 3.5 57.648 3.50117 58.9203 3.60514C60.1749 3.70768 60.9534 3.90268 61.5713 4.21754L62.9333 1.54452C61.8221 0.978347 60.605 0.732833 59.1646 0.615113C57.7418 0.498833 55.9729 0.5 53.7341 0.5V3.5ZM68.1667 14.9334C68.1667 12.6947 68.168 10.9254 68.052 9.50237C67.9345 8.06179 67.6893 6.84411 67.123 5.73268L64.45 7.09465C64.7647 7.71234 64.9596 8.49098 65.0619 9.7462C65.1657 11.0189 65.1667 12.6449 65.1667 14.9334L68.1667 14.9334ZM61.5713 4.21754C62.8107 4.84902 63.8191 5.85653 64.45 7.09465L67.123 5.73268C66.2039 3.92885 64.7359 2.46299 62.9333 1.54452L61.5713 4.21754ZM3.5 14.9334C3.5 12.6451 3.50117 11.0191 3.60515 9.74643C3.7077 8.4913 3.90272 7.71251 4.21754 7.09465L1.54452 5.73268C0.978306 6.84394 0.732818 8.06147 0.61511 9.50214C0.498833 10.9253 0.5 12.6946 0.5 14.9334H3.5ZM14.9341 0.5C12.6953 0.5 10.9256 0.498834 9.50205 0.615107C8.06108 0.732803 6.84304 0.97826 5.73169 1.54452L7.09366 4.21754C7.71143 3.90277 8.49058 3.70771 9.74627 3.60515C11.0194 3.50117 12.6458 3.5 14.9341 3.5V0.5ZM4.21754 7.09465C4.8489 5.85553 5.85532 4.84851 7.09366 4.21754L5.73169 1.54452C3.92809 2.46351 2.46311 3.92985 1.54452 5.73268L4.21754 7.09465ZM14.9341 65.1667C12.6458 65.1667 11.0194 65.1655 9.74625 65.0616C8.49053 64.959 7.71141 64.764 7.09366 64.4492L5.73169 67.1223C6.84307 67.6885 8.06113 67.934 9.5021 68.0516C10.9256 68.1679 12.6954 68.1667 14.9341 68.1667L14.9341 65.1667ZM0.5 53.7334C0.5 55.9722 0.498833 57.7415 0.615111 59.1646C0.732819 60.6053 0.978307 61.8228 1.54452 62.934L4.21754 61.5721C3.90272 60.9542 3.7077 60.1754 3.60515 58.9203C3.50117 57.6477 3.5 56.0217 3.5 53.7334H0.5ZM7.09366 64.4492C5.85535 63.8183 4.84892 62.8112 4.21754 61.5721L1.54452 62.934C2.46309 64.7368 3.92805 66.2033 5.73169 67.1223L7.09366 64.4492ZM63.6857 61.5643L51.5607 49.4393L49.4393 51.5607L61.5643 63.6857L63.6857 61.5643ZM40.3958 53.0417C33.4117 53.0417 27.75 47.3799 27.75 40.3958H24.75C24.75 49.0368 31.7549 56.0417 40.3958 56.0417V53.0417ZM27.75 40.3958C27.75 33.4117 33.4117 27.75 40.3958 27.75V24.75C31.7549 24.75 24.75 31.7549 24.75 40.3958H27.75ZM40.3958 27.75C47.3799 27.75 53.0417 33.4117 53.0417 40.3958H56.0417C56.0417 31.7549 49.0368 24.75 40.3958 24.75V27.75ZM53.0417 40.3958C53.0417 47.3799 47.3799 53.0417 40.3958 53.0417V56.0417C49.0368 56.0417 56.0417 49.0368 56.0417 40.3958H53.0417Z" fill="#0071E3"/>
</svg>
