<svg xmlns="http://www.w3.org/2000/svg" viewBox="0 0 78.5 89.47"><defs><style>.cls-1{fill:none;stroke:#fff;stroke-miterlimit:10;stroke-width:2.5px;}</style></defs><g id="Graphic_Elements" data-name="Graphic Elements"><path class="cls-1" d="M77.08,22.43c0-.4,0-.41-.43-.41a19.21,19.21,0,0,1-2.93-.25c-3.54-.54-15-6.54-16.93-16.37a30.61,30.61,0,0,1-.47-3.67c0-.47,0-.47-.46-.48H42.09c-.9,0-.77-.11-.77.8V60.37a12,12,0,0,1-.15,2.16,12.61,12.61,0,0,1-15,10.31,16.7,16.7,0,0,1-2.95-1L23,71.66a10.73,10.73,0,0,0-1-.74c-4.15-2.87-6.12-6.86-5.52-11.85s3.52-8.5,8.32-10.27a11,11,0,0,1,4.47-.66,13.22,13.22,0,0,1,2.92.44c.33.1.51,0,.53-.37v-.37c0-3.49-.12-11.11-.14-11.13,0-1,0-2,0-3,0-.29-.14-.34-.38-.37A27.56,27.56,0,0,0,9.46,41,27.26,27.26,0,0,0,1.31,58.78,27.42,27.42,0,0,0,2.52,68.85a27.36,27.36,0,0,0,9.31,13.38,6.51,6.51,0,0,0,1.43,1h0l.68.6a15,15,0,0,0,2.29,1.41A27.41,27.41,0,0,0,32,88a27.18,27.18,0,0,0,17.86-9.54,27,27,0,0,0,6.62-18c.06-9.68,0-19.36,0-29,0-.23-.13-.56.12-.68s.4.18.59.3a35.5,35.5,0,0,0,11.7,5,33.28,33.28,0,0,0,7.44.9c.79,0,.9,0,.9-.83C77.26,32.74,77.07,23.34,77.08,22.43Z"/></g></svg>