<svg width="30" height="33" viewBox="0 0 30 33" fill="none" xmlns="http://www.w3.org/2000/svg">
<g clip-path="url(#clip0_30_78)">
<path d="M37.0689 1.90071C37.0689 1.71442 37.0689 1.70977 36.8614 1.70977C36.3877 1.70588 35.915 1.66695 35.4475 1.59334C33.7393 1.34185 28.2094 -1.45244 27.2781 -6.03043C27.1668 -6.59522 27.0911 -7.16598 27.0513 -7.7396C27.0513 -7.95849 27.0513 -7.95849 26.8293 -7.96315H20.1847C19.7504 -7.96315 19.8131 -8.01437 19.8131 -7.59057V19.57C19.8205 19.9067 19.7962 20.2434 19.7408 20.5759C19.6081 21.3573 19.3132 22.1048 18.8735 22.7734C18.4339 23.442 17.8587 24.0178 17.1826 24.4664C16.5065 24.9149 15.7433 25.2268 14.9391 25.3834C14.1348 25.5399 13.306 25.5379 12.5026 25.3774C12.0141 25.2653 11.5375 25.1094 11.0791 24.9117L10.973 24.8279C10.8191 24.7041 10.658 24.589 10.4904 24.4833C8.48786 23.1467 7.53725 21.2884 7.82678 18.9645C8.1163 16.6406 9.52533 15.0059 11.8415 14.1816C12.5307 13.9362 13.2652 13.8316 13.9985 13.8743C14.4746 13.8916 14.9472 13.9603 15.4075 14.0792C15.5668 14.1257 15.6536 14.0792 15.6633 13.9069V13.7345C15.6633 12.1092 15.6054 8.56044 15.5957 8.55113C15.5957 8.08541 15.5957 7.6197 15.5957 7.15398C15.5957 7.01892 15.5282 6.99564 15.4123 6.98167C13.423 6.73945 11.4027 6.93452 9.50245 7.55229C7.60224 8.17005 5.87137 9.19452 4.43933 10.549C2.11226 12.7446 0.711084 15.6948 0.506603 18.8295C0.397365 20.4142 0.595377 22.0046 1.09048 23.5192C1.89721 25.9886 3.46426 28.1622 5.58295 29.7505C5.79027 29.9349 6.02236 30.0916 6.27299 30.2162V30.2162L6.60112 30.4956C6.94834 30.746 7.31817 30.9658 7.70614 31.1523C10.0536 32.3021 12.7033 32.7496 15.3158 32.4377C18.6743 32.0833 21.7614 30.4917 23.9341 27.9948C26.0259 25.6719 27.1625 22.6893 27.1285 19.6119C27.1574 15.1037 27.1285 10.5956 27.1285 6.10612C27.1285 5.999 27.0658 5.84532 27.1864 5.78943C27.307 5.73355 27.3794 5.87326 27.4711 5.92915C29.1924 7.02715 31.105 7.81601 33.1168 8.25773C34.2934 8.52745 35.4977 8.66806 36.707 8.67687C37.0882 8.67687 37.1412 8.67687 37.1412 8.29033C37.1557 6.70224 37.064 2.32451 37.0689 1.90071Z" stroke="#A1A2B3" stroke-width="2.5" stroke-miterlimit="10"/>
</g>
<defs>
<clipPath id="clip0_30_78">
<rect width="30" height="33" fill="white"/>
</clipPath>
</defs>
</svg>
