<svg xmlns="http://www.w3.org/2000/svg" viewBox="0 0 96.04 73.69"><defs><style>.cls-1{fill:none;stroke:#fff;stroke-miterlimit:10;stroke-width:2.5px;}</style></defs><g id="Graphic_Elements" data-name="Graphic Elements"><path class="cls-1" d="M32.72,72.44c33,0,51-27.31,51-51,0-.77,0-1.54,0-2.31a36.52,36.52,0,0,0,8.94-9.28,36.21,36.21,0,0,1-10.29,2.82A18,18,0,0,0,90.2,2.75,35.73,35.73,0,0,1,78.82,7.1,17.95,17.95,0,0,0,48.27,23.45,50.88,50.88,0,0,1,11.33,4.72a17.93,17.93,0,0,0,5.55,23.93,17.82,17.82,0,0,1-8.12-2.24,1.69,1.69,0,0,0,0,.23A17.93,17.93,0,0,0,23.13,44.21a18,18,0,0,1-8.09.31A18,18,0,0,0,31.78,57,36,36,0,0,1,9.52,64.64a35.48,35.48,0,0,1-4.27-.25,50.76,50.76,0,0,0,27.47,8"/></g></svg>