<svg width="38" height="38" viewBox="0 0 38 38" fill="none" xmlns="http://www.w3.org/2000/svg">
<path d="M18.91 37.21C28.923 37.21 37.04 29.0929 37.04 19.08C37.04 9.06709 28.923 0.950012 18.91 0.950012C8.89711 0.950012 0.780029 9.06709 0.780029 19.08C0.780029 29.0929 8.89711 37.21 18.91 37.21Z" fill="#DAEDFE"/>
<path d="M13.33 27.33C13.2207 27.3344 13.1119 27.3143 13.0115 27.271C12.9112 27.2277 12.8218 27.1625 12.75 27.08L5.74998 20.19C5.67144 20.1324 5.60757 20.0571 5.56355 19.9703C5.51952 19.8834 5.49658 19.7874 5.49658 19.69C5.49658 19.5926 5.51952 19.4966 5.56355 19.4097C5.60757 19.3229 5.67144 19.2476 5.74998 19.19C6.19998 18.77 6.62998 18.34 7.07998 17.91C7.52998 17.48 7.76998 17.47 8.23998 17.91L12.75 22.33C13.28 22.86 13.29 22.87 13.84 22.33L18.33 17.95C18.86 17.43 19.02 17.44 19.58 17.95C21.11 19.45 22.65 20.95 24.16 22.45C24.51 22.79 24.71 22.74 25.01 22.45L29.64 17.91C30.13 17.43 30.34 17.45 30.82 17.91L31.99 19.06C32.54 19.59 32.54 19.77 31.99 20.3L27.63 24.57C26.8 25.38 25.97 26.2 25.13 26.99C24.67 27.44 24.46 27.43 23.99 26.99L19.44 22.53C18.94 22.03 18.94 22.03 18.44 22.53C16.9466 24.0034 15.4533 25.4634 13.96 26.91C13.75 27.09 13.57 27.33 13.33 27.33Z" fill="#0599FC"/>
<path d="M19.0701 10.83C20.6154 10.8538 22.14 11.1893 23.5524 11.8165C24.9649 12.4437 26.2362 13.3497 27.2901 14.48C27.3748 14.5331 27.4447 14.6068 27.4931 14.6943C27.5415 14.7817 27.5669 14.8801 27.5669 14.98C27.5669 15.08 27.5415 15.1783 27.4931 15.2657C27.4447 15.3532 27.3748 15.427 27.2901 15.48C26.7801 15.97 26.2901 16.48 25.7901 16.96C25.4601 17.3 25.2201 17.25 24.9201 16.96C23.9219 15.8379 22.63 15.0171 21.1901 14.59C19.8263 14.1624 18.3716 14.1151 16.9829 14.4535C15.5943 14.7918 14.3243 15.5029 13.3101 16.51C12.3101 17.4 12.3101 17.42 11.4001 16.51L10.4901 15.63C10.1001 15.24 10.0901 15 10.4901 14.63C11.6733 13.3301 13.1275 12.3059 14.7501 11.63C16.1292 11.102 17.5934 10.8308 19.0701 10.83Z" fill="#0599FC"/>
</svg>
