<svg width="32" height="28" viewBox="0 0 32 28" fill="none" xmlns="http://www.w3.org/2000/svg">
<path d="M9.80996 4.29449C11.3879 3.18178 13.1985 2.44312 15.1045 2.1347C17.0105 1.82628 18.9617 1.95617 20.81 2.51446C22.3546 2.98388 23.7903 3.75617 25.0334 4.78631C26.2764 5.81646 27.3019 7.08383 28.05 8.51446C28.7947 9.95743 29.2276 11.5409 29.3207 13.162C29.4137 14.7832 29.1647 16.4058 28.59 17.9245C28.002 19.4164 27.1239 20.7767 26.0064 21.9268C24.8889 23.0769 23.5543 23.9939 22.08 24.6244C20.1241 25.4432 17.9947 25.7605 15.8851 25.5474C13.7756 25.3344 11.7526 24.5978 9.99996 23.4045C8.92996 22.6845 7.92996 24.4045 8.99996 25.1345C10.8191 26.3521 12.8875 27.1474 15.0538 27.4623C17.2201 27.7772 19.4294 27.6037 21.52 26.9544C25.1212 25.8203 28.1247 23.3024 29.87 19.9544C30.7385 18.2454 31.2356 16.372 31.3287 14.4572C31.4217 12.5424 31.1086 10.6296 30.41 8.84442C29.7062 7.11317 28.6671 5.53808 27.3526 4.20978C26.038 2.88147 24.4738 1.82614 22.75 1.10443C20.4911 0.175283 18.0363 -0.17596 15.6075 0.082456C13.1787 0.340872 10.8527 1.20077 8.83996 2.58441C7.83996 3.31441 8.78996 5.04439 9.83996 4.31439L9.80996 4.29449Z" fill="white"/>
<path d="M16.42 12.2744H1.5C1.10218 12.2744 0.720644 12.4324 0.43934 12.7137C0.158035 12.995 0 13.3766 0 13.7744C0 14.1722 0.158035 14.5538 0.43934 14.8351C0.720644 15.1164 1.10218 15.2744 1.5 15.2744H16.42C16.8178 15.2744 17.1994 15.1164 17.4807 14.8351C17.762 14.5538 17.92 14.1722 17.92 13.7744C17.92 13.3766 17.762 12.995 17.4807 12.7137C17.1994 12.4324 16.8178 12.2744 16.42 12.2744V12.2744Z" fill="white"/>
<path d="M4.78996 8.36437L0.979964 12.1744L0.439964 12.7143C0.161484 12.9969 0.00537109 13.3777 0.00537109 13.7744C0.00537109 14.1711 0.161484 14.5518 0.439964 14.8343C0.724935 15.1081 1.10479 15.2611 1.49996 15.2611C1.89514 15.2611 2.27499 15.1081 2.55996 14.8343L6.36996 11.0344L6.90996 10.4844C7.17492 10.2 7.31917 9.82389 7.31231 9.43529C7.30546 9.04669 7.14803 8.67594 6.87321 8.40111C6.59838 8.12629 6.22761 7.96888 5.83901 7.96203C5.45041 7.95517 5.07431 8.09941 4.78996 8.36437V8.36437Z" fill="white"/>
<path d="M6.90987 17.0543L3.09987 13.2544L2.55987 12.7144C2.27734 12.4359 1.89657 12.2798 1.49987 12.2798C1.10317 12.2798 0.722398 12.4359 0.43987 12.7144C0.166087 12.9993 0.0131836 13.3792 0.0131836 13.7744C0.0131836 14.1696 0.166087 14.5494 0.43987 14.8344L4.23987 18.6344L4.78987 19.1744C5.0724 19.4529 5.45317 19.609 5.84987 19.609C6.24657 19.609 6.62734 19.4529 6.90987 19.1744C7.18365 18.8895 7.33656 18.5096 7.33656 18.1144C7.33656 17.7192 7.18365 17.3393 6.90987 17.0543V17.0543Z" fill="white"/>
</svg>
