<svg width="35" height="36" viewBox="0 0 35 36" fill="none" xmlns="http://www.w3.org/2000/svg">
<path d="M17.5 35.28C27.165 35.28 35 27.445 35 17.78C35 8.11502 27.165 0.279999 17.5 0.279999C7.83502 0.279999 0 8.11502 0 17.78C0 27.445 7.83502 35.28 17.5 35.28Z" fill="#FFEEDC"/>
<path d="M17.6 31.17C14.0495 31.1673 10.6453 29.7558 8.13473 27.2452C5.62419 24.7347 4.21261 21.3304 4.20996 17.78C4.21261 14.2296 5.62419 10.8253 8.13473 8.31477C10.6453 5.80423 14.0495 4.39265 17.6 4.39C21.1496 4.39529 24.5523 5.80772 27.0623 8.31769C29.5722 10.8277 30.9847 14.2304 30.99 17.78C30.9847 21.3296 29.5722 24.7324 27.0623 27.2423C24.5523 29.7523 21.1496 31.1647 17.6 31.17ZM17.6 5.39C14.3147 5.39265 11.1648 6.69887 8.84184 9.02187C6.51883 11.3449 5.21261 14.4948 5.20996 17.78C5.21261 21.0652 6.51883 24.2151 8.84184 26.5381C11.1648 28.8611 14.3147 30.1674 17.6 30.17C20.8844 30.1647 24.0327 28.8576 26.3552 26.5352C28.6776 24.2128 29.9847 21.0644 29.99 17.78C29.9847 14.4956 28.6776 11.3472 26.3552 9.02479C24.0327 6.70236 20.8844 5.39529 17.6 5.39Z" fill="#C46200"/>
<path d="M20.48 4.95001L11.91 13.52L10.69 14.74C10.23 15.19 10.94 15.9 11.4 15.45L19.97 6.87L21.19 5.65C21.2713 5.55378 21.3133 5.43042 21.3075 5.30459C21.3018 5.17876 21.2488 5.05973 21.1591 4.9713C21.0694 4.88287 20.9496 4.83155 20.8237 4.8276C20.6978 4.82365 20.5751 4.86737 20.48 4.95001Z" fill="#C46200"/>
<path d="M17.94 16.68L9.36998 25.25L8.14998 26.47C8.05583 26.5642 8.00293 26.6919 8.00293 26.825C8.00293 26.9582 8.05583 27.0858 8.14998 27.18C8.24413 27.2742 8.37182 27.327 8.50497 27.327C8.63813 27.327 8.76583 27.2742 8.85998 27.18L17.43 18.61L18.65 17.39C18.7441 17.2958 18.797 17.1682 18.797 17.035C18.797 16.9019 18.7441 16.7742 18.65 16.68C18.5558 16.5858 18.4281 16.533 18.295 16.533C18.1618 16.533 18.0341 16.5858 17.94 16.68Z" fill="#C46200"/>
<path d="M29.8799 13.72L23.9699 19.62L23.1299 20.46C22.8199 20.78 23.3099 21.27 23.6199 20.95L29.5299 15.05L30.3699 14.21C30.4205 14.1426 30.445 14.0592 30.439 13.9752C30.4331 13.8912 30.397 13.8121 30.3374 13.7525C30.2778 13.6929 30.1988 13.6569 30.1147 13.6509C30.0307 13.6449 29.9473 13.6695 29.8799 13.72Z" fill="#C46200"/>
</svg>
