<svg width="35" height="35" viewBox="0 0 35 35" fill="none" xmlns="http://www.w3.org/2000/svg">
<path d="M17.5 35C27.165 35 35 27.165 35 17.5C35 7.83502 27.165 0 17.5 0C7.83502 0 0 7.83502 0 17.5C0 27.165 7.83502 35 17.5 35Z" fill="#EAFBF4"/>
<path d="M27.1312 16.7681C27.1374 17.2612 27.3361 17.7323 27.6848 18.0809C28.0334 18.4296 28.5045 18.6282 28.9975 18.6344L28.7577 18.3945V20.9996L28.9975 20.7597C28.616 20.7635 28.2446 20.8826 27.932 21.1013C27.6195 21.3201 27.3806 21.6283 27.2465 21.9855C27.1159 22.3444 27.0983 22.7347 27.1961 23.1039C27.2939 23.4731 27.5023 23.8036 27.7933 24.0509C28.131 24.3307 28.5542 24.4865 28.9927 24.4922L28.7529 24.2524V26.6943L28.9927 26.4545H6.2042C5.89715 26.4545 5.58294 26.4329 5.2783 26.4545H5.23988L5.47976 26.6943V24.2524L5.23988 24.4922C5.62134 24.4885 5.99277 24.3697 6.30563 24.1515C6.61849 23.9332 6.85822 23.6256 6.99341 23.2689C7.12351 22.9093 7.14055 22.5186 7.04237 22.149C6.94419 21.7794 6.73548 21.4487 6.44408 21.2011C6.10645 20.9213 5.68317 20.7655 5.24468 20.7597L5.48456 20.9996V18.3945L5.24468 18.6344C5.62614 18.6307 5.99758 18.5119 6.31043 18.2936C6.62329 18.0753 6.86302 17.7677 6.99821 17.411C7.12831 17.0514 7.14535 16.6607 7.04717 16.2911C6.94899 15.9216 6.74028 15.5908 6.44888 15.3433C6.11158 15.0625 5.68826 14.9059 5.24948 14.8995L5.48936 15.1394V11.1094L5.24948 11.3493H28.038C28.3451 11.3493 28.6593 11.3708 28.9639 11.3493H29.0047L28.7648 11.1094V15.1394L29.0047 14.8995C28.5116 14.9069 28.0409 15.1063 27.6925 15.4552C27.344 15.8041 27.1453 16.2751 27.1385 16.7681C27.1385 16.8318 27.1638 16.8928 27.2087 16.9378C27.2537 16.9827 27.3147 17.008 27.3783 17.008C27.442 17.008 27.503 16.9827 27.548 16.9378C27.5929 16.8928 27.6182 16.8318 27.6182 16.7681C27.6226 16.4015 27.77 16.0511 28.029 15.7917C28.288 15.5322 28.6381 15.3842 29.0047 15.3792C29.0683 15.3792 29.1294 15.354 29.1744 15.309C29.2194 15.264 29.2446 15.203 29.2446 15.1394V11.1094C29.2446 11.0458 29.2194 10.9847 29.1744 10.9398C29.1294 10.8948 29.0683 10.8695 29.0047 10.8695H6.21615C5.9067 10.8695 5.59729 10.8695 5.29024 10.8695H5.23988C5.17626 10.8695 5.11526 10.8948 5.07028 10.9398C5.02529 10.9847 5 11.0458 5 11.1094V15.1394C5 15.203 5.02529 15.264 5.07028 15.309C5.11526 15.354 5.17626 15.3792 5.23988 15.3792C5.60685 15.383 5.95769 15.5306 6.21697 15.7903C6.47624 16.0501 6.62321 16.4012 6.62633 16.7681C6.6232 17.1349 6.47619 17.4857 6.21685 17.7451C5.9575 18.0044 5.60663 18.1515 5.23988 18.1546C5.17626 18.1546 5.11526 18.1799 5.07028 18.2249C5.02529 18.2699 5 18.3309 5 18.3945V20.9996C5 21.0632 5.02529 21.1242 5.07028 21.1692C5.11526 21.2142 5.17626 21.2395 5.23988 21.2395C5.60663 21.2426 5.9575 21.3897 6.21685 21.649C6.47619 21.9084 6.6232 22.2592 6.62633 22.626C6.6232 22.9927 6.47619 23.3436 6.21685 23.6029C5.9575 23.8623 5.60663 24.0094 5.23988 24.0125C5.17626 24.0125 5.11526 24.0378 5.07028 24.0827C5.02529 24.1277 5 24.1887 5 24.2524V26.6943C5 26.758 5.02529 26.819 5.07028 26.864C5.11526 26.9089 5.17626 26.9342 5.23988 26.9342H28.0284C28.3379 26.9342 28.6473 26.9342 28.9543 26.9342H28.9951C29.0587 26.9342 29.1198 26.9089 29.1648 26.864C29.2098 26.819 29.235 26.758 29.235 26.6943V24.2524C29.235 24.1887 29.2098 24.1277 29.1648 24.0827C29.1198 24.0378 29.0587 24.0125 28.9951 24.0125C28.6283 24.0094 28.2776 23.8623 28.0182 23.6029C27.7589 23.3436 27.6118 22.9927 27.6086 22.626C27.6124 22.2594 27.7596 21.9089 28.0188 21.6497C28.278 21.3905 28.6285 21.2432 28.9951 21.2395C29.0587 21.2395 29.1198 21.2142 29.1648 21.1692C29.2098 21.1242 29.235 21.0632 29.235 20.9996V18.3945C29.235 18.3309 29.2098 18.2699 29.1648 18.2249C29.1198 18.1799 29.0587 18.1546 28.9951 18.1546C28.6287 18.1503 28.2786 18.0028 28.0195 17.7437C27.7604 17.4846 27.613 17.1345 27.6086 16.7681C27.6027 16.709 27.575 16.6541 27.5308 16.6142C27.4867 16.5743 27.4294 16.5522 27.3699 16.5522C27.3104 16.5522 27.2531 16.5743 27.209 16.6142C27.1649 16.6541 27.1371 16.709 27.1312 16.7681Z" fill="#30906E"/>
<path d="M23.8065 9.30069C23.8127 9.79413 24.0117 10.2656 24.3608 10.6143C24.71 10.963 25.1817 11.1614 25.6751 11.167L25.4353 10.9271V11.1094L25.6751 10.8695H6.16573C5.90187 10.8695 5.62838 10.8479 5.36692 10.8695H5.33342L5.39573 11.3493L5.94026 11.167L7.42276 10.6656L9.61283 9.92677L12.2851 9.02243L15.1996 8.03892L18.1526 7.04103L20.9087 6.1103L23.2379 5.3235L24.9171 4.75978C25.1785 4.67102 25.4544 4.59906 25.7111 4.49112L25.7447 4.47912L25.4401 4.23924V7.68151L25.6799 7.44163C25.1865 7.44845 24.7151 7.64752 24.3661 7.9965C24.0171 8.34547 23.8181 8.81681 23.8113 9.31029C23.8113 9.37391 23.8366 9.43492 23.8815 9.47991C23.9265 9.52489 23.9875 9.55017 24.0511 9.55017C24.1148 9.55017 24.1758 9.52489 24.2208 9.47991C24.2657 9.43492 24.291 9.37391 24.291 9.31029C24.2948 8.94309 24.4424 8.59199 24.702 8.33233C24.9617 8.07267 25.3127 7.92513 25.6799 7.92139C25.7436 7.92139 25.8046 7.89611 25.8495 7.85112C25.8945 7.80614 25.9198 7.74513 25.9198 7.68151V4.24883C25.9212 4.21106 25.9137 4.17349 25.8978 4.13918C25.8819 4.10487 25.8582 4.0748 25.8285 4.05141C25.7988 4.02803 25.764 4.01199 25.7269 4.00461C25.6898 3.99724 25.6516 3.99872 25.6152 4.00896L25.0731 4.19366L23.5906 4.69501L21.4005 5.43384L18.7282 6.33579L15.8137 7.31929L12.8583 8.31719L10.1045 9.24792L7.77531 10.0347L6.09616 10.6008C5.83229 10.6896 5.56601 10.7759 5.30214 10.8695H5.26864C5.23714 10.8738 5.20675 10.8842 5.17928 10.9002C5.1518 10.9161 5.1278 10.9374 5.10853 10.9627C5.08926 10.9879 5.07508 11.0168 5.06695 11.0475C5.05882 11.0782 5.05684 11.1103 5.06109 11.1418C5.06535 11.1733 5.0758 11.2036 5.09178 11.2311C5.10776 11.2586 5.12905 11.2826 5.15433 11.3019C5.17961 11.3212 5.2084 11.3353 5.23913 11.3434C5.26986 11.3515 5.30192 11.3535 5.33342 11.3493H23.1732C23.9959 11.3493 24.8211 11.3732 25.6415 11.3493H25.6751C25.7388 11.3493 25.7998 11.324 25.8447 11.279C25.8897 11.234 25.915 11.173 25.915 11.1094V10.9271C25.915 10.8635 25.8897 10.8024 25.8447 10.7575C25.7998 10.7125 25.7388 10.6872 25.6751 10.6872C25.3082 10.6841 24.9571 10.5371 24.6973 10.2778C24.4376 10.0185 24.29 9.66767 24.2862 9.30069C24.2862 9.23707 24.2609 9.17606 24.2159 9.13108C24.171 9.08609 24.11 9.06081 24.0463 9.06081C23.9827 9.06081 23.9217 9.08609 23.8767 9.13108C23.8318 9.17606 23.8065 9.23707 23.8065 9.30069Z" fill="#30906E"/>
<path d="M21.4846 22.7243V14.7052C21.4846 14.5779 21.434 14.4559 21.344 14.3659C21.254 14.276 21.132 14.2254 21.0048 14.2254H14.6167C14.4895 14.2254 14.3675 14.276 14.2775 14.3659C14.1875 14.4559 14.137 14.5779 14.137 14.7052V22.7243" stroke="#30906E" stroke-miterlimit="10"/>
<path d="M12.4363 24.4251C13.3756 24.4251 14.137 23.6636 14.137 22.7243C14.137 21.785 13.3756 21.0236 12.4363 21.0236C11.497 21.0236 10.7355 21.785 10.7355 22.7243C10.7355 23.6636 11.497 24.4251 12.4363 24.4251Z" stroke="#30906E" stroke-miterlimit="10"/>
<path d="M19.7862 24.4251C20.7255 24.4251 21.4869 23.6636 21.4869 22.7243C21.4869 21.785 20.7255 21.0236 19.7862 21.0236C18.8469 21.0236 18.0854 21.785 18.0854 22.7243C18.0854 23.6636 18.8469 24.4251 19.7862 24.4251Z" stroke="#30906E" stroke-miterlimit="10"/>
<path d="M14.137 17.1879H21.4341" stroke="#30906E" stroke-miterlimit="10"/>
</svg>
