<svg width="35" height="35" viewBox="0 0 35 35" fill="none" xmlns="http://www.w3.org/2000/svg">
<path d="M17.5 35C27.165 35 35 27.165 35 17.5C35 7.83502 27.165 0 17.5 0C7.83502 0 0 7.83502 0 17.5C0 27.165 7.83502 35 17.5 35Z" fill="#FDEDF3"/>
<path d="M14.672 8.38335L14.6723 8.38368L16.2873 10.0271L16.2877 10.0275C16.2906 10.0305 16.2944 10.0328 16.2987 10.034C16.3026 10.0351 16.3066 10.0352 16.3106 10.0342C18.0653 9.56997 19.0378 9.32125 20.7748 8.89958C20.7804 8.89736 20.7855 8.89407 20.7898 8.88988L20.9643 9.06895L20.7898 8.88988C20.7941 8.88567 20.7978 8.88023 20.8004 8.87354C20.9155 8.48586 21.015 8.13985 21.1041 7.825L21.1059 7.8186L21.106 7.81863C21.1067 7.81615 21.1065 7.81367 21.1055 7.81172C21.1045 7.80977 21.1027 7.80815 21.1004 7.80739L21.0979 7.80654L21.098 7.80653C20.0561 7.4397 18.9601 7.25155 17.8558 7.25L14.672 8.38335ZM14.672 8.38335L14.255 7.9606L14.255 7.96059L14.2537 7.95932C14.2518 7.95745 14.2501 7.95481 14.249 7.95121C14.2478 7.94729 14.2478 7.94399 14.2483 7.94165C14.2488 7.93877 14.2501 7.93575 14.2523 7.93304L14.0577 7.77618M14.672 8.38335L14.0577 7.77618M14.0577 7.77618L14.2523 7.93304C14.2539 7.93107 14.256 7.92937 14.2583 7.92812M14.0577 7.77618L14.2583 7.92812M16.4415 24.9512L16.3875 24.7071C15.1385 24.9831 13.876 25.194 12.6051 25.3389C11.5378 24.454 10.553 23.474 9.66249 22.4109C9.91142 20.9667 10.0542 20.151 10.3692 18.5743L10.3692 18.5743L10.3701 18.5693C10.3707 18.5658 10.3723 18.5625 10.3749 18.5596L10.1889 18.3925L10.3749 18.5596C10.377 18.5573 10.3794 18.5556 10.382 18.5546L12.0753 18.1229L12.0754 18.1229L14.1792 17.5852C15.445 18.9124 16.1472 19.6299 17.4617 20.91C17.4645 20.9132 17.4663 20.9168 17.4672 20.92C17.468 20.9233 17.4682 20.9275 17.467 20.9323C17.2847 21.5804 17.1367 22.0995 17.0004 22.5775C16.9436 22.7765 16.8889 22.9684 16.8346 23.1595C16.7661 23.3969 16.697 23.6442 16.6245 23.9031C16.5542 24.1546 16.4807 24.417 16.4019 24.6921L16.4015 24.6935C16.4007 24.6964 16.3989 24.6997 16.396 24.7024C16.3934 24.7048 16.3903 24.7065 16.387 24.7072L16.4415 24.9512ZM16.4415 24.9512C15.1589 25.2346 13.8623 25.4498 12.557 25.5959L16.4415 24.9512ZM14.2583 7.92812C15.4046 7.47917 16.6248 7.24917 17.8557 7.25L14.2583 7.92812ZM25.8257 12.6921L25.8258 12.6921L25.8214 12.6874C24.5641 11.3757 23.8609 10.6557 22.5821 9.38063L22.5821 9.38063L22.5807 9.37918C22.5772 9.37577 22.575 9.37182 22.574 9.36812C22.573 9.36468 22.5728 9.36076 22.5736 9.35668C22.6013 9.2587 22.6274 9.16492 22.6526 9.07463C22.6998 8.90507 22.7437 8.74778 22.7879 8.59796L22.7881 8.59802L22.7907 8.58768C22.7911 8.58589 22.7919 8.5847 22.7925 8.58395C22.7933 8.58301 22.7945 8.58216 22.7958 8.58161L22.7007 8.35041L22.7958 8.58161C22.797 8.58111 22.7984 8.5809 22.7997 8.581C22.801 8.5811 22.8023 8.58151 22.8034 8.5822L22.8034 8.58225L22.8078 8.58482C24.4005 9.51034 25.7049 10.8608 26.5756 12.4856C26.5767 12.4879 26.5774 12.4906 26.5775 12.4936C26.5776 12.4969 26.577 12.4998 26.5759 12.5023C26.5746 12.5053 26.5728 12.5076 26.5709 12.5092L26.7338 12.6989L26.5709 12.5093C26.569 12.5109 26.5668 12.5121 26.5644 12.5129L25.8348 12.6916L25.8347 12.6915L25.8289 12.6931C25.8284 12.6932 25.8277 12.6932 25.8272 12.6931C25.8268 12.693 25.8263 12.6927 25.8257 12.6921ZM9.89846 16.7718C9.8959 16.7724 9.89335 16.7731 9.89082 16.7739C9.88839 16.7706 9.88589 16.7675 9.8833 16.7644C9.20342 15.9464 8.7455 15.3877 8.25626 14.7767C8.25352 14.7731 8.25166 14.7691 8.25073 14.7649C8.24973 14.7604 8.24977 14.7558 8.2508 14.7514L8.00744 14.6941L8.24995 14.7549C8.86561 12.2971 10.3956 10.1678 12.527 8.80194C12.5295 8.80041 12.5327 8.79972 12.5358 8.80012C12.5387 8.80048 12.5415 8.80179 12.5439 8.80436L12.5438 8.8044L12.5478 8.80844L13.3661 9.63809L13.3662 9.63822L13.3758 9.64798C13.8424 10.1204 14.3242 10.6082 14.9775 11.2989L14.9775 11.2989L14.9785 11.3C14.9806 11.3022 14.9824 11.3052 14.9833 11.3089C14.984 11.312 14.984 11.3156 14.9829 11.3193L14.9826 11.3201C14.4706 13.0432 14.1956 14.012 13.7157 15.7808C13.7139 15.7859 13.7111 15.7902 13.7076 15.7937C13.7042 15.7971 13.7002 15.7997 13.6958 15.8015L9.89846 16.7718ZM26.9801 20.9635L26.6175 20.5975C26.4089 20.3764 26.1935 20.1542 25.9588 19.9119L25.9028 19.8541C25.6458 19.589 25.3641 19.2977 25.0394 18.9543C25.0363 18.9505 25.0339 18.9457 25.0325 18.9401C25.0313 18.9351 25.0312 18.9298 25.0323 18.9245C25.5439 17.2081 25.8136 16.2393 26.2987 14.4654C26.2999 14.4612 26.3021 14.4576 26.3048 14.4549L26.128 14.2782L26.3048 14.4549C26.3075 14.4522 26.3108 14.4502 26.3143 14.449L27.2903 14.1968C27.2904 14.1968 27.2905 14.1967 27.2906 14.1967C27.2952 14.1956 27.3001 14.1963 27.3042 14.1986L27.3051 14.197L27.3042 14.1986C27.3046 14.1989 27.3051 14.1991 27.3055 14.1994C27.3073 14.2093 27.3096 14.219 27.3126 14.2286C27.6057 15.1819 27.753 16.1742 27.75 17.1717C27.7457 18.4753 27.4836 19.764 26.9801 20.9635Z" stroke="#BD5862" stroke-width="0.5" stroke-miterlimit="10" stroke-linejoin="round"/>
<path d="M17.9631 26.7482C17.2045 26.7333 16.45 26.628 15.7155 26.4343C15.6947 26.4288 15.6732 26.426 15.6517 26.426C15.6493 26.426 15.6464 26.4251 15.6438 26.4225C15.6411 26.4197 15.6391 26.4155 15.6391 26.4105C15.6391 26.4055 15.6411 26.4013 15.6438 26.3985L15.4661 26.2227L15.6438 26.3985C15.6464 26.3959 15.6493 26.395 15.6517 26.395C15.6678 26.395 15.6838 26.3934 15.6996 26.3904C16.125 26.3074 16.5917 26.2141 17.1474 26.091C17.4491 26.3376 17.7163 26.5525 17.9631 26.7482ZM17.5801 11.308C19.0011 10.8982 19.9339 10.6563 21.5049 10.2726C22.768 11.5356 23.461 12.2477 24.7009 13.5622C24.7142 13.6005 24.7245 13.6442 24.7423 13.7196C24.3246 15.2924 24.0555 16.2271 23.6401 17.6704C23.594 17.8307 23.546 17.9972 23.4959 18.1716C21.7398 18.6467 20.7804 18.8944 19.0787 19.3122L18.9483 19.2772C17.7141 18.0388 17.0208 17.322 15.8059 16.0375C15.7943 15.9905 15.7823 15.9451 15.7693 15.8985L15.7838 15.8444C16.2354 14.1579 16.4915 13.2016 16.9911 11.5322L17.0862 11.4413L17.576 11.3092L17.576 11.3092L17.5801 11.308ZM8.56959 19.3092C8.37034 18.5424 8.26316 17.7531 8.25114 16.9582C8.42452 17.1733 8.61458 17.4053 8.83514 17.6625C8.83625 17.6661 8.83733 17.6695 8.83838 17.6727C8.84233 17.6851 8.84518 17.6938 8.84776 17.7017C8.85077 17.7108 8.85342 17.7189 8.85702 17.7304C8.86095 17.743 8.86374 17.7527 8.86569 17.7604C8.74837 18.36 8.65404 18.8536 8.56959 19.3092Z" stroke="#BD5862" stroke-width="0.5" stroke-miterlimit="10" stroke-linejoin="round"/>
</svg>
