<svg width="30" height="26" viewBox="0 0 30 26" fill="none" xmlns="http://www.w3.org/2000/svg">
<path d="M26.9898 2.30164C25.4931 0.826783 23.4761 0 21.3748 0C19.2735 0 17.2566 0.826783 15.7598 2.30164L14.9098 3.15161L14.0598 2.30164C12.559 0.876248 10.561 0.0931902 8.49137 0.119385C6.42174 0.145579 4.44415 0.978858 2.97993 2.44177C1.51571 3.90469 0.680623 5.88157 0.652585 7.95117C0.624547 10.0208 1.40577 12.0196 2.82982 13.5216L3.67983 14.3716L14.9098 25.5916L26.1398 14.3716L26.9898 13.5216C27.7282 12.7858 28.314 11.9114 28.7138 10.9487C29.1135 9.98604 29.3193 8.954 29.3193 7.91162C29.3193 6.86924 29.1135 5.83708 28.7138 4.87439C28.314 3.9117 27.7282 3.03743 26.9898 2.30164V2.30164Z" fill="white"/>
</svg>
