<svg width="30" height="29" viewBox="0 0 30 29" fill="none" xmlns="http://www.w3.org/2000/svg">
<path d="M28.18 12.0801H25.88C25.5966 10.7364 25.0641 9.45771 24.31 8.31006V8.31006L25.95 6.67004C26.0552 6.56508 26.1387 6.44038 26.1957 6.3031C26.2526 6.16582 26.2819 6.01862 26.2819 5.87C26.2819 5.72137 26.2526 5.57429 26.1957 5.43701C26.1387 5.29974 26.0552 5.17503 25.95 5.07007L24.25 3.37C24.035 3.15928 23.746 3.04126 23.445 3.04126C23.144 3.04126 22.855 3.15928 22.64 3.37L21.01 5.01001C19.8626 4.25757 18.5836 3.72838 17.24 3.45007V1.14001C17.2413 0.990782 17.2131 0.842844 17.1569 0.70459C17.1007 0.566336 17.0176 0.440586 16.9126 0.334595C16.8075 0.228603 16.6825 0.144448 16.5448 0.0870361C16.407 0.029624 16.2592 -5.84305e-06 16.11 8.64247e-10H13.71C13.4077 8.64475e-10 13.1177 0.120193 12.9039 0.333984C12.6901 0.547776 12.57 0.837668 12.57 1.14001V3.45007C11.2295 3.72842 9.9538 4.25766 8.81 5.01001L7.17 3.37C7.06503 3.26477 6.94034 3.18135 6.80307 3.12439C6.66579 3.06743 6.51862 3.03809 6.37 3.03809C6.22138 3.03809 6.07421 3.06743 5.93693 3.12439C5.79966 3.18135 5.67497 3.26477 5.57 3.37L3.87 5.07007C3.76478 5.17503 3.6813 5.29974 3.62434 5.43701C3.56738 5.57429 3.53806 5.72137 3.53806 5.87C3.53806 6.01862 3.56738 6.16582 3.62434 6.3031C3.6813 6.44038 3.76478 6.56508 3.87 6.67004L5.51 8.31006C4.75275 9.45602 4.21998 10.7354 3.94 12.0801H1.63C1.33031 12.0801 1.04289 12.1991 0.830969 12.411C0.619053 12.6229 0.5 12.9104 0.5 13.2101V15.61C0.5 15.9097 0.619053 16.1971 0.830969 16.4091C1.04289 16.621 1.33031 16.74 1.63 16.74H3.94C4.21706 18.0949 4.74991 19.3847 5.51 20.54L3.87 22.1801C3.76478 22.285 3.6813 22.4097 3.62434 22.547C3.56738 22.6843 3.53806 22.8314 3.53806 22.98C3.53806 23.1286 3.56738 23.2758 3.62434 23.4131C3.6813 23.5504 3.76478 23.6751 3.87 23.78L5.57 25.48C5.67497 25.5852 5.79966 25.6687 5.93693 25.7257C6.07421 25.7827 6.22138 25.812 6.37 25.812C6.51862 25.812 6.66579 25.7827 6.80307 25.7257C6.94034 25.6687 7.06503 25.5852 7.17 25.48L8.81 23.8401C9.9538 24.5924 11.2295 25.1217 12.57 25.4V27.7201C12.5726 28.0207 12.6939 28.308 12.9074 28.5197C13.1209 28.7313 13.4094 28.8501 13.71 28.8501H16.11C16.4097 28.8501 16.6971 28.731 16.909 28.519C17.1209 28.3071 17.24 28.0198 17.24 27.7201V25.4C18.5842 25.1236 19.8635 24.5942 21.01 23.8401V23.8401L22.64 25.48C22.855 25.6907 23.144 25.8087 23.445 25.8087C23.746 25.8087 24.035 25.6907 24.25 25.48L25.95 23.78C26.0552 23.6751 26.1387 23.5504 26.1957 23.4131C26.2526 23.2758 26.2819 23.1286 26.2819 22.98C26.2819 22.8314 26.2526 22.6843 26.1957 22.547C26.1387 22.4097 26.0552 22.285 25.95 22.1801L24.31 20.54C25.0613 19.3945 25.5936 18.1196 25.88 16.78H28.18C28.3292 16.7813 28.4772 16.7531 28.6155 16.6969C28.7538 16.6407 28.8795 16.5577 28.9855 16.4526C29.0915 16.3476 29.1756 16.2226 29.233 16.0848C29.2905 15.9471 29.32 15.7993 29.32 15.65V13.25C29.3254 13.0974 29.2999 12.9454 29.2449 12.803C29.1899 12.6606 29.1066 12.5307 29 12.4214C28.8935 12.312 28.7659 12.2254 28.625 12.1667C28.484 12.1081 28.3327 12.0786 28.18 12.0801V12.0801ZM14.91 19.98C13.8084 19.98 12.7315 19.6534 11.8155 19.0414C10.8995 18.4293 10.1856 17.5594 9.76399 16.5416C9.34241 15.5238 9.23211 14.4038 9.44703 13.3234C9.66195 12.2429 10.1924 11.2504 10.9714 10.4714C11.7504 9.69246 12.7429 9.16194 13.8233 8.94702C14.9038 8.7321 16.0238 8.84246 17.0415 9.26404C18.0593 9.68562 18.9292 10.3996 19.5413 11.3156C20.1533 12.2315 20.48 13.3084 20.48 14.41C20.48 15.1415 20.3359 15.8658 20.056 16.5416C19.7761 17.2174 19.3658 17.8314 18.8486 18.3486C18.3314 18.8659 17.7173 19.2761 17.0415 19.556C16.3658 19.8359 15.6415 19.98 14.91 19.98V19.98Z" fill="white"/>
</svg>
