<svg width="35" height="36" viewBox="0 0 35 36" fill="none" xmlns="http://www.w3.org/2000/svg">
<path d="M17.5 35.91C27.165 35.91 35 28.075 35 18.41C35 8.74502 27.165 0.910004 17.5 0.910004C7.83502 0.910004 0 8.74502 0 18.41C0 28.075 7.83502 35.91 17.5 35.91Z" fill="#FFEEFB"/>
<path d="M12.6799 12.67C12.672 12.1816 12.7761 11.6978 12.9841 11.2558C13.1921 10.8138 13.4985 10.4253 13.8799 10.12C14.4501 9.67616 15.1577 9.44617 15.8799 9.47001C16.2948 9.47253 16.7049 9.55776 17.0865 9.72072C17.468 9.88368 17.8132 10.1211 18.1018 10.4191C18.3905 10.717 18.6168 11.0696 18.7676 11.4561C18.9184 11.8426 18.9906 12.2553 18.9799 12.67H21.5099C21.8299 12.67 21.9299 12.76 21.9599 13.07C22.0699 14.17 22.1699 15.26 22.2699 16.36C22.3699 17.46 22.4599 18.48 22.5599 19.53C22.558 19.5633 22.558 19.5967 22.5599 19.63C22.9199 19.69 23.2799 19.73 23.5599 19.82C24.4171 20.0602 25.1646 20.5901 25.6751 21.3194C26.1856 22.0487 26.4276 22.9324 26.3599 23.82C26.3047 24.6752 25.9628 25.4868 25.3894 26.1237C24.816 26.7606 24.0446 27.1856 23.1999 27.33C22.5641 27.4353 21.9118 27.3736 21.3071 27.151C20.7023 26.9283 20.1657 26.5524 19.7499 26.06C19.6814 26.0067 19.5967 25.9785 19.5099 25.98H8.9499C8.6599 25.98 8.50991 25.83 8.53991 25.54C8.53991 25 8.63991 24.46 8.68991 23.92L8.9899 20.66L9.31991 17.02L9.61991 13.82C9.61991 13.55 9.61991 13.28 9.68991 13.02C9.6922 12.9699 9.70493 12.9209 9.72728 12.876C9.74964 12.8311 9.78113 12.7914 9.81973 12.7594C9.85833 12.7273 9.90319 12.7037 9.95144 12.6901C9.99968 12.6764 10.0503 12.673 10.0999 12.68H12.6799V12.67ZM19.1699 25.27C18.8961 24.7362 18.7534 24.1449 18.7534 23.545C18.7534 22.9451 18.8961 22.3538 19.1699 21.82C19.4253 21.2792 19.8064 20.8073 20.2813 20.4437C20.7562 20.0801 21.3112 19.8354 21.8999 19.73L21.3199 13.38H18.9999V13.85C18.9999 14.14 18.9999 14.43 18.9999 14.71C18.9986 14.756 18.9883 14.8012 18.9695 14.8432C18.9507 14.8852 18.9238 14.923 18.8904 14.9546C18.8569 14.9862 18.8176 15.0109 18.7746 15.0272C18.7317 15.0436 18.6859 15.0513 18.6399 15.05C18.5488 15.0448 18.4634 15.0043 18.4017 14.9371C18.3401 14.8698 18.3071 14.7812 18.3099 14.69C18.3099 14.57 18.3099 14.45 18.3099 14.33C18.3099 14.01 18.3099 13.7 18.3099 13.38H13.4099V13.96C13.4099 14.2 13.4099 14.45 13.4099 14.69C13.4113 14.7377 13.4029 14.7851 13.3853 14.8294C13.3677 14.8737 13.3412 14.9139 13.3075 14.9476C13.2738 14.9813 13.2336 15.0078 13.1893 15.0254C13.145 15.043 13.0976 15.0514 13.0499 15.05C13.0031 15.0487 12.9569 15.0381 12.9143 15.0187C12.8716 14.9992 12.8333 14.9715 12.8016 14.937C12.7699 14.9024 12.7454 14.8619 12.7297 14.8178C12.7139 14.7736 12.7072 14.7268 12.7099 14.68V13.38H10.3799L9.28991 25.27H19.1699ZM22.6199 20.39C22.2032 20.3805 21.7888 20.4554 21.4018 20.6102C21.0147 20.765 20.663 20.9965 20.3678 21.2908C20.0726 21.5851 19.84 21.936 19.6839 22.3226C19.5279 22.7091 19.4517 23.1232 19.4599 23.54C19.4678 24.3712 19.8028 25.1657 20.3924 25.7516C20.982 26.3375 21.7787 26.6674 22.6099 26.67C23.4367 26.6674 24.2294 26.3399 24.8168 25.7581C25.4043 25.1762 25.7394 24.3868 25.7499 23.56C25.7621 23.1438 25.6898 22.7294 25.5374 22.3419C25.3849 21.9544 25.1555 21.6019 24.8629 21.3056C24.5703 21.0093 24.2207 20.7753 23.8352 20.618C23.4497 20.4606 23.0363 20.3831 22.6199 20.39ZM18.2899 12.66C18.31 12.2301 18.2126 11.8028 18.0083 11.424C17.8039 11.0453 17.5003 10.7293 17.1299 10.51C16.7143 10.253 16.2313 10.1262 15.7431 10.1458C15.2548 10.1654 14.7836 10.3305 14.3899 10.62C14.0709 10.8447 13.8125 11.145 13.638 11.4941C13.4635 11.8431 13.3782 12.2299 13.3899 12.62L18.2899 12.66Z" fill="#FF6ED6"/>
<path d="M19.17 18.8C19.17 18.87 19.09 18.97 19.03 19.04L16.1 21.9C16.0691 21.9395 16.0297 21.9714 15.9846 21.9934C15.9396 22.0154 15.8901 22.0268 15.84 22.0268C15.7899 22.0268 15.7404 22.0154 15.6954 21.9934C15.6503 21.9714 15.6109 21.9395 15.58 21.9L12.66 19.05C12.6243 19.0226 12.5944 18.9884 12.5721 18.9493C12.5497 18.9103 12.5353 18.8672 12.5297 18.8225C12.5241 18.7779 12.5275 18.7326 12.5395 18.6892C12.5516 18.6459 12.5721 18.6053 12.6 18.57L13.6 16.82C13.6288 16.7555 13.6771 16.7015 13.738 16.6656C13.799 16.6298 13.8696 16.6138 13.94 16.62H17.75C17.8195 16.619 17.888 16.6372 17.948 16.6724C18.0079 16.7077 18.057 16.7587 18.09 16.82L19.09 18.58C19.1218 18.6513 19.1486 18.7249 19.17 18.8ZM13.89 19.12L15.49 20.84V19.58C15.49 19.12 15.49 19.12 15.03 19.12H13.89ZM17.82 19.12H16.21V20.77L17.82 19.12ZM14.82 17.3L15.82 18.23L16.82 17.3H14.82ZM14.95 18.39L13.95 17.48L13.44 18.39H14.95ZM17.65 17.48L16.65 18.39H18.14L17.65 17.48Z" fill="#FF6ED6"/>
<path d="M23.8401 22.05C23.8401 22.05 23.8401 22.16 23.7701 22.22L22.0601 25.22C22.0399 25.2653 22.0106 25.3059 21.9739 25.3393C21.9373 25.3727 21.8942 25.3982 21.8472 25.4142C21.8003 25.4301 21.7506 25.4362 21.7011 25.4321C21.6517 25.4279 21.6037 25.4136 21.5601 25.39C21.5178 25.3638 21.4814 25.3291 21.4532 25.2881C21.4249 25.2472 21.4055 25.2008 21.3961 25.1519C21.3867 25.1031 21.3876 25.0528 21.3986 25.0043C21.4096 24.9557 21.4305 24.91 21.4601 24.87L23.1601 21.87C23.1954 21.7902 23.2584 21.726 23.3375 21.6892C23.4166 21.6524 23.5064 21.6456 23.5901 21.67C23.6681 21.6965 23.7351 21.7482 23.7804 21.817C23.8257 21.8859 23.8467 21.9679 23.8401 22.05Z" fill="#FF6ED6"/>
<path d="M23.48 24.69C23.5712 24.6873 23.6599 24.7202 23.7271 24.7819C23.7944 24.8435 23.8349 24.9289 23.84 25.02C23.8414 25.0668 23.8333 25.1134 23.8163 25.157C23.7993 25.2006 23.7738 25.2404 23.7411 25.274C23.7085 25.3076 23.6695 25.3342 23.6263 25.3524C23.5832 25.3707 23.5369 25.38 23.49 25.38C23.4437 25.3814 23.3976 25.3733 23.3545 25.3562C23.3114 25.3391 23.2723 25.3134 23.2395 25.2806C23.2067 25.2478 23.181 25.2087 23.1639 25.1656C23.1468 25.1225 23.1387 25.0763 23.14 25.03C23.1426 24.9406 23.1792 24.8556 23.2424 24.7924C23.3056 24.7292 23.3907 24.6925 23.48 24.69Z" fill="#FF6ED6"/>
<path d="M21.7501 21.66C21.8412 21.6626 21.9276 21.7006 21.9911 21.766C22.0546 21.8313 22.0901 21.9189 22.0901 22.01C22.0827 22.0958 22.044 22.1759 21.9812 22.235C21.9185 22.294 21.8362 22.3278 21.7501 22.33C21.7054 22.3287 21.6615 22.3186 21.6207 22.3003C21.5799 22.282 21.5432 22.2559 21.5125 22.2234C21.4819 22.1909 21.458 22.1527 21.4421 22.1109C21.4262 22.0691 21.4187 22.0246 21.4201 21.98C21.42 21.9336 21.4294 21.8877 21.4477 21.8451C21.4661 21.8025 21.4929 21.7641 21.5266 21.7322C21.5603 21.7004 21.6002 21.6758 21.6438 21.6599C21.6874 21.644 21.7338 21.6373 21.7801 21.64" fill="#FF6ED6"/>
</svg>
