<svg width="35" height="35" viewBox="0 0 35 35" fill="none" xmlns="http://www.w3.org/2000/svg">
<path d="M17.5 35C27.165 35 35 27.165 35 17.5C35 7.83502 27.165 0 17.5 0C7.83502 0 0 7.83502 0 17.5C0 27.165 7.83502 35 17.5 35Z" fill="#E8EDF8"/>
<path d="M18.2798 19.7411C18.0219 19.6397 17.7439 19.6033 17.4693 19.6351C17.1947 19.667 16.9318 19.766 16.7026 19.9239C16.1051 20.3781 16.0465 21.1752 16.1442 21.8751C16.2332 22.7058 16.0861 23.5451 15.7207 24.2925C15.3553 25.0398 14.787 25.6635 14.084 26.0888C13.3133 26.5373 12.4121 26.6912 11.5408 26.523C10.752 26.367 10.0025 26.0482 9.33816 25.586C7.9974 24.6291 6.95063 23.3013 6.32034 21.758C5.67786 20.2794 5.37515 18.6699 5.4354 17.0529C5.50806 15.5513 5.91271 14.0861 6.619 12.7678C8.12371 9.94536 10.9713 7.85994 14.1175 7.5057C17.2637 7.15147 20.5747 8.39986 22.6265 10.9024C22.889 11.2195 23.1458 11.548 23.3887 11.8822C23.4123 11.9219 23.4479 11.9526 23.4901 11.9697C23.5323 11.9868 23.5788 11.9895 23.6226 11.9772C23.6664 11.965 23.705 11.9385 23.7328 11.9018C23.7606 11.8651 23.7759 11.8201 23.7766 11.7737C23.7514 11.502 23.7627 11.228 23.8101 10.9595C23.8701 10.7335 23.9715 10.5212 24.1089 10.3339C24.4328 9.9304 24.8424 9.60796 25.3066 9.39115C25.8147 9.13118 26.3645 8.98263 26.881 8.74266C27.0971 8.64083 27.3013 8.51434 27.4896 8.36558C27.5879 8.28603 27.6812 8.20015 27.7688 8.10847C27.833 8.03705 27.9055 7.88564 27.9976 7.85993C28.1735 7.80566 28.2517 8.25702 28.2768 8.37415C28.3669 8.65508 28.4406 8.94126 28.4974 9.23117C28.6038 9.79646 28.6142 10.3763 28.528 10.9452C28.4617 11.4303 28.2962 11.8955 28.0424 12.3107C27.9128 12.5133 27.758 12.6977 27.5818 12.8592C27.3713 13.0333 27.1406 13.1801 26.895 13.2963C26.7959 13.3482 26.7024 13.4104 26.6158 13.482C26.513 13.5906 26.4272 13.7149 26.3618 13.8505C26.1998 14.1162 26.0379 14.3847 25.8788 14.6532C25.7197 14.9218 25.5465 15.2246 25.3818 15.4903C25.2089 15.7214 25.0784 15.9828 24.9966 16.2616C24.9491 16.5473 24.9687 16.8329 24.9212 17.1329C24.8757 17.4266 24.7979 17.7141 24.6895 17.9899C24.4956 18.4655 24.2163 18.8996 23.866 19.2697C23.5188 19.6511 23.1075 19.9656 22.6516 20.1982C22.4175 20.2834 22.1965 20.4027 21.9956 20.5524C21.8117 20.7246 21.646 20.9161 21.5014 21.1238C20.7859 22.0816 20.0021 22.9839 19.1564 23.8234C18.9463 24.0261 18.7254 24.2168 18.4948 24.3947C18.2782 24.5829 18.0292 24.7283 17.7606 24.8232C17.6679 24.8652 17.5668 24.8838 17.4656 24.8773C17.3645 24.8708 17.2663 24.8395 17.1795 24.7859C17.0927 24.7324 17.0197 24.6583 16.9669 24.5698C16.914 24.4813 16.8827 24.3811 16.8757 24.2776C16.8481 24.0006 16.8757 23.7207 16.9566 23.4548C17.029 23.1765 17.1224 22.9043 17.2358 22.6407C17.4731 22.0693 17.7439 21.498 18.0091 20.9266C18.1487 20.641 18.2883 20.341 18.4223 20.0468C18.5367 19.8011 18.1765 19.5811 18.0593 19.8325C17.7801 20.4581 17.4703 21.0809 17.1855 21.7094C16.8882 22.2917 16.6631 22.9097 16.5155 23.5491C16.4234 24.0548 16.4094 24.629 16.7947 25.0118C17.1799 25.3946 17.7439 25.326 18.1905 25.1032C18.47 24.9414 18.7319 24.7498 18.9721 24.5318C19.2178 24.3262 19.4524 24.1033 19.6785 23.8748C20.1336 23.4206 20.5607 22.9378 20.971 22.4464C21.1776 22.1979 21.3786 21.9436 21.5768 21.6894C21.775 21.4351 21.9369 21.1952 22.1351 20.9724C22.3262 20.7907 22.5526 20.6524 22.7995 20.5667C23.0593 20.4395 23.3047 20.2834 23.531 20.101C24.4568 19.4216 25.094 18.4058 25.312 17.2614C25.3651 16.9529 25.3512 16.6387 25.3959 16.333C25.4423 16.1769 25.5161 16.0308 25.6135 15.9016C25.7057 15.7417 25.8006 15.5817 25.8927 15.4217L26.426 14.5276C26.5069 14.3876 26.5907 14.2419 26.6745 14.1105C26.7377 13.9643 26.8333 13.8352 26.9536 13.7334C27.1993 13.5763 27.47 13.4763 27.7017 13.2934C27.9111 13.1219 28.0986 12.9242 28.26 12.705C28.5662 12.2813 28.7768 11.7935 28.877 11.2766C29.0006 10.6861 29.0242 10.0783 28.9468 9.47971C28.9051 9.14537 28.8379 8.81489 28.7459 8.49128C28.6874 8.18895 28.5789 7.89908 28.4248 7.63426C28.3641 7.54512 28.2774 7.47782 28.1772 7.44192C28.0769 7.40602 27.9683 7.40335 27.8665 7.43428C27.6208 7.51427 27.4896 7.77709 27.3082 7.94278C26.8727 8.33987 26.2976 8.49413 25.7672 8.70553C24.7789 9.09691 23.6454 9.73681 23.3858 10.8852C23.3388 11.174 23.3267 11.4676 23.3495 11.7594L23.7403 11.6508C23.2335 10.9249 22.6544 10.2547 22.0123 9.65111C21.4213 9.11322 20.7733 8.64466 20.0805 8.25416C18.6662 7.47893 17.0948 7.0515 15.491 7.00577C12.1215 6.88579 8.89145 8.64554 6.9317 11.4223C6.01712 12.7094 5.40531 14.1952 5.14383 15.764C4.88235 17.3328 4.9783 18.9421 5.42423 20.4667C5.87539 22.1502 6.74037 23.6874 7.93673 24.9318C9.10086 26.1116 10.7284 27.0629 12.4034 26.9972C14.0784 26.9315 15.5496 25.7488 16.2252 24.169C16.408 23.748 16.5275 23.3011 16.5797 22.8435C16.6016 22.6415 16.6081 22.4381 16.5992 22.235C16.5992 21.9808 16.5378 21.7294 16.5294 21.4751C16.5099 20.8324 16.7194 20.1896 17.4033 20.0468C17.6644 20.0032 17.932 20.0307 18.1794 20.1268C18.425 20.2467 18.5339 19.8325 18.2798 19.7411Z" fill="#40B2FF"/>
<path d="M17.8919 23.612L17.9309 23.6377C17.9712 23.6606 18.0177 23.6697 18.0635 23.6635C18.1092 23.6573 18.1518 23.6363 18.1849 23.6034C18.794 23.0864 19.3547 22.5126 19.8599 21.8894C20.3792 21.278 20.8705 20.6438 21.3562 20.0039C22.3296 18.7127 23.2527 17.3795 24.1256 16.0045C24.6141 15.236 25.0803 14.4533 25.5493 13.6705C25.5744 13.622 25.5806 13.5655 25.5666 13.5125C25.5527 13.4595 25.5195 13.4139 25.474 13.3849L24.3769 12.6935C24.3367 12.6701 24.2901 12.6608 24.2443 12.667C24.1984 12.6732 24.1557 12.6945 24.1228 12.7278C23.8688 13.0363 23.6539 13.3849 23.4222 13.7134L22.6907 14.7532C22.2217 15.4274 21.7583 16.1016 21.3117 16.7901C20.4394 18.114 19.638 19.4854 18.9108 20.8981C18.5032 21.7065 18.1431 22.5264 17.8109 23.3663C17.7076 23.6234 18.1152 23.7348 18.2129 23.4806C19.377 20.5438 21.0492 17.8557 22.8359 15.2817L23.626 14.139C23.8884 13.7677 24.1312 13.3649 24.4188 13.0163L24.1675 13.0506L25.2619 13.7391L25.1865 13.4534C23.5723 16.2342 21.7484 18.8819 19.7315 21.3723C19.1842 22.0713 18.5719 22.7142 17.903 23.292L18.157 23.2577L18.118 23.2349C17.8751 23.0949 17.6629 23.4663 17.8919 23.612Z" fill="#40B2FF"/>
<path d="M20.7169 12.5764C20.718 12.2369 20.6179 11.9051 20.4298 11.6253C20.2418 11.3456 19.9747 11.1312 19.6644 11.0109C19.3602 10.8967 19.029 10.8807 18.7156 10.9649C18.4021 11.0492 18.1215 11.2298 17.9113 11.4823C17.6924 11.7399 17.5578 12.0611 17.5261 12.4009C17.4945 12.7408 17.5673 13.0822 17.7347 13.3775C17.902 13.6728 18.1555 13.9072 18.4595 14.0479C18.7634 14.1885 19.1028 14.2284 19.43 14.1619C19.7866 14.0824 20.1069 13.8831 20.3401 13.5958C20.5733 13.3085 20.706 12.9497 20.7169 12.5764C20.7169 12.2907 20.3093 12.2907 20.2982 12.5764C20.2896 12.8206 20.2109 13.0568 20.0719 13.2555C19.9329 13.4541 19.7397 13.6065 19.5166 13.6934C19.2808 13.7786 19.0249 13.7859 18.785 13.7141C18.545 13.6423 18.3331 13.4952 18.1793 13.2934C18.0352 13.0981 17.9518 12.8629 17.94 12.6184C17.9282 12.374 17.9886 12.1315 18.1132 11.9226C18.2379 11.7137 18.4211 11.548 18.639 11.447C18.8569 11.3461 19.0995 11.3146 19.3351 11.3566C19.6082 11.4157 19.853 11.5692 20.0284 11.7914C20.2038 12.0135 20.2991 12.2908 20.2982 12.5764C20.2982 12.6332 20.3202 12.6877 20.3595 12.7279C20.3988 12.7681 20.452 12.7906 20.5075 12.7906C20.5631 12.7906 20.6164 12.7681 20.6557 12.7279C20.695 12.6877 20.7169 12.6332 20.7169 12.5764Z" fill="#40B2FF"/>
<path d="M11.3118 14.499C11.3174 14.1597 11.2201 13.8269 11.0331 13.5467C10.8462 13.2664 10.5788 13.0523 10.268 12.9341C9.95719 12.8158 9.61822 12.7991 9.29775 12.8864C8.97727 12.9736 8.69113 13.1604 8.47878 13.4211C8.26644 13.6817 8.13841 14.0034 8.11224 14.3417C8.08607 14.6799 8.16303 15.0182 8.33266 15.3098C8.50228 15.6014 8.75612 15.8319 9.0592 15.9697C9.36228 16.1074 9.6997 16.1455 10.0248 16.0788C10.3821 16.0028 10.7038 15.8053 10.9374 15.5184C11.1711 15.2316 11.303 14.8723 11.3118 14.499C11.3118 14.2133 10.9042 14.2133 10.893 14.499C10.8851 14.7403 10.8081 14.974 10.6716 15.171C10.5352 15.3681 10.3452 15.5198 10.1253 15.6074C9.88813 15.6984 9.62872 15.7092 9.38512 15.6381C9.14153 15.5671 8.9266 15.4179 8.77199 15.2126C8.61738 15.0073 8.53128 14.7566 8.52622 14.4975C8.52116 14.2383 8.59744 13.9844 8.74391 13.7729C8.89038 13.5614 9.09924 13.4036 9.33987 13.3226C9.58049 13.2417 9.84019 13.2418 10.0807 13.3231C10.3213 13.4044 10.5299 13.5624 10.6761 13.7741C10.8223 13.9858 10.8984 14.2398 10.893 14.499C10.893 14.5558 10.9151 14.6103 10.9543 14.6505C10.9936 14.6907 11.0469 14.7132 11.1024 14.7132C11.1579 14.7132 11.2112 14.6907 11.2504 14.6505C11.2897 14.6103 11.3118 14.5558 11.3118 14.499Z" fill="#40B2FF"/>
<path d="M7.82783 19.7582C7.81728 20.0988 7.91086 20.4343 8.09554 20.7179C8.28023 21.0015 8.54681 21.219 8.85807 21.3401C9.16934 21.4612 9.50988 21.4799 9.83202 21.3936C10.1542 21.3072 10.4419 21.1202 10.6552 20.8584C10.8685 20.5967 10.9966 20.2734 11.0218 19.9336C11.0469 19.5938 10.9678 19.2545 10.7955 18.9629C10.6231 18.6713 10.3661 18.442 10.0603 18.3071C9.75458 18.1721 9.41521 18.1381 9.08967 18.2099C8.74372 18.2931 8.43356 18.4891 8.20596 18.7683C7.97836 19.0476 7.84565 19.3951 7.82783 19.7582C7.80549 20.0439 8.22424 20.0439 8.24658 19.7582C8.25979 19.5249 8.33736 19.3001 8.47027 19.11C8.60317 18.9199 8.78596 18.7723 8.99752 18.6841C9.22577 18.5932 9.47602 18.5772 9.71357 18.6382C9.95112 18.6993 10.1643 18.8344 10.3234 19.0249C10.4826 19.2154 10.5799 19.4518 10.6019 19.7015C10.624 19.9511 10.5696 20.2015 10.4464 20.4182C10.3135 20.6513 10.1082 20.8322 9.8631 20.932C9.61803 21.0318 9.34742 21.0448 9.0943 20.9689C8.84119 20.8929 8.62007 20.7325 8.46645 20.5131C8.31283 20.2936 8.23544 20.0279 8.24658 19.7582C8.26054 19.484 7.84179 19.484 7.82783 19.7582Z" fill="#40B2FF"/>
<path d="M15.5022 11.348C15.503 11.0074 15.4021 10.6747 15.213 10.3944C15.0239 10.1141 14.7556 9.89957 14.4441 9.77964C14.1248 9.66165 13.777 9.65051 13.4511 9.74783C13.1251 9.84514 12.8378 10.0459 12.6306 10.3211C12.4234 10.5963 12.3069 10.9317 12.298 11.2791C12.2891 11.6264 12.3884 11.9676 12.5813 12.2535C12.7741 12.5395 13.0508 12.7553 13.3713 12.8699C13.6918 12.9845 14.0396 12.992 14.3645 12.8913C14.6894 12.7905 14.9748 12.5868 15.1792 12.3094C15.3837 12.032 15.4968 11.6954 15.5022 11.348C15.5022 11.0623 15.0946 11.0623 15.0834 11.348C15.0786 11.5977 14.9984 11.8397 14.854 12.041C14.7095 12.2423 14.5078 12.393 14.2764 12.4724C14.0451 12.5519 13.7953 12.5562 13.5615 12.4848C13.3276 12.4134 13.121 12.2698 12.97 12.0736C12.8211 11.8779 12.7342 11.6402 12.7213 11.3925C12.7083 11.1448 12.7698 10.899 12.8975 10.6881C13.0238 10.481 13.2066 10.3164 13.4235 10.2149C13.6404 10.1133 13.8818 10.0792 14.1175 10.1167C14.3921 10.1732 14.6387 10.326 14.815 10.5487C14.9913 10.7713 15.0863 11.05 15.0834 11.3366C15.0819 11.3934 15.1026 11.4485 15.1408 11.4897C15.179 11.531 15.2317 11.555 15.2872 11.5565C15.3427 11.558 15.3965 11.5369 15.4369 11.4978C15.4772 11.4587 15.5007 11.4048 15.5022 11.348Z" fill="#40B2FF"/>
</svg>
