<svg width="36" height="36" viewBox="0 0 36 36" fill="none" xmlns="http://www.w3.org/2000/svg">
<path d="M18.25 35.94C27.915 35.94 35.75 28.105 35.75 18.44C35.75 8.77502 27.915 0.940002 18.25 0.940002C8.58502 0.940002 0.75 8.77502 0.75 18.44C0.75 28.105 8.58502 35.94 18.25 35.94Z" fill="#F7FFEC"/>
<path d="M28.3501 9.53H8.15009C7.28853 9.53 6.59009 10.2284 6.59009 11.09V25.8C6.59009 26.6616 7.28853 27.36 8.15009 27.36H28.3501C29.2117 27.36 29.9101 26.6616 29.9101 25.8V11.09C29.9101 10.2284 29.2117 9.53 28.3501 9.53Z" stroke="#9DCB7C" stroke-miterlimit="10"/>
<path d="M18.0102 11.24H9.32021C8.7127 11.24 8.22021 11.7325 8.22021 12.34V18.47C8.22021 19.0775 8.7127 19.57 9.32021 19.57H18.0102C18.6177 19.57 19.1102 19.0775 19.1102 18.47V12.34C19.1102 11.7325 18.6177 11.24 18.0102 11.24Z" stroke="#9DCB7C" stroke-miterlimit="10"/>
<path d="M21.26 13H28.43" stroke="#9DCB7C" stroke-miterlimit="10"/>
<path d="M21.26 16.53H28.43" stroke="#9DCB7C" stroke-miterlimit="10"/>
<path d="M21.26 20.06H28.43" stroke="#9DCB7C" stroke-miterlimit="10"/>
<path d="M8.22021 24.47H28.4302" stroke="#9DCB7C" stroke-miterlimit="10"/>
</svg>
