<svg width="36" height="36" viewBox="0 0 36 36" fill="none" xmlns="http://www.w3.org/2000/svg">
<path d="M18.25 35.55C27.915 35.55 35.75 27.715 35.75 18.05C35.75 8.385 27.915 0.549988 18.25 0.549988C8.58502 0.549988 0.75 8.385 0.75 18.05C0.75 27.715 8.58502 35.55 18.25 35.55Z" fill="#FDEDF3"/>
<path d="M25.18 26.8H11.32C10.9726 26.8 10.6394 26.662 10.3937 26.4163C10.148 26.1706 10.01 25.8374 10.01 25.49V12.49C10.01 12.1426 10.148 11.8093 10.3937 11.5637C10.6394 11.318 10.9726 11.18 11.32 11.18H25.18C25.5274 11.18 25.8606 11.318 26.1063 11.5637C26.352 11.8093 26.49 12.1426 26.49 12.49V25.49C26.49 25.8374 26.352 26.1706 26.1063 26.4163C25.8606 26.662 25.5274 26.8 25.18 26.8ZM11.32 12.05C11.205 12.05 11.0946 12.0949 11.0124 12.1753C10.9301 12.2557 10.8826 12.365 10.88 12.48V25.48C10.88 25.5967 10.9264 25.7086 11.0089 25.7911C11.0914 25.8736 11.2033 25.92 11.32 25.92H25.18C25.2967 25.92 25.4086 25.8736 25.4911 25.7911C25.5737 25.7086 25.62 25.5967 25.62 25.48V12.48C25.6174 12.365 25.5699 12.2557 25.4877 12.1753C25.4054 12.0949 25.295 12.05 25.18 12.05H11.32Z" fill="#BD5862"/>
<path d="M17.5401 19.22L18.5401 17.33H18.0601L18.5201 18.33L18.8501 19.01C18.8874 19.1331 18.9524 19.246 19.0401 19.34C19.1558 19.3955 19.2819 19.4261 19.4101 19.43L20.1201 19.54L21.2201 19.72L21.1001 19.25L20.2701 20.04L19.7701 20.52C19.6801 20.6 19.5301 20.7 19.4901 20.83C19.4704 20.9626 19.4704 21.0974 19.4901 21.23L19.6101 21.94L19.7901 23.07L20.2001 22.75L19.2001 22.2L18.5901 21.88C18.4779 21.7954 18.348 21.7372 18.2101 21.71C18.078 21.7346 17.9521 21.7856 17.8401 21.86L17.2001 22.18L16.2001 22.7L16.6101 23.02L16.8201 21.89L16.9501 21.21C16.9746 21.0711 16.9746 20.9289 16.9501 20.79C16.9501 20.67 16.7801 20.57 16.7001 20.49L16.1901 19.98L15.3801 19.17L15.1801 19.65L17.2801 19.38C17.6301 19.33 17.6401 18.77 17.2801 18.81L15.1801 19.09C15.1261 19.0935 15.0742 19.112 15.0302 19.1434C14.9862 19.1748 14.9518 19.2179 14.931 19.2679C14.9102 19.3178 14.9038 19.3726 14.9124 19.4259C14.9211 19.4793 14.9446 19.5292 14.9801 19.57L16.4801 21.06L16.4101 20.79L16.0201 22.87C16.0077 22.9243 16.0112 22.981 16.0302 23.0333C16.0492 23.0857 16.0828 23.1315 16.1271 23.1652C16.1714 23.199 16.2245 23.2193 16.28 23.2236C16.3355 23.228 16.3911 23.2164 16.4401 23.19L18.3201 22.19H18.0401L19.8901 23.19C19.9392 23.2164 19.9948 23.228 20.0503 23.2236C20.1058 23.2193 20.1589 23.199 20.2031 23.1652C20.2474 23.1315 20.2811 23.0857 20.3 23.0333C20.319 22.981 20.3225 22.9243 20.3101 22.87L19.9801 20.78L19.9001 21.05L21.4401 19.6C21.4753 19.565 21.5005 19.5213 21.5131 19.4733C21.5258 19.4253 21.5255 19.3749 21.5123 19.3271C21.4991 19.2792 21.4734 19.2358 21.4379 19.2012C21.4023 19.1665 21.3583 19.142 21.3101 19.13L19.2201 18.8L19.3901 18.93L18.4801 17.02C18.4552 16.9786 18.42 16.9443 18.378 16.9205C18.3359 16.8967 18.2884 16.8842 18.2401 16.8842C18.1918 16.8842 18.1443 16.8967 18.1022 16.9205C18.0602 16.9443 18.025 16.9786 18.0001 17.02L17.0001 18.9C16.8901 19.25 17.3801 19.54 17.5401 19.22Z" fill="#BD5862"/>
<path d="M26.0499 14.93H10.4399V15.81H26.0499V14.93Z" fill="#BD5862"/>
<path d="M15.1901 12.05H12.5901V10.18C12.5927 9.94741 12.6862 9.72508 12.8507 9.56061C13.0152 9.39614 13.2375 9.30259 13.4701 9.29999H14.3101C14.5427 9.30259 14.765 9.39614 14.9295 9.56061C15.0939 9.72508 15.1875 9.94741 15.1901 10.18V12.05ZM13.4701 11.17H14.3101V10.17H13.4701V11.17Z" fill="#BD5862"/>
<path d="M24.4601 11.94H21.8201V10.18C21.8252 10.0631 21.8533 9.94833 21.9029 9.84231C21.9524 9.73628 22.0224 9.64108 22.1088 9.56213C22.1952 9.48317 22.2963 9.42204 22.4063 9.38221C22.5163 9.34238 22.6332 9.32464 22.7501 9.33001H23.6201C23.8544 9.32999 24.0793 9.42238 24.2459 9.58713C24.4125 9.75189 24.5074 9.97571 24.5101 10.21L24.4601 11.94ZM22.7501 11.06H23.6301V10.18H22.7501V11.06Z" fill="#BD5862"/>
</svg>
