<svg width="38" height="37" viewBox="0 0 38 37" fill="none" xmlns="http://www.w3.org/2000/svg">
<path d="M18.91 36.47C28.923 36.47 37.04 28.3529 37.04 18.34C37.04 8.3271 28.923 0.210022 18.91 0.210022C8.89711 0.210022 0.780029 8.3271 0.780029 18.34C0.780029 28.3529 8.89711 36.47 18.91 36.47Z" fill="#F4E0CE"/>
<path d="M30.5101 23.54L29.1401 28.74L23.8601 27.03L23.1401 27.6L20.7501 28.69H18.9601H17.1801L14.7401 27.6L14.0201 27.03L8.74011 28.74L7.36011 23.54L9.11011 18.62L8.11011 17.38L8.53011 17.01L7.87011 16.4L8.36011 15.96L7.75011 15.4L8.16011 15.12L7.49011 11.33L8.59011 7.90002L15.5301 10.83H22.2901L29.2901 7.90002L30.3301 11.33L29.6901 15.08L30.1001 15.37L29.4901 15.93L29.9801 16.37L29.3201 16.98L29.7501 17.35L28.7501 18.58L30.5101 23.54Z" fill="#FF9700"/>
<path d="M17.4401 19.33L16.7501 21.79L16.0501 20.35L14.4001 21.11L12.3201 19.11L17.4401 19.33Z" fill="#E97709"/>
<path d="M14.5001 23.22L13.9701 27.03L11.6401 23.33L14.5001 23.22Z" fill="#E97709"/>
<path d="M16.7501 21.79L14.4601 21.18H14.3101H14.3901L16.0401 20.43L16.7501 21.79Z" fill="#393939"/>
<path d="M14.5001 21.18V23.18L12.3601 19.18L12.5001 19.3L14.4301 21.05H14.3501L14.5001 21.18Z" fill="#FB8818"/>
<path d="M17.04 14.33L14.85 16.21H14.79L9.07 18.56L8.07 17.32L8.49 16.95L7.83 16.34L8.32 15.91L7.75 15.4L8.16 15.12L7.5 11.33L8.6 7.90002L17.04 14.33Z" fill="#985726"/>
<path d="M17.0401 14.33L8.59009 7.91003L15.5901 10.84L17.0401 14.33Z" fill="#F98A04"/>
<path d="M13.9701 27.03L8.7501 28.73L7.3501 23.54L11.6401 23.33L13.9701 27.03Z" fill="#FC8A03"/>
<path d="M17.27 24.78L13.97 27.03L14.5 23.22L17.27 24.78Z" fill="#FC8A03"/>
<path d="M17.75 24.54L16.75 21.8L17.4 19.3L17.75 24.54Z" fill="#FB8917"/>
<path d="M17.75 24.54L17.26 24.78L14.49 23.22V21.22L16.78 21.83L17.75 24.54Z" fill="#FF9800"/>
<path d="M17.27 24.79L17.06 26.47V26.79V27.88L14.73 27.44L14.03 27.03L17.27 24.79Z" fill="#E3CDC1"/>
<path d="M14.5501 16.55L12.3601 19.1L14.4401 21.1L12.5001 19.33L12.3601 19.2L14.5001 23.2L11.6501 23.33L7.32007 23.58L9.07007 18.67L14.8001 16.31L17.0401 14.33L14.5501 16.55Z" fill="#FF9800"/>
<path d="M17.4401 19.33L12.3601 19.13L14.5501 16.57L17.0401 14.33V14.42L17.4401 19.33Z" fill="#FA7C00"/>
<path d="M23.86 27.03L23.14 27.6L20.75 28.69H18.96H17.18L14.74 27.6L14.02 27.03L14.72 27.43L17.05 27.87V26.79L17.31 26.58H20.59L20.85 26.79V27.87L23.18 27.43L23.86 27.03Z" fill="#D1BCB0"/>
<path d="M20.4001 19.33L21.0601 21.82L21.7501 20.33L23.3801 21.09L25.4501 19.09L20.4001 19.33Z" fill="#E97709"/>
<path d="M23.3401 23.22L23.8601 27.03L26.1901 23.33L23.3401 23.22Z" fill="#E97709"/>
<path d="M21.0601 21.79L23.3401 21.18H23.4801H23.4001L21.7501 20.33L21.0601 21.79Z" fill="#393939"/>
<path d="M23.3401 21.18V23.18L25.4901 19.18L25.3501 19.3L23.4101 21.05H23.5001L23.3401 21.18Z" fill="#FB8818"/>
<path d="M20.75 14.33L22.94 16.21H23L28.75 18.62L29.75 17.38L29.32 17.01L29.98 16.4L29.49 15.97L30.1 15.4L29.69 15.12L30.33 11.38L29.24 7.95001L20.75 14.33Z" fill="#985726"/>
<path d="M20.75 14.33L29.2 7.91003L22.25 10.84L20.75 14.33Z" fill="#F98A04"/>
<path d="M23.8601 27.03L29.1301 28.73L30.5101 23.54L26.1901 23.33L23.8601 27.03Z" fill="#FC8A03"/>
<path d="M20.5601 24.78L23.8601 27.03L23.3401 23.22L20.5601 24.78Z" fill="#FC8A03"/>
<path d="M20.0701 24.54L21.0701 21.8L20.4101 19.3L20.0701 24.54Z" fill="#FB8917"/>
<path d="M20.0701 24.54L20.5601 24.78L23.3401 23.22V21.22L21.0601 21.83L20.0701 24.54Z" fill="#FF9800"/>
<path d="M20.83 26.79L20.57 26.58H17.27L17.01 26.79V26.47L17.23 24.78L17.72 24.55H20.03L20.52 24.78L20.74 26.47L20.83 26.79Z" fill="#393939"/>
<path d="M20.5601 24.79L20.7801 26.47V26.79V27.88L23.1101 27.44L23.8101 27.03L20.5601 24.79Z" fill="#E3CDC1"/>
<path d="M23.29 16.55L25.47 19.1L23.39 21.1L25.33 19.33L25.46 19.2L23.34 23.2L26.19 23.26L30.51 23.51L28.75 18.62L23.02 16.26H22.96L20.75 14.33L23.29 16.55Z" fill="#FF9800"/>
<path d="M20.4001 19.33L25.4701 19.13L23.2901 16.57L20.8001 14.33V14.42L20.4001 19.33Z" fill="#FA7C00"/>
<path d="M22.29 10.87L20.75 14.33V14.42L20.35 19.26L20.03 24.5H17.75L17.44 19.33L17.05 14.48V14.33L15.54 10.83L22.29 10.87Z" fill="#FF9700"/>
</svg>
