<svg width="38" height="38" viewBox="0 0 38 38" fill="none" xmlns="http://www.w3.org/2000/svg">
<path d="M34.2351 22.8081C36.1888 14.5304 31.0622 6.23612 22.7844 4.2824C14.5067 2.32867 6.21245 7.45531 4.25873 15.7331C2.305 24.0108 7.4316 32.3051 15.7093 34.2588C23.9871 36.2125 32.2814 31.0859 34.2351 22.8081Z" fill="#CCCCCC"/>
<path d="M19.75 7.76007V16.3301L26.96 19.55L19.75 7.76007Z" fill="white" fill-opacity="0.6"/>
<path d="M19.75 7.76007L12.53 19.5201L19.75 16.3301V7.76007Z" fill="white"/>
<path d="M19.75 25.05V30.85L26.97 20.85L19.75 25.05Z" fill="white" fill-opacity="0.6"/>
<path d="M19.75 30.85V25.05L12.53 20.86L19.75 30.85Z" fill="white"/>
<path d="M19.75 23.71L26.96 19.52L19.75 16.33V23.71Z" fill="white" fill-opacity="0.2"/>
<path d="M12.5 19.52L19.75 23.71V16.33L12.5 19.52Z" fill="white" fill-opacity="0.6"/>
</svg>
