<svg width="35" height="35" viewBox="0 0 35 35" fill="none" xmlns="http://www.w3.org/2000/svg">
<path d="M17.5 35C27.165 35 35 27.165 35 17.5C35 7.83502 27.165 0 17.5 0C7.83502 0 0 7.83502 0 17.5C0 27.165 7.83502 35 17.5 35Z" fill="#FDEDF3"/>
<path d="M24.43 26.25H10.57C10.2226 26.25 9.88937 26.112 9.6437 25.8663C9.39803 25.6206 9.26001 25.2874 9.26001 24.94V11.94C9.26001 11.5926 9.39803 11.2594 9.6437 11.0137C9.88937 10.768 10.2226 10.63 10.57 10.63H24.43C24.7774 10.63 25.1106 10.768 25.3563 11.0137C25.602 11.2594 25.74 11.5926 25.74 11.94V24.94C25.74 25.2874 25.602 25.6206 25.3563 25.8663C25.1106 26.112 24.7774 26.25 24.43 26.25ZM10.57 11.5C10.455 11.5 10.3446 11.545 10.2624 11.6253C10.1801 11.7057 10.1326 11.815 10.13 11.93V24.93C10.13 25.0467 10.1764 25.1586 10.2589 25.2411C10.3414 25.3236 10.4533 25.37 10.57 25.37H24.43C24.5467 25.37 24.6586 25.3236 24.7411 25.2411C24.8237 25.1586 24.87 25.0467 24.87 24.93V11.93C24.8674 11.815 24.8199 11.7057 24.7377 11.6253C24.6554 11.545 24.545 11.5 24.43 11.5H10.57Z" fill="#BD5862"/>
<path d="M16.7901 18.67L17.7901 16.78H17.3101L17.7701 17.78L18.1001 18.46C18.1374 18.5831 18.2024 18.696 18.2901 18.79C18.4058 18.8455 18.5319 18.8762 18.6601 18.88L19.3701 18.99L20.4701 19.17L20.3501 18.7L19.5201 19.49L19.0201 19.97C18.9301 20.05 18.7801 20.15 18.7401 20.28C18.7204 20.4126 18.7204 20.5474 18.7401 20.68L18.8601 21.39L19.0401 22.52L19.4501 22.2L18.4501 21.65L17.8401 21.33C17.7279 21.2454 17.598 21.1872 17.4601 21.16C17.328 21.1846 17.2021 21.2357 17.0901 21.31L16.4501 21.63L15.4501 22.15L15.8601 22.47L16.0701 21.34L16.2001 20.66C16.2246 20.5211 16.2246 20.379 16.2001 20.24C16.2001 20.12 16.0301 20.02 15.9501 19.94L15.4401 19.43L14.6301 18.62L14.4301 19.1L16.5301 18.83C16.8801 18.78 16.8901 18.22 16.5301 18.26L14.4301 18.54C14.3761 18.5435 14.3242 18.562 14.2802 18.5934C14.2362 18.6248 14.2018 18.6679 14.181 18.7179C14.1602 18.7678 14.1538 18.8226 14.1624 18.876C14.1711 18.9294 14.1946 18.9793 14.2301 19.02L15.7301 20.51L15.6601 20.24L15.2701 22.32C15.2577 22.3743 15.2612 22.431 15.2802 22.4834C15.2992 22.5357 15.3328 22.5815 15.3771 22.6152C15.4214 22.649 15.4745 22.6693 15.53 22.6737C15.5855 22.6781 15.6411 22.6664 15.6901 22.64L17.5701 21.64H17.2901L19.1401 22.64C19.1892 22.6664 19.2448 22.6781 19.3003 22.6737C19.3558 22.6693 19.4089 22.649 19.4531 22.6152C19.4974 22.5815 19.5311 22.5357 19.55 22.4834C19.569 22.431 19.5725 22.3743 19.5601 22.32L19.2301 20.23L19.1501 20.5L20.6901 19.05C20.7253 19.015 20.7505 18.9713 20.7631 18.9233C20.7758 18.8754 20.7755 18.8249 20.7623 18.7771C20.7491 18.7293 20.7234 18.6858 20.6879 18.6512C20.6523 18.6166 20.6083 18.592 20.5601 18.58L18.4701 18.25L18.6401 18.38L17.7301 16.47C17.7052 16.4286 17.67 16.3943 17.628 16.3705C17.5859 16.3467 17.5384 16.3342 17.4901 16.3342C17.4418 16.3342 17.3943 16.3467 17.3522 16.3705C17.3102 16.3943 17.275 16.4286 17.2501 16.47L16.2501 18.35C16.1401 18.7 16.6301 18.99 16.7901 18.67Z" fill="#BD5862"/>
<path d="M25.2999 14.38H9.68994V15.26H25.2999V14.38Z" fill="#BD5862"/>
<path d="M14.4401 11.5H11.8401V9.63C11.8427 9.39742 11.9362 9.17509 12.1007 9.01062C12.2652 8.84615 12.4875 8.7526 12.7201 8.75H13.5601C13.7927 8.7526 14.015 8.84615 14.1795 9.01062C14.3439 9.17509 14.4375 9.39742 14.4401 9.63V11.5ZM12.7201 10.62H13.5601V9.62H12.7201V10.62Z" fill="#BD5862"/>
<path d="M23.7101 11.39H21.0701V9.63003C21.0752 9.51311 21.1033 9.39834 21.1529 9.29232C21.2024 9.1863 21.2724 9.09109 21.3588 9.01214C21.4452 8.93319 21.5463 8.87205 21.6563 8.83222C21.7663 8.79239 21.8832 8.77465 22.0001 8.78002H22.8701C23.1044 8.78001 23.3293 8.8724 23.4959 9.03715C23.6625 9.2019 23.7574 9.42572 23.7601 9.66003L23.7101 11.39ZM22.0001 10.51H22.8801V9.63003H22.0001V10.51Z" fill="#BD5862"/>
</svg>
