<svg width="36" height="36" viewBox="0 0 36 36" fill="none" xmlns="http://www.w3.org/2000/svg">
<path d="M18.25 35.72C27.915 35.72 35.75 27.885 35.75 18.22C35.75 8.55502 27.915 0.720001 18.25 0.720001C8.58502 0.720001 0.75 8.55502 0.75 18.22C0.75 27.885 8.58502 35.72 18.25 35.72Z" fill="#EAFBF4"/>
<path d="M11.28 19.33C11.5158 19.3285 11.7487 19.2779 11.9639 19.1815C12.1791 19.0851 12.3719 18.9449 12.53 18.77C12.8722 18.4315 13.0663 17.9713 13.07 17.49C13.0442 17.0168 12.8317 16.5732 12.4793 16.2564C12.1269 15.9396 11.6632 15.7755 11.19 15.8C10.7422 15.8225 10.3194 16.0132 10.0061 16.3339C9.69276 16.6546 9.51203 17.0818 9.5 17.53C9.49996 17.7677 9.54675 18.0031 9.63769 18.2227C9.72863 18.4423 9.86193 18.6419 10.03 18.81C10.1916 18.9777 10.386 19.1104 10.601 19.1998C10.816 19.2893 11.0471 19.3336 11.28 19.33V19.33Z" stroke="#30906E" stroke-miterlimit="10"/>
<path d="M18.19 29.33C16.7206 29.3404 15.2656 29.0406 13.92 28.45C11.2653 27.3224 9.15306 25.2067 8.03001 22.55C7.4411 21.1863 7.14145 19.7154 7.15001 18.23C7.13785 16.7304 7.44108 15.2449 8.04001 13.87C8.61665 12.5432 9.44531 11.341 10.48 10.33C12.652 8.2466 15.5504 7.09156 18.56 7.11C19.9581 7.10022 21.3466 7.34067 22.66 7.82C23.9128 8.27173 25.072 8.94964 26.08 9.82C27.0674 10.6692 27.8763 11.7059 28.46 12.87C29.0528 14.0628 29.3576 15.378 29.35 16.71C29.4137 18.3627 28.841 19.9769 27.75 21.22C27.1826 21.821 26.4896 22.2894 25.7204 22.5919C24.9512 22.8944 24.1248 23.0235 23.3 22.97H21.12C20.8304 22.9666 20.543 23.0215 20.275 23.1315C20.007 23.2414 19.7638 23.4042 19.56 23.61C19.3467 23.8134 19.1779 24.0588 19.0642 24.3308C18.9506 24.6027 18.8947 24.8953 18.9 25.19C18.859 25.7239 19.0236 26.2534 19.36 26.67C19.5081 26.8203 19.6249 26.9984 19.7039 27.1941C19.7828 27.3897 19.8223 27.599 19.82 27.81C19.8342 28.0135 19.805 28.2177 19.7343 28.4091C19.6636 28.6004 19.5531 28.7746 19.41 28.92C19.0728 29.2113 18.6347 29.3585 18.19 29.33V29.33Z" stroke="#30906E" stroke-miterlimit="10"/>
<path d="M17.8701 13.18C18.1063 13.181 18.34 13.1315 18.5556 13.0349C18.7711 12.9384 18.9636 12.7969 19.1201 12.62C19.2901 12.4549 19.4255 12.2575 19.5182 12.0395C19.6109 11.8214 19.6592 11.587 19.6601 11.35C19.6487 11.1126 19.5899 10.8798 19.4871 10.6655C19.3844 10.4511 19.2397 10.2595 19.0617 10.102C18.8836 9.9445 18.6759 9.82423 18.4506 9.74831C18.2253 9.6724 17.9872 9.64237 17.7501 9.66C17.316 9.68417 16.9062 9.86816 16.5997 10.1765C16.2932 10.4849 16.1117 10.8958 16.0901 11.33C16.0892 11.5664 16.1356 11.8005 16.2266 12.0186C16.3177 12.2367 16.4514 12.4344 16.6201 12.6C16.7748 12.7805 16.9664 12.9258 17.1821 13.0258C17.3977 13.1259 17.6324 13.1785 17.8701 13.18V13.18Z" stroke="#30906E" stroke-miterlimit="10"/>
<path d="M25.4001 19.01C25.6363 19.011 25.87 18.9615 26.0856 18.8649C26.3011 18.7684 26.4936 18.6269 26.6501 18.45C26.9923 18.1115 27.1864 17.6513 27.1901 17.17C27.1617 16.6978 26.9485 16.2557 26.5967 15.9394C26.2449 15.6232 25.7827 15.4581 25.3101 15.48C24.8687 15.5038 24.4514 15.6892 24.1379 16.0009C23.8243 16.3125 23.6365 16.7287 23.6101 17.17C23.618 17.6504 23.8115 18.1091 24.1501 18.45C24.3066 18.6269 24.4991 18.7684 24.7147 18.8649C24.9302 18.9615 25.1639 19.011 25.4001 19.01V19.01Z" stroke="#30906E" stroke-miterlimit="10"/>
</svg>
