<svg width="36" height="36" viewBox="0 0 36 36" fill="none" xmlns="http://www.w3.org/2000/svg">
<path d="M18.25 35.36C27.915 35.36 35.75 27.525 35.75 17.86C35.75 8.195 27.915 0.359985 18.25 0.359985C8.58502 0.359985 0.75 8.195 0.75 17.86C0.75 27.525 8.58502 35.36 18.25 35.36Z" fill="#E4F2FF"/>
<path d="M18.56 32.21C15.6825 32.2023 12.8727 31.3356 10.4908 29.721C8.10887 28.1064 6.26326 25.8173 5.19045 23.1472C4.11764 20.4771 3.86648 17.5474 4.46915 14.7337C5.07183 11.9199 6.50088 9.35015 8.57322 7.35366C10.6456 5.35718 13.2668 4.0249 16.1011 3.52752C18.9353 3.03014 21.8536 3.39033 24.4819 4.56192C27.1102 5.7335 29.3288 7.66313 30.8535 10.1036C32.3782 12.544 33.1396 15.3841 33.04 18.26C32.9102 22.0102 31.3266 25.5629 28.6242 28.1664C25.9217 30.7699 22.3125 32.22 18.56 32.21ZM18.56 30.9C21.16 30.9079 23.7039 30.1448 25.8704 28.7074C28.0368 27.2699 29.7285 25.2224 30.7317 22.8238C31.7348 20.4251 32.0044 17.783 31.5064 15.2311C31.0084 12.6793 29.7651 10.3324 27.9336 8.487C26.1022 6.64157 23.7648 5.38047 21.2168 4.86306C18.6688 4.34566 16.0247 4.59517 13.6185 5.58007C11.2123 6.56498 9.15205 8.24106 7.69814 10.3965C6.24424 12.552 5.46191 15.09 5.45004 17.69C5.43816 19.4213 5.76908 21.1379 6.42373 22.7407C7.07838 24.3436 8.0438 25.801 9.26435 27.029C10.4849 28.257 11.9364 29.2313 13.5353 29.8956C15.1341 30.56 16.8487 30.9014 18.58 30.9H18.56Z" fill="#5F8ED0"/>
<path d="M10.5 13.38L14.15 15.12L18.15 17.03C18.27 17.09 18.37 17.14 18.37 17.32C18.37 20.37 18.37 23.42 18.37 26.47C18.3741 26.5066 18.3741 26.5434 18.37 26.58C18.3079 26.5625 18.2476 26.5391 18.19 26.51L10.75 22.58C10.696 22.5485 10.6499 22.5051 10.6152 22.4532C10.5806 22.4012 10.5583 22.3419 10.55 22.28C10.55 19.37 10.55 16.45 10.55 13.54C10.48 13.5 10.49 13.46 10.5 13.38Z" fill="#5F8ED0"/>
<path d="M18.8 26.6V25.03C18.8 22.53 18.8 20.03 18.8 17.53C18.7871 17.4044 18.8179 17.2782 18.8871 17.1725C18.9563 17.0669 19.0597 16.9884 19.18 16.95L26.41 13.53L26.72 13.39C26.72 13.5 26.72 13.58 26.72 13.67C26.72 16.49 26.72 19.32 26.72 22.15C26.7319 22.2521 26.71 22.3554 26.6576 22.4439C26.6052 22.5324 26.5253 22.6013 26.43 22.64C23.99 23.9 21.56 25.18 19.12 26.45L18.8 26.6Z" fill="#5F8ED0"/>
<path d="M10.5 12.77L11.5 12.26L18.15 9.02C18.2753 8.97043 18.4147 8.97043 18.54 9.02C21.22 10.25 23.89 11.5 26.54 12.74L26.63 12.81L26.44 12.92L18.8 16.58C18.7414 16.6045 18.6785 16.6171 18.615 16.6171C18.5515 16.6171 18.4886 16.6045 18.43 16.58L10.59 12.88L10.5 12.77Z" fill="#5F8ED0"/>
</svg>
