<svg width="38" height="37" viewBox="0 0 38 37" fill="none" xmlns="http://www.w3.org/2000/svg">
<path d="M18.91 36.34C28.923 36.34 37.04 28.2229 37.04 18.21C37.04 8.1971 28.923 0.0800171 18.91 0.0800171C8.89711 0.0800171 0.780029 8.1971 0.780029 18.21C0.780029 28.2229 8.89711 36.34 18.91 36.34Z" fill="#004DFE"/>
<path d="M18.9099 31.45C26.2222 31.45 32.1499 25.5223 32.1499 18.21C32.1499 10.8978 26.2222 4.96997 18.9099 4.96997C11.5977 4.96997 5.66992 10.8978 5.66992 18.21C5.66992 25.5223 11.5977 31.45 18.9099 31.45Z" fill="#FFFDFF"/>
<path d="M22.6101 13.4H15.2101C14.5971 13.4 14.1001 13.897 14.1001 14.51V21.91C14.1001 22.523 14.5971 23.02 15.2101 23.02H22.6101C23.2231 23.02 23.7201 22.523 23.7201 21.91V14.51C23.7201 13.897 23.2231 13.4 22.6101 13.4Z" fill="#004DFE"/>
</svg>
