<svg width="36" height="36" viewBox="0 0 36 36" fill="none" xmlns="http://www.w3.org/2000/svg">
<path d="M18.25 35.17C27.915 35.17 35.75 27.335 35.75 17.67C35.75 8.005 27.915 0.169983 18.25 0.169983C8.58502 0.169983 0.75 8.005 0.75 17.67C0.75 27.335 8.58502 35.17 18.25 35.17Z" fill="#EDFDFF"/>
<path d="M18.25 28.77C16.7613 28.7797 15.2869 28.48 13.92 27.89C12.6049 27.3243 11.4076 26.517 10.39 25.51C9.35748 24.4791 8.53832 23.2546 7.97941 21.9068C7.4205 20.559 7.13281 19.1142 7.13281 17.655C7.13281 16.1959 7.4205 14.7511 7.97941 13.4032C8.53832 12.0554 9.35748 10.831 10.39 9.80002C11.4013 8.79036 12.6005 7.98857 13.92 7.44C15.2926 6.87059 16.764 6.57751 18.25 6.57751C19.7361 6.57751 21.2075 6.87059 22.58 7.44C23.8996 7.98857 25.0988 8.79036 26.11 9.80002C28.1936 11.8852 29.364 14.7123 29.364 17.66C29.364 20.6077 28.1936 23.4349 26.11 25.52C25.0925 26.5271 23.8952 27.3343 22.58 27.9C21.2125 28.4866 19.738 28.7828 18.25 28.77ZM18.25 27.87C19.0432 27.0191 19.7162 26.0636 20.25 25.03C20.7917 23.9501 21.2109 22.813 21.5 21.64H15.04C15.3198 22.8415 15.7393 24.0061 16.29 25.11C16.8148 26.1149 17.4742 27.0435 18.25 27.87ZM16.95 27.75C16.2511 26.9252 15.6659 26.0104 15.21 25.03C14.6874 23.9522 14.3011 22.8134 14.06 21.64H8.85005C9.56494 23.262 10.6755 24.6786 12.08 25.76C13.5176 26.811 15.1888 27.4974 16.95 27.76V27.75ZM19.58 27.75C21.309 27.492 22.9456 26.8043 24.34 25.75C25.7694 24.6822 26.9076 23.2724 27.65 21.65H22.47C22.14 22.8285 21.7084 23.9761 21.18 25.08C20.7364 26.0239 20.2004 26.9216 19.58 27.76V27.75ZM8.58005 20.69H13.88C13.7839 20.1541 13.7171 19.6133 13.68 19.07C13.68 18.56 13.63 18.07 13.63 17.63C13.63 17.19 13.63 16.63 13.7 16.17C13.77 15.71 13.8 15.17 13.88 14.64H8.57005C8.40096 15.1064 8.28033 15.5889 8.21005 16.08C8.13658 16.5933 8.10314 17.1115 8.11005 17.63C8.10287 18.1618 8.1363 18.6933 8.21005 19.22C8.28024 19.7209 8.40085 20.2134 8.57005 20.69H8.58005ZM14.84 20.69H21.68C21.7768 20.1575 21.8436 19.62 21.88 19.08C21.88 18.61 21.93 18.13 21.93 17.63C21.93 17.13 21.93 16.69 21.88 16.23C21.843 15.6967 21.7762 15.1659 21.68 14.64H14.83C14.7339 15.1659 14.6671 15.6967 14.63 16.23C14.63 16.69 14.58 17.16 14.58 17.63C14.58 18.1 14.58 18.63 14.63 19.08C14.6665 19.62 14.7333 20.1575 14.83 20.69H14.84ZM22.64 20.69H27.94C28.1092 20.2134 28.2299 19.7209 28.3 19.22C28.3738 18.6933 28.4072 18.1618 28.4 17.63C28.4069 17.1115 28.3735 16.5933 28.3 16.08C28.2298 15.5889 28.1091 15.1064 27.94 14.64H22.66C22.74 15.28 22.8 15.83 22.83 16.31C22.86 16.79 22.88 17.22 22.88 17.63C22.88 18.04 22.88 18.58 22.81 19.07C22.74 19.56 22.71 20.07 22.63 20.69H22.64ZM22.45 13.69H27.65C26.9488 12.0321 25.8289 10.5848 24.4 9.49002C22.9812 8.42966 21.3087 7.76066 19.55 7.55002C20.2199 8.41146 20.7933 9.34368 21.26 10.33C21.7732 11.4043 22.1688 12.5308 22.44 13.69H22.45ZM15.05 13.69H21.53C21.2137 12.5253 20.7711 11.3986 20.21 10.33C19.6678 9.30772 18.9955 8.35985 18.21 7.51001C17.4579 8.26508 16.8271 9.13201 16.34 10.08C15.7698 11.2512 15.3208 12.4775 15 13.74L15.05 13.69ZM8.86005 13.69H14.07C14.3382 12.5325 14.727 11.4064 15.23 10.33C15.692 9.34227 16.2586 8.40691 16.92 7.54001C15.1657 7.74894 13.4968 8.41445 12.08 9.47003C10.6606 10.5612 9.54782 12.0012 8.85005 13.65L8.86005 13.69Z" fill="#6EC5DB"/>
</svg>
