<svg width="36" height="36" viewBox="0 0 36 36" fill="none" xmlns="http://www.w3.org/2000/svg">
<path d="M18.25 35.33C27.915 35.33 35.75 27.495 35.75 17.83C35.75 8.16502 27.915 0.330002 18.25 0.330002C8.58502 0.330002 0.75 8.16502 0.75 17.83C0.75 27.495 8.58502 35.33 18.25 35.33Z" fill="#E8EDF8"/>
<path d="M26.5501 23.68L22.6801 21.21C22.1687 22.163 21.8302 23.199 21.6801 24.27C21.5264 25.3127 21.5739 26.3752 21.8201 27.4C22.7466 27.0438 23.6185 26.559 24.4101 25.96C25.25 25.3296 25.9741 24.5582 26.5501 23.68ZM13.3201 15.23L9.45008 12.76C8.90825 13.637 8.52254 14.6013 8.31008 15.61C8.09637 16.5948 8.01898 17.6042 8.08008 18.61C9.14644 18.4015 10.1641 17.9945 11.0801 17.41C11.9582 16.8299 12.7295 16.1026 13.3601 15.26L13.3201 15.23ZM28.4201 17.09C27.3816 17.3386 26.3915 17.7576 25.4901 18.33C24.5927 18.888 23.8089 19.6107 23.1801 20.46L27.0501 22.93C27.582 22.0409 27.9669 21.0718 28.1901 20.06C28.4014 19.0918 28.4787 18.0992 28.4201 17.11V17.09ZM14.6501 8.33001C13.729 8.7021 12.8588 9.18931 12.0601 9.78001C11.2368 10.388 10.5232 11.132 9.95008 11.98L13.8201 14.45C14.3343 13.5197 14.6733 12.5028 14.8201 11.45C14.9602 10.4086 14.9026 9.35004 14.6501 8.33001ZM21.8701 20.73L18.3901 18.51L13.1801 26.63C14.3472 27.3172 15.6448 27.7532 16.9901 27.91C18.2982 28.0695 19.6246 27.9813 20.9001 27.65C20.6398 26.4883 20.589 25.2895 20.7501 24.11C20.9183 22.9155 21.2904 21.7587 21.8501 20.69L21.8701 20.73ZM17.6101 18.01L14.1301 15.79C13.3978 16.7427 12.5124 17.5672 11.5101 18.23C10.503 18.8768 9.37817 19.3186 8.20008 19.53C8.43882 20.8316 8.92055 22.0767 9.62008 23.2C10.3342 24.3584 11.2808 25.3561 12.4001 26.13L17.6101 18.01ZM24.1001 9.53001L18.8901 17.69L22.3701 19.91C23.0979 18.9469 23.9879 18.1178 25.0001 17.46C25.989 16.8293 27.0883 16.3916 28.2401 16.17C27.998 14.8799 27.5417 13.6394 26.8901 12.5C26.1941 11.3055 25.2411 10.2807 24.1001 9.50001V9.53001ZM23.3201 9.03001C22.1419 8.3319 20.8303 7.88901 19.4701 7.73001C18.1568 7.58096 16.8272 7.67933 15.5501 8.02001C15.8461 9.169 15.914 10.3649 15.7501 11.54C15.5714 12.7393 15.1893 13.8993 14.6201 14.97L18.1001 17.19L23.3201 9.03001ZM24.2301 8.48001C25.4891 9.27126 26.5689 10.317 27.4001 11.55C28.8495 13.6611 29.5245 16.2083 29.3106 18.7601C29.0967 21.312 28.0071 23.7113 26.2264 25.5516C24.4457 27.3919 22.0835 28.5599 19.5401 28.8576C16.9967 29.1554 14.4286 28.5646 12.271 27.1854C10.1134 25.8062 8.49904 23.7234 7.70149 21.29C6.90395 18.8566 6.9723 16.2223 7.89495 13.8336C8.81761 11.4448 10.5378 9.44851 12.764 8.18304C14.9903 6.91757 17.5856 6.46075 20.1101 6.89001C21.5793 7.12661 22.9828 7.66823 24.2301 8.48001Z" fill="#888FEE"/>
</svg>
