<svg width="36" height="36" viewBox="0 0 36 36" fill="none" xmlns="http://www.w3.org/2000/svg">
<path d="M17.66 31.5C25.1877 31.5 31.29 25.3976 31.29 17.87C31.29 10.3424 25.1877 4.23999 17.66 4.23999C10.1324 4.23999 4.03003 10.3424 4.03003 17.87C4.03003 25.3976 10.1324 31.5 17.66 31.5Z" fill="url(#paint0_linear_1_513)"/>
<path d="M17.6599 31.62C14.9384 31.62 12.2781 30.813 10.0153 29.301C7.75244 27.7891 5.98879 25.64 4.94733 23.1257C3.90586 20.6114 3.63337 17.8448 4.1643 15.1756C4.69524 12.5064 6.00575 10.0546 7.93012 8.13025C9.85449 6.20588 12.3063 4.89537 14.9755 4.36444C17.6446 3.83351 20.4113 4.106 22.9256 5.14746C25.4399 6.18892 27.589 7.95257 29.1009 10.2154C30.6129 12.4782 31.4199 15.1386 31.4199 17.86C31.4173 21.5086 29.9667 25.0069 27.3868 27.5869C24.8068 30.1668 21.3085 31.6173 17.6599 31.62ZM17.6599 4.35003C14.9879 4.35003 12.3759 5.14239 10.1542 6.62689C7.93245 8.11139 6.20084 10.2213 5.1783 12.6899C4.15576 15.1586 3.88821 17.875 4.4095 20.4957C4.93079 23.1163 6.21749 25.5236 8.1069 27.413C9.9963 29.3024 12.4036 30.5891 15.0242 31.1104C17.6449 31.6317 20.3613 31.3642 22.83 30.3416C25.2986 29.3191 27.4086 27.5875 28.8931 25.3658C30.3776 23.1441 31.1699 20.5321 31.1699 17.86C31.1712 16.0846 30.8228 14.3262 30.1446 12.6854C29.4664 11.0445 28.4716 9.55337 27.2171 8.29699C25.9625 7.04062 24.4728 6.04363 22.833 5.36297C21.1932 4.68232 19.4354 4.33133 17.6599 4.33001V4.35003Z" fill="white"/>
<path d="M14.75 15.2C15.6328 14.6724 16.6415 14.3926 17.67 14.39V17.12C16.9751 17.1217 16.3041 17.3738 15.78 17.83C15.4674 18.1096 15.2169 18.4516 15.0446 18.834C14.8724 19.2164 14.7822 19.6306 14.78 20.05V25.76H11.98V15.61C11.9931 14.1131 12.5957 12.6816 13.657 11.6259C14.7184 10.5702 16.153 9.97524 17.65 9.97003V12.59C16.9348 12.6078 16.2495 12.8806 15.7178 13.3592C15.186 13.8378 14.8428 14.4906 14.75 15.2Z" fill="white"/>
<path d="M23.3499 20.08C23.3375 21.4773 22.8105 22.821 21.8696 23.8542C20.9287 24.8873 19.64 25.5374 18.2499 25.68H17.6499H17.1499C16.4532 25.6182 15.7745 25.4248 15.1499 25.11V21.53C15.4083 21.9775 15.78 22.349 16.2277 22.6071C16.6754 22.8652 17.1832 23.0007 17.6999 23H17.7499C18.4507 22.9748 19.1204 22.7049 19.6429 22.2372C20.1654 21.7696 20.5075 21.1337 20.6099 20.44C20.6099 20.32 20.6099 20.19 20.6099 20.07C20.6164 19.339 20.3558 18.6308 19.8771 18.0784C19.3983 17.526 18.7344 17.1674 18.0099 17.07V14.34C18.9282 14.4005 19.8175 14.6855 20.5999 15.17C21.5978 15.791 22.3827 16.7015 22.8499 17.78C23.1779 18.5025 23.3484 19.2866 23.3499 20.08Z" fill="white"/>
<path opacity="0.6" d="M29.8299 8.33003L29.7499 8.23005C27.2171 5.01298 23.5101 2.93381 19.4443 2.44996C15.3785 1.96612 11.287 3.11722 8.06994 5.65004C4.85287 8.18285 2.77371 11.8899 2.28987 15.9557C1.80602 20.0215 2.95712 24.113 5.48994 27.33L5.57994 27.44C8.11409 30.6558 11.8219 32.7331 15.8877 33.2151C19.9535 33.6971 24.0442 32.5442 27.2599 30.01C30.4757 27.4759 32.553 23.7681 33.035 19.7023C33.517 15.6365 32.3641 11.5458 29.8299 8.33003ZM30.9599 25.2C30.2855 26.4209 29.444 27.5417 28.4599 28.53L28.3699 28.6101C25.4863 31.258 21.6922 32.6911 17.778 32.6109C13.8639 32.5307 10.1316 30.9434 7.35885 28.1796C4.58605 25.4159 2.98656 21.6888 2.89362 17.7749C2.80068 13.8611 4.22146 10.0623 6.85994 7.17005L6.95994 7.07002C9.55713 4.4807 13.0029 2.91772 16.6619 2.66926C20.3209 2.42081 23.9463 3.50363 26.8697 5.71809C29.7931 7.93254 31.8172 11.1293 32.5689 14.7188C33.3206 18.3084 32.7492 22.0487 30.9599 25.25V25.2Z" fill="url(#paint1_linear_1_513)"/>
<path opacity="0.3" d="M31.46 7.10002L31.37 6.98002C28.4726 3.41931 24.2922 1.13962 19.7297 0.632368C15.1672 0.125116 10.5881 1.43092 6.97945 4.26829C3.37075 7.10566 1.02145 11.2474 0.43792 15.8007C-0.145606 20.354 1.08338 24.9544 3.85997 28.61C3.89569 28.6515 3.92908 28.6948 3.95997 28.74C6.85119 32.3286 11.0412 34.6319 15.6204 35.1499C20.1996 35.6679 24.7983 34.3587 28.4181 31.5066C32.0378 28.6545 34.3865 24.4897 34.9541 19.9164C35.5218 15.3431 34.2626 10.7305 31.45 7.08L31.46 7.10002ZM32.75 26.23C31.9855 27.6115 31.0331 28.8802 29.92 30L29.82 30.1C26.5794 33.2866 22.2117 35.0647 17.6669 35.0475C13.1221 35.0303 8.76793 33.2192 5.55161 30.0082C2.33529 26.7971 0.517031 22.4459 0.492378 17.9012C0.467726 13.3564 2.23867 8.98572 5.41997 5.73997L5.53997 5.61998C8.48815 2.69854 12.3913 0.938767 16.5327 0.663801C20.6741 0.388835 24.7756 1.61713 28.0842 4.12315C31.3927 6.62918 33.6861 10.2447 34.5432 14.3057C35.4003 18.3667 34.7636 22.6007 32.75 26.23Z" fill="url(#paint2_linear_1_513)"/>
<path d="M23.1199 11.15C23.1101 11.3355 23.0462 11.514 22.936 11.6635C22.8259 11.813 22.6743 11.927 22.5001 11.9913C22.3259 12.0556 22.1366 12.0674 21.9558 12.0253C21.7749 11.9832 21.6103 11.889 21.4824 11.7543C21.3545 11.6197 21.2689 11.4505 21.2361 11.2677C21.2033 11.0849 21.2248 10.8965 21.298 10.7258C21.3711 10.5551 21.4927 10.4097 21.6476 10.3073C21.8026 10.205 21.9842 10.1503 22.1699 10.15C22.2994 10.1484 22.4278 10.1735 22.5471 10.2238C22.6665 10.2742 22.7741 10.3486 22.8633 10.4425C22.9525 10.5364 23.0213 10.6477 23.0655 10.7695C23.1096 10.8912 23.1282 11.0208 23.1199 11.15Z" fill="white"/>
<path d="M22.17 9.97003C21.9366 9.97003 21.7085 10.0392 21.5144 10.1689C21.3204 10.2985 21.1691 10.4828 21.0798 10.6984C20.9905 10.914 20.9671 11.1514 21.0127 11.3802C21.0582 11.6091 21.1706 11.8193 21.3356 11.9844C21.5006 12.1494 21.7109 12.2618 21.9398 12.3074C22.1687 12.3529 22.4059 12.3295 22.6216 12.2402C22.8372 12.1509 23.0215 11.9997 23.1511 11.8056C23.2808 11.6116 23.35 11.3834 23.35 11.15C23.35 10.8371 23.2257 10.5369 23.0044 10.3156C22.7831 10.0943 22.4829 9.97003 22.17 9.97003ZM22.17 12.28C21.9465 12.28 21.728 12.2138 21.5422 12.0896C21.3564 11.9654 21.2115 11.7889 21.126 11.5825C21.0405 11.376 21.0181 11.1488 21.0617 10.9296C21.1053 10.7104 21.2129 10.509 21.371 10.351C21.529 10.193 21.7303 10.0853 21.9495 10.0417C22.1687 9.99815 22.3959 10.0205 22.6024 10.106C22.8089 10.1915 22.9854 10.3364 23.1096 10.5222C23.2337 10.708 23.3 10.9265 23.3 11.15C23.3053 11.3022 23.2801 11.454 23.2259 11.5963C23.1716 11.7386 23.0894 11.8685 22.9841 11.9785C22.8787 12.0885 22.7524 12.1763 22.6126 12.2366C22.4728 12.297 22.3223 12.3288 22.17 12.33V12.28Z" fill="white"/>
<defs>
<linearGradient id="paint0_linear_1_513" x1="8.84003" y1="26.69" x2="26.42" y2="9.11" gradientUnits="userSpaceOnUse">
<stop stop-color="#1D00FF"/>
<stop offset="1" stop-color="#00FFFF"/>
</linearGradient>
<linearGradient id="paint1_linear_1_513" x1="5.61994" y1="29.91" x2="29.7699" y2="5.76003" gradientUnits="userSpaceOnUse">
<stop stop-color="#1D00FF"/>
<stop offset="1" stop-color="#00FFFF"/>
</linearGradient>
<linearGradient id="paint2_linear_1_513" x1="5.61997" y1="29.91" x2="29.7699" y2="5.75998" gradientUnits="userSpaceOnUse">
<stop stop-color="#1D00FF"/>
<stop offset="1" stop-color="#00FFFF"/>
</linearGradient>
</defs>
</svg>
