<svg width="35" height="35" viewBox="0 0 35 35" fill="none" xmlns="http://www.w3.org/2000/svg">
<path d="M17.5 35C27.165 35 35 27.165 35 17.5C35 7.83502 27.165 0 17.5 0C7.83502 0 0 7.83502 0 17.5C0 27.165 7.83502 35 17.5 35Z" fill="#DCF1FF"/>
<path d="M9.21019 21.9036C9.21019 21.9779 9.20172 22.022 9.20172 22.0647C9.20172 23.7179 9.20172 25.3711 9.20172 27.0242C9.20172 27.1496 9.23553 27.1868 9.36374 27.1813C9.62581 27.1716 9.88788 27.1813 10.15 27.1813C10.205 27.1782 10.2602 27.1867 10.3117 27.206C10.3632 27.2253 10.4099 27.2551 10.4488 27.2934C10.4877 27.3316 10.5178 27.3775 10.5372 27.428C10.5566 27.4785 10.5648 27.5325 10.5614 27.5863C10.566 27.6404 10.5588 27.6949 10.5402 27.7461C10.5216 27.7973 10.4921 27.844 10.4536 27.8831C10.415 27.9223 10.3683 27.9529 10.3167 27.973C10.2651 27.9931 10.2097 28.0021 10.1542 27.9996C9.23839 27.9996 8.32206 27.9996 7.4053 27.9996C7.3511 28.0014 7.29715 27.9921 7.24679 27.9725C7.19644 27.9528 7.15079 27.9231 7.11278 27.8853C7.07477 27.8475 7.04521 27.8023 7.02596 27.7528C7.00671 27.7032 6.99815 27.6503 7.00091 27.5973C6.99716 27.5435 7.00499 27.4895 7.02382 27.4388C7.04266 27.3881 7.07216 27.3418 7.11037 27.3029C7.14858 27.264 7.19465 27.2333 7.24569 27.2128C7.29673 27.1924 7.3516 27.1826 7.40675 27.184C7.68854 27.184 7.97032 27.184 8.24366 27.184C8.33806 27.184 8.36626 27.1551 8.36626 27.0642C8.36626 24.8921 8.36626 22.72 8.36626 20.548C8.36936 20.5141 8.35954 20.4804 8.33874 20.4532C8.31793 20.426 8.28757 20.4072 8.2535 20.4006C7.88339 20.2886 7.56091 20.0613 7.33527 19.7533C7.10962 19.4454 6.99318 19.0737 7.00373 18.6951C7.01643 18.3103 7.15929 17.9405 7.40991 17.6436C7.66053 17.3467 8.00478 17.1394 8.38875 17.0543C8.82794 16.9568 9.28866 17.0258 9.6778 17.2475C10.0669 17.4692 10.3555 17.827 10.4853 18.2487C10.6167 18.6788 10.5727 19.1419 10.3626 19.541C10.1525 19.9401 9.79246 20.2442 9.3581 20.3895C9.1848 20.4474 9.14821 20.5783 9.26515 20.7271C9.54067 21.0832 9.86442 21.4012 10.2275 21.6721C11.2748 22.4658 12.5983 22.8273 13.9147 22.6792C14.6155 22.6176 15.2953 22.4129 15.91 22.0783C16.5248 21.7437 17.0609 21.2866 17.4836 20.7367C17.5166 20.6964 17.5397 20.6493 17.5512 20.5989C17.5752 20.4942 17.5442 20.4322 17.4202 20.3951C17.0495 20.2774 16.7289 20.0436 16.5078 19.7298C16.2867 19.4161 16.1775 19.0398 16.1972 18.6592C16.2182 18.2834 16.3634 17.9243 16.6108 17.6359C16.8582 17.3475 17.1946 17.1454 17.5695 17.0598C18.023 16.9552 18.5003 17.0292 18.8984 17.2658C19.2964 17.5025 19.5834 17.8827 19.6971 18.3245C19.8085 18.7558 19.7459 19.2124 19.5225 19.5999C19.299 19.9874 18.9317 20.276 18.4967 20.4061C18.3698 20.446 18.336 20.5962 18.4459 20.716C18.6887 21.0007 18.9504 21.2695 19.2293 21.5206C19.7546 21.9655 20.3689 22.2986 21.0331 22.4988C21.6972 22.6989 22.3967 22.7618 23.0871 22.6833C23.7862 22.6225 24.4646 22.4193 25.0785 22.0866C25.6925 21.754 26.2283 21.2993 26.6517 20.7519C26.6839 20.719 26.7097 20.6808 26.7278 20.6389C26.7757 20.5011 26.7278 20.4295 26.5869 20.384C26.2093 20.2591 25.8856 20.0138 25.6674 19.6877C25.4493 19.3615 25.3493 18.9731 25.3836 18.5848C25.4194 18.2036 25.5823 17.8444 25.8473 17.5626C26.1124 17.2808 26.4648 17.0921 26.8504 17.0254C27.2983 16.9498 27.7587 17.0445 28.1375 17.2901C28.5163 17.5358 28.7847 17.9137 28.8877 18.3465C28.9871 18.7715 28.9188 19.2176 28.6965 19.5955C28.4743 19.9735 28.1143 20.2555 27.6887 20.3854C27.6519 20.3912 27.619 20.4109 27.5971 20.4403C27.5752 20.4698 27.566 20.5065 27.5717 20.5425C27.5717 22.7099 27.5717 24.8774 27.5717 27.0449C27.5717 27.1441 27.6041 27.173 27.7028 27.1702C27.9733 27.1702 28.2424 27.1702 28.5129 27.1702C28.5732 27.1612 28.6347 27.1649 28.6933 27.1813C28.7519 27.1976 28.8062 27.2262 28.8525 27.265C28.8988 27.3038 28.9359 27.3519 28.9613 27.4061C28.9868 27.4602 29 27.5191 29 27.5787C29 27.6383 28.9868 27.6972 28.9613 27.7513C28.9359 27.8055 28.8988 27.8536 28.8525 27.8924C28.8062 27.9312 28.7519 27.9598 28.6933 27.9761C28.6347 27.9925 28.5732 27.9963 28.5129 27.9872H25.8063C25.7504 27.9912 25.6941 27.9835 25.6415 27.9646C25.5888 27.9457 25.5409 27.916 25.5009 27.8775C25.4609 27.8391 25.4297 27.7927 25.4095 27.7415C25.3893 27.6903 25.3805 27.6356 25.3836 27.5808C25.3792 27.5254 25.3871 27.4697 25.4067 27.4176C25.4264 27.3655 25.4574 27.3182 25.4976 27.2789C25.5377 27.2396 25.5861 27.2093 25.6394 27.1901C25.6927 27.1708 25.7497 27.1631 25.8063 27.1675C26.0768 27.1675 26.3473 27.1675 26.6178 27.1675C26.7052 27.1675 26.7447 27.151 26.7447 27.0531C26.7447 25.3688 26.7447 23.6839 26.7447 21.9986C26.7447 21.9752 26.7447 21.9518 26.7348 21.898C25.6148 22.9499 24.1186 23.5318 22.5657 23.5195C21.0125 23.534 19.5154 22.9529 18.3952 21.9008C18.3952 21.9628 18.3853 22 18.3853 22.0386C18.3853 23.7027 18.3853 25.3669 18.3853 27.0311C18.3853 27.1413 18.4121 27.1826 18.5333 27.1785C18.7995 27.1689 19.0658 27.1785 19.3321 27.1785C19.387 27.1747 19.4421 27.1824 19.4937 27.201C19.5453 27.2195 19.5922 27.2486 19.6315 27.2862C19.6708 27.3238 19.7015 27.3692 19.7215 27.4192C19.7416 27.4693 19.7505 27.5229 19.7478 27.5766C19.7523 27.6313 19.7448 27.6863 19.7257 27.7379C19.7066 27.7895 19.6764 27.8365 19.6372 27.8757C19.5979 27.9149 19.5504 27.9454 19.4981 27.9651C19.4457 27.9848 19.3896 27.9933 19.3336 27.9899H16.61C16.5535 27.9941 16.4966 27.9862 16.4434 27.9669C16.3902 27.9476 16.342 27.9173 16.3018 27.878C16.2617 27.8388 16.2307 27.7916 16.2109 27.7395C16.1912 27.6875 16.1831 27.632 16.1874 27.5766C16.1839 27.5219 16.1926 27.467 16.2127 27.4158C16.2329 27.3646 16.2641 27.3182 16.3042 27.2798C16.3442 27.2414 16.3923 27.2119 16.4451 27.1932C16.4978 27.1745 16.5541 27.1672 16.61 27.1716H17.3709C17.5456 27.1716 17.547 27.1716 17.547 26.9939V21.8967C16.348 22.9781 14.9658 23.5237 13.3694 23.5237C11.8202 23.5337 10.328 22.9525 9.21019 21.9036ZM17.9627 19.6525C18.2104 19.6536 18.4486 19.559 18.6254 19.3892C18.8022 19.2195 18.9033 18.9883 18.9066 18.746C18.907 18.625 18.8829 18.5051 18.8358 18.3932C18.7886 18.2813 18.7194 18.1796 18.6319 18.094C18.5445 18.0084 18.4405 17.9405 18.3262 17.8942C18.2118 17.8479 18.0892 17.8242 17.9655 17.8244C17.7178 17.8255 17.4806 17.922 17.3052 18.0929C17.1298 18.2639 17.0304 18.4956 17.0285 18.7378C17.0296 18.9798 17.1283 19.2116 17.3032 19.3829C17.4781 19.5542 17.7151 19.6511 17.9627 19.6525ZM8.79596 17.8244C8.54607 17.8211 8.30501 17.9148 8.12567 18.085C7.94634 18.2552 7.84335 18.4879 7.83927 18.7322C7.83991 18.9721 7.93603 19.2023 8.10724 19.3741C8.27844 19.5458 8.51133 19.6457 8.75654 19.6525C9.00199 19.6585 9.24003 19.5701 9.41947 19.4062C9.59891 19.2424 9.70535 19.0162 9.71598 18.7763C9.72107 18.6544 9.70119 18.5327 9.65743 18.4184C9.61367 18.304 9.54696 18.1994 9.46123 18.1107C9.37549 18.022 9.27243 17.951 9.15818 17.9018C9.04393 17.8526 8.92078 17.8263 8.79596 17.8244ZM27.1575 19.6525C27.4052 19.6514 27.6425 19.5552 27.8183 19.3846C27.9942 19.214 28.0943 18.9827 28.0972 18.7405C28.095 18.4982 27.9956 18.2664 27.8204 18.0951C27.6452 17.9238 27.4081 17.8265 27.1603 17.8244C27.0376 17.8235 26.916 17.8462 26.8023 17.8913C26.6886 17.9363 26.5851 18.0029 26.4977 18.087C26.4103 18.1712 26.3407 18.2714 26.2929 18.3819C26.2451 18.4923 26.2201 18.6109 26.2192 18.7309C26.218 18.8519 26.2415 18.9719 26.2882 19.0839C26.3349 19.1959 26.404 19.2978 26.4913 19.3835C26.5786 19.4693 26.6824 19.5372 26.7968 19.5834C26.9112 19.6296 27.0337 19.6531 27.1575 19.6525Z" fill="#40B2FF"/>
<path d="M17.4951 15.9955H12.7674C12.26 15.9955 12 15.718 12 15.1769V8.15839C12 7.61571 12.26 7.33982 12.7689 7.33982C13.7865 7.33982 14.8027 7.33982 15.8189 7.33982C15.8641 7.34625 15.91 7.33593 15.9491 7.31058C15.9881 7.28522 16.018 7.24635 16.0337 7.20036C16.3013 6.60816 16.5722 6.01798 16.8464 5.42982C16.8887 5.33238 16.9502 5.24594 17.0267 5.17644C17.1032 5.10694 17.1928 5.05604 17.2893 5.02722C17.3859 4.99841 17.4871 4.99238 17.5861 5.00955C17.685 5.02671 17.7794 5.06666 17.8625 5.12665C17.9774 5.21801 18.0708 5.33688 18.1353 5.47378C18.4066 6.0392 18.6653 6.61069 18.9211 7.18369C18.9385 7.23335 18.9709 7.27529 19.0132 7.30278C19.0555 7.33028 19.1052 7.34172 19.1543 7.33527C20.179 7.33527 21.2036 7.33527 22.2283 7.33527C22.7456 7.33527 23 7.60965 23 8.16446V15.2057C23 15.7105 22.7315 16 22.2594 16L17.4951 15.9955ZM12.8409 15.0859H22.1591V14.9162C22.1591 12.7505 22.1591 10.5838 22.1591 8.41609C22.1591 8.27511 22.1223 8.24177 21.9951 8.24328C18.9979 8.24328 15.9997 8.24328 13.0006 8.24328C12.8762 8.24328 12.8352 8.27057 12.8352 8.41457C12.8352 10.5853 12.8352 12.7581 12.8352 14.9328L12.8409 15.0859ZM16.9142 7.32315H18.0449L17.4795 6.09226C17.2845 6.51822 17.105 6.91083 16.9142 7.32315Z" fill="#40B2FF"/>
</svg>
