<svg width="30" height="29" viewBox="0 0 30 29" fill="none" xmlns="http://www.w3.org/2000/svg">
<path d="M26.04 28.8199H3.78C2.91009 28.8199 2.07581 28.4744 1.46069 27.8593C0.845571 27.2441 0.5 26.4099 0.5 25.54V3.28003C0.5 2.41012 0.845571 1.57581 1.46069 0.960693C2.07581 0.345574 2.91009 0 3.78 0H26.04C26.9099 0 27.7442 0.345574 28.3593 0.960693C28.9744 1.57581 29.32 2.41012 29.32 3.28003V25.54C29.32 26.4099 28.9744 27.2441 28.3593 27.8593C27.7442 28.4744 26.9099 28.8199 26.04 28.8199V28.8199ZM3.78 2.30994C3.51478 2.30994 3.26043 2.41537 3.07289 2.60291C2.88536 2.79044 2.78 3.04472 2.78 3.30994V25.5699C2.78 25.8352 2.88536 26.0896 3.07289 26.2771C3.26043 26.4646 3.51478 26.5699 3.78 26.5699H26.04C26.3052 26.5699 26.5596 26.4646 26.7471 26.2771C26.9346 26.0896 27.04 25.8352 27.04 25.5699V3.28003C27.04 3.01481 26.9346 2.76041 26.7471 2.57288C26.5596 2.38534 26.3052 2.28003 26.04 2.28003L3.78 2.30994Z" fill="white"/>
<path d="M28.1499 17.67H1.6499V19.98H28.1499V17.67Z" fill="white"/>
<path d="M28.1499 8.83997H1.6499V11.15H28.1499V8.83997Z" fill="white"/>
<path d="M20.4799 1.16003H18.1699V27.67H20.4799V1.16003Z" fill="white"/>
<path d="M11.6398 1.16003H9.32983V27.67H11.6398V1.16003Z" fill="white"/>
</svg>
