<svg width="30" height="16" viewBox="0 0 30 16" fill="none" xmlns="http://www.w3.org/2000/svg">
<path d="M19.2498 7.95996C19.2498 8.81833 18.9953 9.65738 18.5184 10.3711C18.0415 11.0848 17.3637 11.6411 16.5707 11.9696C15.7776 12.2981 14.905 12.384 14.0631 12.2166C13.2213 12.0491 12.4479 11.6358 11.841 11.0288C11.234 10.4218 10.8207 9.64852 10.6532 8.80664C10.4858 7.96476 10.5717 7.0921 10.9002 6.29907C11.2287 5.50604 11.7849 4.82833 12.4987 4.35144C13.2124 3.87456 14.0515 3.62 14.9098 3.62C16.0601 3.62264 17.1624 4.08071 17.9758 4.89404C18.7891 5.70738 19.2472 6.80973 19.2498 7.95996Z" fill="black"/>
<path d="M28.8699 6.89001C26.7099 4.72001 21.2799 0 14.8699 0C8.45986 0 3.05986 4.72001 0.869863 6.89001C0.729573 7.0286 0.618189 7.19365 0.542168 7.37561C0.466147 7.55757 0.427002 7.75275 0.427002 7.94995C0.427002 8.14715 0.466147 8.34246 0.542168 8.52441C0.618189 8.70637 0.729573 8.87142 0.869863 9.01001C3.02986 11.18 8.46986 15.8999 14.8699 15.8999C21.2699 15.8999 26.6699 11.18 28.8699 9.01001C29.0102 8.87142 29.1215 8.70637 29.1976 8.52441C29.2736 8.34246 29.3127 8.14715 29.3127 7.94995C29.3127 7.75275 29.2736 7.55757 29.1976 7.37561C29.1215 7.19365 29.0102 7.0286 28.8699 6.89001V6.89001ZM14.8699 13.12C13.8445 13.122 12.8416 12.8195 11.9883 12.2511C11.1349 11.6827 10.4694 10.8738 10.0761 9.92688C9.68279 8.97995 9.57937 7.93764 9.77892 6.93188C9.97847 5.92613 10.472 5.00214 11.1971 4.2771C11.9221 3.55206 12.846 3.05856 13.8518 2.85901C14.8575 2.65946 15.8999 2.76283 16.8468 3.15613C17.7937 3.54943 18.6026 4.21498 19.171 5.06836C19.7395 5.92174 20.0418 6.92459 20.0399 7.94995C20.0373 9.31342 19.4973 10.6209 18.5369 11.5887C17.5765 12.5566 16.2733 13.1068 14.9099 13.12H14.8699Z" fill="black"/>
</svg>
