<svg width="22" height="22" viewBox="0 0 22 22" fill="none" xmlns="http://www.w3.org/2000/svg">
<path d="M11 22C17.0751 22 22 17.0751 22 11C22 4.92487 17.0751 0 11 0C4.92487 0 0 4.92487 0 11C0 17.0751 4.92487 22 11 22Z" fill="#C6FFE3"/>
<path d="M15.8806 15.7407H6.94775L8.86753 12.6187H7.54524L9.52378 9.42078H8.25046L11.4142 4.29651L14.5779 9.42078H13.3046L15.2733 12.6187H13.9608L15.8806 15.7407Z" stroke="#00310B" stroke-width="0.27" stroke-linecap="round" stroke-linejoin="round"/>
<path d="M13.0107 19.451H9.81761L10.4347 15.7596H12.2761L13.0107 19.451Z" stroke="#00310B" stroke-width="0.27" stroke-linecap="round" stroke-linejoin="round"/>
<path d="M10.944 2.91098L11.3946 2L11.8745 2.90149L12.9128 3.03434L12.1782 3.75554L12.3643 4.75192L11.4338 4.28694L10.5131 4.78039L10.6698 3.77452L9.90578 3.0723L10.944 2.91098Z" stroke="#00310B" stroke-width="0.27" stroke-linecap="round" stroke-linejoin="round"/>
</svg>
