<svg width="22" height="22" viewBox="0 0 22 22" fill="none" xmlns="http://www.w3.org/2000/svg">
<path d="M11 22C17.0751 22 22 17.0751 22 11C22 4.92487 17.0751 0 11 0C4.92487 0 0 4.92487 0 11C0 17.0751 4.92487 22 11 22Z" fill="#EAFFCD"/>
<path fill-rule="evenodd" clip-rule="evenodd" d="M5.0014 6L11.3247 6L11.3247 16.9958L10.3314 16.9958L10.3314 7.0632L5.99466 7.0632L5.99466 16.9958L5 16.9958L5.0014 6ZM15.0053 9.30573L16 9.30573L16 17L15.0053 17L15.0053 9.30573ZM13.4483 7.7487L14.4402 7.7487L14.4402 16.9958L13.4483 16.9958L13.4483 7.7487ZM11.8885 6.5344L12.8789 6.5344L12.8789 16.9958L11.8843 16.9958L11.8885 6.5344Z" fill="#9DCB7C"/>
</svg>
