<svg width="22" height="22" viewBox="0 0 22 22" fill="none" xmlns="http://www.w3.org/2000/svg">
<path d="M11 22C17.0751 22 22 17.0751 22 11C22 4.92488 17.0751 0 11 0C4.92487 0 0 4.92488 0 11C0 17.0751 4.92487 22 11 22Z" fill="#F2E8FF"/>
<path fill-rule="evenodd" clip-rule="evenodd" d="M6.79211 5.00001H12.0808C12.286 4.99919 12.4847 5.07217 12.6406 5.20563C12.7126 5.26583 12.7708 5.34087 12.8111 5.4256C12.8514 5.51034 12.873 5.60278 12.8743 5.6966V15.3006C12.8752 15.3699 12.8629 15.4387 12.8379 15.5034H13.178C13.1766 15.4871 13.1766 15.4707 13.178 15.4544V12.2862C13.1791 12.2237 13.1934 12.1621 13.2199 12.1055C13.2464 12.0488 13.2846 11.9984 13.3319 11.9575C13.4347 11.8669 13.5672 11.8171 13.7042 11.8176H16.0567C16.194 11.8182 16.3265 11.8678 16.4304 11.9575C16.477 11.9983 16.5146 12.0484 16.5409 12.1045C16.5672 12.1606 16.5815 12.2215 16.583 12.2834V15.4488C16.5843 15.4651 16.5843 15.4815 16.583 15.4978H16.8517C16.87 15.4967 16.8885 15.4992 16.9059 15.5052C16.9233 15.5112 16.9394 15.5205 16.9531 15.5327C16.9669 15.545 16.9782 15.5598 16.9862 15.5763C16.9942 15.5929 16.9989 15.6109 17 15.6293V15.8601C16.9989 15.8785 16.9942 15.8964 16.9862 15.913C16.9782 15.9296 16.9669 15.9444 16.9531 15.9566C16.9394 15.9688 16.9233 15.9782 16.9059 15.9842C16.8885 15.9902 16.87 15.9927 16.8517 15.9916H12.2053C12.1645 15.9971 12.1234 15.9999 12.0822 15.9999H6.79211C6.58712 16.0022 6.38825 15.9301 6.23231 15.7971C6.15998 15.7361 6.10176 15.66 6.06165 15.5743C6.02155 15.4886 6.00051 15.3952 6 15.3006V5.6966C6.00141 5.60307 6.02274 5.51092 6.06255 5.42626C6.10237 5.34161 6.15976 5.2664 6.23092 5.20563C6.38659 5.07184 6.58541 4.99881 6.79072 5.00001H6.79211ZM15.6089 12.6779H15.1891C15.1609 12.6789 15.1343 12.691 15.1149 12.7114C15.096 12.7337 15.0856 12.762 15.0855 12.7912V13.1521C15.0851 13.1813 15.0956 13.2097 15.1149 13.2318C15.1343 13.2522 15.1609 13.2643 15.1891 13.2654H15.6089C15.6229 13.265 15.6366 13.2618 15.6494 13.256C15.6621 13.2503 15.6736 13.242 15.6831 13.2318C15.7037 13.2104 15.7153 13.1818 15.7153 13.1521V12.7912C15.7147 12.7615 15.7033 12.7331 15.6831 12.7114C15.6736 12.7012 15.6621 12.6929 15.6494 12.6872C15.6366 12.6814 15.6229 12.6782 15.6089 12.6779ZM14.5649 14.4865H14.145C14.1317 14.4864 14.1184 14.4891 14.1061 14.4944C14.0938 14.4997 14.0828 14.5075 14.0737 14.5173C14.0525 14.5396 14.0406 14.569 14.0401 14.5998V14.9579C14.0406 14.9886 14.0525 15.018 14.0737 15.0404C14.0828 15.0502 14.0938 15.058 14.1061 15.0633C14.1184 15.0686 14.1317 15.0713 14.145 15.0712H14.5649C14.5784 15.0711 14.5919 15.0684 14.6044 15.0631C14.6169 15.0578 14.6282 15.0501 14.6377 15.0404C14.658 15.0178 14.669 14.9883 14.6684 14.9579V14.6012C14.669 14.5708 14.658 14.5413 14.6377 14.5187C14.6282 14.509 14.6169 14.5012 14.6044 14.4959C14.5919 14.4907 14.5784 14.4879 14.5649 14.4879V14.4865ZM15.6089 14.4865H15.1891C15.1612 14.4865 15.1346 14.4976 15.1149 14.5173C15.0955 14.5404 15.0851 14.5696 15.0855 14.5998V14.9579C15.0851 14.988 15.0955 15.0173 15.1149 15.0404C15.1346 15.0601 15.1612 15.0711 15.1891 15.0712H15.6089C15.6227 15.0713 15.6364 15.0687 15.6491 15.0634C15.6619 15.0581 15.6734 15.0503 15.6831 15.0404C15.7038 15.0179 15.7153 14.9884 15.7153 14.9579V14.6012C15.7153 14.5706 15.7038 14.5411 15.6831 14.5187C15.6734 14.5088 15.6619 14.501 15.6491 14.4957C15.6364 14.4904 15.6227 14.4877 15.6089 14.4879V14.4865ZM14.5649 13.5829H14.145C14.1179 13.5838 14.0923 13.5954 14.0737 13.615C14.0528 13.6365 14.0409 13.6649 14.0401 13.6948V14.0571C14.0409 14.0869 14.0528 14.1154 14.0737 14.1368C14.0923 14.1564 14.1179 14.168 14.145 14.169H14.5649C14.5923 14.1678 14.6183 14.1563 14.6377 14.1368C14.6577 14.1151 14.6687 14.0866 14.6684 14.0571V13.6948C14.6687 13.6653 14.6577 13.6367 14.6377 13.615C14.6183 13.5956 14.5923 13.5841 14.5649 13.5829ZM15.6089 13.5829H15.1891C15.1612 13.584 15.1347 13.5955 15.1149 13.615C15.0958 13.6372 15.0854 13.6655 15.0855 13.6948V14.0571C15.0854 14.0863 15.0958 14.1146 15.1149 14.1368C15.1347 14.1564 15.1612 14.1678 15.1891 14.169H15.6089C15.6368 14.1681 15.6634 14.1566 15.6831 14.1368C15.7035 14.1152 15.715 14.0867 15.7153 14.0571V13.6948C15.715 13.6651 15.7035 13.6366 15.6831 13.615C15.6634 13.5952 15.6368 13.5837 15.6089 13.5829ZM14.5649 12.6779H14.145C14.1315 12.6783 14.1182 12.6815 14.1059 12.6873C14.0936 12.693 14.0826 12.7013 14.0737 12.7114C14.0531 12.733 14.0411 12.7614 14.0401 12.7912V13.1521C14.0406 13.182 14.0526 13.2105 14.0737 13.2318C14.0826 13.242 14.0936 13.2502 14.1059 13.256C14.1182 13.2617 14.1315 13.2649 14.145 13.2654H14.5649C14.5926 13.2642 14.6188 13.2522 14.6377 13.2318C14.6579 13.2102 14.669 13.1816 14.6684 13.1521V12.7912C14.6684 12.7617 14.6575 12.7333 14.6377 12.7114C14.6188 12.6911 14.5926 12.679 14.5649 12.6779ZM8.67443 8.04514H7.67099C7.59799 8.04479 7.52717 8.07004 7.47087 8.11648C7.44601 8.13846 7.42597 8.16533 7.412 8.19542C7.39803 8.22551 7.39043 8.25816 7.38969 8.29133V9.02568C7.39039 9.05844 7.39798 9.09069 7.41196 9.12034C7.42595 9.14998 7.44602 9.17634 7.47087 9.19773C7.5262 9.24616 7.59744 9.27255 7.67099 9.27186H8.67443C8.74759 9.27274 8.81846 9.2463 8.87316 9.19773C8.89843 9.1767 8.91879 9.15041 8.93281 9.12069C8.94683 9.09097 8.95417 9.05854 8.95432 9.02568V8.29133C8.9542 8.25806 8.94689 8.2252 8.93288 8.19502C8.91887 8.16484 8.8985 8.13805 8.87316 8.11648C8.81752 8.06982 8.74705 8.04452 8.67443 8.04514ZM8.67443 6.20296H7.67099C7.59779 6.2042 7.5272 6.23035 7.47087 6.27709C7.44574 6.29885 7.42551 6.32568 7.41152 6.35582C7.39753 6.38596 7.39009 6.41872 7.38969 6.45194V7.18769C7.39026 7.22089 7.39778 7.25359 7.41176 7.28371C7.42574 7.31382 7.44588 7.34067 7.47087 7.36254C7.52752 7.40837 7.59811 7.43354 7.67099 7.43388H8.67443C8.74693 7.43378 8.81716 7.40857 8.87316 7.36254C8.89864 7.34109 8.91912 7.31432 8.93314 7.28411C8.94716 7.2539 8.95439 7.22099 8.95432 7.18769V6.45474C8.95449 6.42142 8.9473 6.38848 8.93327 6.35826C8.91924 6.32804 8.89872 6.30128 8.87316 6.27989C8.81749 6.23295 8.74725 6.20676 8.67443 6.20576V6.20296ZM11.1935 6.20296H10.1985C10.1259 6.2032 10.0559 6.22952 10.0012 6.27709C9.97511 6.29815 9.95415 6.32481 9.93985 6.35508C9.92556 6.38536 9.91829 6.41846 9.91858 6.45194V7.18769C9.91849 7.22114 9.92585 7.25418 9.94014 7.28442C9.95442 7.31467 9.97526 7.34135 10.0012 7.36254C10.0562 7.40922 10.1263 7.43454 10.1985 7.43388H11.2019C11.2741 7.43429 11.344 7.409 11.3992 7.36254C11.4249 7.34116 11.4456 7.31444 11.4599 7.28424C11.4741 7.25404 11.4816 7.22109 11.4818 7.18769V6.45474C11.4817 6.42133 11.4743 6.38835 11.46 6.35813C11.4457 6.32792 11.425 6.30121 11.3992 6.27989C11.3444 6.23253 11.2744 6.20625 11.2019 6.20576L11.1935 6.20296ZM8.67443 13.5633H7.67099C7.59811 13.5636 7.52752 13.5888 7.47087 13.6346C7.44607 13.6567 7.42607 13.6835 7.41211 13.7136C7.39814 13.7437 7.39052 13.7763 7.38969 13.8095V14.5452C7.39039 14.578 7.39798 14.6102 7.41196 14.6399C7.42595 14.6695 7.44602 14.6959 7.47087 14.7173C7.52653 14.7652 7.59755 14.7915 7.67099 14.7914H8.67443C8.74748 14.7916 8.81812 14.7653 8.87316 14.7173C8.89843 14.6963 8.91879 14.67 8.93281 14.6402C8.94683 14.6105 8.95417 14.5781 8.95432 14.5452V13.8095C8.95411 13.7762 8.94675 13.7434 8.93275 13.7132C8.91874 13.6831 8.89843 13.6563 8.87316 13.6346C8.81716 13.5886 8.74693 13.5634 8.67443 13.5633ZM11.1935 13.5633H10.1985C10.1263 13.5626 10.0562 13.588 10.0012 13.6346C9.97548 13.656 9.95479 13.6827 9.94053 13.7129C9.92627 13.7431 9.91878 13.7761 9.91858 13.8095V14.5452C9.91861 14.5782 9.92603 14.6108 9.94032 14.6406C9.95461 14.6704 9.9754 14.6966 10.0012 14.7173C10.0552 14.766 10.1257 14.7925 10.1985 14.7914H11.2019C11.2746 14.7922 11.345 14.7658 11.3992 14.7173C11.4247 14.6963 11.4453 14.6701 11.4595 14.6404C11.4738 14.6106 11.4814 14.5782 11.4818 14.5452V13.8095C11.4813 13.7761 11.4737 13.7433 11.4595 13.7131C11.4452 13.683 11.4247 13.6562 11.3992 13.6346C11.344 13.5882 11.2741 13.5629 11.2019 13.5633H11.1935ZM8.67443 11.7225H7.67099C7.59768 11.7232 7.52691 11.7494 7.47087 11.7966C7.44574 11.8184 7.42551 11.8452 7.41152 11.8754C7.39753 11.9055 7.39009 11.9383 7.38969 11.9715V12.703C7.39009 12.7363 7.39753 12.769 7.41152 12.7992C7.42551 12.8293 7.44574 12.8561 7.47087 12.8779C7.52717 12.9243 7.59799 12.9496 7.67099 12.9492H8.67443C8.74705 12.9499 8.81752 12.9246 8.87316 12.8779C8.89872 12.8565 8.91924 12.8297 8.93327 12.7995C8.9473 12.7693 8.95449 12.7364 8.95432 12.703V11.9715C8.95449 11.9382 8.9473 11.9052 8.93327 11.875C8.91924 11.8448 8.89872 11.818 8.87316 11.7966C8.81779 11.7492 8.74736 11.7229 8.67443 11.7225ZM11.1935 11.7225H10.1985C10.1258 11.7221 10.0556 11.7485 10.0012 11.7966C9.97511 11.8177 9.95415 11.8444 9.93985 11.8746C9.92556 11.9049 9.91829 11.938 9.91858 11.9715V12.703C9.91829 12.7365 9.92556 12.7696 9.93985 12.7999C9.95415 12.8302 9.97511 12.8568 10.0012 12.8779C10.0559 12.9251 10.1262 12.9505 10.1985 12.9492H11.2019C11.2742 12.9503 11.3443 12.9249 11.3992 12.8779C11.425 12.8566 11.4457 12.8299 11.46 12.7997C11.4743 12.7694 11.4817 12.7365 11.4818 12.703V11.9715C11.4817 11.9381 11.4743 11.9051 11.46 11.8749C11.4457 11.8447 11.425 11.818 11.3992 11.7966C11.3447 11.7487 11.2745 11.7224 11.2019 11.7225H11.1935ZM8.67443 9.88312H7.67099C7.59755 9.88307 7.52653 9.90938 7.47087 9.95726C7.44581 9.97847 7.4256 10.0048 7.4116 10.0345C7.39759 10.0642 7.39012 10.0965 7.38969 10.1293V10.8651C7.39052 10.8982 7.39814 10.9308 7.41211 10.9609C7.42607 10.991 7.44607 11.0179 7.47087 11.0399C7.52752 11.0857 7.59811 11.1109 7.67099 11.1112H8.67443C8.74693 11.1111 8.81716 11.0859 8.87316 11.0399C8.89843 11.0183 8.91874 10.9915 8.93275 10.9613C8.94675 10.9311 8.95411 10.8983 8.95432 10.8651V10.1251C8.95446 10.0922 8.94725 10.0597 8.93321 10.0299C8.91917 10.0001 8.89865 9.97389 8.87316 9.95306C8.81812 9.90506 8.74748 9.87871 8.67443 9.87893V9.88312ZM11.1935 9.88312H10.1985C10.1257 9.88205 10.0552 9.90854 10.0012 9.95726C9.97572 9.9773 9.95511 10.0028 9.94082 10.0318C9.92653 10.0609 9.91893 10.0927 9.91858 10.1251V10.8609C9.91878 10.8943 9.92627 10.9272 9.94053 10.9574C9.95479 10.9876 9.97548 11.0143 10.0012 11.0357C10.0562 11.0824 10.1263 11.1077 10.1985 11.107H11.2019C11.2741 11.1075 11.344 11.0822 11.3992 11.0357C11.4247 11.0141 11.4452 10.9874 11.4595 10.9572C11.4737 10.9271 11.4813 10.8942 11.4818 10.8609V10.1251C11.4818 10.0921 11.4744 10.0595 11.4601 10.0297C11.4458 9.99995 11.425 9.97375 11.3992 9.95306C11.345 9.90458 11.2746 9.87813 11.2019 9.87893L11.1935 9.88312ZM11.1935 8.04514H10.1985C10.1262 8.04384 10.0559 8.06924 10.0012 8.11648C9.97534 8.13773 9.95454 8.16443 9.94026 8.19466C9.92599 8.22489 9.91858 8.2579 9.91858 8.29133V9.02568C9.91861 9.0587 9.92603 9.0913 9.94032 9.12107C9.95461 9.15084 9.9754 9.17704 10.0012 9.19773C10.0547 9.2472 10.1255 9.2738 10.1985 9.27186H11.2019C11.2748 9.2738 11.3456 9.2472 11.3992 9.19773C11.4247 9.17678 11.4453 9.15053 11.4595 9.12081C11.4738 9.0911 11.4814 9.05863 11.4818 9.02568V8.29133C11.4814 8.25796 11.4739 8.22508 11.4596 8.1949C11.4454 8.16473 11.4248 8.13798 11.3992 8.11648C11.3443 8.06947 11.2742 8.0441 11.2019 8.04514H11.1935Z" fill="#8974DB"/>
</svg>
