<svg width="22" height="22" viewBox="0 0 22 22" fill="none" xmlns="http://www.w3.org/2000/svg">
<path d="M11 22C17.0751 22 22 17.0751 22 11C22 4.92487 17.0751 0 11 0C4.92487 0 0 4.92487 0 11C0 17.0751 4.92487 22 11 22Z" fill="#DCF1FF"/>
<path d="M13.94 11.03C14.3626 11.0353 14.766 11.2076 15.062 11.5092C15.358 11.8109 15.5227 12.2174 15.52 12.64V16.98H6.00003V12.64C5.99871 12.4299 6.03876 12.2216 6.11795 12.0269C6.19714 11.8323 6.31393 11.6552 6.46158 11.5057C6.60923 11.3562 6.78487 11.2373 6.97849 11.1556C7.17211 11.074 7.37988 11.0313 7.59 11.03" stroke="#40B2FF" stroke-width="0.25" stroke-linecap="round" stroke-linejoin="round"/>
<path d="M13.9402 10.94V9.51999C13.9439 8.7509 13.6999 8.00104 13.2442 7.38147C12.7885 6.7619 12.1454 6.30555 11.4102 6.07999C11.1999 6.0331 10.9855 6.00633 10.7702 6C10.5377 6.0066 10.3066 6.03675 10.0802 6.09C9.34777 6.33289 8.71208 6.80348 8.26595 7.43311C7.81981 8.06273 7.58653 8.81845 7.60018 9.59V10.94" stroke="#40B2FF" stroke-width="0.25" stroke-linecap="round" stroke-linejoin="round"/>
<path d="M13.9401 10.9399C13.8406 11.7053 13.4661 12.4083 12.8865 12.9179C12.307 13.4276 11.5618 13.7091 10.79 13.7099V13.7099" stroke="#40B2FF" stroke-width="0.25" stroke-linecap="round" stroke-linejoin="round"/>
<path d="M7.55029 11.03C7.57938 11.3306 7.65704 11.6244 7.78027 11.9" stroke="#40B2FF" stroke-width="0.25" stroke-linecap="round" stroke-linejoin="round"/>
<path d="M8.22021 16.9699V14.4299" stroke="#40B2FF" stroke-width="0.25" stroke-linecap="round" stroke-linejoin="round"/>
<path d="M13.3003 16.9699V14.4299" stroke="#40B2FF" stroke-width="0.25" stroke-linecap="round" stroke-linejoin="round"/>
<path d="M15.5503 12.85L13.5503 14.12C12.7264 14.6375 11.7732 14.912 10.8003 14.912C9.82736 14.912 8.87417 14.6375 8.05029 14.12L6.05029 12.86" stroke="#40B2FF" stroke-width="0.25" stroke-linecap="round" stroke-linejoin="round"/>
<path d="M10.7601 11.78C12.0911 11.78 13.1701 10.701 13.1701 9.36996C13.1701 8.03895 12.0911 6.95996 10.7601 6.95996C9.42909 6.95996 8.3501 8.03895 8.3501 9.36996C8.3501 10.701 9.42909 11.78 10.7601 11.78Z" stroke="#40B2FF" stroke-width="0.25" stroke-linecap="round" stroke-linejoin="round"/>
<path d="M12.27 8.02002H9.25002C8.84685 8.02002 8.52002 8.34685 8.52002 8.75002C8.52002 9.15319 8.84685 9.48002 9.25002 9.48002H12.27C12.6732 9.48002 13 9.15319 13 8.75002C13 8.34685 12.6732 8.02002 12.27 8.02002Z" stroke="#40B2FF" stroke-width="0.25" stroke-linecap="round" stroke-linejoin="round"/>
</svg>
