<svg width="22" height="22" viewBox="0 0 22 22" fill="none" xmlns="http://www.w3.org/2000/svg">
<path d="M11 22C17.0751 22 22 17.0751 22 11C22 4.92487 17.0751 0 11 0C4.92487 0 0 4.92487 0 11C0 17.0751 4.92487 22 11 22Z" fill="#EAFBF4"/>
<path d="M15.3329 9.29275C15.1746 9.2744 15.0143 9.28941 14.8622 9.33682C14.71 9.38424 14.5694 9.46301 14.4493 9.56812C14.3998 9.3947 14.3031 9.2386 14.1701 9.11736C14.0372 8.99611 13.8732 8.91452 13.6966 8.88177C13.5462 8.86299 13.3935 8.87516 13.248 8.91756C13.1024 8.95995 12.9669 9.03168 12.8498 9.12836C12.7854 8.95994 12.6789 8.81099 12.5406 8.69583C12.4024 8.58067 12.237 8.50317 12.0603 8.47078C11.8847 8.45226 11.7073 8.47491 11.5419 8.53695C11.3765 8.599 11.2277 8.69874 11.1072 8.82834V6.23501C11.1122 6.05719 11.0616 5.88226 10.9626 5.73481C10.8635 5.58737 10.7209 5.47484 10.5549 5.41303C10.4314 5.3704 10.2996 5.35807 10.1704 5.37709C10.0412 5.39611 9.91839 5.44593 9.81228 5.52237C9.70616 5.59881 9.6198 5.69966 9.5604 5.81648C9.501 5.93331 9.4703 6.06272 9.47086 6.19391V12.7697C9.25388 12.7697 9.04577 12.6831 8.89233 12.529C8.7389 12.3748 8.65272 12.1657 8.65272 11.9477V11.2038C8.65272 11.1663 8.64528 11.129 8.63084 11.0944C8.6164 11.0597 8.59524 11.0282 8.5686 11.0019C8.54195 10.9755 8.51034 10.9547 8.47562 10.9407C8.4409 10.9267 8.40377 10.9197 8.36636 10.9203H8.10454C7.81161 10.9203 7.53068 11.0372 7.32355 11.2453C7.11641 11.4534 7.00004 11.7356 7.00004 12.0299V14.0602C6.99865 14.2353 7.03442 14.4088 7.10495 14.5689C7.17549 14.7291 7.27918 14.8723 7.40911 14.989L8.50952 15.959C8.73596 16.1576 9.02709 16.2658 9.32767 16.2631H13.852C14.0138 16.2635 14.1741 16.2317 14.3237 16.1697C14.4732 16.1076 14.609 16.0164 14.7234 15.9014L15.6397 14.9808C15.8699 14.7498 15.9994 14.4364 15.9997 14.1095V10.1476C16.0051 9.94938 15.9415 9.75546 15.8197 9.59937C15.698 9.44328 15.5258 9.33483 15.3329 9.29275Z" stroke="#30906E" stroke-width="0.5" stroke-miterlimit="10"/>
<path d="M11.9446 5.32007C12.0758 5.31856 12.2014 5.26449 12.295 5.1692L12.7123 4.737C12.8047 4.64129 12.8566 4.51149 12.8566 4.37614C12.8566 4.2408 12.8047 4.11099 12.7123 4.01528C12.6199 3.91958 12.4946 3.86581 12.3639 3.86581C12.2332 3.86581 12.1079 3.91958 12.0155 4.01528L11.5982 4.4475C11.5305 4.5193 11.4846 4.61004 11.4661 4.70854C11.4477 4.80704 11.4575 4.90898 11.4943 5.00178C11.5312 5.09458 11.5935 5.17417 11.6735 5.23073C11.7535 5.28729 11.8477 5.31836 11.9446 5.32007V5.32007ZM12.1178 6.46584C12.1178 6.60102 12.1697 6.73065 12.2619 6.82624C12.3542 6.92182 12.4794 6.97552 12.6099 6.97552H13.2004C13.331 6.97552 13.4561 6.92182 13.5484 6.82624C13.6407 6.73065 13.6925 6.60102 13.6925 6.46584C13.6925 6.33066 13.6407 6.20102 13.5484 6.10544C13.4561 6.00986 13.331 5.95616 13.2004 5.95616H12.6099C12.4794 5.95616 12.3542 6.00986 12.2619 6.10544C12.1697 6.20102 12.1178 6.33066 12.1178 6.46584V6.46584ZM10.3463 4.63098C10.4768 4.63098 10.6019 4.57728 10.6942 4.4817C10.7865 4.38612 10.8384 4.25648 10.8384 4.1213V3.50968C10.8384 3.37451 10.7865 3.24487 10.6942 3.14928C10.6019 3.0537 10.4768 3 10.3463 3C10.2158 3 10.0906 3.0537 9.99829 3.14928C9.90601 3.24487 9.85417 3.37451 9.85417 3.50968V4.1213C9.85417 4.25648 9.90601 4.38612 9.99829 4.4817C10.0906 4.57728 10.2158 4.63098 10.3463 4.63098V4.63098ZM14.3815 17.2711H8.80303C8.75083 17.2711 8.70077 17.2926 8.66386 17.3308C8.62695 17.369 8.60619 17.4209 8.60619 17.475V19.3751C8.60619 19.4291 8.62695 19.481 8.66386 19.5192C8.70077 19.5575 8.75083 19.5789 8.80303 19.5789H14.3815C14.4337 19.5789 14.4837 19.5575 14.5206 19.5192C14.5576 19.481 14.5783 19.4291 14.5783 19.3751V17.475C14.5805 17.4469 14.577 17.4186 14.5681 17.3919C14.5592 17.3653 14.545 17.3408 14.5265 17.3202C14.508 17.2995 14.4856 17.283 14.4606 17.2717C14.4357 17.2605 14.4087 17.2547 14.3815 17.2548V17.2711ZM8.39755 5.18552C8.49154 5.27205 8.61395 5.31804 8.73965 5.31403C8.86534 5.31002 8.98478 5.25633 9.07345 5.16397C9.16211 5.07161 9.21328 4.94759 9.21644 4.81739C9.21959 4.68718 9.17451 4.56066 9.09043 4.46381L8.67313 4.0316C8.62838 3.98004 8.57393 3.93848 8.51313 3.90947C8.45234 3.88046 8.38648 3.8646 8.31956 3.86286C8.25264 3.86112 8.18607 3.87353 8.12395 3.89935C8.06182 3.92516 8.00544 3.96384 7.95825 4.013C7.91105 4.06216 7.87402 4.12078 7.84945 4.18527C7.82487 4.24976 7.81327 4.31877 7.81533 4.38806C7.81739 4.45736 7.83308 4.52549 7.86144 4.58829C7.88979 4.65109 7.93023 4.70725 7.98026 4.75331L8.39755 5.18552ZM8.08262 5.97246H7.4921C7.36159 5.97246 7.23641 6.02616 7.14412 6.12175C7.05184 6.21733 7 6.34697 7 6.48215C7 6.61732 7.05184 6.74696 7.14412 6.84255C7.23641 6.93813 7.36159 6.99183 7.4921 6.99183H8.08262C8.21313 6.99183 8.33828 6.93813 8.43057 6.84255C8.52286 6.74696 8.57472 6.61732 8.57472 6.48215C8.57472 6.34697 8.52286 6.21733 8.43057 6.12175C8.33828 6.02616 8.21313 5.97246 8.08262 5.97246Z" stroke="#30906E" stroke-width="0.5" stroke-miterlimit="10"/>
</svg>
