<svg width="18" height="15" viewBox="0 0 18 15" fill="none" xmlns="http://www.w3.org/2000/svg">
<path d="M12.9444 14.3333C12.9444 14.6095 13.1683 14.8333 13.4444 14.8333C13.7206 14.8333 13.9444 14.6095 13.9444 14.3333H12.9444ZM4.05556 14.3333C4.05556 14.6095 4.27941 14.8333 4.55556 14.8333C4.8317 14.8333 5.05556 14.6095 5.05556 14.3333H4.05556ZM16.5 11.6666C16.5 11.9427 16.7239 12.1666 17 12.1666C17.2761 12.1666 17.5 11.9427 17.5 11.6666H16.5ZM14.4601 8.73813C14.193 8.66811 13.9197 8.82788 13.8497 9.095C13.7797 9.36211 13.9394 9.63542 14.2065 9.70545L14.4601 8.73813ZM0.5 11.6666C0.5 11.9427 0.723858 12.1666 1 12.1666C1.27614 12.1666 1.5 11.9427 1.5 11.6666H0.5ZM3.79346 9.70545C4.06057 9.63542 4.22035 9.36211 4.15032 9.095C4.0803 8.82788 3.80699 8.66811 3.53988 8.73813L3.79346 9.70545ZM13.9999 5.28175C13.7941 5.46591 13.7766 5.78201 13.9608 5.98777C14.1449 6.19354 14.461 6.21105 14.6668 6.02688L13.9999 5.28175ZM10.4443 1.30645C10.2386 1.49061 10.221 1.80671 10.4052 2.01247C10.5894 2.21824 10.9055 2.23575 11.1112 2.05158L10.4443 1.30645ZM3.33321 6.02688C3.53897 6.21105 3.85507 6.19354 4.03923 5.98777C4.2234 5.78201 4.20589 5.46591 4.00012 5.28175L3.33321 6.02688ZM6.88877 2.05158C7.09453 2.23575 7.41063 2.21824 7.59479 2.01247C7.77895 1.80671 7.76144 1.49061 7.55568 1.30645L6.88877 2.05158ZM13.9444 14.3333C13.9444 13.3523 13.2843 12.5496 12.3999 12.019C11.5056 11.4824 10.3023 11.1667 9 11.1667V12.1667C10.1523 12.1667 11.1712 12.4479 11.8854 12.8765C12.6096 13.311 12.9444 13.8416 12.9444 14.3333H13.9444ZM9 11.1667C7.69766 11.1667 6.4944 11.4824 5.60006 12.019C4.71566 12.5496 4.05556 13.3523 4.05556 14.3333H5.05556C5.05556 13.8416 5.39037 13.311 6.11455 12.8765C6.82877 12.4479 7.84774 12.1667 9 12.1667V11.1667ZM17.5 11.6666C17.5 10.9405 17.134 10.3062 16.5896 9.81664C16.0466 9.32832 15.3027 8.95902 14.4601 8.73813L14.2065 9.70545C14.9337 9.89606 15.5231 10.2024 15.921 10.5602C16.3175 10.9168 16.5 11.2991 16.5 11.6666H17.5ZM1.5 11.6666C1.5 11.2991 1.6825 10.9168 2.07903 10.5602C2.47693 10.2024 3.06635 9.89606 3.79346 9.70545L3.53988 8.73813C2.69729 8.95902 1.95338 9.32832 1.41036 9.81664C0.86599 10.3062 0.5 10.9405 0.5 11.6666H1.5ZM9 8.5C7.80338 8.5 6.83333 7.52995 6.83333 6.33333H5.83333C5.83333 8.08224 7.2511 9.5 9 9.5V8.5ZM6.83333 6.33333C6.83333 5.13672 7.80338 4.16667 9 4.16667V3.16667C7.2511 3.16667 5.83333 4.58443 5.83333 6.33333H6.83333ZM9 4.16667C10.1966 4.16667 11.1667 5.13672 11.1667 6.33333H12.1667C12.1667 4.58443 10.7489 3.16667 9 3.16667V4.16667ZM11.1667 6.33333C11.1667 7.52995 10.1966 8.5 9 8.5V9.5C10.7489 9.5 12.1667 8.08224 12.1667 6.33333H11.1667ZM14.6668 6.02688C15.3138 5.44776 15.7222 4.60458 15.7222 3.66667H14.7222C14.7222 4.30831 14.4439 4.8843 13.9999 5.28175L14.6668 6.02688ZM15.7222 3.66667C15.7222 1.91776 14.3045 0.5 12.5556 0.5V1.5C13.7522 1.5 14.7222 2.47005 14.7222 3.66667H15.7222ZM12.5556 0.5C11.7448 0.5 11.0042 0.805315 10.4443 1.30645L11.1112 2.05158C11.4949 1.7082 12.0003 1.5 12.5556 1.5V0.5ZM4.00012 5.28175C3.55606 4.8843 3.27778 4.30831 3.27778 3.66667H2.27778C2.27778 4.60458 2.68616 5.44776 3.33321 6.02688L4.00012 5.28175ZM3.27778 3.66667C3.27778 2.47005 4.24783 1.5 5.44444 1.5V0.5C3.69554 0.5 2.27778 1.91776 2.27778 3.66667H3.27778ZM5.44444 1.5C5.99969 1.5 6.50511 1.7082 6.88877 2.05158L7.55568 1.30645C6.99577 0.805315 6.25517 0.5 5.44444 0.5V1.5Z" fill="#131740"/>
</svg>
