<svg width="18" height="18" viewBox="0 0 18 18" fill="none" xmlns="http://www.w3.org/2000/svg">
<path d="M17 9.27441C17 13.6927 13.4183 17.2744 9 17.2744M17 9.27441C17 4.85614 13.4183 1.27441 9 1.27441M17 9.27441C17 10.7472 13.4183 11.9411 9 11.9411C4.58172 11.9411 1 10.7472 1 9.27441M17 9.27441C17 7.80165 13.4183 6.60775 9 6.60775C4.58172 6.60775 1 7.80165 1 9.27441M9 17.2744C4.58172 17.2744 1 13.6927 1 9.27441M9 17.2744C7.52724 17.2744 6.33333 13.6927 6.33333 9.27441C6.33333 4.85614 7.52724 1.27441 9 1.27441M9 17.2744C10.4728 17.2744 11.6667 13.6927 11.6667 9.27441C11.6667 4.85614 10.4728 1.27441 9 1.27441M1 9.27441C1 4.85614 4.58172 1.27441 9 1.27441" stroke="white" stroke-linecap="round" stroke-linejoin="round"/>
</svg>
