<svg width="18" height="18" viewBox="0 0 18 18" fill="none" xmlns="http://www.w3.org/2000/svg">
<path d="M17 9.27448C17 13.6928 13.4183 17.2745 9 17.2745M17 9.27448C17 4.8562 13.4183 1.27448 9 1.27448M17 9.27448C17 10.7472 13.4183 11.9411 9 11.9411C4.58172 11.9411 1 10.7472 1 9.27448M17 9.27448C17 7.80172 13.4183 6.60781 9 6.60781C4.58172 6.60781 1 7.80172 1 9.27448M9 17.2745C4.58172 17.2745 1 13.6928 1 9.27448M9 17.2745C7.52724 17.2745 6.33333 13.6928 6.33333 9.27448C6.33333 4.8562 7.52724 1.27448 9 1.27448M9 17.2745C10.4728 17.2745 11.6667 13.6928 11.6667 9.27448C11.6667 4.8562 10.4728 1.27448 9 1.27448M1 9.27448C1 4.8562 4.58172 1.27448 9 1.27448" stroke="#131740" stroke-linecap="round" stroke-linejoin="round"/>
</svg>
