<svg width="20" height="15" viewBox="0 0 20 15" fill="none" xmlns="http://www.w3.org/2000/svg">
<path d="M17.4969 1.79839C16.216 0.783914 14.6968 0.171275 13.1064 0.0263501V0.80697C13.1064 0.889314 13.0724 0.965071 13.0136 1.01777C12.9548 1.07047 12.8775 1.09023 12.8032 1.07376C10.9715 0.685101 9.08725 0.655458 7.24629 0.988127C7.17203 1.0013 7.09777 0.978246 7.03898 0.925546C6.98329 0.872845 6.94926 0.797089 6.94926 0.718039V0C5.33106 0.144925 3.78403 0.760858 2.48144 1.78851C0.931312 4.91428 0.0804455 8.38261 0 11.9168C1.16646 13.5373 2.99505 14.4596 4.91027 14.397C5.08663 14.1566 5.53218 13.5505 5.97772 13.007L6.4047 12.424C6.46968 12.3351 6.57797 12.2989 6.67698 12.3318C8.48082 12.8819 10.3806 12.984 12.2277 12.6217H12.2339C12.5835 12.5393 12.9425 12.4537 13.2952 12.3582C13.3973 12.3285 13.5056 12.3713 13.5674 12.4636L13.8769 12.9313C14.2389 13.4616 14.7184 14.0676 14.9072 14.2949C16.7946 14.2916 18.5953 13.4583 19.8886 11.9959C19.935 11.9465 19.9722 11.9036 20 11.8674C19.9072 8.34967 19.0501 4.9044 17.4969 1.79839ZM6.73886 10.4906C5.59097 10.4709 4.67203 9.46626 4.6875 8.24098C4.67203 7.03217 5.56621 6.03087 6.70173 5.98805C6.7172 5.98805 6.72958 5.98805 6.74505 5.98805C7.89295 6.01111 8.80569 7.0157 8.79022 8.23768C8.8026 9.45967 7.88676 10.4676 6.73886 10.4906ZM13.1652 10.4906C12.0173 10.4709 11.0984 9.46296 11.117 8.24098C11.1015 7.03546 11.9895 6.03746 13.1219 5.98805C13.1374 5.98805 13.1528 5.98805 13.1683 5.98805C14.3162 6.00781 15.2321 7.01241 15.2166 8.23768C15.229 9.45967 14.3131 10.4676 13.1652 10.4906Z" fill="#131740"/>
</svg>
