<svg width="14" height="18" viewBox="0 0 14 18" fill="none" xmlns="http://www.w3.org/2000/svg">
<path d="M13.4444 6.60775V14.43C13.4444 15.4256 13.4444 15.9234 13.2507 16.3037C13.0802 16.6382 12.8083 16.9102 12.4738 17.0806C12.0935 17.2744 11.5956 17.2744 10.6 17.2744H3.84444C2.8488 17.2744 2.35097 17.2744 1.97068 17.0806C1.63617 16.9102 1.36421 16.6382 1.19377 16.3037C1 15.9234 1 15.4256 1 14.43V4.11886C1 3.12321 1 2.62539 1.19377 2.2451C1.36421 1.91059 1.63617 1.63862 1.97068 1.46818C2.35097 1.27441 2.8488 1.27441 3.84444 1.27441H8.11111M13.4444 6.60775L8.11111 1.27441M13.4444 6.60775H10.9556C9.95991 6.60775 9.46208 6.60775 9.08179 6.41398C8.74728 6.24354 8.47532 5.97157 8.30488 5.63706C8.11111 5.25678 8.11111 4.75895 8.11111 3.7633V1.27441M4.55556 13.7189H9.88889M4.55556 10.1633H9.88889M4.55556 6.60775H5.44444" stroke="white" stroke-linecap="round" stroke-linejoin="round"/>
</svg>
