<svg width="10" height="18" viewBox="0 0 10 18" fill="none" xmlns="http://www.w3.org/2000/svg">
<path d="M0.320711 9.58688H2.48841V17.7083C2.48841 17.87 2.63138 18 2.80912 18H6.48764C6.66538 18 6.80835 17.87 6.80835 17.7083V9.62554H9.30062C9.46291 9.62554 9.59815 9.5166 9.61747 9.369L9.99614 6.37837C10.0077 6.29754 9.97682 6.2132 9.91886 6.15346C9.85703 6.0902 9.77202 6.05506 9.67929 6.05506H6.80835V4.18196C6.80835 3.61617 7.14451 3.33151 7.80139 3.33151C7.89413 3.33151 9.67929 3.33151 9.67929 3.33151C9.85703 3.33151 10 3.20148 10 3.03983V0.295197C10 0.133542 9.85703 0.00351425 9.67929 0.00351425H7.09042C7.0711 0.00351425 7.03246 0 6.97063 0C6.52241 0 4.96136 0.0808279 3.72875 1.1105C2.3609 2.25966 2.55023 3.62671 2.5966 3.86216V6.05506H0.320711C0.142968 6.05506 0 6.18508 0 6.34674V9.29871C0 9.45685 0.142968 9.58688 0.320711 9.58688Z" fill="white"/>
</svg>
