<svg width="18" height="18" viewBox="0 0 18 18" fill="none" xmlns="http://www.w3.org/2000/svg">
<path d="M7.05556 7.05424C7.21217 6.60902 7.52131 6.23359 7.92821 5.99445C8.33511 5.75532 8.81351 5.6679 9.27868 5.74769C9.74386 5.82748 10.1658 6.06933 10.4697 6.43039C10.7737 6.79146 10.94 7.24844 10.9393 7.72041C10.9393 9.05275 8.94082 9.71892 8.94082 9.71892M8.96528 12.3856H8.97417M17 9.27448C17 13.6928 13.4183 17.2745 9 17.2745C4.58172 17.2745 1 13.6928 1 9.27448C1 4.8562 4.58172 1.27448 9 1.27448C13.4183 1.27448 17 4.8562 17 9.27448Z" stroke="white" stroke-linecap="round" stroke-linejoin="round"/>
</svg>
