<svg width="18" height="19" viewBox="0 0 18 19" fill="none" xmlns="http://www.w3.org/2000/svg">
<path d="M3.82353 5.09796H4.76471M3.82353 7.92149H4.76471M8.52941 7.92149H9.47059M8.52941 10.745H9.47059M3.82353 10.745H4.76471M8.52941 5.09796H9.47059M4.76471 18.2744V15.4509C4.76471 14.4113 5.60746 13.5685 6.64706 13.5685C7.20927 13.5685 7.71391 13.815 8.05882 14.2058M12.2941 12.6274V2.83913C12.2941 2.31203 12.2941 2.04847 12.1915 1.84714C12.1013 1.67005 11.9573 1.52607 11.7802 1.43583C11.5789 1.33325 11.3153 1.33325 10.7882 1.33325H2.50588C1.97877 1.33325 1.71522 1.33325 1.51389 1.43583C1.3368 1.52607 1.19282 1.67005 1.10258 1.84714C1 2.04847 1 2.31203 1 2.83913V18.2744H8.05882M11.3529 16.3921L13.2353 18.2744L17 14.5097" stroke="white" stroke-linecap="round" stroke-linejoin="round"/>
</svg>
