<svg width="20" height="17" viewBox="0 0 20 17" fill="none" xmlns="http://www.w3.org/2000/svg">
<path d="M18.2109 2.22513V14.7826C18.2037 15.0264 18.2937 15.2586 18.4557 15.425L19.0641 16.0674C19.3665 16.3847 19.6688 16.7059 19.964 17H12.527L12.5414 16.9845C12.8618 16.6672 13.1749 16.3383 13.4809 16.0209C13.6645 15.8236 13.8481 15.6378 14.0317 15.4443C14.2153 15.2625 14.3197 15.0071 14.3125 14.74V4.74824C14.3125 4.65536 14.2837 4.56636 14.2261 4.4967L13.9309 4.11359L13.7329 4.60892C13.7185 4.63988 13.7077 4.67471 13.6933 4.70567L13.3045 5.76212C11.9402 9.47712 10.5724 13.2115 9.20086 16.9613C9.11447 16.9536 9.02448 16.9536 8.93809 16.9613C8.53492 16.0093 8.13175 15.0574 7.72498 14.1054L3.7113 4.69793C3.67531 4.60505 3.61411 4.52379 3.53852 4.46187L3.08855 4.09811V12.9909C3.08135 13.2076 3.09575 13.4243 3.13535 13.6371C3.18215 13.8384 3.26854 14.0241 3.39453 14.1828C4.00648 14.9916 4.73722 15.9474 5.49316 16.911C5.50396 16.9265 5.51476 16.942 5.52196 16.9574H0C0.00719942 16.942 0.0215983 16.9226 0.0323974 16.9071C0.583153 16.2067 1.12311 15.4985 1.66667 14.7903L2.11663 14.2021C2.35781 13.8964 2.4658 13.4978 2.41901 13.1031C2.41541 13.0567 2.41541 13.0064 2.41901 12.9599V10.9244C2.41181 8.4168 2.41181 5.9053 2.41901 3.39768C2.42981 2.99522 2.29662 2.6005 2.04464 2.30253C1.73506 1.91555 1.43269 1.5247 1.13031 1.13385C0.856732 0.777828 0.586753 0.425677 0.309575 0.0773959C0.291577 0.0541771 0.273578 0.0270885 0.259179 0H5.75234C7.06983 3.11518 8.39093 6.23037 9.70842 9.33781L10.2232 10.5491C10.2376 10.5839 10.252 10.6187 10.2736 10.6613L10.5832 11.3346L11.0367 10.1311C12.293 6.7644 13.5493 3.38994 14.8128 0H20L19.982 0.0154792C19.6112 0.37537 19.2477 0.75461 18.8949 1.12224C18.7473 1.27316 18.6033 1.42408 18.4557 1.57501C18.2901 1.74141 18.2001 1.97746 18.2109 2.22513Z" fill="white"/>
</svg>
