<svg width="20" height="17" viewBox="0 0 20 17" fill="none" xmlns="http://www.w3.org/2000/svg">
<path d="M20 2.45164C19.551 2.96158 19.0419 3.4166 18.4807 3.80887C18.3885 3.87555 18.3363 3.98146 18.3403 4.09129C18.3564 4.30704 18.3564 4.48356 18.3564 4.64831C18.3283 7.7158 17.1738 10.6695 15.1052 12.976C12.744 15.6081 9.3165 17.0791 5.74063 16.9967C3.78833 17.0006 1.8641 16.5574 0.116256 15.7062C2.14071 15.6473 4.093 14.957 5.68851 13.7409C5.80076 13.6546 5.84486 13.5134 5.80076 13.3801C5.75666 13.2506 5.63239 13.1604 5.49208 13.1565C3.88455 13.1172 2.43736 12.1954 1.75185 10.7754C1.86009 10.7833 1.96833 10.7833 2.09661 10.7833C2.52957 10.7872 2.95851 10.7323 3.37543 10.6264C3.52375 10.5872 3.62397 10.4538 3.61996 10.3008C3.61596 10.1517 3.50371 10.0223 3.35538 9.99092C1.56344 9.63003 0.216476 8.19043 0 6.41741C0.537182 6.63315 1.11044 6.75083 1.68771 6.7626C1.83604 6.77044 1.96833 6.6763 2.01243 6.53509C2.05652 6.3978 2.00441 6.24874 1.88415 6.16636C0.71357 5.40537 0.0120265 4.11483 0.0120265 2.73799C0.0120265 2.16529 0.132291 1.59651 0.37282 1.07088C2.73802 3.70295 6.0894 5.29162 9.66526 5.46813C9.76949 5.47206 9.86971 5.42891 9.93786 5.35046C10.006 5.272 10.0301 5.17001 10.006 5.06803C9.93786 4.75814 9.90579 4.44041 9.9098 4.12267C9.91381 1.85148 11.798 0.00392262 14.1231 0C15.2896 0.00392262 16.4041 0.474637 17.2018 1.30623C17.282 1.38861 17.3983 1.42391 17.5105 1.4043C18.2441 1.26308 18.9617 1.03557 19.6392 0.729608C19.2784 1.32977 18.7693 1.83186 18.1559 2.18882C18.0196 2.26728 17.9595 2.4281 18.0116 2.57324C18.0637 2.71838 18.2121 2.8086 18.3684 2.78898C18.9256 2.7223 19.4668 2.60854 20 2.45164Z" fill="#131740"/>
</svg>
