<svg width="20" height="15" viewBox="0 0 20 15" fill="none" xmlns="http://www.w3.org/2000/svg">
<path d="M16.365 14.2848H3.63323C2.67063 14.282 1.74822 13.8887 1.06748 13.1909C0.386732 12.4931 0.00296149 11.5474 0 10.5604V3.72432C0.00296149 2.73734 0.386732 1.79167 1.06748 1.09385C1.74822 0.396026 2.67063 0.00277291 3.63323 -2.9008e-05H16.3668C17.3294 0.00277291 18.2518 0.396026 18.9325 1.09385C19.6133 1.79167 19.997 2.73734 20 3.72432V10.5604C19.997 11.5477 19.613 12.4937 18.9319 13.1915C18.2508 13.8894 17.3279 14.2825 16.365 14.2848V14.2848ZM10.5604 5.12129L7.45727 3.15333V11.0252L10.5604 9.05723L13.6634 7.08926L10.5604 5.12129Z" fill="white"/>
</svg>
