<svg width="22" height="22" viewBox="0 0 22 22" fill="none" xmlns="http://www.w3.org/2000/svg">
<path d="M11 22C17.0751 22 22 17.0751 22 11C22 4.92487 17.0751 0 11 0C4.92487 0 0 4.92487 0 11C0 17.0751 4.92487 22 11 22Z" fill="#DCF1FF"/>
<path d="M17.0204 13.5112L13.3386 9.89363L12.3275 10.8871L16.0092 14.5048C16.1216 14.6152 16.2754 14.6756 16.4369 14.6731C16.5984 14.6706 16.7544 14.6051 16.8704 14.4911L16.9994 14.3643C17.1155 14.2503 17.1821 14.097 17.1847 13.9383C17.1873 13.7796 17.1257 13.6285 17.0134 13.5181L17.0204 13.5112Z" stroke="#40B2FF" stroke-width="0.5"/>
<path d="M4.80158 14.7791H11.8094C11.9106 14.7791 12.011 14.7987 12.1045 14.8368C12.198 14.8748 12.283 14.9307 12.3546 15.001C12.4262 15.0713 12.4828 15.1548 12.5215 15.2467C12.5602 15.3386 12.5804 15.437 12.5804 15.5365V16.1146C12.5819 16.1398 12.5777 16.1649 12.5685 16.1885C12.5594 16.2121 12.5456 16.2337 12.5274 16.2515C12.5092 16.2694 12.4871 16.2834 12.4631 16.2924C12.439 16.3014 12.4135 16.3053 12.3878 16.3038H4.19295C4.16726 16.3053 4.14173 16.3014 4.11768 16.2924C4.09364 16.2834 4.0715 16.2694 4.0533 16.2515C4.03511 16.2337 4.02087 16.2121 4.01171 16.1885C4.00254 16.1649 3.99884 16.1398 4.00032 16.1146V15.5365C4.00024 15.4345 4.0211 15.3336 4.06172 15.2397C4.10235 15.1458 4.1617 15.0608 4.23653 14.99C4.31136 14.9193 4.39996 14.8643 4.49702 14.828C4.59407 14.7918 4.69782 14.7751 4.80158 14.7791ZM6.92129 9.21831L12.1061 4.05231C12.1435 4.0187 12.1921 4 12.2428 4C12.2935 4 12.3426 4.0187 12.38 4.05231L13.0788 4.72505L14.8638 6.48396C14.8832 6.50079 14.8987 6.52159 14.9093 6.54479C14.92 6.56798 14.9252 6.59306 14.9252 6.61851C14.9252 6.64395 14.92 6.66903 14.9093 6.69222C14.8987 6.71542 14.8832 6.73622 14.8638 6.75305L13.0875 8.52078L13.3614 8.78986C13.4341 8.86114 13.4919 8.94581 13.5312 9.039C13.5706 9.13219 13.5907 9.23201 13.5907 9.3329C13.5907 9.4338 13.5706 9.53385 13.5312 9.62705C13.4919 9.72024 13.4341 9.80491 13.3614 9.87618L12.266 10.9523C12.1934 11.0237 12.1073 11.0805 12.0124 11.1192C11.9176 11.1578 11.816 11.1776 11.7133 11.1776C11.6106 11.1776 11.509 11.1578 11.4142 11.1192C11.3193 11.0805 11.2332 11.0237 11.1606 10.9523L10.8868 10.6832L9.68887 11.9188C9.64982 11.9531 9.59962 11.9721 9.54723 11.9721C9.49485 11.9721 9.44416 11.9531 9.40511 11.9188L6.92129 9.4874C6.90187 9.47057 6.88639 9.44977 6.87573 9.42658C6.86508 9.40338 6.85939 9.37831 6.85939 9.35286C6.85939 9.32741 6.86508 9.30209 6.87573 9.2789C6.88639 9.2557 6.90187 9.23515 6.92129 9.21831Z" stroke="#40B2FF" stroke-width="0.5"/>
</svg>
