<svg width="20" height="20" viewBox="0 0 20 20" fill="none" xmlns="http://www.w3.org/2000/svg">
<path d="M10 20C15.5228 20 20 15.5228 20 10C20 4.47715 15.5228 0 10 0C4.47715 0 0 4.47715 0 10C0 15.5228 4.47715 20 10 20Z" fill="#FDEDF3"/>
<path d="M7.5 7V5.5C7.5 5.36739 7.55268 5.24021 7.64645 5.14645C7.74021 5.05268 7.86739 5 8 5H12C12.1326 5 12.2598 5.05268 12.3536 5.14645C12.4473 5.24021 12.5 5.36739 12.5 5.5V7H14.5C14.6326 7 14.7598 7.05268 14.8536 7.14645C14.9473 7.24021 15 7.36739 15 7.5V14.5C15 14.6326 14.9473 14.7598 14.8536 14.8536C14.7598 14.9473 14.6326 15 14.5 15H5.5C5.36739 15 5.24021 14.9473 5.14645 14.8536C5.05268 14.7598 5 14.6326 5 14.5V7.5C5 7.36739 5.05268 7.24021 5.14645 7.14645C5.24021 7.05268 5.36739 7 5.5 7H7.5ZM8.5 11H6V14H14V11H11.5V12.5H8.5V11ZM14 8H6V10H8.5V9H11.5V10H14V8ZM9.5 10V11.5H10.5V10H9.5ZM8.5 6V7H11.5V6H8.5Z" fill="#C56B74"/>
</svg>
