<svg xmlns="http://www.w3.org/2000/svg" viewBox="0 0 73.5 56.62"><defs><style>.cls-1{fill:none;stroke:#fff;stroke-miterlimit:10;stroke-width:2.5px;}</style></defs><g id="Graphic_Elements" data-name="Graphic Elements"><path class="cls-1" d="M61.45,5.82a.16.16,0,0,0-.1-.08A58.41,58.41,0,0,0,46.9,1.25a.24.24,0,0,0-.23.11c-.62,1.11-1.31,2.56-1.8,3.7a53.85,53.85,0,0,0-16.23,0,36.29,36.29,0,0,0-1.83-3.7.24.24,0,0,0-.23-.11A58.67,58.67,0,0,0,12.13,5.74a.16.16,0,0,0-.1.08C2.83,19.57.31,33,1.54,46.23a.3.3,0,0,0,.1.17,59,59,0,0,0,17.72,9,.23.23,0,0,0,.25-.08,42.1,42.1,0,0,0,3.63-5.9.24.24,0,0,0-.12-.32,38,38,0,0,1-5.54-2.64.22.22,0,0,1,0-.37c.37-.28.74-.57,1.1-.87a.23.23,0,0,1,.23,0,42,42,0,0,0,35.68,0,.24.24,0,0,1,.23,0c.36.29.73.59,1.1.87a.22.22,0,0,1,0,.37,35.63,35.63,0,0,1-5.54,2.64.24.24,0,0,0-.12.32,47.72,47.72,0,0,0,3.63,5.89.21.21,0,0,0,.24.09,58.68,58.68,0,0,0,17.76-9,.2.2,0,0,0,.09-.17A59.57,59.57,0,0,0,61.45,5.82ZM25,38.16c-3.5,0-6.38-3.21-6.38-7.15s2.82-7.16,6.38-7.16,6.43,3.24,6.38,7.16S28.53,38.16,25,38.16Zm23.59,0c-3.5,0-6.38-3.21-6.38-7.15s2.82-7.16,6.38-7.16S55,27.09,55,31,52.15,38.16,48.57,38.16Z"/></g></svg>