<svg width="10" height="21" viewBox="0 0 10 21" fill="none" xmlns="http://www.w3.org/2000/svg">
<path d="M0.320711 11.1847H2.48841V20.6597C2.48841 20.8483 2.63138 21 2.80912 21H6.48764C6.66538 21 6.80835 20.8483 6.80835 20.6597V11.2298H9.30062C9.46291 11.2298 9.59815 11.1027 9.61747 10.9305L9.99614 7.44143C10.0077 7.34713 9.97682 7.24873 9.91886 7.17903C9.85703 7.10523 9.77203 7.06423 9.67929 7.06423H6.80835V4.87895C6.80835 4.21886 7.14451 3.88676 7.80139 3.88676C7.89413 3.88676 9.67929 3.88676 9.67929 3.88676C9.85703 3.88676 10 3.73506 10 3.54647V0.344397C10 0.155799 9.85703 0.00409996 9.67929 0.00409996H7.09042C7.0711 0.00409996 7.03246 0 6.97063 0C6.52241 0 4.96136 0.0942992 3.72875 1.29559C2.3609 2.63628 2.55023 4.23116 2.5966 4.50586V7.06423H0.320711C0.142968 7.06423 0 7.21593 0 7.40453V10.8485C0 11.033 0.142968 11.1847 0.320711 11.1847Z" fill="#A1A2B3"/>
</svg>
