<svg width="12" height="12" viewBox="0 0 12 12" fill="none" xmlns="http://www.w3.org/2000/svg">
<path d="M7.33333 4.66667V7.33333H4.66667V4.66667H7.33333ZM8.66667 4.66667H12V7.33333H8.66667V4.66667ZM7.33333 12H4.66667V8.66667H7.33333V12ZM8.66667 12V8.66667H12V11.3333C12 11.5101 11.9298 11.6797 11.8047 11.8047C11.6797 11.9298 11.5101 12 11.3333 12H8.66667ZM7.33333 0V3.33333H4.66667V0H7.33333ZM8.66667 0H11.3333C11.5101 0 11.6797 0.0702379 11.8047 0.195262C11.9298 0.320286 12 0.489856 12 0.666667V3.33333H8.66667V0ZM3.33333 4.66667V7.33333H0V4.66667H3.33333ZM3.33333 12H0.666667C0.489856 12 0.320286 11.9298 0.195262 11.8047C0.0702379 11.6797 0 11.5101 0 11.3333V8.66667H3.33333V12ZM3.33333 0V3.33333H0V0.666667C0 0.489856 0.0702379 0.320286 0.195262 0.195262C0.320286 0.0702379 0.489856 0 0.666667 0H3.33333Z" fill="#131740"/>
</svg>
