<svg width="20" height="20" viewBox="0 0 20 20" fill="none" xmlns="http://www.w3.org/2000/svg">
<circle cx="10" cy="10" r="10" fill="#00A3FF"/>
<path d="M13.7501 6.66699C13.7501 8.74305 12.1035 10.417 10.0834 10.417C8.06331 10.417 6.41675 8.74305 6.41675 6.66699C6.41675 4.59094 8.06331 2.91699 10.0834 2.91699C12.1035 2.91699 13.7501 4.59094 13.7501 6.66699Z" stroke="white" stroke-width="0.5"/>
<mask id="path-3-inside-1_5487_9550" fill="white">
<path fill-rule="evenodd" clip-rule="evenodd" d="M2 16.3325C2.24291 15.8393 2.53554 15.367 2.87543 14.9231C4.00078 13.4531 5.58482 12.3701 7.39514 11.833C8.12916 12.4133 9.04876 12.7305 9.9977 12.7307C10.9481 12.7311 11.8695 12.4139 12.6049 11.833C14.4152 12.3701 15.9992 13.4531 17.1246 14.9231C17.4645 15.367 17.7571 15.8392 18 16.3325C16.0886 18.5737 13.2142 19.9995 9.99999 19.9995C6.78576 19.9995 3.91144 18.5737 2 16.3325Z"/>
</mask>
<path d="M2 16.3325L1.55144 16.1116L1.40612 16.4067L1.61957 16.657L2 16.3325ZM2.87543 14.9231L3.27245 15.227L2.87543 14.9231ZM7.39514 11.833L7.70523 11.4408L7.50167 11.2799L7.25291 11.3537L7.39514 11.833ZM9.9977 12.7307L9.9979 12.2307H9.99784L9.9977 12.7307ZM12.6049 11.833L12.7471 11.3537L12.4985 11.2799L12.2949 11.4407L12.6049 11.833ZM17.1246 14.9231L17.5216 14.6191V14.6191L17.1246 14.9231ZM18 16.3325L18.3804 16.6569L18.5939 16.4067L18.4486 16.1116L18 16.3325ZM2.44856 16.5534C2.67702 16.0895 2.95238 15.6451 3.27245 15.227L2.47842 14.6191C2.11869 15.089 1.80879 15.589 1.55144 16.1116L2.44856 16.5534ZM3.27245 15.227C4.33217 13.8428 5.8262 12.8201 7.53736 12.3124L7.25291 11.3537C5.34344 11.9202 3.66939 13.0635 2.47842 14.6191L3.27245 15.227ZM7.08505 12.2252C7.90869 12.8764 8.93788 13.2304 9.99756 13.2307L9.99784 12.2307C9.15964 12.2305 8.34963 11.9502 7.70523 11.4408L7.08505 12.2252ZM9.9975 13.2307C11.0587 13.2312 12.0897 12.8771 12.9148 12.2254L12.2949 11.4407C11.6492 11.9507 10.8375 12.2311 9.9979 12.2307L9.9975 13.2307ZM12.4627 12.3124C14.1738 12.8201 15.6678 13.8428 16.7276 15.227L17.5216 14.6191C16.3306 13.0635 14.6566 11.9202 12.7471 11.3537L12.4627 12.3124ZM16.7276 15.227C17.0476 15.6451 17.323 16.0895 17.5514 16.5534L18.4486 16.1116C18.1912 15.589 17.8813 15.089 17.5216 14.6191L16.7276 15.227ZM17.6196 16.008C15.8004 18.1411 13.0637 19.4995 9.99999 19.4995V20.4995C13.3648 20.4995 16.3767 19.0064 18.3804 16.6569L17.6196 16.008ZM9.99999 19.4995C6.9363 19.4995 4.19959 18.1411 2.38043 16.008L1.61957 16.657C3.62329 19.0064 6.63523 20.4995 9.99999 20.4995V19.4995Z" fill="white" mask="url(#path-3-inside-1_5487_9550)"/>
</svg>
