<svg width="29" height="29" viewBox="0 0 29 29" fill="none" xmlns="http://www.w3.org/2000/svg">
<path d="M21.8099 7.2901C21.8318 8.75817 21.4164 10.1995 20.6166 11.4308C19.8169 12.6622 18.6689 13.6278 17.3188 14.2048C15.9687 14.7818 14.4775 14.9441 13.0349 14.6711C11.5922 14.3981 10.2634 13.7021 9.21748 12.6717C8.17154 11.6413 7.45576 10.3231 7.1612 8.88471C6.86664 7.44633 7.00662 5.95277 7.56333 4.59418C8.12004 3.23559 9.06831 2.0734 10.2875 1.25531C11.5067 0.437221 12.9417 0.00022514 14.4099 6.29175e-05C16.356 -0.00797314 18.2262 0.754077 19.6126 2.11981C20.9989 3.48555 21.7888 5.34415 21.8099 7.2901V7.2901Z" fill="black"/>
<path d="M28.82 26.3601C28.8174 26.6831 28.7512 27.0026 28.6251 27.3C28.4991 27.5975 28.3157 27.8671 28.0854 28.0937C27.8551 28.3203 27.5824 28.4994 27.2829 28.6206C26.9835 28.7418 26.6631 28.8028 26.34 28.8001H2.47C1.81929 28.8028 1.19403 28.5475 0.731097 28.0902C0.268167 27.6329 0.00528492 27.0108 0 26.3601C0.00785136 25.2517 0.233942 24.1558 0.665361 23.1349C1.09678 22.1139 1.72508 21.1878 2.51438 20.4096C3.30369 19.6315 4.23854 19.0164 5.26555 18.5996C6.29257 18.1827 7.39164 17.9722 8.5 17.9801H20.31C22.5494 17.9641 24.7035 18.8377 26.2992 20.409C27.8948 21.9803 28.8015 24.1207 28.82 26.3601Z" fill="black"/>
</svg>
