<svg width="36" height="36" viewBox="0 0 36 36" fill="none" xmlns="http://www.w3.org/2000/svg">
<path d="M18.25 35.14C27.915 35.14 35.75 27.305 35.75 17.64C35.75 7.97503 27.915 0.139999 18.25 0.139999C8.58502 0.139999 0.75 7.97503 0.75 17.64C0.75 27.305 8.58502 35.14 18.25 35.14Z" fill="#F2E8FF"/>
<path d="M21.8401 9.38998H26.2501V13.51" stroke="#8974DB" stroke-width="2" stroke-miterlimit="10"/>
<path d="M10.04 13.51V9.38998H14.37" stroke="#8974DB" stroke-width="2" stroke-miterlimit="10"/>
<path d="M21.75 25.59H26.17V21.47" stroke="#8974DB" stroke-width="2" stroke-miterlimit="10"/>
<path d="M10 21.47V25.59H14.33" stroke="#8974DB" stroke-width="2" stroke-miterlimit="10"/>
<path d="M19.12 12.44H17.12L12.75 22.54H14.45L15.7 19.54H20.47L21.75 22.54H23.53L19.12 12.44ZM16.2 18.2L17.4 15.42C17.59 14.95 17.74 14.49 17.89 14.03H18.23C18.3793 14.5053 18.5528 14.9725 18.75 15.43L19.95 18.2H16.2Z" fill="#8974DB"/>
</svg>
