<svg width="8" height="8" viewBox="0 0 8 8" fill="none" xmlns="http://www.w3.org/2000/svg">
<path d="M7 1L4 4.30665M7 1V2.85999M7 1H5.3125M6.625 4.51332V6.29065C6.625 6.75362 6.625 6.98511 6.54325 7.16194C6.47135 7.31749 6.35661 7.44395 6.21549 7.52321C6.05506 7.61331 5.84504 7.61331 5.425 7.61331H2.2C1.77996 7.61331 1.56994 7.61331 1.40951 7.52321C1.26839 7.44395 1.15365 7.31749 1.08175 7.16194C1 6.98511 1 6.75362 1 6.29065V2.73599C1 2.27302 1 2.04153 1.08175 1.8647C1.15365 1.70915 1.26839 1.58269 1.40951 1.50343C1.56994 1.41333 1.77996 1.41333 2.2 1.41333H3.8125" stroke="white" stroke-width="0.5" stroke-linecap="round" stroke-linejoin="round"/>
</svg>
