<svg width="20" height="20" viewBox="0 0 20 20" fill="none" xmlns="http://www.w3.org/2000/svg">
<path d="M18.3334 5H12.5001C11.174 5 9.90223 5.52678 8.96455 6.46447C8.02687 7.40215 7.50008 8.67392 7.50008 10C7.50008 11.3261 8.02687 12.5979 8.96455 13.5355C9.90223 14.4732 11.174 15 12.5001 15H18.3334V16.6667C18.3334 16.8877 18.2456 17.0996 18.0893 17.2559C17.9331 17.4122 17.7211 17.5 17.5001 17.5H2.50008C2.27907 17.5 2.06711 17.4122 1.91083 17.2559C1.75455 17.0996 1.66675 16.8877 1.66675 16.6667V3.33333C1.66675 3.11232 1.75455 2.90036 1.91083 2.74408C2.06711 2.5878 2.27907 2.5 2.50008 2.5H17.5001C17.7211 2.5 17.9331 2.5878 18.0893 2.74408C18.2456 2.90036 18.3334 3.11232 18.3334 3.33333V5ZM12.5001 6.66667H19.1667V13.3333H12.5001C11.616 13.3333 10.7682 12.9821 10.1431 12.357C9.51794 11.7319 9.16675 10.8841 9.16675 10C9.16675 9.11594 9.51794 8.2681 10.1431 7.64298C10.7682 7.01786 11.616 6.66667 12.5001 6.66667V6.66667ZM12.5001 9.16667V10.8333H15.0001V9.16667H12.5001Z" fill="white"/>
</svg>
