<svg width="15" height="15" viewBox="0 0 15 15" fill="none" xmlns="http://www.w3.org/2000/svg">
<path d="M1 0.5C0.723858 0.5 0.5 0.723858 0.5 1C0.5 1.27614 0.723858 1.5 1 1.5V0.5ZM2.35047 1.9458L1.85902 2.03791L2.35047 1.9458ZM3.93296 10.3889L3.44152 10.481C3.48585 10.7175 3.69234 10.8889 3.93296 10.8889L3.93296 10.3889ZM1.85969 1.06173L1.65997 1.52011H1.65997L1.85969 1.06173ZM2.16859 1.315L1.75765 1.59983L2.16859 1.315ZM2.83308 2.66667C2.55694 2.66667 2.33308 2.89052 2.33308 3.16667C2.33308 3.44281 2.55694 3.66667 2.83308 3.66667V2.66667ZM13.8666 4.58202L13.3798 4.46796V4.46796L13.8666 4.58202ZM12.716 9.49313L13.2028 9.60718L12.716 9.49313ZM11.5728 10.3889V9.88889H11.5728L11.5728 10.3889ZM12.5155 10.0922L12.9174 10.3896L12.5155 10.0922ZM12.2108 10.331L12.0172 9.87L12.2108 10.331ZM13.6527 3.26916L13.3988 3.6999L13.6527 3.26916ZM13.9743 3.6669L13.4992 3.82272L13.9743 3.6669ZM11.9985 13.5C11.8625 13.5 11.7653 13.3934 11.7653 13.2778H10.7653C10.7653 13.9599 11.3246 14.5 11.9985 14.5V13.5ZM12.2317 13.2778C12.2317 13.3934 12.1345 13.5 11.9985 13.5V14.5C12.6724 14.5 13.2317 13.9599 13.2317 13.2778H12.2317ZM11.9985 13.0556C12.1345 13.0556 12.2317 13.1622 12.2317 13.2778H13.2317C13.2317 12.5957 12.6724 12.0556 11.9985 12.0556V13.0556ZM11.9985 12.0556C11.3246 12.0556 10.7653 12.5957 10.7653 13.2778H11.7653C11.7653 13.1622 11.8625 13.0556 11.9985 13.0556V12.0556ZM4.66617 13.5C4.5302 13.5 4.43293 13.3934 4.43293 13.2778H3.43293C3.43293 13.9599 3.99223 14.5 4.66617 14.5V13.5ZM4.8994 13.2778C4.8994 13.3934 4.80214 13.5 4.66617 13.5V14.5C5.3401 14.5 5.8994 13.9599 5.8994 13.2778H4.8994ZM4.66617 13.0556C4.80214 13.0556 4.8994 13.1622 4.8994 13.2778H5.8994C5.8994 12.5957 5.3401 12.0556 4.66617 12.0556V13.0556ZM4.66617 12.0556C3.99223 12.0556 3.43293 12.5957 3.43293 13.2778H4.43293C4.43293 13.1622 4.5302 13.0556 4.66617 13.0556V12.0556ZM1 1.5H1.19676V0.5H1V1.5ZM1.85902 2.03791L3.44152 10.481L4.4244 10.2968L2.84191 1.85369L1.85902 2.03791ZM1.19676 1.5C1.37778 1.5 1.48662 1.50032 1.56857 1.50636C1.60644 1.50916 1.62931 1.51264 1.64316 1.51552C1.65574 1.51815 1.65989 1.52008 1.65997 1.52011L2.05941 0.603353C1.91657 0.54112 1.77546 0.518907 1.64215 0.509072C1.51491 0.499685 1.36313 0.5 1.19676 0.5V1.5ZM2.84191 1.85369C2.81177 1.69292 2.7844 1.54494 2.75172 1.42251C2.71735 1.29379 2.66886 1.15906 2.57953 1.03017L1.75765 1.59983C1.75768 1.59987 1.75777 1.6 1.75793 1.60027C1.75809 1.60053 1.7584 1.60105 1.75885 1.60188C1.75972 1.6035 1.76139 1.60679 1.76375 1.61243C1.76872 1.6243 1.77607 1.6449 1.78556 1.68045C1.8062 1.7578 1.82609 1.8622 1.85902 2.03791L2.84191 1.85369ZM1.65997 1.52011C1.70037 1.53772 1.73395 1.56564 1.75765 1.59983L2.57953 1.03017C2.44919 0.842127 2.26884 0.694607 2.05941 0.603353L1.65997 1.52011ZM2.83308 3.66667H12.7235V2.66667H2.83308V3.66667ZM13.3798 4.46796L12.2292 9.37907L13.2028 9.60718L14.3534 4.69607L13.3798 4.46796ZM11.5728 9.88889L3.93296 9.88892L3.93296 10.8889L11.5728 10.8889L11.5728 9.88889ZM12.2292 9.37907C12.19 9.54625 12.1665 9.64514 12.1436 9.71837C12.1331 9.75195 12.1253 9.77136 12.1201 9.78253C12.1176 9.78785 12.1159 9.79098 12.115 9.79255C12.1141 9.79405 12.1136 9.79461 12.1136 9.79467L12.9174 10.3896C13.0074 10.268 13.0594 10.1401 13.0979 10.0173C13.1344 9.9008 13.167 9.75982 13.2028 9.60718L12.2292 9.37907ZM11.5728 10.8889C11.7324 10.8889 11.8783 10.8892 12.001 10.8804C12.1297 10.8711 12.2659 10.8502 12.4045 10.7919L12.0172 9.87C12.0169 9.87011 12.0128 9.87194 12.0007 9.87439C11.9874 9.87708 11.9655 9.88033 11.9292 9.88294C11.8507 9.88859 11.7466 9.88889 11.5728 9.88889V10.8889ZM12.1136 9.79467C12.0895 9.82727 12.0564 9.85352 12.0172 9.87L12.4045 10.7919C12.6085 10.7062 12.7857 10.5675 12.9174 10.3896L12.1136 9.79467ZM12.7235 3.66667C12.9843 3.66667 13.1476 3.66711 13.2685 3.67761C13.3857 3.68778 13.4056 3.70393 13.3988 3.6999L13.9066 2.83843C13.7259 2.7319 13.5331 2.69681 13.355 2.68135C13.1807 2.66622 12.9664 2.66667 12.7235 2.66667V3.66667ZM14.3534 4.69607C14.4079 4.46338 14.4569 4.25659 14.4813 4.08473C14.5063 3.90879 14.5153 3.71216 14.4494 3.51107L13.4992 3.82272C13.4955 3.81157 13.5074 3.83075 13.4913 3.94401C13.4746 4.06135 13.4385 4.21715 13.3798 4.46796L14.3534 4.69607ZM13.3988 3.6999C13.4482 3.72902 13.483 3.77348 13.4992 3.82272L14.4494 3.51107C14.3563 3.22728 14.1621 2.98903 13.9066 2.83843L13.3988 3.6999Z" fill="#fff"/>
<path d="M10 9H6V8.5H10V9ZM8 8L6.28571 6.5L6.68857 6.1475L7.71429 7.0425V4H8.28571V7.0425L9.31143 6.1475L9.71429 6.5L8 8Z" fill="#fff"/>
</svg>
