<svg width="36" height="36" viewBox="0 0 36 36" fill="none" xmlns="http://www.w3.org/2000/svg">
<path d="M18.25 35.53C27.915 35.53 35.75 27.695 35.75 18.03C35.75 8.36502 27.915 0.529999 18.25 0.529999C8.58502 0.529999 0.75 8.36502 0.75 18.03C0.75 27.695 8.58502 35.53 18.25 35.53Z" fill="#FFEEFB"/>
<path d="M15.75 27.64C15.2847 27.6413 14.8238 27.5507 14.3937 27.3732C13.9636 27.1958 13.5729 26.9351 13.2439 26.6061C12.9149 26.2771 12.6542 25.8863 12.4768 25.4563C12.2993 25.0262 12.2087 24.5652 12.21 24.1C12.2087 23.6343 12.2993 23.1729 12.4766 22.7422C12.6539 22.3116 12.9144 21.9201 13.2433 21.5904C13.5721 21.2606 13.9628 20.9989 14.393 20.8204C14.8231 20.6419 15.2843 20.55 15.75 20.55C16.247 20.5471 16.7398 20.6422 17.2 20.83C17.649 21.0124 18.0495 21.2965 18.37 21.66V8.39999H24.29V11.15H19.29V24.15C19.3067 24.6149 19.2264 25.0781 19.0542 25.5103C18.8821 25.9424 18.6218 26.334 18.29 26.66C17.9556 26.9876 17.5578 27.2435 17.121 27.412C16.6843 27.5805 16.2178 27.6581 15.75 27.64Z" fill="#FF6ED6"/>
</svg>
