<svg width="14" height="14" viewBox="0 0 14 14" fill="none" xmlns="http://www.w3.org/2000/svg">
<path d="M3.1135 11C3.25123 10.6096 3.50666 10.2716 3.84456 10.0325C4.18247 9.79343 4.58622 9.66503 5.00016 9.66503C5.4141 9.66503 5.81786 9.79343 6.15576 10.0325C6.49367 10.2716 6.74909 10.6096 6.88683 11H13.6668V12.3333H6.88683C6.74909 12.7237 6.49367 13.0617 6.15576 13.3008C5.81786 13.5399 5.4141 13.6683 5.00016 13.6683C4.58622 13.6683 4.18247 13.5399 3.84456 13.3008C3.50666 13.0617 3.25123 12.7237 3.1135 12.3333H0.333496V11H3.1135ZM7.1135 6.33333C7.25123 5.94297 7.50666 5.60495 7.84456 5.36586C8.18247 5.12676 8.58622 4.99836 9.00016 4.99836C9.41411 4.99836 9.81786 5.12676 10.1558 5.36586C10.4937 5.60495 10.7491 5.94297 10.8868 6.33333H13.6668V7.66666H10.8868C10.7491 8.05702 10.4937 8.39504 10.1558 8.63414C9.81786 8.87323 9.41411 9.00163 9.00016 9.00163C8.58622 9.00163 8.18247 8.87323 7.84456 8.63414C7.50666 8.39504 7.25123 8.05702 7.1135 7.66666H0.333496V6.33333H7.1135ZM3.1135 1.66666C3.25123 1.27631 3.50666 0.938285 3.84456 0.699189C4.18247 0.460093 4.58622 0.331696 5.00016 0.331696C5.4141 0.331696 5.81786 0.460093 6.15576 0.699189C6.49367 0.938285 6.74909 1.27631 6.88683 1.66666H13.6668V3H6.88683C6.74909 3.39035 6.49367 3.72837 6.15576 3.96747C5.81786 4.20657 5.4141 4.33496 5.00016 4.33496C4.58622 4.33496 4.18247 4.20657 3.84456 3.96747C3.50666 3.72837 3.25123 3.39035 3.1135 3H0.333496V1.66666H3.1135Z" fill="#131740"/>
</svg>
