<svg width="14" height="12" viewBox="0 0 14 12" fill="none" xmlns="http://www.w3.org/2000/svg">
<path d="M13.3333 2H8.66667C7.6058 2 6.58839 2.42143 5.83824 3.17157C5.08809 3.92172 4.66667 4.93913 4.66667 6C4.66667 7.06087 5.08809 8.07828 5.83824 8.82843C6.58839 9.57857 7.6058 10 8.66667 10H13.3333V11.3333C13.3333 11.5101 13.2631 11.6797 13.1381 11.8047C13.013 11.9298 12.8435 12 12.6667 12H0.666667C0.489856 12 0.320286 11.9298 0.195262 11.8047C0.0702379 11.6797 0 11.5101 0 11.3333V0.666667C0 0.489856 0.0702379 0.320286 0.195262 0.195262C0.320286 0.0702379 0.489856 0 0.666667 0H12.6667C12.8435 0 13.013 0.0702379 13.1381 0.195262C13.2631 0.320286 13.3333 0.489856 13.3333 0.666667V2ZM8.66667 3.33333H14V8.66667H8.66667C7.95942 8.66667 7.28115 8.38572 6.78105 7.88562C6.28095 7.38552 6 6.70724 6 6C6 5.29276 6.28095 4.61448 6.78105 4.11438C7.28115 3.61428 7.95942 3.33333 8.66667 3.33333ZM8.66667 5.33333V6.66667H10.6667V5.33333H8.66667Z" fill="white"/>
</svg>
