<svg width="14" height="14" viewBox="0 0 14 14" fill="none" xmlns="http://www.w3.org/2000/svg">
<path d="M6.32386 0.0666504L12.9232 1.00998L13.8659 7.60998L7.73786 13.738C7.61284 13.863 7.4433 13.9332 7.26652 13.9332C7.08975 13.9332 6.92021 13.863 6.79519 13.738L0.195191 7.13798C0.0702103 7.01297 0 6.84343 0 6.66665C0 6.48987 0.0702103 6.32034 0.195191 6.19532L6.32386 0.0666504ZM6.79519 1.48132L1.60919 6.66665L7.26652 12.3233L12.4519 7.13798L11.7452 2.18798L6.79519 1.48132V1.48132ZM8.20852 5.72398C7.95843 5.4738 7.81796 5.1345 7.81802 4.78075C7.81805 4.60559 7.85258 4.43215 7.91964 4.27033C7.9867 4.10851 8.08498 3.96149 8.20886 3.83765C8.33274 3.71381 8.4798 3.61559 8.64164 3.54859C8.80348 3.48158 8.97693 3.44711 9.15209 3.44714C9.50585 3.44721 9.84509 3.5878 10.0952 3.83798C10.3453 4.08817 10.4858 4.42746 10.4857 4.78122C10.4856 5.13498 10.345 5.47422 10.0949 5.72432C9.84467 5.97442 9.50538 6.11489 9.15162 6.11482C8.79787 6.11476 8.45862 5.97417 8.20852 5.72398V5.72398Z" fill="#131740"/>
</svg>
