<svg width="17" height="17" viewBox="0 0 17 17" fill="none" xmlns="http://www.w3.org/2000/svg">
<path d="M10.9999 11H13.3332C14.2666 11 14.7331 11 15.0897 10.8183C15.4033 10.6585 15.6586 10.4036 15.8183 10.09C16 9.73351 16 9.26679 16 8.33337V3.66669C16 2.73327 16 2.26655 15.8183 1.91003C15.6586 1.59643 15.4033 1.34144 15.0897 1.18166C14.7331 1 14.2668 1 13.3334 1H8.66674C7.73333 1 7.26628 1 6.90976 1.18166C6.59616 1.34144 6.34138 1.59643 6.18159 1.91003C5.99994 2.26655 5.99994 2.73331 5.99994 3.66673V6.00006M1 13.3334V8.66673C1 7.73331 1 7.26655 1.18165 6.91003C1.34144 6.59643 1.59622 6.34144 1.90982 6.18166C2.26634 6 2.73339 6 3.6668 6H8.33341C9.26682 6 9.7332 6 10.0897 6.18166C10.4033 6.34144 10.6586 6.59643 10.8184 6.91003C11.0001 7.26655 11.0001 7.73326 11.0001 8.66669V13.3334C11.0001 14.2668 11.0001 14.7335 10.8184 15.09C10.6586 15.4036 10.4033 15.6585 10.0897 15.8183C9.7332 16 9.26682 16 8.33341 16H3.6668C2.73339 16 2.26634 16 1.90982 15.8183C1.59622 15.6585 1.34144 15.4036 1.18165 15.09C1 14.7335 1 14.2668 1 13.3334Z" stroke="#0071E3" stroke-linecap="round" stroke-linejoin="round"/>
</svg>
