<svg width="36" height="36" viewBox="0 0 36 36" fill="none" xmlns="http://www.w3.org/2000/svg">
<path d="M18.25 35.75C27.915 35.75 35.75 27.915 35.75 18.25C35.75 8.58502 27.915 0.75 18.25 0.75C8.58502 0.75 0.75 8.58502 0.75 18.25C0.75 27.915 8.58502 35.75 18.25 35.75Z" fill="#FFF6EE"/>
<path d="M13.5201 18.69C13.9129 18.7912 14.2874 18.9531 14.6301 19.17H21.8701C22.2128 18.9531 22.5874 18.7912 22.9801 18.69C23.0706 18.0268 23.124 17.3591 23.1401 16.69H13.3701C13.383 17.3589 13.4331 18.0266 13.5201 18.69V18.69Z" stroke="#FBB03B" stroke-width="0.5" stroke-miterlimit="10"/>
<path d="M24.24 18.56C25.0194 18.5845 25.7756 18.8308 26.42 19.27C26.9255 19.6096 27.338 20.0702 27.62 20.61C28.2073 19.3922 28.5472 18.07 28.62 16.72H24.36C24.34 17.33 24.3 17.96 24.24 18.56Z" stroke="#FBB03B" stroke-width="0.5" stroke-miterlimit="10"/>
<path d="M12.4901 12.13C11.5901 11.6157 10.7627 10.9834 10.0301 10.25L9.82012 10.02C8.66539 11.622 7.98918 13.5188 7.87012 15.49H12.1401C12.1658 14.3624 12.2828 13.2387 12.4901 12.13V12.13Z" stroke="#FBB03B" stroke-width="0.5" stroke-miterlimit="10"/>
<path d="M10.0801 19.27C10.7245 18.8308 11.4807 18.5845 12.2601 18.56C12.2001 17.96 12.1501 17.35 12.1401 16.72H7.87012C7.94286 18.07 8.28276 19.3922 8.87012 20.61C9.15487 20.0691 9.57093 19.6083 10.0801 19.27V19.27Z" stroke="#FBB03B" stroke-width="0.5" stroke-miterlimit="10"/>
<path d="M24.36 15.49H28.63C28.5164 13.5224 27.8433 11.6282 26.69 10.03L26.47 10.25C25.7394 10.9857 24.9118 11.6182 24.01 12.13C24.2173 13.2387 24.3344 14.3624 24.36 15.49Z" stroke="#FBB03B" stroke-width="0.5" stroke-miterlimit="10"/>
<path d="M13.8799 11.48C15.2477 12.1237 16.7383 12.4648 18.2499 12.48C19.7585 12.4668 21.2463 12.1256 22.6099 11.48C22.4249 10.6948 22.1774 9.92572 21.8699 9.17999C20.9599 7.05999 19.6599 5.70999 18.2499 5.70999C16.8399 5.70999 15.5299 7.06999 14.6299 9.20999C14.3218 9.94621 14.071 10.7051 13.8799 11.48V11.48Z" stroke="#FBB03B" stroke-width="0.5" stroke-miterlimit="10"/>
<path d="M22.8601 12.71C21.404 13.3368 19.8354 13.66 18.2501 13.66C16.6648 13.66 15.0962 13.3368 13.6401 12.71C13.482 13.6288 13.3918 14.558 13.3701 15.49H23.1401C23.1103 14.558 23.0168 13.6292 22.8601 12.71V12.71Z" stroke="#FBB03B" stroke-width="0.5" stroke-miterlimit="10"/>
<path d="M23.75 10.87C24.4294 10.4519 25.0571 9.95516 25.62 9.38998L25.83 9.16998L25.92 9.06999C24.7232 7.76871 23.2164 6.79166 21.54 6.22998C22.2528 7.11273 22.8168 8.10575 23.21 9.16998C23.4243 9.72518 23.6047 10.2929 23.75 10.87V10.87Z" stroke="#FBB03B" stroke-width="0.5" stroke-miterlimit="10"/>
<path d="M10.9001 9.38998C11.4568 9.95391 12.0777 10.4506 12.7501 10.87C12.8952 10.3071 13.0722 9.75286 13.2801 9.20999C13.6661 8.12205 14.2342 7.10761 14.9601 6.20999C13.2843 6.77285 11.7777 7.7497 10.5801 9.04999L10.7201 9.19998L10.9001 9.38998Z" stroke="#FBB03B" stroke-width="0.5" stroke-miterlimit="10"/>
<path d="M26.8299 22.33C26.8251 22.2901 26.8251 22.2498 26.8299 22.21C26.8141 21.8329 26.7077 21.4652 26.5197 21.138C26.3317 20.8107 26.0677 20.5336 25.7499 20.33C25.2559 19.9989 24.6746 19.8222 24.0799 19.8222C23.4852 19.8222 22.904 19.9989 22.4099 20.33C22.3104 20.4003 22.1918 20.4387 22.0699 20.44H14.4499C14.328 20.4387 14.2094 20.4003 14.1099 20.33C13.6138 19.9947 13.0287 19.8155 12.4299 19.8155C11.8311 19.8155 11.246 19.9947 10.7499 20.33C10.4239 20.5393 10.1548 20.8259 9.96635 21.1644C9.77792 21.5029 9.67609 21.8827 9.66992 22.27C9.67474 22.3098 9.67474 22.3501 9.66992 22.39L8.66992 27.62C8.59158 28.0098 8.60062 28.4121 8.6964 28.798C8.79217 29.1839 8.97229 29.5437 9.2238 29.8516C9.47531 30.1596 9.79195 30.4079 10.1509 30.5788C10.5099 30.7497 10.9023 30.8389 11.2999 30.84C11.9213 30.8387 12.5233 30.6232 13.0042 30.2297C13.4851 29.8362 13.8156 29.2888 13.9399 28.68L14.0199 28.27C14.0494 28.1323 14.1249 28.0088 14.234 27.9197C14.343 27.8307 14.4791 27.7814 14.6199 27.78C14.8309 27.7799 15.0354 27.7074 15.1993 27.5745C15.3632 27.4416 15.4763 27.2564 15.5199 27.05C15.5477 26.9115 15.6227 26.7869 15.7322 26.6975C15.8416 26.6082 15.9786 26.5595 16.1199 26.56H20.4599C20.6012 26.5595 20.7383 26.6082 20.8477 26.6975C20.9571 26.7869 21.0321 26.9115 21.0599 27.05C21.1052 27.2556 21.2188 27.4397 21.3823 27.5723C21.5458 27.7049 21.7494 27.7781 21.9599 27.78C22.1007 27.7814 22.2368 27.8307 22.3459 27.9197C22.4549 28.0088 22.5304 28.1323 22.5599 28.27L22.6399 28.68C22.7805 29.3802 23.1934 29.9958 23.7879 30.3915C24.3824 30.7872 25.1097 30.9306 25.8099 30.79C26.5101 30.6494 27.1257 30.2365 27.5214 29.642C27.9171 29.0475 28.0605 28.3202 27.9199 27.62L26.8299 22.33ZM12.1299 23.44C11.9803 23.4209 11.8428 23.3479 11.7431 23.2347C11.6435 23.1215 11.5885 22.9758 11.5885 22.825C11.5885 22.6742 11.6435 22.5285 11.7431 22.4153C11.8428 22.3021 11.9803 22.2291 12.1299 22.21C12.2173 22.1988 12.306 22.2064 12.3902 22.2322C12.4744 22.258 12.5521 22.3014 12.6182 22.3596C12.6843 22.4178 12.7372 22.4894 12.7735 22.5696C12.8097 22.6499 12.8285 22.7369 12.8285 22.825C12.8285 22.913 12.8097 23.0001 12.7735 23.0803C12.7372 23.1606 12.6843 23.2322 12.6182 23.2903C12.5521 23.3485 12.4744 23.392 12.3902 23.4178C12.306 23.4436 12.2173 23.4511 12.1299 23.44V23.44ZM14.5799 24.66C14.4593 24.66 14.3413 24.6242 14.241 24.5572C14.1407 24.4902 14.0625 24.3949 14.0164 24.2834C13.9702 24.172 13.9581 24.0493 13.9816 23.931C14.0052 23.8127 14.0633 23.704 14.1486 23.6187C14.2339 23.5333 14.3426 23.4752 14.4609 23.4517C14.5792 23.4282 14.7019 23.4403 14.8134 23.4864C14.9248 23.5326 15.0201 23.6108 15.0871 23.7111C15.1541 23.8114 15.1899 23.9293 15.1899 24.05C15.1912 24.1309 15.1764 24.2113 15.1464 24.2865C15.1163 24.3617 15.0716 24.4301 15.0148 24.4878C14.9581 24.5455 14.8904 24.5913 14.8157 24.6226C14.741 24.6539 14.6609 24.67 14.5799 24.67V24.66ZM21.9199 24.66C21.7993 24.66 21.6813 24.6242 21.581 24.5572C21.4807 24.4902 21.4025 24.3949 21.3564 24.2834C21.3102 24.172 21.2981 24.0493 21.3216 23.931C21.3452 23.8127 21.4033 23.704 21.4886 23.6187C21.5739 23.5333 21.6826 23.4752 21.8009 23.4517C21.9192 23.4282 22.0419 23.4403 22.1534 23.4864C22.2648 23.5326 22.3601 23.6108 22.4271 23.7111C22.4941 23.8114 22.5299 23.9293 22.5299 24.05C22.5312 24.1309 22.5164 24.2113 22.4864 24.2865C22.4563 24.3617 22.4116 24.4301 22.3548 24.4878C22.2981 24.5455 22.2304 24.5913 22.1557 24.6226C22.081 24.6539 22.0009 24.67 21.9199 24.67V24.66ZM24.3699 23.44C24.2465 23.442 24.1252 23.407 24.0218 23.3397C23.9183 23.2723 23.8373 23.1756 23.7891 23.0619C23.7409 22.9482 23.7278 22.8227 23.7514 22.7015C23.775 22.5803 23.8343 22.469 23.9216 22.3817C24.0089 22.2943 24.1203 22.2351 24.2415 22.2115C24.3627 22.1879 24.4881 22.201 24.6018 22.2492C24.7155 22.2973 24.8122 22.3783 24.8796 22.4818C24.947 22.5853 24.9819 22.7065 24.9799 22.83C24.9812 22.9109 24.9664 22.9913 24.9364 23.0665C24.9063 23.1417 24.8616 23.2101 24.8048 23.2678C24.7481 23.3255 24.6804 23.3713 24.6057 23.4026C24.531 23.4339 24.4509 23.45 24.3699 23.45V23.44Z" stroke="#FBB03B" stroke-width="0.5" stroke-miterlimit="10"/>
</svg>
