<svg width="15" height="14" viewBox="0 0 15 14" fill="none" xmlns="http://www.w3.org/2000/svg">
<path fill-rule="evenodd" clip-rule="evenodd" d="M10.8747 0.559445C11.6581 -0.186481 12.9156 -0.186482 13.699 0.559445C14.5003 1.32251 14.5003 2.57349 13.699 3.33656L9.711 7.13392C9.69731 7.14695 9.6838 7.15983 9.67045 7.17254C9.31313 7.5129 9.07612 7.73864 8.80212 7.92034C8.55988 8.08098 8.29915 8.21339 8.02547 8.31513C7.71667 8.42992 7.39069 8.49121 6.89378 8.58464C6.87563 8.58805 6.85726 8.59151 6.83865 8.59501L5.82022 8.78665C5.60288 8.82755 5.37964 8.75513 5.2277 8.59443C5.07576 8.43372 5.01596 8.20678 5.06897 7.99206L5.31532 6.99423C5.3197 6.97651 5.32402 6.95901 5.32828 6.94173C5.43594 6.50534 5.50869 6.21045 5.63167 5.93132C5.74046 5.68442 5.87742 5.45041 6.03975 5.23347C6.22279 4.98884 6.44564 4.77671 6.77934 4.45907C6.79225 4.44677 6.80533 4.43432 6.81858 4.42171L10.8747 0.559445ZM12.8025 1.50091C12.5212 1.23303 12.0525 1.23303 11.7712 1.50091L7.71504 5.36317C7.32835 5.73138 7.19027 5.86576 7.08063 6.0123C6.97683 6.15102 6.88996 6.2997 6.82131 6.4555C6.7493 6.61893 6.70274 6.79826 6.57743 7.30584L6.57341 7.32211L6.59824 7.31743C7.16911 7.21001 7.38013 7.16811 7.5725 7.09659C7.75368 7.02924 7.92523 6.94197 8.08368 6.8369C8.25089 6.72602 8.40256 6.58474 8.81454 6.19246L12.8025 2.3951C13.0658 2.14436 13.0658 1.75164 12.8025 1.50091ZM3.10384 0.198799L7.62139 0.1988C7.98037 0.1988 8.27139 0.489814 8.27139 0.8488C8.27139 1.20778 7.98037 1.4988 7.62139 1.4988H3.12872C2.68468 1.4988 2.38889 1.49926 2.16162 1.51694C1.94106 1.5341 1.84127 1.56447 1.77961 1.59439C1.60764 1.67782 1.47379 1.80799 1.39196 1.96092C1.36621 2.00905 1.33616 2.09255 1.31873 2.29573C1.30056 2.50749 1.3 2.7847 1.3 3.20904V10.2898C1.3 10.7141 1.30056 10.9913 1.31873 11.2031C1.33616 11.4062 1.36621 11.4898 1.39196 11.5379C1.47379 11.6908 1.60764 11.821 1.77961 11.9044C1.84127 11.9343 1.94106 11.9647 2.16162 11.9819C2.38889 11.9995 2.68468 12 3.12872 12H10.5649C11.0089 12 11.3047 11.9995 11.532 11.9819C11.7525 11.9647 11.8523 11.9343 11.914 11.9044C12.0859 11.821 12.2198 11.6908 12.3016 11.5379C12.3274 11.4898 12.3574 11.4062 12.3748 11.2031C12.393 10.9913 12.3936 10.7141 12.3936 10.2898V6.7494C12.3936 6.39042 12.6846 6.0994 13.0436 6.0994C13.4026 6.0994 13.6936 6.39042 13.6936 6.7494V10.3165C13.6936 10.7068 13.6936 11.0402 13.6701 11.3142C13.6453 11.603 13.5909 11.8838 13.4478 12.1512C13.2326 12.5534 12.8925 12.8746 12.4814 13.074C12.2117 13.2049 11.9289 13.2549 11.6328 13.2779C11.3491 13.3 11.0024 13.3 10.5897 13.3H3.10384C2.6912 13.3 2.3445 13.3 2.06079 13.2779C1.76469 13.2549 1.48188 13.2049 1.21215 13.074C0.801117 12.8746 0.460968 12.5534 0.245746 12.1512C0.102647 11.8838 0.0482669 11.603 0.0234874 11.3142C-2.18097e-05 11.0402 -1.14979e-05 10.7068 5.42206e-07 10.3165V3.18234C-1.14979e-05 2.79203 -2.18097e-05 2.45858 0.0234874 2.1846C0.0482669 1.89581 0.102647 1.615 0.245745 1.34757C0.460968 0.945366 0.801117 0.624196 1.21215 0.424776C1.48188 0.293911 1.76469 0.243892 2.06079 0.220855C2.34451 0.198783 2.69121 0.19879 3.10384 0.198799Z" fill="#fff"/>
</svg>
