<svg width="20" height="20" viewBox="0 0 20 20" fill="none" xmlns="http://www.w3.org/2000/svg">
<path d="M14.5076 15.8333C13.8609 13.8341 12.6101 12.5958 10.9526 11.1649C12.5746 9.86825 14.5902 9.16336 16.6667 9.16658V2.49992H17.5067C17.9634 2.49992 18.3334 2.87075 18.3334 3.32742V16.6724C18.3319 16.8913 18.2443 17.1007 18.0897 17.2556C17.935 17.4104 17.7256 17.4982 17.5067 17.4999H2.49341C2.27409 17.4997 2.06383 17.4124 1.90882 17.2573C1.75382 17.1021 1.66675 16.8917 1.66675 16.6724V3.32742C1.66827 3.10857 1.75583 2.8991 1.91051 2.74427C2.06519 2.58943 2.27456 2.50166 2.49341 2.49992H5.00008V0.833252H6.66675V4.16659H3.33341V9.99992C7.68341 9.99992 11.3851 12.0516 12.7609 15.8333H14.5076ZM15.0001 0.833252V4.16659H8.33342V2.49992H13.3334V0.833252H15.0001ZM13.7501 8.33325C13.4186 8.33325 13.1006 8.20156 12.8662 7.96714C12.6318 7.73272 12.5001 7.41477 12.5001 7.08325C12.5001 6.75173 12.6318 6.43379 12.8662 6.19937C13.1006 5.96495 13.4186 5.83325 13.7501 5.83325C14.0816 5.83325 14.3995 5.96495 14.634 6.19937C14.8684 6.43379 15.0001 6.75173 15.0001 7.08325C15.0001 7.41477 14.8684 7.73272 14.634 7.96714C14.3995 8.20156 14.0816 8.33325 13.7501 8.33325Z" fill="white"/>
</svg>
