<svg width="22" height="18" viewBox="0 0 22 18" fill="none" xmlns="http://www.w3.org/2000/svg">
<path d="M20.032 2.72513V15.2826C20.0241 15.5264 20.1231 15.7586 20.3013 15.925L20.9705 16.5674C21.3031 16.8847 21.6357 17.2059 21.9604 17.5H13.7797L13.7955 17.4845C14.1479 17.1672 14.4924 16.8383 14.829 16.5209C15.031 16.3236 15.2329 16.1378 15.4348 15.9443C15.6368 15.7625 15.7516 15.5071 15.7437 15.24V5.24824C15.7437 5.15536 15.712 5.06636 15.6487 4.9967L15.324 4.61359L15.1062 5.10892C15.0904 5.13988 15.0785 5.17471 15.0626 5.20567L14.635 6.26212C13.1343 9.97712 11.6296 13.7115 10.121 17.4613C10.0259 17.4536 9.92693 17.4536 9.83189 17.4613C9.38841 16.5093 8.94493 15.5574 8.49748 14.6054L4.08243 5.19793C4.04284 5.10505 3.97552 5.02379 3.89237 4.96187L3.39741 4.59811V13.4909C3.38949 13.7076 3.40533 13.9243 3.44888 14.1371C3.50036 14.3384 3.59539 14.5241 3.73398 14.6828C4.40713 15.4916 5.21094 16.4474 6.04248 17.411C6.05436 17.4265 6.06623 17.442 6.07415 17.4574H0C0.00791937 17.442 0.0237581 17.4226 0.0356371 17.4071C0.641469 16.7067 1.23542 15.9985 1.83333 15.2903L2.32829 14.7021C2.59359 14.3964 2.71238 13.9978 2.66091 13.6031C2.65695 13.5567 2.65695 13.5064 2.66091 13.4599V11.4244C2.65299 8.9168 2.65299 6.4053 2.66091 3.89768C2.67279 3.49522 2.52628 3.1005 2.2491 2.80253C1.90857 2.41555 1.57595 2.0247 1.24334 1.63385C0.942405 1.27783 0.645428 0.925677 0.340533 0.577396C0.320734 0.554177 0.300936 0.527089 0.285097 0.5H6.32757C7.77682 3.61518 9.23002 6.73037 10.6793 9.83781L11.2455 11.0491C11.2613 11.0839 11.2772 11.1187 11.3009 11.1613L11.6415 11.8346L12.1404 10.6311C13.5223 7.2644 14.9042 3.88994 16.2941 0.5H22L21.9802 0.515479C21.5724 0.87537 21.1724 1.25461 20.7844 1.62224C20.622 1.77316 20.4636 1.92408 20.3013 2.07501C20.1192 2.24141 20.0202 2.47746 20.032 2.72513Z" fill="#A1A2B3"/>
</svg>
