<svg width="16" height="17" viewBox="0 0 16 17" fill="none" xmlns="http://www.w3.org/2000/svg">
<g clip-path="url(#clip0_1588_4495)">
<path d="M12.0208 11.5915L14.8762 14.4461L13.9328 15.3895L11.0782 12.5341C10.016 13.3856 8.69483 13.8487 7.3335 13.8468C4.0215 13.8468 1.3335 11.1588 1.3335 7.8468C1.3335 4.5348 4.0215 1.8468 7.3335 1.8468C10.6455 1.8468 13.3335 4.5348 13.3335 7.8468C13.3354 9.20814 12.8723 10.5293 12.0208 11.5915ZM10.6835 11.0968C11.5296 10.2267 12.0021 9.06042 12.0002 7.8468C12.0002 5.26814 9.9115 3.18014 7.3335 3.18014C4.75483 3.18014 2.66683 5.26814 2.66683 7.8468C2.66683 10.4248 4.75483 12.5135 7.3335 12.5135C8.54712 12.5154 9.71342 12.0429 10.5835 11.1968L10.6835 11.0968V11.0968Z" fill="#5A5D79"/>
</g>
<defs>
<clipPath id="clip0_1588_4495">
<rect width="16" height="16" fill="white" transform="translate(0 0.513489)"/>
</clipPath>
</defs>
</svg>
