<svg width="34" height="33" viewBox="0 0 34 33" fill="none" xmlns="http://www.w3.org/2000/svg">
<path d="M16.0633 2.50494C16.3873 1.63859 17.6127 1.6386 17.9367 2.50494L21.2119 11.2639C21.3524 11.6398 21.704 11.8952 22.1049 11.9127L31.4472 12.3209C32.3713 12.3613 32.75 13.5268 32.0261 14.1026L24.7079 19.9241C24.3939 20.174 24.2596 20.5873 24.3668 20.9739L26.8655 29.9852C27.1127 30.8765 26.1213 31.5968 25.35 31.0863L17.5519 25.9253C17.2173 25.7038 16.7827 25.7038 16.4481 25.9253L8.65001 31.0863C7.8787 31.5968 6.88731 30.8765 7.13446 29.9852L9.63317 20.9739C9.74039 20.5873 9.60609 20.174 9.29207 19.9241L1.97388 14.1026C1.25004 13.5268 1.62872 12.3613 2.55277 12.3209L11.8951 11.9127C12.296 11.8952 12.6476 11.6398 12.7881 11.2639L16.0633 2.50494Z" stroke="white" stroke-width="2"/>
</svg>
