<svg xmlns="http://www.w3.org/2000/svg" viewBox="0 0 74.5 61.89"><defs><style>.cls-1{fill:#fff;}</style></defs><g id="Graphic_Elements" data-name="Graphic Elements"><path class="cls-1" d="M57.94,61.89A5.82,5.82,0,0,1,54,60.32c-2-1.77-6.53-5-13.31-9.74C38.89,52.13,36,54.7,33,57.71c-1.52,1.53-3.48,3.17-5.14,2.35s-1.34-3-1.29-3.39l2.13-17.18.42-.36c9.7-8.62,20-18.09,25.37-23.49-7.08,4.31-20.76,12.87-34,21.24a2.48,2.48,0,0,1-1.67.23l-.21,0L2.3,31.76A3.33,3.33,0,0,1,.19,27.59a3.8,3.8,0,0,1,1.63-1.84c3.64-2.53,60.51-23,67-25.34a6.33,6.33,0,0,1,3.7-.19,2.75,2.75,0,0,1,1.78,1.9A6.64,6.64,0,0,1,74.5,4c0,.28,0,.55,0,.87s0,.37,0,.6C74,11.69,63,56.25,62.49,58.14a4.81,4.81,0,0,1-4.32,3.75ZM40.55,47.44l.79.54c7.29,5,12.11,8.55,14.3,10.44a3.24,3.24,0,0,0,2.44,1c1.48,0,2-1.79,2-1.86.11-.45,11.47-46.22,11.84-52.23,0-.25,0-.47,0-.66s0-.47,0-.69a5,5,0,0,0-.07-1,1.23,1.23,0,0,0-.14-.3h0l-.17-.07a4,4,0,0,0-2,.21C44.35,11.86,5.8,26,3.25,27.8c-.56.39-.67.55-.7.61-.21.62.42.92.61,1l16.06,5.23h.07c11.32-7.15,37.32-23.52,39.2-24.21a1.67,1.67,0,0,1,1.74.32,1.42,1.42,0,0,1,.37,1.41c-.79,2.76-21.18,21.12-30.1,29.05L29,57a3.05,3.05,0,0,0,0,.74A8.52,8.52,0,0,0,31.19,56c3.53-3.52,6.92-6.46,8.63-7.9ZM19.11,34.76h0Z"/></g></svg>