<svg width="28" height="20" viewBox="0 0 28 20" fill="none" xmlns="http://www.w3.org/2000/svg">
<path d="M22.9111 19.999H5.08652C3.73888 19.9951 2.44751 19.4445 1.49447 18.4676C0.541425 17.4906 0.00414609 16.1667 0 14.7849V5.21436C0.00414609 3.83259 0.541425 2.50864 1.49447 1.53169C2.44751 0.554741 3.73888 0.00418663 5.08652 0.000263214H22.9135C24.2611 0.00418663 25.5525 0.554741 26.5055 1.53169C27.4586 2.50864 27.9959 3.83259 28 5.21436V14.7849C27.9959 16.1671 27.4583 17.4914 26.5047 18.4685C25.5511 19.4455 24.2591 19.9958 22.9111 19.999ZM14.7845 7.17012L10.4402 4.41496V15.4356L14.7845 12.6804L19.1288 9.92528L14.7845 7.17012Z" fill="#A1A2B3"/>
</svg>
