<svg id="Layer_1" data-name="Layer 1" xmlns="http://www.w3.org/2000/svg" viewBox="0 0 155.59 155.59"><defs><style>.cls-1{fill:#f9dce2;}.cls-2{fill:#feabb7;}.cls-3{fill:#fee0e4;}.cls-4{fill:#fe0041;}</style></defs><circle class="cls-1" cx="77.8" cy="77.8" r="77.8"/><path class="cls-2" d="M112.78,50.72h.09V82.8a.11.11,0,0,1-.14-.06,1.3,1.3,0,0,1-.08-.62V51.4C112.65,51.17,112.6,50.92,112.78,50.72Z"/><path class="cls-3" d="M112.8,82.8h.07v.67h-.07A.49.49,0,0,1,112.8,82.8Z"/><path class="cls-4" d="M112.8,82.8v.68A38.39,38.39,0,0,1,107,101.73a43.21,43.21,0,0,1-9,10.33c-2,1.68-4,3.41-5.93,5.12l-6.2,5.31c-2.58,2.22-5.16,4.43-7.73,6.66-.28.25-.43.29-.75,0-3.13-2.72-6.28-5.42-9.43-8.13s-6.28-5.42-9.43-8.11c-1.5-1.29-3-2.57-4.39-4A40.06,40.06,0,0,1,43.69,90.11a35,35,0,0,1-1-8.21q0-15.33,0-30.65a.57.57,0,0,1,.48-.66L60.8,45l6.89-2.2h.17c0,.11-.07.2-.11.29q-2.27,4.32-4.52,8.63a1,1,0,0,1-.61.52l-10.5,3.32c-.48.16-1,.33-1.45.46s-.5.26-.5.66c0,8.29,0,16.58,0,24.87a30.27,30.27,0,0,0,3.9,15,32.41,32.41,0,0,0,7.11,8.78c3.78,3.29,7.58,6.55,11.38,9.82,1.65,1.42,3.3,2.83,4.94,4.26.23.19.34.17.55,0,5.36-4.62,10.73-9.21,16.08-13.85a33,33,0,0,0,8-10.17,30.66,30.66,0,0,0,3-9.35,57,57,0,0,0,.3-8.26c0-7.05,0-14.09,0-21.13a.58.58,0,0,0-.5-.66c-1.87-.57-3.74-1.16-5.61-1.75l-6.53-2a.89.89,0,0,1-.58-.49c-1.48-2.84-3-5.68-4.46-8.52-.06-.12-.2-.2-.19-.37.3-.08.55.09.81.17l8,2.51L110.62,50l2.16.7q0,7,0,14.07v17.5C112.79,82.46,112.8,82.63,112.8,82.8Z"/><path class="cls-4" d="M61.66,94.53a23.78,23.78,0,0,1-1.95-3,21.73,21.73,0,0,1-2.4-6.92,24.11,24.11,0,0,1-.25-2.56,1,1,0,0,1,.17-.51l6.49-12.37q2.63-5,5.24-10l6.3-12,2.16-4.13.22-.36,1.7,3.16q5.05,9.41,10.1,18.8,4.41,8.2,8.83,16.41a3.25,3.25,0,0,1,.16,2A22,22,0,0,1,94.17,94.2a.68.68,0,0,1-.12.11l-1.67-3.1L87,81.1l-5.1-9.52q-1.95-3.63-3.92-7.26c-.05-.1-.06-.25-.19-.26s-.17.17-.23.27Q71.43,75.91,65.35,87.5Z"/><path class="cls-4" d="M77.68,79.8l3.25,6.46Q84.31,93,87.67,99.7a.47.47,0,0,1-.13.7c-3.14,2.71-6.2,5.51-9.37,8.19-.26.21-.42.3-.73,0-3.24-2.73-6.5-5.43-9.65-8.26a.45.45,0,0,1-.12-.64q3.66-7.24,7.29-14.5,1.26-2.49,2.5-5C77.52,80.11,77.59,80,77.68,79.8Z"/></svg>