<svg id="Layer_1" data-name="Layer 1" xmlns="http://www.w3.org/2000/svg" viewBox="0 0 155.59 155.59"><defs><style>.cls-1{fill:#dff1ff;}.cls-2{fill:#1c2029;}</style></defs><circle class="cls-1" cx="77.8" cy="77.8" r="77.8"/><path class="cls-2" d="M59.57,40V58.42H40V50.35A10.37,10.37,0,0,1,50.35,40Z"/><rect class="cls-2" x="39.98" y="69.26" width="19.59" height="17.09"/><path class="cls-2" d="M59.57,97.18v18.44H50.35A10.37,10.37,0,0,1,40,105.25V97.18Z"/><rect class="cls-2" x="70.41" y="97.18" width="17.09" height="18.44"/><path class="cls-2" d="M115.62,97.18v8.07a10.37,10.37,0,0,1-10.37,10.37H98.33V97.18Z"/><path class="cls-2" d="M115.62,50.35v36H70.41V40h34.84A10.37,10.37,0,0,1,115.62,50.35Z"/></svg>