<svg id="Layer_1" data-name="Layer 1" xmlns="http://www.w3.org/2000/svg" viewBox="0 0 155.59 155.59"><defs><style>.cls-1{fill:#f4e0ce;}.cls-2{fill:#ff9700;}.cls-3{fill:#e97709;}.cls-4{fill:#393939;}.cls-5{fill:#fb8818;}.cls-6{fill:#985726;}.cls-7{fill:#f98a04;}.cls-8{fill:#fc8a03;}.cls-9{fill:#fb8917;}.cls-10{fill:#ff9800;}.cls-11{fill:#e3cdc1;}.cls-12{fill:#fa7c00;}.cls-13{fill:#d1bcb0;}</style></defs><circle class="cls-1" cx="77.8" cy="77.8" r="77.8"/><g id="Group_40071" data-name="Group 40071"><path id="Path_70153" data-name="Path 70153" class="cls-2" d="M127.57,100.14l-5.9,22.28L99,115.1l-3.08,2.43-10.48,4.71-7.66.18-7.65-.18-10.48-4.71-3.08-2.43-22.66,7.32L28,100.14,35.5,79l-4.21-5.3,1.83-1.58-2.84-2.62,2.1-1.89-2.62-2.4L31.51,64,28.78,47.9l4.7-14.72,29.8,12.59h29l29.81-12.59,4.7,14.72L124.06,64l1.75,1.25-2.63,2.4,2.11,1.89-2.84,2.62,1.83,1.58L120.07,79Z"/><g id="Group_40070" data-name="Group 40070"><path id="Path_70154" data-name="Path 70154" class="cls-3" d="M71.46,81.91,68.67,92.63l-3-6.2-7.08,3.25-8.9-8.6Z"/><path id="Path_70155" data-name="Path 70155" class="cls-3" d="M58.84,98.77,56.6,115.1l-10-16Z"/><path id="Path_70156" data-name="Path 70156" class="cls-4" d="M68.67,92.63,58.84,90l-.63-.16.36-.17h0l7.08-3.24Z"/><path id="Path_70157" data-name="Path 70157" class="cls-5" d="M58.84,90v8.75L49.67,81.66l.58.52,8.32,7.5-.35.17Z"/><path id="Path_70158" data-name="Path 70158" class="cls-6" d="M69.76,60.73,60.37,68.8l-.26.11L35.54,79l-4.21-5.3,1.83-1.58-2.84-2.62,2.1-1.88L29.8,65.2,31.55,64,28.82,47.9l4.7-14.72Z"/><path id="Path_70159" data-name="Path 70159" class="cls-7" d="M69.76,60.73,33.51,33.18l29.8,12.59Z"/><path id="Path_70160" data-name="Path 70160" class="cls-8" d="M56.6,115.1,34,122.41,28,100.14l18.57-1.09Z"/><path id="Path_70161" data-name="Path 70161" class="cls-8" d="M70.74,105.46,56.6,115.1l2.24-16.33Z"/><path id="Path_70162" data-name="Path 70162" class="cls-9" d="M72.85,104.43,68.67,92.64l2.79-10.73Z"/><path id="Path_70163" data-name="Path 70163" class="cls-10" d="M72.86,104.43l-2.11,1-11.9-6.69V90l9.82,2.62Z"/><path id="Path_70164" data-name="Path 70164" class="cls-11" d="M70.74,105.47l-.92,7.23-.17,1.37v4.66l-10-1.89-3-1.73Z"/><path id="Path_70165" data-name="Path 70165" class="cls-10" d="M59.05,70.14,49.68,81.08l8.9,8.6h0l-8.32-7.5-.58-.53,9.17,17.12L46.62,99l-18.56,1.09L35.54,79,60.12,68.9l.25-.11,9.39-8.07Z"/><path id="Path_70166" data-name="Path 70166" class="cls-12" d="M71.46,81.91l-21.78-.82,9.37-11,10.71-9.41,0,.4Z"/><path id="Path_70167" data-name="Path 70167" class="cls-13" d="M99,115.1l-3.08,2.43-10.48,4.71-7.66.18-7.66-.18-10.47-4.71-3.08-2.43,3,1.73,10,1.89v-4.66l1.11-.9h14.1l1.11.9v4.66l10-1.89Z"/><path id="Path_70168" data-name="Path 70168" class="cls-3" d="M84.16,81.91,87,92.63l3-6.2L97,89.68l8.9-8.6Z"/><path id="Path_70169" data-name="Path 70169" class="cls-3" d="M96.78,98.77,99,115.1l10-16Z"/><path id="Path_70170" data-name="Path 70170" class="cls-4" d="M87,92.63,96.78,90l.63-.16-.36-.17h0L90,86.44Z"/><path id="Path_70171" data-name="Path 70171" class="cls-5" d="M96.78,90v8.75L106,81.66l-.58.52-8.32,7.5.36.17Z"/><path id="Path_70172" data-name="Path 70172" class="cls-6" d="M85.86,60.73l9.39,8.07.25.11L120.08,79l4.2-5.3-1.83-1.58,2.84-2.62-2.1-1.88,2.62-2.41L124.06,64l2.73-16.05-4.7-14.72Z"/><path id="Path_70173" data-name="Path 70173" class="cls-7" d="M85.86,60.73l36.25-27.55L92.3,45.77Z"/><path id="Path_70174" data-name="Path 70174" class="cls-8" d="M99,115.1l22.65,7.31,5.91-22.27L109,99.05Z"/><path id="Path_70175" data-name="Path 70175" class="cls-8" d="M84.88,105.46,99,115.1,96.78,98.77Z"/><path id="Path_70176" data-name="Path 70176" class="cls-9" d="M82.77,104.43,87,92.64,84.16,81.91Z"/><path id="Path_70177" data-name="Path 70177" class="cls-10" d="M82.77,104.43l2.11,1,11.9-6.69V90L87,92.63Z"/><path id="Path_70178" data-name="Path 70178" class="cls-4" d="M86,114.06l-1.11-.9H70.75l-1.11.9.17-1.37.92-7.23,2.12-1h9.91l2.11,1,.92,7.23Z"/><path id="Path_70179" data-name="Path 70179" class="cls-11" d="M84.88,105.47l.92,7.23.17,1.37v4.66l10-1.89,3-1.73Z"/><path id="Path_70180" data-name="Path 70180" class="cls-10" d="M96.57,70.14l9.37,10.94L97,89.68h0l8.32-7.5.58-.53L96.77,98.77,109,99l18.56,1.09L120.08,79,95.5,68.9l-.25-.11-9.39-8.07Z"/><path id="Path_70181" data-name="Path 70181" class="cls-12" d="M84.16,81.91l21.78-.82-9.37-11-10.7-9.41,0,.4Z"/><path id="Path_70182" data-name="Path 70182" class="cls-2" d="M92.29,45.77l-6.44,15,0,.4L84.14,81.92l-1.39,22.51H72.84L71.45,81.92,69.78,61.13l0-.4-6.45-15Z"/></g></g></svg>