<svg id="Layer_1" data-name="Layer 1" xmlns="http://www.w3.org/2000/svg" viewBox="0 0 157.85 157.81"><defs><style>.cls-1{fill:#0098a5;}.cls-2{fill:#fefefe;}</style></defs><path class="cls-1" d="M84.4,157.79l-11,0C31.35,154.67-2.33,119.06.13,74.38a79,79,0,0,1,157.72-1c0,3.87,0,7.74,0,11.61C154.54,124.3,123.16,155.41,84.4,157.79Z"/><path class="cls-2" d="M72.34,75.4H102c3.43,0,3.52-.12,2.67-3.33C101.42,59.67,87,50.6,74.41,53.3c-2.77.59-4.2.15-5.56-2.5A174,174,0,0,0,60,35.7c-1.38-2.14-.31-2.41,1.26-3,16.79-6.15,32.59-4,47,6.41,18.68,13.55,24.48,36.2,17.41,57.08-.51,1.52-.69,2.48-2.79,1.58-16.62-7.15-33.3-14.15-49.95-21.2a7.94,7.94,0,0,1-.7-.4Z"/><path class="cls-2" d="M80.05,105.14a17.23,17.23,0,0,0,2.29-.19c1.79-.35,2.88.15,3.84,1.89,3,5.45,6.24,10.79,9.5,16.11,1.11,1.8.72,2.45-1.21,3.12-28.36,9.71-60.39-9.59-64.59-39.1A54,54,0,0,1,32.09,63.1c.47-1.5,1.12-1.69,2.36-1.16,6,2.59,12,5.24,18,7.71,1.66.68,1.32,1.54,1.06,2.81C52.1,79.27,52.42,85.91,56.08,92,61.46,101,69.42,105.42,80.05,105.14Z"/></svg>