<svg id="Layer_1" data-name="Layer 1" xmlns="http://www.w3.org/2000/svg" viewBox="0 0 155.59 155.59"><defs><style>.cls-1{fill:#c9ecff;}.cls-2{fill:#3e6c9e;}.cls-3{fill:#4cb4de;}.cls-4{fill:#003546;}.cls-5{fill:#35557b;}.cls-6{fill:#00435c;}.cls-7{fill:#219dbc;}.cls-8{fill:#50a0c4;}.cls-9{fill:#5ca3c3;}.cls-10{fill:#50a2c7;}</style></defs><circle class="cls-1" cx="77.8" cy="77.8" r="77.8"/><path class="cls-2" d="M107.82,86.73c.64.12.46.73.52,1.08,2.3,13.09-1.84,23.85-11.89,32.43a1.51,1.51,0,0,1-.35.2c-3.09,1.59-6.27,2.1-9.51.57a12.86,12.86,0,0,1-5.68-5.8,33,33,0,0,1-3.32-9.93,1.51,1.51,0,0,1,0-.79c4.5-2.72,9-5.36,13.57-8,5.21-3.1,10.42-6.16,15.63-9.25A3.08,3.08,0,0,1,107.82,86.73Z"/><path class="cls-3" d="M77.64,104.52l.17.61a25.73,25.73,0,0,1-4.87,12.69,10.19,10.19,0,0,1-13.06,2.67c-.21-.11-.45-.15-.65-.27a33.45,33.45,0,0,1-12.15-20.4C47,99.45,47,99.07,47,98.7a2.69,2.69,0,0,0-.07-1l-.16-1.07c.06-1.57,0-3.13,0-4.7l.14-1.07c.18-.34,0-.74.16-1.07a6.39,6.39,0,0,1,.65-3,2.57,2.57,0,0,1,1.34.49c9.13,5.44,18.3,10.82,27.43,16.26C76.91,103.81,77.42,104,77.64,104.52Z"/><path class="cls-4" d="M77.64,104.52,47.7,86.8l9.43-4.16,1-.47c.42-.17.72.13,1,.31,5.72,3.34,11.4,6.72,17.1,10.08a5.14,5.14,0,0,0,1.54.8c2.45-1.32,4.8-2.81,7.2-4.21,3.76-2.2,7.5-4.45,11.27-6.63.36-.2.7-.62,1.21-.32l10.32,4.53a21.82,21.82,0,0,1-3.81,2.4c-8.47,5-17,10-25.44,15A1.45,1.45,0,0,1,77.64,104.52Z"/><path class="cls-2" d="M77.84,28.72c.31.05.34.35.46.55q14,23.23,28,46.47c.15.25.64.49.27.93a16.62,16.62,0,0,1-3.9-1.61c-7.2-3.28-14.41-6.51-21.6-9.82a18.57,18.57,0,0,1-3.22-1.6,1,1,0,0,1-.27-.49,7.79,7.79,0,0,1-.09-1.74V30.83A4.13,4.13,0,0,1,77.84,28.72Z"/><path class="cls-3" d="M77.84,28.72q0,17.36,0,34.7c-.12.43-.51.53-.84.68q-8.25,3.77-16.5,7.5-5.06,2.28-10.12,4.6c-.43.2-.87.64-1.41.21,1.46-2.83,3.27-5.45,4.91-8.16Q64,51.35,74.25,34.46A56.8,56.8,0,0,1,77.84,28.72Z"/><path class="cls-5" d="M49,76.41a7.36,7.36,0,0,0,2.55-1q13.17-6,26.32-12l.22.2a3.25,3.25,0,0,1,.13,1.12q0,13.61,0,27.23a2.88,2.88,0,0,1-.34,1.79L64.9,86.12l-6.75-4c-2.81-1.68-5.63-3.35-8.43-5C49.42,77,49,76.9,49,76.41Z"/><path class="cls-6" d="M77.83,93.76q0-14.49,0-29c0-.39-.15-.83.2-1.17L88,68.1l17.71,8a1.79,1.79,0,0,1,.87.53l-8.44,5c-.23.14-.51.2-.64.48-2,.92-3.75,2.12-5.61,3.21l-13.45,8C78.23,93.49,78,93.63,77.83,93.76Z"/><path class="cls-7" d="M59.23,120.22a3,3,0,0,1,1.37.37c5,2.06,9.69.68,12.73-3.76a28.61,28.61,0,0,0,4.3-11.24,2.58,2.58,0,0,1,.18-.46,41.14,41.14,0,0,0,2.1,7.38,17.64,17.64,0,0,0,4.61,6.84,9.36,9.36,0,0,0,9.32,1.76,10.49,10.49,0,0,1,2.26-.67,27.37,27.37,0,0,1-11.9,5.73,29.14,29.14,0,0,1-24.27-5.38C59.69,120.61,59.46,120.41,59.23,120.22Z"/><path class="cls-8" d="M46.75,92a19,19,0,0,1,0,4.7A26.35,26.35,0,0,1,46.75,92Z"/><path class="cls-9" d="M47.05,89.81c0,.36.14.75-.16,1.07A1.34,1.34,0,0,1,47.05,89.81Z"/><path class="cls-10" d="M46.89,97.72a.84.84,0,0,1,.07,1A1.82,1.82,0,0,1,46.89,97.72Z"/></svg>