<svg id="Layer_1" data-name="Layer 1" xmlns="http://www.w3.org/2000/svg" viewBox="0 0 155.59 155.59"><defs><style>.cls-1{fill:#dff1ff;}</style></defs><circle class="cls-1" cx="77.8" cy="77.8" r="77.8"/><path d="M104.8,69.14a2.18,2.18,0,0,0-1.75-2.54,38.64,38.64,0,0,0-3.92-1.09.88.88,0,0,1-.81-1c0-2.33.06-4.68,0-7-.23-8.1-4-14.16-11.07-17.92A19.36,19.36,0,0,0,67.53,40,19.47,19.47,0,0,0,57.47,55.74c-.27,2.91-.14,5.87-.15,8.81,0,.59-.19.79-.75.94-1.41.35-2.79.78-4.17,1.23a2.23,2.23,0,0,0-1.63,2.44c0,6.45,0,12.9,0,19.35s0,13.16,0,19.73a1.16,1.16,0,0,0,.91,1.29c8.39,3,16.77,5.93,25.17,8.87a2.19,2.19,0,0,0,1.34,0c8.56-2.94,17.11-5.92,25.67-8.86a1.25,1.25,0,0,0,1-1.42Q104.79,88.63,104.8,69.14ZM66.26,54.77a11.83,11.83,0,0,1,15.86-8.39c4.69,1.77,7.62,6.07,7.77,11.49,0,1.86,0,3.73,0,5.59,0,.75-.29.85-1,.83C83.73,64.15,78.52,64,73.31,64c-2.46,0-4.91.2-7.35.31-.07-.13-.15-.21-.15-.29C65.92,60.92,65.63,57.74,66.26,54.77ZM95.9,89.12c0,4,0,8,0,12a1.09,1.09,0,0,1-.81,1.25c-5.57,2-11.12,4.11-16.7,6.12a2.85,2.85,0,0,1-1.78,0c-5.72-2-11.41-4.08-17.11-6.1-.68-.24-1-.51-1-1.31q0-12,0-24.09c0-.91.34-1.41,1.15-1.53,2.27-.36,4.54-.78,6.83-.94q4.92-.34,9.85-.35A98.37,98.37,0,0,1,94,75.3c.25,0,.49.12.74.18.86.19,1.19.65,1.18,1.6C95.87,81.09,95.9,85.11,95.9,89.12Z"/></svg>