<svg id="Layer_1" data-name="Layer 1" xmlns="http://www.w3.org/2000/svg" viewBox="0 0 155.59 155.59"><defs><style>.cls-1{fill:#daedfe;}.cls-2{fill:#0599fc;}</style></defs><circle class="cls-1" cx="77.8" cy="77.8" r="77.8"/><path class="cls-2" d="M53.85,113.16a3.23,3.23,0,0,1-2.52-1.09L21.15,82.51c-1.48-1.45-1.46-2.84,0-4.27,1.9-1.82,3.78-3.67,5.67-5.5s3-1.88,5,.06q9.7,9.47,19.38,19c2.31,2.26,2.33,2.29,4.71,0Q65.54,82.37,75.14,73c2.3-2.24,3-2.22,5.4.09,6.57,6.42,13.18,12.8,19.66,19.31,1.46,1.46,2.32,1.25,3.64-.07,6.58-6.53,13.22-13,19.85-19.45,2.12-2.06,3-2,5.09,0l5,4.9c2.34,2.3,2.34,3.08,0,5.35l-18.73,18.32c-3.56,3.47-7.1,7-10.69,10.39-2,1.92-2.9,1.87-4.92-.11L79.93,92.58c-2.16-2.12-2.16-2.11-4.26-.06q-9.58,9.42-19.2,18.81C55.62,112.16,54.87,113.2,53.85,113.16Z"/><path class="cls-2" d="M78.45,42.39c13.55.31,25.49,5.53,35.28,15.68,1.34,1.39,1.48,2.71,0,4.11-2.16,2.1-4.37,4.15-6.43,6.33-1.4,1.48-2.43,1.25-3.73-.12-4.46-4.73-9.6-8.42-16-10.18-12.82-3.56-24.1-.73-33.84,8.27-4.12,3.82-4.08,3.87-8.2-.13-1.3-1.26-2.59-2.52-3.87-3.8-1.68-1.68-1.74-2.68-.06-4.39A50.52,50.52,0,0,1,59.83,45.83,52,52,0,0,1,78.45,42.39Z"/></svg>