<svg xmlns="http://www.w3.org/2000/svg" width="11.933" height="11.365" viewBox="0 0 11.933 11.365">
  <g id="Group_36708" data-name="Group 36708" transform="translate(-13298 1000)">
    <g id="Group_36699" data-name="Group 36699" transform="translate(13298 -1000)">
      <path id="Path_41260" data-name="Path 41260" d="M-2054.159,1486.642h2a1.508,1.508,0,0,0,1.456,1.122,1.508,1.508,0,0,0,1.454-1.122h6.257a.383.383,0,0,0,.382-.383.382.382,0,0,0-.382-.382h-6.257a1.507,1.507,0,0,0-1.454-1.122,1.507,1.507,0,0,0-1.456,1.122h-2a.382.382,0,0,0-.382.382.383.383,0,0,0,.382.383Zm3.456-1.122a.74.74,0,0,1,.739.74.74.74,0,0,1-.739.74.741.741,0,0,1-.74-.74.741.741,0,0,1,.74-.74Zm0,0" transform="translate(2054.541 -1484.755)" fill="#0768ff"/>
      <path id="Path_41261" data-name="Path 41261" d="M-2042.991,1493.873h-2.549a1.507,1.507,0,0,0-1.455-1.122,1.506,1.506,0,0,0-1.455,1.122h-5.709a.383.383,0,0,0-.382.383.382.382,0,0,0,.382.382h5.709a1.507,1.507,0,0,0,1.455,1.122,1.507,1.507,0,0,0,1.455-1.122h2.549a.382.382,0,0,0,.382-.382.383.383,0,0,0-.382-.383Zm-4,1.122a.74.74,0,0,1-.739-.74.74.74,0,0,1,.739-.74.74.74,0,0,1,.739.74.74.74,0,0,1-.739.74Zm0,0" transform="translate(2054.541 -1488.573)" fill="#0768ff"/>
      <path id="Path_41262" data-name="Path 41262" d="M-2042.991,1501.869h-6.257a1.508,1.508,0,0,0-1.454-1.122,1.508,1.508,0,0,0-1.456,1.122h-2a.383.383,0,0,0-.382.382.382.382,0,0,0,.382.382h2a1.507,1.507,0,0,0,1.456,1.122,1.507,1.507,0,0,0,1.454-1.122h6.257a.382.382,0,0,0,.382-.382.383.383,0,0,0-.382-.382Zm-7.712,1.122a.74.74,0,0,1-.74-.74.741.741,0,0,1,.74-.739.74.74,0,0,1,.739.739.74.74,0,0,1-.739.74Zm0,0" transform="translate(2054.541 -1492.391)" fill="#0768ff"/>
    </g>
  </g>
</svg>