<svg width="683" height="1243" viewBox="0 0 683 1243" fill="none" xmlns="http://www.w3.org/2000/svg">
<path d="M677.49 1009.98C673.727 1016.42 668.309 1021.77 661.785 1025.48C655.26 1029.19 647.86 1031.13 640.335 1031.1H384.098V1200.11C384.098 1211.32 379.599 1222.07 371.59 1229.99C363.581 1237.91 352.719 1242.36 341.392 1242.36C330.066 1242.36 319.203 1237.91 311.194 1229.99C303.185 1222.07 298.686 1211.32 298.686 1200.11V1031.1H42.4493C34.9746 1031.06 27.6427 1029.07 21.1863 1025.35C14.7298 1021.62 9.37514 1016.28 5.6573 1009.87C1.93945 1003.45 -0.011308 996.183 4.93093e-05 988.787C0.0114066 981.392 1.98448 974.129 5.72201 967.725L142.382 735.337H102.238C94.7893 735.324 87.4736 733.384 81.017 729.71C74.5604 726.035 69.1875 720.753 65.4317 714.389C61.6759 708.025 59.6678 700.8 59.6067 693.431C59.5456 686.062 61.4337 678.805 65.0835 672.381L170.568 481.823L194.483 439.571H162.026C154.489 439.569 147.085 437.594 140.569 433.846C134.052 430.097 128.655 424.709 124.924 418.229C121.194 411.748 119.264 404.407 119.329 396.949C119.395 389.492 121.455 382.184 125.299 375.769L304.665 80.0032C308.446 73.6982 313.821 68.4752 320.26 64.8474C326.699 61.2196 333.982 59.312 341.392 59.312C348.802 59.312 356.085 61.2196 362.524 64.8474C368.964 68.4752 374.338 73.6982 378.12 80.0032L557.485 375.769C561.33 382.184 563.389 389.492 563.455 396.949C563.521 404.407 561.591 411.748 557.86 418.229C554.13 424.709 548.732 430.097 542.216 433.846C535.699 437.594 528.296 439.569 520.758 439.571H486.166L512.217 481.823L619.836 672.381C623.588 678.962 625.486 686.419 625.335 693.973C625.183 701.528 622.987 708.904 618.975 715.333C614.962 721.762 609.281 727.009 602.522 730.528C595.763 734.046 588.175 735.707 580.547 735.337H540.403L677.063 967.725C680.876 974.111 682.923 981.377 682.998 988.794C683.073 996.211 681.173 1003.52 677.49 1009.98Z" fill="#43A047"/>
<path d="M557.912 418.022C554.204 424.548 548.81 429.983 542.282 433.769C535.753 437.556 528.325 439.558 520.758 439.571H162.026C154.489 439.569 147.085 437.594 140.569 433.846C134.052 430.097 128.655 424.709 124.924 418.229C121.194 411.748 119.264 404.407 119.329 396.949C119.395 389.492 121.455 382.184 125.299 375.769L304.665 80.0032C308.446 73.6982 313.821 68.4752 320.26 64.8474C326.699 61.2196 333.982 59.312 341.392 59.312C348.802 59.312 356.085 61.2196 362.524 64.8474C368.964 68.4752 374.338 73.6982 378.12 80.0032L557.485 375.769C561.299 382.156 563.346 389.422 563.421 396.839C563.496 404.256 561.596 411.562 557.912 418.022V418.022Z" fill="#66BB6A"/>
<path d="M677.49 1009.98C673.727 1016.42 668.309 1021.77 661.785 1025.48C655.26 1029.19 647.86 1031.13 640.335 1031.1H42.4493C34.9746 1031.06 27.6427 1029.07 21.1863 1025.35C14.7298 1021.62 9.37514 1016.28 5.6573 1009.87C1.93945 1003.45 -0.011308 996.183 4.93093e-05 988.787C0.0114066 981.392 1.98448 974.129 5.72201 967.725L117.612 777.589L142.382 735.337H540.403L565.172 777.589L677.063 967.725C680.876 974.111 682.923 981.377 682.998 988.794C683.073 996.211 681.173 1003.52 677.49 1009.98Z" fill="#2E7D32"/>
<path d="M384.098 1031.1V1200.11C384.098 1211.32 379.599 1222.07 371.59 1229.99C363.581 1237.91 352.719 1242.36 341.392 1242.36C330.066 1242.36 319.203 1237.91 311.194 1229.99C303.185 1222.07 298.686 1211.32 298.686 1200.11V1031.1H384.098Z" fill="#263238"/>
<path d="M369.246 79.6624C365.975 81.788 344.987 68.314 340.967 68.2844C336.948 68.255 315.723 81.4191 312.49 79.2457C309.257 77.0724 316.858 54.7497 315.646 51.2629C314.435 47.7761 294.114 33.4804 295.387 30.0117C296.66 26.543 322.346 26.2208 325.617 24.0952C328.888 21.9699 337.553 -0.0293295 341.573 2.93587e-05C345.593 0.0296435 353.867 22.1532 357.1 24.3265C360.332 26.4996 386.009 27.1991 387.221 30.6859C388.432 34.1727 367.86 48.1682 366.587 51.6369C365.314 55.1056 372.517 77.5368 369.246 79.6624Z" fill="#F8B84E"/>
</svg>
